<svg width="142" height="127" viewBox="0 0 142 127" fill="none" xmlns="http://www.w3.org/2000/svg">
<path d="M129.428 123.035L70.7138 121.481L11.9994 123.035C2.6611 107.166 10.5763 84.889 28.2453 66.8124C37.2067 57.6433 48.4142 53.8049 57.2832 52.2511C63.3293 51.1896 68.2908 51.1896 70.7138 51.2819C72.9445 51.1973 77.3368 51.1896 82.7444 52.0203C91.8134 53.4126 103.744 57.1587 113.182 66.8124C130.851 84.889 138.774 107.166 129.428 123.035Z" fill="#003F7D"/>
<path d="M129.428 123.035L70.7138 121.481L11.9994 123.035C2.6611 107.166 10.5763 84.889 28.2453 66.8124C37.2067 57.6433 48.4142 53.8049 57.2833 52.2511C63.3293 51.1896 68.2908 51.1896 70.7138 51.2819C72.9445 51.1973 77.3368 51.1896 82.7444 52.0203C91.8134 53.4126 103.744 57.1587 113.182 66.8124C130.851 84.889 138.774 107.166 129.428 123.035Z" stroke="black" stroke-width="0.9778" stroke-miterlimit="10" stroke-linecap="round" stroke-linejoin="round"/>
<path d="M10.2764 94.8119C10.2764 94.8119 16.0917 88.812 23.4608 91.0351C30.6145 93.1889 35.3298 102.243 34.5991 107.25C34.2222 109.866 30.3915 111.289 26.33 108.173C22.2762 105.058 10.2764 94.8119 10.2764 94.8119Z" fill="#1F1F1F"/>
<path d="M10.2764 94.8119C10.2764 94.8119 16.0917 88.812 23.4608 91.0351C30.6145 93.1889 35.3298 102.243 34.5991 107.25C34.2222 109.866 30.3915 111.289 26.33 108.173C22.2762 105.058 10.2764 94.8119 10.2764 94.8119Z" stroke="black" stroke-width="0.9778" stroke-miterlimit="10" stroke-linecap="round" stroke-linejoin="round"/>
<path d="M131.136 94.8119C131.136 94.8119 125.321 88.812 117.951 91.0351C110.798 93.1889 106.082 102.243 106.813 107.25C107.19 109.866 111.021 111.289 115.082 108.173C119.144 105.058 131.136 94.8119 131.136 94.8119Z" fill="#1F1F1F"/>
<path d="M131.136 94.8119C131.136 94.8119 125.321 88.812 117.951 91.0351C110.798 93.1889 106.082 102.243 106.813 107.25C107.19 109.866 111.021 111.289 115.082 108.173C119.144 105.058 131.136 94.8119 131.136 94.8119Z" stroke="black" stroke-width="0.9778" stroke-miterlimit="10" stroke-linecap="round" stroke-linejoin="round"/>
<path d="M72.3138 61.5894C71.7523 61.6279 71.16 61.6509 70.5369 61.6509C70.0446 61.6509 69.5677 61.6432 69.1139 61.6125C56.7218 60.9894 57.2833 52.2511 57.2833 52.2511C63.3293 51.1896 68.2908 51.1896 70.7139 51.2819C72.9446 51.1973 77.3368 51.1896 82.7444 52.0203C82.7521 52.0203 84.2521 60.7971 72.3138 61.5894Z" fill="#1F1F1F"/>
<path d="M77.7137 45.8513V55.0589C77.7137 55.0589 75.5445 58.0357 70.0446 58.0357C64.5447 58.0357 62.3678 55.0589 62.3678 55.0589V45.8513H77.7137Z" fill="white"/>
<path d="M77.7137 45.8513V55.0589C77.7137 55.0589 75.5445 58.0357 70.0446 58.0357C64.5447 58.0357 62.3678 55.0589 62.3678 55.0589V45.8513H77.7137Z" stroke="black" stroke-width="0.9778" stroke-miterlimit="10" stroke-linecap="round" stroke-linejoin="round"/>
<path d="M85.1135 31.4822C85.1135 42.3974 78.2059 50.6819 69.683 50.6819C61.1601 50.6819 54.2525 42.3974 54.2525 31.4822C54.2525 20.567 61.1601 10.021 69.683 10.021C78.2059 10.021 85.1135 20.5593 85.1135 31.4822Z" fill="white"/>
<path d="M85.1135 31.4822C85.1135 42.3974 78.2059 50.6818 69.683 50.6818C61.1601 50.6818 54.2525 42.3974 54.2525 31.4822C54.2525 20.567 61.1601 10.021 69.683 10.021C78.2059 10.021 85.1135 20.5593 85.1135 31.4822Z" stroke="black" stroke-width="0.9778" stroke-miterlimit="10" stroke-linecap="round" stroke-linejoin="round"/>
<path d="M88.152 27.2515C88.052 27.5361 87.952 27.79 87.8443 28.0285C87.5289 28.7746 87.2212 29.313 86.9828 29.6823C86.6828 30.1438 86.475 30.3438 86.475 30.3438C86.352 30.4053 86.2289 30.4592 86.1135 30.513C85.9212 30.6053 85.7289 30.6899 85.5289 30.7746C85.3905 30.8361 85.252 30.8899 85.1136 30.9438C84.9905 30.9976 84.8674 31.0438 84.7443 31.0899C70.3061 36.4591 60.0294 19.1286 60.0294 19.1286C59.9524 26.9669 56.1987 31.5361 54.7833 32.9745C54.5756 33.1899 54.4141 33.3361 54.3295 33.413C54.2833 33.4591 54.2525 33.4745 54.2525 33.4745C53.9756 33.1438 53.7141 32.813 53.4602 32.4822C53.4064 32.4053 53.3526 32.3361 53.2987 32.2668C52.9987 31.8592 52.7064 31.4515 52.4449 31.0438C52.0064 30.3823 51.6218 29.7207 51.2757 29.0592C50.968 28.4669 50.6911 27.8823 50.4603 27.29C49.6988 25.4285 49.2834 23.5824 49.1603 21.7901C48.4142 11.1134 57.9294 2.20581 66.8062 1.33659C78.8137 0.159691 81.1598 6.21343 81.1598 6.21343C81.1598 6.21343 81.1675 6.21344 81.1828 6.20574C82.7597 5.78267 89.2904 7.45188 89.4673 17.3286C89.5442 22.0516 88.875 25.2208 88.152 27.2515Z" fill="#3A3A3A"/>
<path d="M52.8911 34.8128L50.8834 34.3205L51.4988 31.7975C51.2603 30.0437 49.9834 18.4516 56.0987 11.3286C59.1833 7.73638 63.6217 5.91333 69.2908 5.91333C75.6753 5.91333 80.5291 7.92868 83.7136 11.8978C89.9981 19.7362 87.4366 32.2975 87.1213 33.7052L85.1059 33.259C85.3982 31.9513 87.7828 20.2746 82.0983 13.1901C79.3214 9.73634 75.0138 7.98253 69.2908 7.98253C64.2601 7.98253 60.3525 9.55942 57.6756 12.6748C51.8065 19.4977 53.5603 31.5744 53.5834 31.6975L53.6141 31.8975L52.8911 34.8128Z" fill="white"/>
<path d="M52.8911 34.8128L50.8834 34.3205L51.4988 31.7975C51.2603 30.0437 49.9834 18.4516 56.0987 11.3286C59.1833 7.73638 63.6217 5.91333 69.2908 5.91333C75.6753 5.91333 80.5291 7.92868 83.7136 11.8978C89.9981 19.7362 87.4366 32.2975 87.1213 33.7052L85.1059 33.259C85.3982 31.9513 87.7828 20.2746 82.0983 13.1901C79.3214 9.73634 75.0138 7.98253 69.2908 7.98253C64.2601 7.98253 60.3525 9.55942 57.6756 12.6748C51.8065 19.4977 53.5603 31.5744 53.5834 31.6975L53.6141 31.8975L52.8911 34.8128Z" stroke="black" stroke-width="0.9778" stroke-miterlimit="10" stroke-linecap="round" stroke-linejoin="round"/>
<path d="M73.806 28.7132C73.5445 29.167 76.8521 30.5439 77.329 30.067C77.8059 29.5901 74.1829 28.0747 73.806 28.7132Z" fill="black"/>
<path d="M74.7446 35.1361C74.4061 35.1361 74.1369 34.8669 74.1369 34.5284V33.0361C74.1369 32.6977 74.4061 32.4285 74.7446 32.4285C75.083 32.4285 75.3523 32.6977 75.3523 33.0361V34.5284C75.3523 34.8592 75.0754 35.1361 74.7446 35.1361Z" fill="black"/>
<path d="M65.4215 35.1361C65.0831 35.1361 64.8138 34.8669 64.8138 34.5284V33.0361C64.8138 32.6977 65.0831 32.4285 65.4215 32.4285C65.76 32.4285 66.0292 32.6977 66.0292 33.0361V34.5284C66.0292 34.8592 65.7523 35.1361 65.4215 35.1361Z" fill="black"/>
<path d="M73.9061 35.136C73.9061 35.136 74.6214 34.5745 75.583 35.136" stroke="black" stroke-width="0.9778" stroke-miterlimit="10" stroke-linecap="round" stroke-linejoin="round"/>
<path d="M68.4677 43.5974C68.4677 43.5974 73.0291 43.1897 75.3752 39.8052" stroke="black" stroke-width="0.9778" stroke-miterlimit="10" stroke-linecap="round" stroke-linejoin="round"/>
<path d="M66.3523 28.7132C66.6138 29.167 63.3062 30.5439 62.8293 30.067C62.3524 29.5901 65.9831 28.0747 66.3523 28.7132Z" fill="black"/>
<path d="M66.26 35.136C66.26 35.136 65.5446 34.5745 64.5831 35.136" stroke="black" stroke-width="0.9778" stroke-miterlimit="10" stroke-linecap="round" stroke-linejoin="round"/>
<path d="M68.6447 35.8359C68.6447 35.8359 68.2909 37.6436 70.0447 37.459C71.7985 37.2821 71.8447 35.3821 70.5831 35.3359" stroke="black" stroke-width="0.9778" stroke-miterlimit="10" stroke-linecap="round" stroke-linejoin="round"/>
<path d="M22.1993 91.0657C33.0376 94.558 31.853 118.081 25.5377 123.034H2.25348C2.25348 123.034 1.2458 109.196 5.39957 101.25C9.55335 93.3118 16.8763 89.3504 22.1993 91.0657Z" fill="white"/>
<path d="M22.1993 91.0657C33.0376 94.558 31.853 118.081 25.5377 123.034H2.25348C2.25348 123.034 1.2458 109.196 5.39957 101.25C9.55335 93.3118 16.8763 89.3504 22.1993 91.0657Z" stroke="black" stroke-width="0.9778" stroke-miterlimit="10" stroke-linecap="round" stroke-linejoin="round"/>
<path d="M9.79169 123.035H22.8607C23.8684 125.619 28.8067 125.773 33.6836 123.035C33.7144 123.019 33.7374 123.004 33.7682 122.988C35.2605 122.142 36.1758 120.55 36.1758 118.835V118.304C36.1758 116.589 35.2605 114.996 33.7682 114.15C33.7605 114.142 33.7451 114.135 33.7374 114.135C32.6528 113.527 29.2683 114.335 27.4452 113.866C25.6453 113.396 22.6299 111.242 21.7299 110.319C21.7146 110.304 21.7069 110.296 21.6915 110.281C20.8377 109.381 17.9915 106.858 13.9224 109.073C11.2224 110.527 10.184 118.073 9.79169 123.035Z" fill="white"/>
<path d="M9.79169 123.035H22.8607C23.8684 125.619 28.8067 125.773 33.6836 123.035C33.7144 123.019 33.7374 123.004 33.7682 122.988C35.2605 122.142 36.1758 120.55 36.1758 118.835V118.304C36.1758 116.589 35.2605 114.996 33.7682 114.15C33.7605 114.142 33.7451 114.135 33.7374 114.135C32.6528 113.527 29.2683 114.335 27.4452 113.866C25.6453 113.396 22.6299 111.242 21.7299 110.319C21.7146 110.304 21.7069 110.296 21.6915 110.281C20.8377 109.381 17.9915 106.858 13.9224 109.073C11.2224 110.527 10.184 118.073 9.79169 123.035Z" stroke="black" stroke-width="0.9778" stroke-miterlimit="10" stroke-linecap="round" stroke-linejoin="round"/>
<path d="M33.9144 122.904C33.8374 122.95 33.7605 122.988 33.6836 123.035C28.7991 125.773 23.8684 125.619 22.8607 123.035C22.6146 122.419 22.5992 121.658 22.8607 120.765C24.4453 115.419 29.9452 115.689 29.9452 115.689" stroke="black" stroke-width="0.9778" stroke-miterlimit="10" stroke-linecap="round" stroke-linejoin="round"/>
<path d="M119.236 91.0657C108.398 94.558 109.582 118.081 115.898 123.034H139.182C139.182 123.034 140.19 109.196 136.036 101.25C131.882 93.3118 124.559 89.3504 119.236 91.0657Z" fill="white"/>
<path d="M119.236 91.0657C108.398 94.558 109.582 118.081 115.898 123.034H139.182C139.182 123.034 140.19 109.196 136.036 101.25C131.882 93.3118 124.559 89.3504 119.236 91.0657Z" stroke="black" stroke-width="0.9778" stroke-miterlimit="10" stroke-linecap="round" stroke-linejoin="round"/>
<path d="M131.644 123.035H118.582C117.575 125.619 112.636 125.773 107.759 123.035C107.729 123.019 107.705 123.004 107.675 122.988C106.182 122.142 105.267 120.55 105.267 118.835V118.304C105.267 116.589 106.182 114.996 107.675 114.15C107.682 114.142 107.698 114.135 107.705 114.135C108.79 113.527 112.175 114.335 113.998 113.866C115.798 113.396 118.813 111.242 119.713 110.319C119.728 110.304 119.736 110.296 119.751 110.281C120.605 109.381 123.451 106.858 127.521 109.073C130.213 110.527 131.251 118.073 131.644 123.035Z" fill="white"/>
<path d="M131.644 123.035H118.582C117.575 125.619 112.636 125.773 107.759 123.035C107.729 123.019 107.705 123.004 107.675 122.988C106.182 122.142 105.267 120.55 105.267 118.835V118.304C105.267 116.589 106.182 114.996 107.675 114.15C107.682 114.142 107.698 114.135 107.705 114.135C108.79 113.527 112.175 114.335 113.998 113.866C115.798 113.396 118.813 111.242 119.713 110.319C119.728 110.304 119.736 110.296 119.751 110.281C120.605 109.381 123.451 106.858 127.521 109.073C130.213 110.527 131.251 118.073 131.644 123.035Z" stroke="black" stroke-width="0.9778" stroke-miterlimit="10" stroke-linecap="round" stroke-linejoin="round"/>
<path d="M111.49 115.689C111.49 115.689 116.99 115.419 118.575 120.765C118.836 121.658 118.821 122.419 118.575 123.035C117.567 125.619 112.628 125.773 107.752 123.035C107.675 122.988 107.598 122.95 107.521 122.904" stroke="black" stroke-width="0.9778" stroke-miterlimit="10" stroke-linecap="round" stroke-linejoin="round"/>
<path d="M136.528 123.558C136.528 123.558 139.282 125.088 140.382 121.435C141.651 117.219 139.536 108.935 137.282 108.481C135.028 108.027 133.759 111.281 133.759 111.281L136.528 123.558Z" fill="white"/>
<path d="M136.528 123.558C136.528 123.558 139.282 125.088 140.382 121.435C141.651 117.219 139.536 108.935 137.282 108.481C135.028 108.027 133.759 111.281 133.759 111.281L136.528 123.558Z" stroke="black" stroke-width="0.9778" stroke-miterlimit="10" stroke-linecap="round" stroke-linejoin="round"/>
<path d="M126.59 110.612C126.59 110.612 128.082 107.566 132.074 107.835C136.067 108.104 137.605 122.265 137.082 124.027C136.559 125.789 130.99 126.919 130.251 123.604C129.497 120.289 126.59 110.612 126.59 110.612Z" fill="white"/>
<path d="M126.59 110.612C126.59 110.612 128.082 107.566 132.074 107.835C136.067 108.104 137.605 122.265 137.082 124.027C136.559 125.789 130.99 126.919 130.251 123.604C129.497 120.289 126.59 110.612 126.59 110.612Z" stroke="black" stroke-width="0.9778" stroke-miterlimit="10" stroke-linecap="round" stroke-linejoin="round"/>
<path d="M130.897 123.034C130.844 123.588 130.728 124.042 130.551 124.381C129.121 127.081 123.267 127.004 121.913 123.034C121.89 122.965 121.875 122.904 121.851 122.834C121.005 119.927 120.151 113.773 119.721 110.312C119.736 110.296 119.744 110.289 119.759 110.273C120.613 109.373 123.459 106.85 127.528 109.065C128.867 110.658 131.297 119.119 130.897 123.034Z" fill="white"/>
<path d="M119.713 110.312C119.728 110.296 119.736 110.289 119.751 110.273C120.605 109.373 123.451 106.85 127.521 109.065C128.867 110.658 131.297 119.127 130.89 123.034C130.836 123.588 130.721 124.042 130.544 124.381C129.113 127.081 123.259 127.004 121.905 123.034C121.882 122.965 121.867 122.904 121.844 122.834C121.282 120.911 120.721 117.573 120.282 114.527" stroke="black" stroke-width="0.9778" stroke-miterlimit="10" stroke-linecap="round" stroke-linejoin="round"/>
<path d="M4.90721 123.558C4.90721 123.558 2.1534 125.088 1.05342 121.435C-0.215793 117.219 1.89958 108.935 4.15339 108.481C6.40719 108.027 7.67639 111.281 7.67639 111.281L4.90721 123.558Z" fill="white"/>
<path d="M4.9072 123.558C4.9072 123.558 2.1534 125.088 1.05342 121.435C-0.215793 117.219 1.89958 108.935 4.15339 108.481C6.40719 108.027 7.67639 111.281 7.67639 111.281L4.9072 123.558Z" stroke="black" stroke-width="0.9778" stroke-miterlimit="10" stroke-linecap="round" stroke-linejoin="round"/>
<path d="M14.8456 110.612C14.8456 110.612 13.3533 107.566 9.36107 107.835C5.36883 108.104 3.83038 122.265 4.35345 124.027C4.87652 125.789 10.4457 126.919 11.1841 123.604C11.9226 120.289 14.8456 110.612 14.8456 110.612Z" fill="white"/>
<path d="M14.8456 110.612C14.8456 110.612 13.3533 107.566 9.36107 107.835C5.36883 108.104 3.83038 122.265 4.35345 124.027C4.87652 125.789 10.4457 126.919 11.1841 123.604C11.9226 120.289 14.8456 110.612 14.8456 110.612Z" stroke="black" stroke-width="0.9778" stroke-miterlimit="10" stroke-linecap="round" stroke-linejoin="round"/>
<path d="M10.538 123.034C10.5918 123.588 10.7072 124.042 10.8841 124.381C12.3149 127.081 18.1686 127.004 19.5224 123.034C19.5455 122.965 19.5609 122.904 19.584 122.834C20.4301 119.927 21.2839 113.773 21.7147 110.312C21.6993 110.296 21.6916 110.289 21.6762 110.273C20.8224 109.373 17.9763 106.85 13.9071 109.065C12.5687 110.658 10.138 119.119 10.538 123.034Z" fill="white"/>
<path d="M21.7223 110.312C21.7069 110.296 21.6992 110.289 21.6838 110.273C20.83 109.373 17.9839 106.85 13.9147 109.065C12.5686 110.658 10.1379 119.127 10.5456 123.034C10.5994 123.588 10.7148 124.042 10.8917 124.381C12.3224 127.081 18.1762 127.004 19.53 123.034C19.5531 122.965 19.5685 122.904 19.5915 122.834C20.1146 121.042 20.6377 118.011 21.0684 115.15" stroke="black" stroke-width="0.9778" stroke-miterlimit="10" stroke-linecap="round" stroke-linejoin="round"/>
<path d="M81.1444 6.22883C73.0214 -0.0864455 53.3372 -0.00183833 49.1526 21.8055C48.4065 11.1287 57.9217 2.2212 66.7985 1.35199C78.7983 0.182778 81.1444 6.22883 81.1444 6.22883Z" fill="white"/>
<path d="M88.152 27.2515C88.052 27.5361 87.952 27.79 87.8443 28.0285C87.5289 28.7746 87.2212 29.313 86.9828 29.6823C86.6828 30.1438 86.475 30.3438 86.475 30.3438C86.352 30.4053 86.2289 30.4592 86.1135 30.513C85.9212 30.6053 85.7289 30.6899 85.5289 30.7746C85.3905 30.8361 85.252 30.8899 85.1136 30.9438C84.9905 30.9976 84.8674 31.0438 84.7443 31.0899C70.3061 36.4591 60.0294 19.1286 60.0294 19.1286C59.9524 26.9669 56.1987 31.5361 54.7833 32.9745C54.5756 33.1899 54.4141 33.3361 54.3295 33.413C54.2833 33.4591 54.2525 33.4745 54.2525 33.4745C53.9756 33.1438 53.7141 32.813 53.4602 32.4822C53.4064 32.4053 53.3526 32.3361 53.2987 32.2668C52.9987 31.8592 52.7064 31.4515 52.4449 31.0438C52.0064 30.3823 51.6218 29.7207 51.2757 29.0592C50.968 28.4669 50.6911 27.8823 50.4603 27.29C49.6988 25.4285 49.2834 23.5824 49.1603 21.7901C48.4142 11.1134 57.9294 2.20581 66.8062 1.33659C78.8137 0.159691 81.1598 6.21343 81.1598 6.21343C81.1598 6.21343 81.1675 6.21344 81.1829 6.20574C82.7597 5.78267 89.2904 7.45188 89.4673 17.3286C89.5442 22.0516 88.875 25.2208 88.152 27.2515Z" stroke="black" stroke-width="0.9778" stroke-miterlimit="10" stroke-linecap="round" stroke-linejoin="round"/>
<path d="M86.3365 39.236L85.3442 39.1514L86.4058 27.1055L89.5057 27.3824C90.8749 27.5055 91.8826 28.7054 91.7595 30.0746L91.3211 35.0669C91.098 37.5822 88.8672 39.4591 86.3365 39.236Z" fill="white"/>
<path d="M86.3366 39.236L85.5443 39.1668C84.8981 39.113 84.4135 38.5745 84.4135 37.9284L84.4443 33.7361C84.4597 31.3823 85.1443 29.0824 86.4135 27.1055L87.4058 27.1901C87.3981 27.1901 86.3058 32.3438 86.3366 39.236Z" fill="black"/>
<path d="M52.9294 39.2281L53.9217 39.1358L52.8295 27.0898L49.7295 27.3745C48.368 27.4975 47.3603 28.7052 47.4834 30.0667L47.9372 35.0589C48.1603 37.5897 50.3987 39.4589 52.9294 39.2281Z" fill="white"/>
<path d="M86.3365 39.236L85.3442 39.1514L86.4058 27.1055L89.5057 27.3824C90.8749 27.5055 91.8826 28.7054 91.7595 30.0746L91.3211 35.0669C91.098 37.5822 88.8672 39.4591 86.3365 39.236Z" stroke="black" stroke-width="0.9778" stroke-miterlimit="10" stroke-linecap="round" stroke-linejoin="round"/>
<path d="M52.9294 39.2281L53.9217 39.1358L52.8295 27.0898L49.7295 27.3745C48.368 27.4975 47.3603 28.7052 47.4834 30.0667L47.9372 35.0589C48.1603 37.5897 50.3987 39.4589 52.9294 39.2281Z" stroke="black" stroke-width="0.9778" stroke-miterlimit="10" stroke-linecap="round" stroke-linejoin="round"/>
<path d="M52.9296 39.2282L53.7219 39.159C54.368 39.0975 54.8526 38.559 54.8449 37.9129L54.8065 33.7206C54.7834 31.3668 54.0988 29.0669 52.8219 27.0977L51.8296 27.19C51.8373 27.1823 52.9373 32.3437 52.9296 39.2282Z" fill="black"/>
<path d="M86.3366 39.236L85.5443 39.1668C84.8981 39.113 84.4135 38.5745 84.4135 37.9284L84.4443 33.7361C84.4597 31.3823 85.1443 29.0824 86.4135 27.1055L87.4058 27.1901C87.3981 27.1901 86.3058 32.3438 86.3366 39.236Z" stroke="black" stroke-width="0.9778" stroke-miterlimit="10" stroke-linecap="round" stroke-linejoin="round"/>
<path d="M52.9296 39.2282L53.7219 39.159C54.368 39.0975 54.8526 38.559 54.8449 37.9129L54.8065 33.7206C54.7834 31.3668 54.0988 29.0669 52.8219 27.0977L51.8296 27.19C51.8373 27.1823 52.9373 32.3437 52.9296 39.2282Z" stroke="black" stroke-width="0.9778" stroke-miterlimit="10" stroke-linecap="round" stroke-linejoin="round"/>
<path d="M103.705 120.089H37.3681L31.9913 79.6816C31.8528 78.6355 32.6605 77.7124 33.7143 77.7124H107.359C108.413 77.7124 109.221 78.6432 109.082 79.6816L103.705 120.089Z" fill="#1F1F1F"/>
<path d="M103.705 120.089H37.3681L31.9913 79.6816C31.8528 78.6355 32.6605 77.7124 33.7143 77.7124H107.359C108.413 77.7124 109.221 78.6432 109.082 79.6816L103.705 120.089Z" stroke="black" stroke-width="0.9778" stroke-miterlimit="10" stroke-linecap="round" stroke-linejoin="round"/>
<path d="M103.713 118.735H37.3756V123.035H103.713V118.735Z" fill="white"/>
<path d="M103.713 118.735H37.3756V123.035H103.713V118.735Z" stroke="black" stroke-width="0.9778" stroke-miterlimit="10" stroke-linecap="round" stroke-linejoin="round"/>
<path d="M69.1214 106.566C73.085 106.566 76.2982 103.353 76.2982 99.389C76.2982 95.4253 73.085 92.2122 69.1214 92.2122C65.1578 92.2122 61.9446 95.4253 61.9446 99.389C61.9446 103.353 65.1578 106.566 69.1214 106.566Z" fill="white"/>
</svg>
