<svg width="176" height="117" viewBox="0 0 176 117" fill="none" xmlns="http://www.w3.org/2000/svg">
<path d="M174.497 105.174V108.881C174.497 110.773 173.812 112.504 172.674 113.85H132.351V105.174H174.497Z" fill="white"/>
<path d="M174.497 105.174V108.881C174.497 110.773 173.812 112.504 172.674 113.85H132.351V105.174H174.497Z" stroke="black" stroke-width="1.7819" stroke-miterlimit="10" stroke-linecap="round" stroke-linejoin="round"/>
<path d="M89.5904 58.9896V113.842H1.27649V61.3818C1.27649 58.6127 2.27647 56.0819 3.93029 54.1204C5.99949 51.6666 9.08405 50.1128 12.5455 50.1128H78.6675C83.9289 50.1128 88.3442 53.7204 89.5827 58.5896C89.5904 58.728 89.5904 58.8588 89.5904 58.9896Z" fill="#003F7D"/>
<path d="M89.5903 58.9895V113.842H0.937988V58.9895C0.937988 56.2203 1.93797 53.6896 3.59179 51.7281C5.66099 49.2743 8.74555 47.7205 12.207 47.7205H78.329C84.4212 47.7205 89.3826 52.5588 89.5903 58.5972C89.5903 58.728 89.5903 58.8587 89.5903 58.9895Z" stroke="black" stroke-width="1.7819" stroke-miterlimit="10" stroke-linecap="round" stroke-linejoin="round"/>
<path d="M42.9373 113.85H0.937988V89.9428C9.72246 66.2586 28.4068 63.1895 28.4068 63.1895C28.4068 63.1895 31.3682 70.2586 36.5297 76.6738C41.6988 83.0891 39.0989 90.1582 41.7296 103.65C42.5911 108.096 42.9296 111.335 42.9373 113.85Z" fill="black"/>
<path d="M45.2603 50.1206V61.8666C38.4066 58.982 35.2066 54.4128 33.7836 50.1206H45.2603Z" fill="black"/>
<path d="M33.176 81.7737V113.85H22.9608C19.5916 113.85 16.4532 111.989 14.9686 108.966C14.3148 107.635 13.8378 106.019 13.7763 104.104C13.7763 103.958 13.7686 103.804 13.7686 103.658C13.7686 96.5888 13.7686 81.7814 13.7686 81.7814H33.176V81.7737Z" fill="white"/>
<path d="M33.176 113.85H22.9608C19.5916 113.85 16.4532 111.989 14.9686 108.966C14.3148 107.635 13.8378 106.02 13.7763 104.104C13.7763 103.958 13.7686 103.804 13.7686 103.658C13.7686 99.9504 13.7686 94.112 13.7686 89.3967" stroke="black" stroke-width="1.7819" stroke-miterlimit="10" stroke-linecap="round" stroke-linejoin="round"/>
<path d="M34.2605 113.681H22.83C19.8223 113.681 16.9993 112.189 15.3532 109.673C15.3378 109.643 15.3147 109.612 15.2993 109.589C14.3916 108.173 13.9301 106.512 13.9301 104.82V83.5815L28.5683 83.7046L33.6682 83.7431L34.2605 113.681Z" fill="white"/>
<path d="M156.705 101.758C156.705 101.758 160.735 100.281 163.205 101.427C165.674 102.581 169.535 107.927 169.62 109.073C169.704 110.219 166.82 111.458 164.435 109.481C162.051 107.512 156.705 101.758 156.705 101.758Z" fill="white"/>
<path d="M156.705 101.758C156.705 101.758 160.735 100.281 163.205 101.427C165.674 102.581 169.535 107.927 169.62 109.073C169.704 110.219 166.82 111.458 164.435 109.481C162.051 107.512 156.705 101.758 156.705 101.758Z" stroke="black" stroke-width="1.7819" stroke-miterlimit="10" stroke-linecap="round" stroke-linejoin="round"/>
<path d="M149.466 101.92C149.466 101.92 151.359 98.6275 154.566 99.1198C157.774 99.6121 164.72 106.273 165.52 107.481C166.897 109.566 163.889 112.681 160.72 112.266C157.551 111.858 150.205 105.166 150.205 105.166L149.466 101.92Z" fill="white"/>
<path d="M149.466 101.92C149.466 101.92 151.359 98.6275 154.566 99.1198C157.774 99.6121 164.72 106.273 165.52 107.481C166.897 109.566 163.889 112.681 160.72 112.266C157.551 111.858 150.205 105.166 150.205 105.166L149.466 101.92Z" stroke="black" stroke-width="1.7819" stroke-miterlimit="10" stroke-linecap="round" stroke-linejoin="round"/>
<path d="M111.636 113.85H33.499L33.0067 101.181C24.6146 89.9967 11.2917 89.0121 11.2917 89.0121C11.1302 85.7198 15.2378 70.9201 27.2453 61.7048C33.4914 56.9126 43.6296 55.1896 51.9218 54.6434C59.5678 54.1434 65.637 54.6357 65.637 54.6357C70.8215 55.205 75.4445 56.1742 79.5598 57.4664C119.721 70.1355 111.636 113.85 111.636 113.85Z" fill="#003F7D"/>
<path d="M111.636 113.85H33.499L33.0067 101.181C24.6146 89.9967 11.2917 89.0121 11.2917 89.0121C11.1302 85.7198 15.2378 70.9201 27.2453 61.7048C33.4914 56.9126 43.6296 55.1896 51.9218 54.6434C59.5678 54.1434 65.637 54.6357 65.637 54.6357C70.8215 55.205 75.4445 56.1742 79.5598 57.4664C119.721 70.1355 111.636 113.85 111.636 113.85Z" stroke="black" stroke-width="1.7819" stroke-miterlimit="10" stroke-linecap="round" stroke-linejoin="round"/>
<path d="M89.5903 103.65C89.5903 103.65 88.1134 112.042 88.1134 113.85H132.69L146.343 107.104C146.343 107.104 153.251 111.712 155.72 112.366C155.72 112.366 160.82 113.189 159.666 107.927C159.666 107.927 147.412 98.3042 144.943 97.3197C142.474 96.3351 134.413 98.8812 129.236 102.004L111.144 96.4966L89.5903 103.65Z" fill="white"/>
<path d="M89.5903 103.65C89.5903 103.65 88.1134 112.042 88.1134 113.85H132.69L146.343 107.104C146.343 107.104 153.251 111.712 155.72 112.366C155.72 112.366 160.82 113.189 159.666 107.927C159.666 107.927 147.412 98.3042 144.943 97.3197C142.474 96.3351 134.413 98.8812 129.236 102.004L111.144 96.4966L89.5903 103.65Z" stroke="black" stroke-width="1.7819" stroke-miterlimit="10" stroke-linecap="round" stroke-linejoin="round"/>
<path d="M88.1134 89.5044L89.5903 103.65" stroke="black" stroke-width="1.7819" stroke-miterlimit="10" stroke-linecap="round" stroke-linejoin="round"/>
<path d="M79.5598 57.4666V63.1742C79.5598 65.7126 78.5906 68.1664 76.8214 69.9741C74.6522 72.1894 71.0676 74.5432 65.6447 74.5355C59.8063 74.5201 56.3756 72.3817 54.4064 70.251C52.7756 68.4895 51.9295 66.1357 51.9295 63.7357V54.6512C59.5755 54.1512 65.6447 54.6435 65.6447 54.6435C70.8292 55.1974 75.4445 56.1666 79.5598 57.4666Z" fill="black"/>
<path d="M124.459 109.82C124.459 109.82 129.89 114.573 134.574 115.573C139.259 116.581 144.105 113.25 143.782 110.889C143.459 108.52 130.705 105.95 130.705 105.95L124.459 109.82Z" fill="white"/>
<path d="M126.451 111.396C128.459 112.873 131.659 114.95 134.574 115.581C139.259 116.589 144.105 113.258 143.782 110.896C143.589 109.489 138.982 108.004 135.282 107.035" stroke="black" stroke-width="1.7819" stroke-miterlimit="10" stroke-linecap="round" stroke-linejoin="round"/>
<path d="M74.5445 47.7283V61.9511C74.5445 63.4665 73.8214 64.9049 72.5753 65.7741C69.8907 67.6433 64.66 69.8894 58.1986 65.7049C56.8602 64.8357 56.0448 63.3511 56.0448 61.7588V47.736H74.5445V47.7283Z" fill="white"/>
<path d="M74.5445 47.7283V61.9511C74.5445 63.4665 73.8214 64.9049 72.5753 65.7741C69.8907 67.6433 64.66 69.8894 58.1986 65.7049C56.8602 64.8357 56.0448 63.3511 56.0448 61.7588V47.736H74.5445V47.7283Z" stroke="black" stroke-width="1.3365" stroke-miterlimit="10" stroke-linecap="round" stroke-linejoin="round"/>
<path d="M80.9135 33.5515C80.9135 45.0513 73.6367 53.7743 64.66 53.7743C55.6832 53.7743 48.4064 45.0513 48.4064 33.5515C48.4064 22.0517 55.6832 10.9519 64.66 10.9519C73.6367 10.9519 80.9135 22.0594 80.9135 33.5515Z" fill="white"/>
<path d="M80.9135 33.5515C80.9135 45.0513 73.6367 53.7743 64.66 53.7743C55.6832 53.7743 48.4064 45.0513 48.4064 33.5515C48.4064 22.0517 55.6832 10.9519 64.66 10.9519C73.6367 10.9519 80.9135 22.0594 80.9135 33.5515Z" stroke="black" stroke-width="1.7819" stroke-miterlimit="10" stroke-linecap="round" stroke-linejoin="round"/>
<path d="M58.4985 26.5823C57.7216 25.9285 53.5371 29.2207 54.2525 30.1515C54.9678 31.0899 59.5908 27.5054 58.4985 26.5823Z" fill="black"/>
<path d="M71.2292 35.6593H69.4369V32.8747C69.4369 32.3824 69.8369 31.9824 70.3292 31.9824C70.8215 31.9824 71.2215 32.3824 71.2215 32.8747V35.6593H71.2292Z" fill="black"/>
<path d="M58.5755 35.6593H56.7832V32.8747C56.7832 32.3824 57.1832 31.9824 57.6755 31.9824C58.1678 31.9824 58.5678 32.3824 58.5678 32.8747V35.6593H58.5755Z" fill="black"/>
<path d="M69.1984 35.6593C69.1984 35.6593 70.1753 34.89 71.4753 35.6593" stroke="black" stroke-width="1.3365" stroke-miterlimit="10" stroke-linecap="round" stroke-linejoin="round"/>
<path d="M69.16 26.7516C69.883 26.0363 74.306 28.99 73.6676 29.9823C73.0291 30.9669 68.1369 27.7593 69.16 26.7516Z" fill="black"/>
<path d="M58.814 35.6593C58.814 35.6593 57.8371 34.89 56.5371 35.6593" stroke="black" stroke-width="1.3365" stroke-miterlimit="10" stroke-linecap="round" stroke-linejoin="round"/>
<path d="M63.2908 38.1439C63.2908 38.1439 62.9139 40.0439 64.7677 39.8516C66.6215 39.6593 66.6677 37.667 65.3369 37.6208" stroke="black" stroke-width="1.3365" stroke-miterlimit="10" stroke-linecap="round" stroke-linejoin="round"/>
<path d="M84.8366 29.4133C88.2211 31.1133 87.2365 39.7132 80.4213 39.0901" stroke="black" stroke-width="1.7819" stroke-miterlimit="10" stroke-linecap="round" stroke-linejoin="round"/>
<path d="M81.1059 34.8129C81.1059 34.8129 82.852 33.0514 84.4058 35.2206" stroke="black" stroke-width="1.7819" stroke-miterlimit="10" stroke-linecap="round" stroke-linejoin="round"/>
<path d="M66.9677 49.3206C66.9677 49.3206 64.5601 45.7437 60.1217 45.9283C60.1217 45.9283 63.3293 42.1668 66.5139 44.2591C68.5292 45.5899 66.9677 49.3206 66.9677 49.3206Z" fill="black"/>
<path d="M66.9677 49.3206C66.9677 49.3206 64.5601 45.7437 60.1217 45.9283C60.1217 45.9283 63.3293 42.1668 66.5139 44.2591C68.5292 45.5899 66.9677 49.3206 66.9677 49.3206Z" stroke="black" stroke-width="1.7819" stroke-miterlimit="10" stroke-linecap="round" stroke-linejoin="round"/>
<path d="M83.029 26.3287C82.9213 26.6056 82.8136 26.8518 82.7136 27.0825C82.3828 27.8056 82.0597 28.3287 81.8059 28.6902C81.4905 29.1364 81.2751 29.3364 81.2751 29.3364C81.1444 29.3979 81.0213 29.4517 80.8905 29.5056C80.6905 29.5979 80.4829 29.6748 80.2829 29.7594C80.1367 29.821 79.9905 29.8748 79.8521 29.921C79.7213 29.9671 79.5906 30.021 79.4598 30.0594C64.3293 35.2593 53.5602 18.475 53.5602 18.475C53.4833 26.0672 49.5449 30.4825 48.0603 31.8825C47.8372 32.0902 47.6757 32.2363 47.5834 32.3055C47.5372 32.344 47.5065 32.3671 47.5065 32.3671C47.2142 32.0517 46.9373 31.7286 46.6757 31.4132C46.6219 31.344 46.5603 31.2748 46.5065 31.2055C46.1911 30.8132 45.8911 30.4209 45.6065 30.021C45.1527 29.3825 44.745 28.7364 44.3835 28.0979C44.0604 27.5287 43.7758 26.9595 43.5296 26.3902C42.7373 24.5826 42.2989 22.798 42.1681 21.0596C41.3835 10.7213 51.3526 2.09835 60.6601 1.2599C73.2368 0.121462 75.6983 5.9752 75.6983 5.9752C75.6983 5.9752 75.706 5.97521 75.7214 5.96751C77.3752 5.55214 84.2136 7.17519 84.4059 16.7366C84.4905 21.298 83.7905 24.3672 83.029 26.3287Z" fill="#3A3A3A"/>
<path d="M83.029 26.3287C82.9213 26.6056 82.8136 26.8518 82.7136 27.0825C82.3828 27.8056 82.0597 28.3287 81.8059 28.6902C81.4905 29.1364 81.2751 29.3364 81.2751 29.3364C81.1444 29.3979 81.0213 29.4517 80.8905 29.5056C80.6905 29.5979 80.4829 29.6748 80.2829 29.7594C80.1367 29.821 79.9905 29.8748 79.8521 29.921C79.7213 29.9671 79.5906 30.021 79.4598 30.0594C64.3293 35.2593 53.5602 18.475 53.5602 18.475C53.4833 26.0672 49.5449 30.4825 48.0603 31.8825C47.8372 32.0902 47.6757 32.2363 47.5834 32.3055C47.5372 32.344 47.5065 32.3671 47.5065 32.3671C47.2142 32.0517 46.9373 31.7286 46.6757 31.4132C46.6219 31.344 46.5603 31.2748 46.5065 31.2055C46.1911 30.8132 45.8911 30.4209 45.6065 30.021C45.1527 29.3825 44.745 28.7364 44.3835 28.0979C44.0604 27.5287 43.7758 26.9595 43.5296 26.3902C42.7373 24.5826 42.2989 22.798 42.1681 21.0596C41.3835 10.7213 51.3526 2.09835 60.6601 1.2599C73.2368 0.121462 75.6983 5.9752 75.6983 5.9752C75.6983 5.9752 75.706 5.97521 75.7214 5.96751C77.3752 5.55214 84.2135 7.17519 84.4059 16.7366C84.4905 21.298 83.7905 24.3672 83.029 26.3287Z" stroke="black" stroke-width="1.7819" stroke-miterlimit="10" stroke-linecap="round" stroke-linejoin="round"/>
<path d="M58.8371 59.5664C58.014 66.1432 53.0833 83.0891 46.3373 97.8888C39.5912 112.696 34.3298 113.681 34.3298 113.681H22.83C19.8223 113.681 16.9993 112.189 15.3532 109.673C15.3378 109.642 15.3147 109.612 15.2993 109.589C14.3916 108.173 13.9301 106.512 13.9301 104.82V103.181C18.33 97.1658 23.6838 90.0813 28.5683 83.7045C36.0836 73.8816 42.4681 65.7355 42.4681 65.7355C42.4681 65.7355 42.9604 57.9203 42.4681 56.6049C41.9758 55.2896 37.3682 48.382 36.4913 46.4051C35.6144 44.4282 34.8221 33.7361 35.8913 31.5207C36.9605 29.2977 38.8528 30.29 38.8528 30.29L42.2219 36.213C42.2219 36.213 45.7603 31.8515 47.3219 29.7977C48.8834 27.7439 51.8449 27.99 52.5064 31.5284C53.1679 35.0668 50.368 37.3668 50.4526 38.5206C50.5372 39.6744 50.7833 42.1359 54.4833 46.3359C58.1832 50.5358 59.6524 52.9896 58.8371 59.5664Z" fill="white"/>
<path d="M17.8993 97.8119C21.3531 93.1812 25.0838 88.2659 28.5683 83.7045C36.0836 73.8816 42.4681 65.7355 42.4681 65.7355C42.4681 65.7355 42.9604 57.9203 42.4681 56.6049C41.9758 55.2896 37.3682 48.382 36.4913 46.4051C35.6144 44.4282 34.8221 33.7361 35.8913 31.5207C36.9605 29.2977 38.8528 30.29 38.8528 30.29L42.2219 36.213C42.2219 36.213 45.7603 31.8515 47.3219 29.7977C48.8834 27.7439 51.8449 27.99 52.5064 31.5284C53.1679 35.0668 50.368 37.3668 50.4526 38.5206C50.5372 39.6744 50.7833 42.1359 54.4833 46.3359C58.1832 50.5358 59.6678 52.9973 58.8447 59.5741C58.0217 66.1509 53.091 83.0968 46.3449 97.8965C39.5989 112.704 34.3375 113.689 34.3375 113.689H22.83C19.8223 113.689 16.9993 112.196 15.3532 109.681C15.3378 109.65 15.3147 109.619 15.2993 109.596C14.3916 108.181 13.9301 106.519 13.9301 104.827V103.189" stroke="black" stroke-width="1.7819" stroke-miterlimit="10" stroke-linecap="round" stroke-linejoin="round"/>
<path d="M41.4143 45.0128C41.4143 45.0128 38.7836 41.2282 38.4528 38.5975C38.122 35.9668 38.3528 28.2131 39.0912 26.6131C39.7297 25.2285 42.1758 23.9747 43.8219 25.6208C44.2835 26.0824 44.5142 26.7362 44.4912 27.39C44.4065 29.99 44.1527 38.2591 44.5219 39.4975C44.9527 40.9744 46.5604 42.2128 46.5604 42.2128L41.4143 45.0128Z" fill="white"/>
<path d="M41.4143 45.0128C41.4143 45.0128 38.7836 41.2282 38.4528 38.5975C38.122 35.9668 38.3528 28.2131 39.0912 26.6131C39.7297 25.2285 42.1758 23.9747 43.8219 25.6208C44.2835 26.0824 44.5142 26.7362 44.4912 27.39C44.4065 29.99 44.1527 38.2591 44.5219 39.4975C44.9527 40.9744 46.5604 42.2128 46.5604 42.2128" stroke="black" stroke-width="1.7819" stroke-miterlimit="10" stroke-linecap="round" stroke-linejoin="round"/>
<path d="M34.2605 113.681H22.83C19.8223 113.681 16.9993 112.189 15.3532 109.673C15.3378 109.643 15.3147 109.612 15.2993 109.589C14.3916 108.173 13.9301 106.512 13.9301 104.82V89.3892" stroke="black" stroke-width="1.7819" stroke-miterlimit="10" stroke-linecap="round" stroke-linejoin="round"/>
</svg>
