<svg width="53" height="76" viewBox="0 0 53 76" fill="none" xmlns="http://www.w3.org/2000/svg">
<path d="M14.9204 6.15217C14.9204 5.67755 14.9126 5.31964 14.9204 4.95396C14.9438 4.12922 15.2948 3.74019 16.0593 3.74019C17.7522 3.73241 19.4529 3.71685 21.1457 3.74797C21.6138 3.75575 21.801 3.59236 21.9648 3.12553C22.6201 1.24264 24.0477 0.285628 25.8576 0.184481C28.2603 0.0522111 29.5787 1.43715 30.3744 3.73241C32.1297 3.73241 33.8928 3.73241 35.6558 3.73241C36.9352 3.73241 37.1848 4.01251 37.1926 5.42079C37.1926 5.63865 37.2083 5.84872 37.2239 6.15217C37.5281 6.15217 37.7934 6.15217 38.0586 6.15217C41.3819 6.15217 44.7052 6.15217 48.0363 6.15217C50.5248 6.15217 51.7964 7.5371 51.7964 10.237C51.7964 15.8701 51.7964 21.4954 51.8042 27.1285C51.8042 27.5565 51.8822 28.0077 52.0071 28.4201C53.2162 32.2248 53.224 36.0295 52.0226 39.842C51.8822 40.2932 51.8042 40.799 51.7964 41.2736C51.7808 51.3805 51.7886 61.4875 51.7886 71.5866C51.7886 73.7263 50.868 75.1112 49.183 75.508C48.8787 75.578 48.5589 75.5936 48.2391 75.5936C33.4481 75.5936 18.6493 75.6014 3.85833 75.5936C1.6194 75.5936 0.285394 74.1387 0.285394 71.6878C0.285394 56.8658 0.285394 42.0361 0.285394 27.2141C0.285394 27.0896 0.285394 26.9652 0.285394 26.8484C0.308797 26.1093 0.706679 25.6191 1.28396 25.6113C1.89245 25.5958 2.29813 26.1015 2.32153 26.8873C2.32933 27.0819 2.32153 27.2842 2.32153 27.4787C2.32153 42.1295 2.32153 56.788 2.32153 71.4388C2.32153 73.026 2.65697 73.3917 4.11579 73.3917C18.7741 73.3917 33.4325 73.3917 48.0909 73.3917C49.3546 73.3917 49.7447 72.9716 49.7447 71.5866C49.7447 62.8335 49.7447 54.0804 49.7447 45.3273C49.7447 45.1172 49.7213 44.9071 49.7135 44.8371C48.9724 45.5685 48.1767 46.3154 47.4355 47.1168C47.2795 47.2802 47.2873 47.6614 47.2873 47.9415C47.2795 54.9518 47.2796 61.9543 47.2796 68.9646C47.2796 70.4662 47.0377 70.7308 45.6725 70.7308C32.5743 70.7308 19.4762 70.7308 6.3859 70.7308C5.0285 70.7308 4.77106 70.4429 4.77106 68.9568C4.77106 50.2446 4.77106 31.5323 4.77106 12.8279C4.77106 11.3418 5.02071 11.0695 6.39371 11.0695C8.95249 11.0695 11.5035 11.0695 14.0623 11.0695C14.3041 11.0695 14.5537 11.0695 14.8579 11.0695C14.8579 10.1669 14.8579 9.32663 14.8579 8.38519C14.6005 8.38519 14.3587 8.38519 14.1169 8.38519C10.7702 8.38519 7.42348 8.38519 4.07679 8.38519C2.70379 8.38519 2.32929 8.78977 2.32929 10.2525C2.32929 14.065 2.32929 17.8775 2.32929 21.6822C2.32929 21.8767 2.33713 22.079 2.32153 22.2735C2.27472 22.9582 1.86125 23.4017 1.28396 23.3861C0.737883 23.3783 0.340009 22.9504 0.293203 22.3046C0.2776 22.1334 0.285394 21.9623 0.285394 21.7911C0.285394 17.9086 0.285394 14.0183 0.285394 10.1358C0.285394 7.59935 1.6038 6.16772 3.95194 6.16772C7.29864 6.15994 10.6453 6.16772 13.992 6.16772C14.2651 6.15216 14.5303 6.15217 14.9204 6.15217ZM45.2044 68.4588C45.2044 61.9232 45.2044 55.4264 45.2044 49.023C43.73 49.591 42.2712 50.1434 40.8202 50.7192C40.7188 50.7581 40.5862 50.9215 40.5862 51.0226C40.5706 51.9407 40.5784 52.8588 40.5784 53.8236C41.0074 53.8236 41.3273 53.8081 41.6393 53.8236C42.4428 53.8625 42.7939 54.236 42.7939 55.1152C42.8017 58.2585 42.8017 61.4097 42.7939 64.553C42.7939 65.3778 42.435 65.8135 41.6861 65.8212C38.7451 65.8368 35.804 65.8368 32.863 65.8212C32.1531 65.8135 31.7786 65.3777 31.7786 64.6075C31.7708 61.4097 31.7708 58.2119 31.7786 55.0218C31.7786 54.2827 32.1375 53.8937 32.8162 53.8392C33.1907 53.8081 33.5651 53.8314 34.0098 53.8314C34.0098 52.9833 33.9786 52.252 34.0176 51.5206C34.0566 50.937 33.8537 50.7425 33.3389 50.5947C25.3037 48.2761 20.2797 39.5696 21.9336 30.9021C24.1023 19.5503 35.3126 13.8316 44.7676 19.2546C44.8924 19.3246 45.0406 19.3713 45.1966 19.4336C45.1966 17.3717 45.1966 15.3643 45.1966 13.3181C42.5208 13.3181 39.8919 13.3181 37.2161 13.3181C37.2005 13.5204 37.1849 13.6915 37.1771 13.8549C37.1459 15.52 36.9664 15.7145 35.4452 15.7145C29.1341 15.7145 22.823 15.7145 16.5118 15.7145C15.1232 15.7145 14.8969 15.4966 14.9125 13.9716C14.9204 13.4114 14.7566 13.2636 14.2573 13.2714C12.424 13.3025 10.5907 13.2792 8.76524 13.2792C8.14115 13.2792 7.50925 13.2792 6.86176 13.2792C6.86176 31.7346 6.86176 50.1045 6.86176 68.4666C19.679 68.4589 32.4261 68.4588 45.2044 68.4588ZM23.6811 34.1777C23.6967 42.324 29.805 48.9452 37.3019 48.9297C44.8066 48.9141 50.8993 42.2851 50.8914 34.1466C50.8836 26.0081 44.7598 19.3869 37.2707 19.3947C29.7816 19.3947 23.6733 26.047 23.6811 34.1777ZM17.0111 5.98099C17.0111 8.50967 17.0111 10.9761 17.0111 13.4425C19.6947 13.4425 22.3315 13.4425 24.9682 13.4425C25.1477 12.5322 24.6328 11.1395 26.0136 11.1084C27.488 11.0773 26.8873 12.5478 27.1136 13.4425C29.7816 13.4425 32.434 13.4425 35.1175 13.4425C35.1175 10.9372 35.1175 8.47077 35.1175 5.97321C29.0639 5.98099 23.0648 5.98099 17.0111 5.98099ZM37.2317 11.0539C37.5281 11.0539 37.7699 11.0539 38.0196 11.0539C40.6407 11.0539 43.2619 11.0539 45.8831 11.0539C46.9987 11.0539 47.2873 11.3729 47.2873 12.5867C47.2873 15.2165 47.2873 17.8463 47.2951 20.4762C47.2951 20.7329 47.3029 21.0753 47.4434 21.2309C48.1923 22.0323 48.9802 22.787 49.7213 23.5339C49.7213 23.495 49.7525 23.3316 49.7525 23.1682C49.7525 18.7956 49.7603 14.4229 49.7525 10.0502C49.7525 8.85202 49.3312 8.38519 48.2391 8.38519C44.7598 8.37741 41.2804 8.37741 37.7933 8.38519C37.6139 8.38519 37.4423 8.41631 37.2317 8.43187C37.2317 9.27995 37.2317 10.1047 37.2317 11.0539ZM40.7032 63.5804C40.7032 62.2889 40.7032 61.0284 40.7032 59.7524C38.394 59.7524 36.1239 59.7524 33.8694 59.7524C33.8694 61.0595 33.8694 62.32 33.8694 63.5804C36.1785 63.5804 38.4252 63.5804 40.7032 63.5804ZM33.846 56.08C33.846 56.5468 33.846 56.9747 33.846 57.4182C36.1629 57.4182 38.4408 57.4182 40.7188 57.4182C40.7188 56.9436 40.7188 56.5313 40.7188 56.08C38.4174 56.08 36.1473 56.08 33.846 56.08ZM38.4642 53.7692C38.4642 52.8744 38.4642 52.0341 38.4642 51.1938C37.6451 51.1938 36.8884 51.1938 36.1161 51.1938C36.1161 52.0886 36.1161 52.9289 36.1161 53.7692C36.9352 53.7692 37.6919 53.7692 38.4642 53.7692ZM23.9619 3.68573C25.3895 3.68573 26.7157 3.68573 28.1355 3.68573C27.5972 2.71316 26.8873 2.23854 25.9278 2.28523C25.0774 2.33191 24.4144 2.76763 23.9619 3.68573Z" fill="white"/>
<path d="M12.5566 29.1437C11.8311 29.1437 11.1134 29.1592 10.3879 29.1359C9.6702 29.1125 9.28796 28.7235 9.28016 27.9455C9.25675 26.3738 9.25675 24.8021 9.28016 23.2304C9.29576 22.468 9.69362 22.0556 10.4035 22.0478C11.8311 22.0322 13.2509 22.0322 14.6785 22.0478C15.4274 22.0556 15.8019 22.4602 15.8097 23.2849C15.8253 24.8332 15.8253 26.3816 15.8097 27.9299C15.8019 28.7546 15.4352 29.1281 14.6707 29.1437C13.9608 29.1592 13.2588 29.1514 12.5566 29.1437ZM13.7112 26.8951C13.7112 25.9848 13.7112 25.1445 13.7112 24.3042C12.8999 24.3042 12.1432 24.3042 11.3552 24.3042C11.3552 25.1834 11.3552 26.0237 11.3552 26.8951C12.151 26.8951 12.9077 26.8951 13.7112 26.8951Z" fill="white"/>
<path d="M12.541 34.2788C13.2431 34.2788 13.9452 34.2711 14.6395 34.2788C15.4119 34.2944 15.7863 34.6601 15.8019 35.4771C15.8253 37.0487 15.8253 38.6204 15.8019 40.1921C15.7941 40.9701 15.4119 41.3592 14.6942 41.3669C13.2665 41.3825 11.8468 41.3825 10.4191 41.3669C9.67803 41.3592 9.28796 40.9546 9.28016 40.1376C9.25675 38.5893 9.25675 37.0409 9.28016 35.4926C9.29576 34.6834 9.6858 34.2944 10.4347 34.2788C11.1368 34.2711 11.8389 34.2788 12.541 34.2788ZM13.7346 36.5352C12.9233 36.5352 12.151 36.5352 11.363 36.5352C11.363 37.4222 11.363 38.2625 11.363 39.095C12.19 39.095 12.9623 39.095 13.7346 39.095C13.7346 38.2236 13.7346 37.3988 13.7346 36.5352Z" fill="white"/>
<path d="M12.5723 46.5019C13.2978 46.5019 14.0155 46.4863 14.741 46.5097C15.4275 46.533 15.7864 46.9065 15.802 47.6612C15.8254 49.2562 15.8254 50.859 15.802 52.454C15.7942 53.1854 15.4041 53.59 14.7332 53.5978C13.29 53.6211 11.839 53.6211 10.3958 53.5978C9.69365 53.59 9.2958 53.1698 9.288 52.3996C9.2646 50.8279 9.2646 49.2562 9.288 47.6846C9.3036 46.9143 9.68586 46.533 10.4114 46.5097C11.1291 46.4863 11.8468 46.5019 12.5723 46.5019ZM11.3631 48.7583C11.3631 49.653 11.3631 50.4933 11.3631 51.3259C12.19 51.3259 12.9546 51.3259 13.7347 51.3259C13.7347 50.4467 13.7347 49.6219 13.7347 48.7583C12.939 48.7583 12.1822 48.7583 11.3631 48.7583Z" fill="white"/>
<path d="M15.9111 58.7256C17.7209 58.7256 19.5308 58.7334 21.3407 58.7256C21.9258 58.7256 22.3704 58.9279 22.5264 59.5815C22.698 60.3128 22.2066 60.9197 21.3952 60.943C20.3109 60.9664 19.2265 60.9508 18.1422 60.9508C15.7238 60.9508 13.3055 60.9508 10.8793 60.9508C10.6531 60.9508 10.4269 60.9586 10.2006 60.9197C9.63114 60.8263 9.3113 60.4373 9.2879 59.8226C9.2645 59.2469 9.69353 58.7645 10.2786 58.7489C11.5892 58.7178 12.8998 58.7334 14.2104 58.7334C14.7799 58.7256 15.3494 58.7256 15.9111 58.7256Z" fill="white"/>
<path d="M13.6178 65.829C12.6037 65.829 11.5817 65.8368 10.5675 65.829C9.77961 65.8213 9.30377 65.4011 9.28037 64.7398C9.26476 64.0473 9.74842 63.6194 10.5831 63.6194C12.6583 63.6116 14.7412 63.6116 16.8163 63.6194C17.6042 63.6194 18.0723 64.0473 18.0645 64.7242C18.0567 65.4011 17.5886 65.8213 16.8007 65.829C15.7397 65.8446 14.6788 65.829 13.6178 65.829Z" fill="white"/>
<path d="M37.2631 46.2532C31.108 46.2454 26.1309 40.8146 26.1543 34.1311C26.1699 27.4398 31.1626 22.0323 37.3099 22.0479C43.4338 22.0557 48.4577 27.5332 48.4343 34.1778C48.4109 40.8613 43.4104 46.2688 37.2631 46.2532ZM28.1982 34.1389C28.1826 39.5775 32.2236 44.0046 37.2241 44.0357C42.2636 44.0669 46.3436 39.6942 46.3982 34.2089C46.445 28.7858 42.3338 24.2731 37.3255 24.2576C32.2938 24.2498 28.206 28.6691 28.1982 34.1389Z" fill="white"/>
</svg>
