<svg width="76" height="82" viewBox="0 0 76 82" fill="none" xmlns="http://www.w3.org/2000/svg">
<path d="M17.0243 34.396C15.9555 35.2519 15.0428 35.9833 14.1223 36.7146C12.8819 37.7028 12.172 37.4538 11.7039 35.851C11.1188 33.8592 10.5493 31.8751 9.94864 29.8288C9.76141 29.8911 9.59759 29.9222 9.44937 29.9922C8.10757 30.6225 6.76577 31.2527 5.43177 31.8829C3.62191 32.7388 2.74818 34.2638 2.74038 36.3723C2.72477 41.4608 2.73258 46.5415 2.73258 51.63C2.73258 51.8945 2.75598 52.1668 2.70917 52.4236C2.58435 53.1005 2.2099 53.5206 1.5468 53.5051C0.891506 53.4895 0.524851 53.0771 0.407834 52.3925C0.368828 52.1902 0.392233 51.9723 0.392233 51.7545C0.392233 46.6971 0.384432 41.6397 0.392233 36.5824C0.400034 33.1823 1.81204 30.7859 4.71407 29.4554C6.32891 28.7162 7.96715 28.0238 9.51958 27.1446C10.4011 26.6388 11.2046 25.8763 11.8911 25.0827C12.1954 24.7248 12.1018 23.9779 12.2344 23.4177C12.4606 22.4684 12.2578 21.7838 11.5869 21.0524C10.3777 19.7375 9.73801 18.0257 9.6834 16.1818C9.60539 13.4041 9.52738 10.6109 9.76921 7.85656C10.1203 3.8807 12.718 1.12638 16.3612 0.441695C18.171 0.099351 19.9653 0.208278 21.6894 0.93965C24.6694 2.20788 26.4169 4.64319 26.6509 8.06664C26.8459 10.961 26.7367 13.8865 26.5963 16.7886C26.5027 18.6638 25.5977 20.2354 24.3964 21.597C24.1857 21.8304 24.1701 22.2662 24.0687 22.6085C24.0531 22.6552 24.0843 22.7096 24.0843 22.7641C23.9829 25.2694 25.4729 26.4832 27.2984 27.3858C28.804 28.1327 30.3408 28.8096 31.8543 29.541C34.5847 30.8637 35.9499 33.1667 35.9811 36.4112C35.9889 37.5472 35.9811 38.6831 35.9811 39.928C36.4881 39.928 36.9406 39.928 37.4009 39.928C39.788 39.9436 41.0206 41.4841 40.6227 44.0284C39.944 48.3544 39.2263 52.6803 38.5242 57.0063C38.4072 57.7066 38.298 58.4146 38.1732 59.1149C37.7831 61.2701 36.1605 62.7328 34.1322 62.7328C25.7928 62.7406 17.4533 62.7406 9.11392 62.7328C7.28845 62.7328 6.3133 61.8925 5.87644 59.9863C5.67361 59.1149 5.47858 58.2434 5.29135 57.3642C4.99491 56.0026 5.42397 55.388 6.69556 55.3802C8.40401 55.3724 10.1125 55.3646 11.8131 55.388C12.2968 55.3958 12.484 55.2401 12.562 54.7033C13.1315 50.9997 13.74 47.304 14.3251 43.6004C14.5747 42.0521 15.3314 40.9395 16.6342 40.247C16.8058 40.1536 17.0087 39.8891 17.0087 39.6946C17.0321 38.0062 17.0243 36.31 17.0243 34.396ZM27.8991 42.48C24.7318 42.48 21.5567 42.4722 18.3895 42.48C17.2739 42.48 16.8214 42.9235 16.6264 44.1295C15.8385 49.0235 15.0428 53.9252 14.2549 58.8192C14.0832 59.8696 14.3251 60.1808 15.2924 60.1808C21.5099 60.1808 27.7275 60.1808 33.945 60.1808C35.0761 60.1808 35.7002 59.6595 35.8953 58.4769C36.6988 53.5595 37.4945 48.6344 38.2746 43.7094C38.4462 42.6201 38.3136 42.48 37.2527 42.4723C34.14 42.4723 31.0195 42.48 27.8991 42.48ZM11.9691 11.0777C11.9691 12.307 12.0159 13.4975 11.9613 14.6801C11.8131 18.0102 13.467 20.1887 15.9243 21.7137C17.3441 22.6007 18.9668 22.5385 20.4334 21.7449C23.5772 20.0487 25.1219 16.2829 24.3027 12.5327C20.0355 12.7583 19.3334 12.4938 16.4002 9.51382C15.2378 10.9454 13.7478 11.3734 11.9691 11.0777ZM33.6017 39.8891C33.6017 38.4186 33.6797 37.0336 33.5783 35.672C33.4691 34.1237 32.7436 32.8788 31.4564 32.1864C29.8494 31.3227 28.1799 30.5913 26.4871 29.7744C26.3935 30.0545 26.3154 30.2723 26.253 30.4902C25.6992 32.3497 25.1531 34.2171 24.5992 36.0689C24.2013 37.3838 23.4758 37.6405 22.4539 36.8391C21.4709 36.0689 20.4958 35.2986 19.427 34.4505C19.427 36.3412 19.427 38.0918 19.427 39.8813C24.1545 39.8891 28.843 39.8891 33.6017 39.8891ZM12.1018 8.4401C13.662 8.79801 14.5591 8.29227 15.3002 6.65058C15.5577 6.0826 15.8775 5.66245 16.5016 5.67801C17.0945 5.70135 17.3753 6.13706 17.6172 6.67392C18.7951 9.36599 21.2837 10.642 23.9907 9.94175C24.1545 9.89507 24.373 9.63053 24.3964 9.45158C24.6382 6.86065 23.2184 4.33975 20.9951 3.36718C19.505 2.71362 17.9526 2.64359 16.4002 3.01706C13.8492 3.64728 12.0784 5.8803 12.1018 8.4401ZM14.3875 23.83C14.4577 24.5303 14.3407 25.1994 14.5981 25.5418C15.7215 27.059 16.9619 28.4828 18.1945 29.9845C19.3022 28.6229 20.3398 27.2613 21.4787 26.0008C22.0794 25.3317 22.0014 24.7015 21.8064 23.9234C19.3802 25.1216 17.0087 25.1216 14.3875 23.83ZM13.5996 33.9525C14.5903 33.1667 15.5109 32.4431 16.4626 31.6884C15.2924 30.2568 14.1691 28.8874 12.9443 27.3935C12.7336 28.0549 11.8755 28.0315 12.1096 28.8563C12.5854 30.5135 13.0769 32.1708 13.5996 33.9525ZM23.2964 27.5491C22.1886 28.9107 21.0731 30.2723 19.9185 31.6884C20.8936 32.4587 21.7986 33.1823 22.7581 33.9448C23.2184 32.3964 23.6397 30.9726 24.0531 29.5487C24.4276 28.3116 24.4276 28.3116 23.2964 27.5491ZM11.9379 57.9711C10.5805 57.9711 9.23874 57.9711 7.83453 57.9711C7.97495 58.5936 8.06076 59.1615 8.23239 59.7062C8.29479 59.9007 8.55223 60.1574 8.73166 60.1652C9.76921 60.2119 10.8068 60.1886 11.8209 60.1886C11.8599 59.4105 11.8989 58.7103 11.9379 57.9711Z" fill="white"/>
<path d="M35.4738 75.6327C35.4738 74.31 35.4348 72.9795 35.4816 71.6568C35.6064 68.1322 37.1667 65.658 40.1779 64.3042C42.7835 63.1293 45.4047 61.97 48.0259 60.8418C48.4783 60.6473 48.6578 60.4061 48.689 59.8692C48.7514 58.6244 48.9074 57.395 48.9698 56.1501C48.9854 55.8623 48.8528 55.4732 48.6578 55.2709C46.7621 53.248 45.8415 50.8127 45.865 47.9339C45.8884 45.8176 45.865 43.6935 45.8728 41.5772C45.8962 35.306 49.7733 31.2212 55.5696 31.3769C59.2829 31.478 62.2708 33.003 63.9402 36.7688C64.4317 37.8892 64.7593 39.1885 64.8061 40.4179C64.9154 43.3745 64.892 46.3466 64.7827 49.3033C64.6969 51.6219 63.6906 53.5592 62.1616 55.162C61.8339 55.5044 61.7013 55.8156 61.7715 56.3291C61.9353 57.6129 62.0445 58.9045 62.1147 60.2038C62.146 60.7095 62.3098 60.943 62.731 61.1141C65.3366 62.1567 67.9344 63.2227 70.5244 64.2964C73.442 65.5024 75.2597 68.3034 75.2909 71.6801C75.3143 74.4889 75.2987 77.2977 75.2987 80.0987C75.2987 81.0324 74.854 81.6159 74.1519 81.6315C73.4264 81.6548 72.9583 81.0635 72.9583 80.0753C72.9505 77.3988 72.9583 74.7223 72.9583 72.0536C72.9505 69.2915 71.8194 67.5253 69.4244 66.5605C66.187 65.2612 62.9807 63.8218 59.6808 62.7169C55.944 61.4643 52.1995 61.5965 48.5407 63.3394C46.0444 64.5298 43.4934 65.5802 40.9736 66.7006C38.9297 67.6109 37.8688 69.2915 37.822 71.6646C37.7752 74.3644 37.8064 77.0643 37.8064 79.7719C37.8064 80.0364 37.8142 80.3088 37.7674 80.5655C37.6425 81.2502 37.1043 81.7248 36.5114 81.6315C35.8795 81.5303 35.4894 81.1179 35.4816 80.4099C35.466 78.8071 35.4816 77.2199 35.4738 75.6327C35.4816 75.6327 35.4816 75.6327 35.4738 75.6327ZM48.2287 44.666C48.2287 45.9343 48.2053 47.2103 48.2365 48.4785C48.2911 50.7038 49.1882 52.5088 50.7641 53.886C51.1307 54.205 51.6924 54.3762 52.1683 54.3917C54.0172 54.4462 55.8816 54.2984 57.7227 54.4462C59.3921 54.5785 60.5233 53.816 61.2956 52.3921C61.8027 51.4585 62.3332 50.3847 62.3956 49.3422C62.5672 46.4167 62.6218 43.4678 62.4814 40.5423C62.341 37.4924 60.8666 35.2594 58.105 34.3879C56.849 33.9911 55.4526 33.9055 54.142 34.0222C50.6705 34.3257 48.3301 37.15 48.2365 40.9392C48.2053 42.1763 48.2287 43.4212 48.2287 44.666ZM51.0371 59.7681C54.0016 59.1457 56.8568 59.3168 59.7588 60.0249C59.673 59.1379 59.5872 58.3832 59.5326 57.6284C59.4936 57.0916 59.2127 56.8893 58.7603 56.8893C56.4979 56.8893 54.2356 56.8893 51.9733 56.8893C51.5052 56.8893 51.2477 57.1538 51.2009 57.6518C51.1385 58.3054 51.0995 58.9589 51.0371 59.7681Z" fill="white"/>
<path d="M58.3782 0.270508C62.7157 0.270508 67.0609 0.270508 71.3983 0.270508C73.7387 0.270508 75.2989 1.93555 75.3067 4.48757C75.3223 10.5486 75.3223 16.6175 75.3067 22.6785C75.2989 25.1916 73.7621 26.88 71.4607 26.88C62.7079 26.8878 53.955 26.8878 45.2021 26.88C42.8929 26.88 41.3795 25.2072 41.3561 22.6863C41.3483 21.8149 41.3327 20.9357 41.3639 20.0642C41.3795 19.5974 41.2313 19.3562 40.849 19.1539C39.1874 18.2669 37.557 17.3255 35.8953 16.4307C34.9124 15.9016 34.3273 15.108 34.3195 13.8865C34.3117 12.6649 34.8812 11.8635 35.8641 11.3267C37.5413 10.4164 39.203 9.46712 40.8802 8.56458C41.2391 8.37007 41.3717 8.14443 41.3639 7.7165C41.3405 6.58054 41.3405 5.4368 41.3639 4.30084C41.4107 1.94333 42.9709 0.278287 45.1397 0.278287C49.5473 0.270507 53.9628 0.270508 58.3782 0.270508ZM36.5272 13.8709C36.8548 14.0654 37.0577 14.1977 37.2683 14.3144C39.125 15.357 40.9817 16.4074 42.8539 17.4344C43.4468 17.7612 43.7199 18.228 43.7043 18.9516C43.6809 20.1654 43.6887 21.3869 43.7043 22.6007C43.7199 23.8534 44.1567 24.3358 45.2957 24.3358C53.994 24.3358 62.6923 24.3358 71.3905 24.3358C72.4827 24.3358 72.9508 23.8378 72.9586 22.6474C72.9664 16.6097 72.9664 10.5797 72.9586 4.54203C72.9586 3.32826 72.4671 2.82253 71.3437 2.82253C62.6688 2.82253 53.994 2.82253 45.3191 2.82253C44.1645 2.82253 43.7043 3.32048 43.6965 4.61206C43.6887 5.95809 43.6731 7.31191 43.7043 8.65795C43.7199 9.46712 43.439 9.98842 42.7603 10.3541C40.9114 11.3578 39.0782 12.4004 37.2449 13.4352C37.0343 13.5519 36.8392 13.6764 36.5272 13.8709Z" fill="white"/>
<path d="M9.60518 48.0195C9.60518 49.3422 9.61298 50.6649 9.60518 51.9798C9.59738 52.9757 9.14492 53.5359 8.39601 53.5126C7.6861 53.4892 7.26484 52.9368 7.26484 51.9798C7.25704 49.3111 7.25704 46.6423 7.26484 43.9736C7.26484 43.0399 7.71731 42.4875 8.42721 42.4797C9.14492 42.4797 9.58958 43.0322 9.59738 43.9658C9.61299 45.3196 9.60518 46.6735 9.60518 48.0195Z" fill="white"/>
<path d="M28.4843 51.2565C28.4921 51.9489 27.9929 52.5247 27.361 52.548C26.7135 52.5714 26.144 51.9645 26.1518 51.2643C26.1596 50.5873 26.6901 50.0194 27.322 50.0194C27.9617 50.0116 28.4765 50.564 28.4843 51.2565Z" fill="white"/>
<path d="M58.6044 12.3222C61.4284 12.3222 64.2602 12.3067 67.0843 12.3378C67.4665 12.3456 67.9424 12.4779 68.1998 12.7424C68.8161 13.3882 68.4495 14.602 67.6069 14.8042C67.2793 14.8821 66.9282 14.8665 66.5928 14.8665C61.2334 14.8665 55.8662 14.8665 50.5068 14.8665C50.2884 14.8665 50.0699 14.8743 49.8515 14.8587C49.0792 14.7887 48.6579 14.3219 48.6657 13.5516C48.6813 12.7891 49.1104 12.3378 49.9061 12.33C51.6146 12.3145 53.3152 12.3222 55.0237 12.3222C56.2173 12.3145 57.4108 12.3222 58.6044 12.3222Z" fill="white"/>
<path d="M58.5265 9.21025C55.6712 9.21025 52.8238 9.21803 49.9686 9.20247C49.0793 9.20247 48.6268 8.72786 48.658 7.89534C48.6814 7.26511 48.9701 6.84496 49.5551 6.72047C49.8126 6.66601 50.0856 6.65823 50.3509 6.65823C55.8351 6.65823 61.3193 6.65823 66.8035 6.65823C66.9985 6.65823 67.1935 6.65045 67.3886 6.67379C68.1063 6.76716 68.5041 7.25733 68.4807 7.99649C68.4573 8.73564 68.0361 9.18691 67.295 9.19469C64.5646 9.21025 61.8342 9.20247 59.1037 9.20247C58.9165 9.21025 58.7215 9.21025 58.5265 9.21025Z" fill="white"/>
<path d="M55.0396 20.4763C53.3623 20.4763 51.6851 20.4841 50 20.4763C49.1107 20.4686 48.6504 20.0251 48.666 19.2003C48.6738 18.4067 49.1185 17.9399 49.961 17.9399C53.3389 17.9243 56.7246 17.9243 60.1103 17.9399C60.9138 17.9399 61.3975 18.4767 61.3897 19.2315C61.3819 20.0017 60.906 20.4686 60.0791 20.4763C58.394 20.4841 56.7168 20.4763 55.0396 20.4763Z" fill="white"/>
</svg>
