<svg width="68" height="71" viewBox="0 0 68 71" fill="none" xmlns="http://www.w3.org/2000/svg">
<path d="M65.8441 8.07524C56.4048 8.07524 46.9732 8.07524 37.5182 8.07524C37.5182 11.382 37.5182 14.642 37.5182 17.9954C37.7834 18.011 38.033 18.0343 38.2905 18.0343C44.7108 18.0343 51.1312 18.0421 57.5515 18.0343C59.4628 18.0266 60.9528 18.8124 61.7642 20.7264C62.0762 21.4578 62.2088 22.337 62.2088 23.1539C62.24 34.2646 62.2323 45.3674 62.2245 56.4781C62.2245 59.6292 60.4458 61.5665 57.5281 61.5665C52.6056 61.5743 47.6753 61.5665 42.7528 61.5665C42.4953 61.5665 42.2379 61.5665 41.9415 61.5665C41.9415 62.6169 41.9415 63.5895 41.9415 64.671C42.1677 64.671 42.4017 64.671 42.6279 64.671C44.4768 64.671 46.3257 64.671 48.1668 64.671C49.493 64.671 50.1326 65.3712 50.1404 66.8262C50.1482 67.4486 50.1482 68.0711 50.1404 68.6858C50.1248 70.1485 49.5086 70.8332 48.1668 70.8332C41.6996 70.8332 35.2403 70.8332 28.7731 70.8332C25.4732 70.8332 22.1733 70.8332 18.8812 70.8332C17.5472 70.8332 16.9075 70.1407 16.8919 68.6935C16.8841 68.0011 16.8763 67.3086 16.8997 66.6161C16.9388 65.3946 17.6175 64.6788 18.7486 64.6788C20.8549 64.671 22.9613 64.6788 25.1144 64.6788C25.1144 63.644 25.1144 62.6558 25.1144 61.5743C24.8491 61.5743 24.5839 61.5743 24.3265 61.5743C19.4039 61.5743 14.4736 61.5588 9.55108 61.5821C7.6476 61.5899 6.13418 60.8352 5.31506 58.9289C4.99521 58.182 4.85477 57.2717 4.85477 56.4392C4.82357 48.0751 4.83139 39.7187 4.83139 31.3547C4.83139 31.0668 4.83139 30.7867 4.83139 30.3899C4.27751 30.3899 3.76261 30.3899 3.24774 30.3899C1.34426 30.3821 0.345734 29.3161 0.345734 27.2621C0.345734 21.0532 0.345734 14.8443 0.345734 8.62766C0.345734 6.64361 1.32085 5.56212 3.14632 5.56212C11.8758 5.55434 20.6053 5.55434 29.3348 5.56212C31.1603 5.56212 32.1276 6.6514 32.1354 8.64322C32.1354 9.11783 32.151 9.60023 32.1276 10.0748C32.0964 10.8062 31.7063 11.2575 31.129 11.2497C30.5518 11.2497 30.1695 10.8062 30.1539 10.0671C30.1383 9.54576 30.1461 9.01668 30.1539 8.48761C30.1617 7.94297 29.9199 7.70177 29.4284 7.70955C29.1241 7.71733 28.8121 7.70955 28.5079 7.70955C20.1528 7.70955 11.7978 7.70955 3.44277 7.70955C2.36621 7.70955 2.32721 7.74846 2.32721 8.91554C2.32721 14.9844 2.32721 21.0532 2.32721 27.1142C2.32721 28.1179 2.42082 28.2191 3.34916 28.2191C3.77042 28.2191 4.18387 28.2113 4.60513 28.2113C4.64414 28.2113 4.69094 28.188 4.80016 28.1568C4.80796 27.9546 4.83139 27.7289 4.83139 27.4955C4.83139 25.9939 4.82359 24.4844 4.83139 22.9828C4.847 20.5552 5.93913 18.9602 8.06884 18.1744C8.24827 18.1122 8.4511 17.8009 8.4589 17.5909C8.49791 16.665 8.49012 15.7313 8.47452 14.7976C8.45891 13.7161 8.88798 12.9225 9.74611 12.3857C11.478 11.2964 13.2098 10.2149 14.9338 9.11783C15.8154 8.55763 16.6735 8.57319 17.5473 9.13339C19.2557 10.2227 20.9642 11.2886 22.6804 12.3623C23.562 12.9147 24.0066 13.7084 23.9832 14.8288C23.9676 15.8558 23.9832 16.8828 23.9832 17.9721C26.0271 17.9721 28.032 17.9721 30.1461 17.9721C30.1461 17.4508 30.1383 16.9139 30.1461 16.3771C30.1617 15.6302 30.5206 15.1867 31.0978 15.1711C31.6985 15.1555 32.0964 15.6146 32.1198 16.3926C32.1354 16.9139 32.1198 17.4352 32.1198 17.9954C33.2432 17.9954 34.3119 17.9954 35.4665 17.9954C35.4665 17.6842 35.4665 17.4119 35.4665 17.1318C35.4665 12.5724 35.4665 8.00521 35.4665 3.44581C35.4665 1.78855 36.114 0.745957 37.3621 0.395832C37.6586 0.310246 37.9707 0.302466 38.2749 0.302466C47.1994 0.294686 56.1317 0.294686 65.0562 0.302466C66.8817 0.302466 67.8803 1.38396 67.8803 3.35244C67.8803 9.87255 67.8803 16.3927 67.8803 22.9128C67.8803 24.8268 66.8661 25.9238 65.0953 25.9472C64.7442 25.9549 64.3853 25.9705 64.0421 25.9238C63.4102 25.846 63.0514 25.3947 63.0982 24.7801C63.1528 24.1187 63.535 23.8231 64.1123 23.7997C64.4868 23.7842 64.8612 23.7997 65.2357 23.792C65.6491 23.7842 65.8988 23.5663 65.8988 23.0917C65.891 18.1199 65.8909 13.1559 65.8831 8.18416C65.9065 8.15304 65.8832 8.1297 65.8441 8.07524ZM60.2429 53.1791C60.2429 52.8601 60.2429 52.6267 60.2429 52.3933C60.2429 42.652 60.2429 32.903 60.2429 23.1617C60.2429 21.1388 59.3614 20.1896 57.4892 20.1896C51.0688 20.1896 44.6485 20.1896 38.2281 20.1896C37.9941 20.1896 37.7678 20.2129 37.565 20.2285C37.526 20.3529 37.5026 20.3919 37.4948 20.4385C37.487 21.131 37.4792 21.8235 37.4792 22.5159C37.4792 23.7064 37.5494 23.7842 38.626 23.7842C44.7811 23.7842 50.9362 23.7842 57.0913 23.7842C57.8948 23.7842 58.3083 24.1576 58.3161 24.8423C58.3161 25.5115 57.887 25.9316 57.1069 25.9316C50.7723 25.9394 44.4456 25.9472 38.1111 25.9238C36.5586 25.916 35.5835 24.8268 35.5055 23.1306C35.4665 22.3681 35.4977 21.6056 35.4899 20.8353C35.4899 20.633 35.4587 20.4308 35.4431 20.244C34.3119 20.244 33.2509 20.244 32.1978 20.244C32.1744 20.3452 32.151 20.3919 32.151 20.4308C32.1432 22.6249 32.1432 24.8268 32.1432 27.0209C32.1432 29.3551 31.2071 30.3665 29.0383 30.3665C21.9159 30.3665 14.7935 30.3665 7.66322 30.3665C7.39017 30.3665 7.1171 30.3665 6.84406 30.3665C6.84406 38.0226 6.84406 45.5619 6.84406 53.1713C7.1171 53.1713 7.35114 53.1713 7.58518 53.1713C11.7198 53.1713 15.8544 53.1713 19.989 53.1713C20.2075 53.1713 20.4337 53.1558 20.6443 53.1947C21.128 53.288 21.44 53.5915 21.479 54.1439C21.5258 54.7274 21.2606 55.1087 20.7535 55.2565C20.5039 55.3265 20.2308 55.3188 19.9656 55.3188C15.831 55.3188 11.6964 55.3188 7.5618 55.3188C7.32776 55.3188 7.09372 55.3188 6.82068 55.3188C6.82068 55.9879 6.77388 56.587 6.82849 57.1705C6.9533 58.3999 7.8426 59.2791 8.98937 59.3724C9.2078 59.388 9.42626 59.388 9.64469 59.388C25.5434 59.388 41.4344 59.388 57.3331 59.388C57.5984 59.388 57.8636 59.388 58.121 59.3569C59.0962 59.2479 59.7905 58.6644 60.0479 57.6685C60.2351 56.9371 60.1883 56.1357 60.2585 55.3188C59.8295 55.3188 59.5486 55.3188 59.26 55.3188C48.666 55.3188 38.0643 55.3188 27.4703 55.3188C27.1895 55.3188 26.893 55.3343 26.62 55.2565C26.1129 55.1165 25.8477 54.7197 25.8945 54.1439C25.9335 53.5915 26.2456 53.2803 26.7292 53.1947C26.9633 53.1558 27.2129 53.1713 27.4547 53.1713C38.0487 53.1713 48.6504 53.1713 59.2444 53.1713C59.5643 53.1791 59.8451 53.1791 60.2429 53.1791ZM23.9988 20.2207C23.9988 20.633 23.991 20.9598 23.9988 21.2866C24.0378 22.4304 23.5854 23.2473 22.6726 23.8075C20.9564 24.8734 19.2479 25.9549 17.5473 27.0364C16.6657 27.5966 15.8076 27.5889 14.9338 27.0287C13.2332 25.9472 11.517 24.8657 9.80853 23.7997C8.927 23.2551 8.46669 22.4615 8.4979 21.3489C8.5057 21.0299 8.4979 20.7109 8.4979 20.3218C7.47595 20.7264 6.92211 21.4422 6.8831 22.4304C6.81289 24.3288 6.85967 26.235 6.85967 28.1568C6.96889 28.1802 7.04688 28.2113 7.1327 28.2113C14.5594 28.2113 21.9861 28.2113 29.4128 28.2191C29.9823 28.2191 30.1695 27.8923 30.1695 27.3088C30.1539 25.068 30.1617 22.8194 30.1617 20.5786C30.1617 20.4697 30.1305 20.353 30.1071 20.2129C28.0866 20.2207 26.0895 20.2207 23.9988 20.2207ZM65.852 5.84222C65.8832 5.75663 65.9144 5.71773 65.9144 5.67883C65.9222 5.0097 65.93 4.34057 65.93 3.67144C65.93 2.51214 65.8676 2.44212 64.8222 2.44212C56.0771 2.44212 47.332 2.44212 38.5869 2.44212C38.4309 2.44212 38.2437 2.37987 38.1345 2.45768C37.9005 2.61329 37.5416 2.82336 37.526 3.03344C37.4558 3.95154 37.4948 4.87743 37.4948 5.83444C46.981 5.84222 56.397 5.84222 65.852 5.84222ZM18.9203 68.6157C28.6873 68.6157 38.4075 68.6157 48.1122 68.6157C48.1122 68.0011 48.1122 67.4331 48.1122 66.8495C38.3607 66.8495 28.6639 66.8495 18.9203 66.8495C18.9203 67.4409 18.9203 68.0088 18.9203 68.6157ZM27.1738 64.6243C31.4333 64.6243 35.6381 64.6243 39.882 64.6243C39.882 63.605 39.882 62.6169 39.882 61.5977C35.6303 61.5977 31.4177 61.5977 27.1738 61.5977C27.1738 62.6169 27.1738 63.5817 27.1738 64.6243ZM11.4546 13.8173C13.046 14.821 14.5438 15.7702 16.0416 16.6961C16.1509 16.7583 16.3537 16.7583 16.4629 16.6883C17.9607 15.7624 19.4507 14.8132 21.0343 13.8173C19.8096 13.047 18.6238 12.409 17.5551 11.592C16.6111 10.8607 15.8544 10.8762 14.9183 11.5998C13.8573 12.409 12.6715 13.047 11.4546 13.8173ZM17.243 24.7334C18.46 23.9709 19.5365 23.1851 20.6911 22.5937C21.7365 22.0569 22.1578 21.3566 22.0485 20.0729C21.9237 18.6724 22.0173 17.2407 22.0173 15.6924C20.4103 16.7039 18.9124 17.6375 17.4302 18.5945C17.321 18.6646 17.2508 18.9058 17.2508 19.0692C17.2352 20.9054 17.243 22.7338 17.243 24.7334ZM15.2537 24.7334C15.2537 22.7416 15.2693 20.9132 15.2381 19.0769C15.2381 18.8591 15.0275 18.579 14.8402 18.4545C13.6779 17.692 12.4999 16.9606 11.322 16.2215C11.0723 16.0659 10.8071 15.918 10.4716 15.7157C10.4716 17.6842 10.4638 19.5204 10.4794 21.3489C10.4794 21.5278 10.5886 21.7846 10.7213 21.8702C12.1957 22.8194 13.6779 23.7453 15.2537 24.7334Z" fill="white"/>
<path d="M57.2786 15.9182C55.656 15.9182 54.0255 15.9182 52.4029 15.9182C52.1844 15.9182 51.9582 15.9259 51.7476 15.8715C51.2249 15.7548 50.9285 15.3735 50.9441 14.8133C50.9597 14.222 51.2873 13.833 51.8568 13.7863C52.2312 13.7552 52.6057 13.7707 52.9802 13.7707C56.0148 13.7707 59.0495 13.7707 62.0763 13.7707C62.2558 13.7707 62.4274 13.763 62.6068 13.7785C63.2309 13.8174 63.6443 14.2376 63.6521 14.8289C63.6599 15.4124 63.2543 15.887 62.6302 15.9104C61.7487 15.9493 60.8749 15.9259 59.9934 15.9259C59.0807 15.9182 58.1835 15.9182 57.2786 15.9182Z" fill="white"/>
<path d="M57.3177 10.3159C58.9871 10.3159 60.6566 10.3159 62.326 10.3159C63.1763 10.3159 63.6288 10.6816 63.6367 11.3585C63.6523 12.0276 63.1686 12.4633 62.3572 12.4633C58.9715 12.4711 55.5858 12.4711 52.2079 12.4633C51.2406 12.4633 50.6945 11.7475 51.0221 10.9461C51.2328 10.4404 51.6306 10.3081 52.1065 10.3081C53.8462 10.3159 55.578 10.3159 57.3177 10.3159Z" fill="white"/>
<path d="M44.6096 13.7627C45.5535 13.7627 46.4975 13.755 47.4414 13.7627C48.1747 13.7705 48.6116 14.1673 48.635 14.7975C48.6506 15.4511 48.1981 15.9024 47.4414 15.9102C45.5769 15.9257 43.7124 15.9257 41.8479 15.9102C41.0912 15.9024 40.6388 15.4511 40.6622 14.7898C40.6856 14.1518 41.1146 13.7705 41.8557 13.7627C42.7685 13.755 43.689 13.7627 44.6096 13.7627Z" fill="white"/>
<path d="M44.6327 12.4711C43.7121 12.4711 42.7916 12.4789 41.8711 12.4711C41.1066 12.4556 40.6541 12.0354 40.6541 11.3741C40.6619 10.7127 41.0988 10.3237 41.8867 10.3237C43.7278 10.3159 45.5688 10.3159 47.4177 10.3237C48.1822 10.3237 48.6425 10.7439 48.6347 11.3974C48.6269 12.051 48.1666 12.4556 47.3943 12.4711C46.4738 12.4789 45.5532 12.4711 44.6327 12.4711Z" fill="white"/>
<path d="M12.0785 41.757C12.0785 39.6563 12.0785 37.5555 12.0785 35.4548C12.0785 33.9764 12.726 33.284 14.099 33.284C17.8358 33.284 21.5647 33.2762 25.3014 33.284C26.6276 33.284 27.2829 33.992 27.2829 35.4314C27.2829 39.6563 27.2829 43.8811 27.2829 48.1059C27.2829 49.522 26.651 50.2145 25.3561 50.2223C21.5803 50.23 17.7967 50.23 14.021 50.2223C12.7104 50.2223 12.0785 49.5376 12.0785 48.1293C12.0707 46.0052 12.0785 43.8811 12.0785 41.757ZM14.099 35.4781C14.099 39.6796 14.099 43.8422 14.099 48.0204C17.8436 48.0204 21.5413 48.0204 25.2468 48.0204C25.2468 43.8111 25.2468 39.6485 25.2468 35.4781C21.5101 35.4781 17.828 35.4781 14.099 35.4781Z" fill="white"/>
<path d="M43.0104 49.7556C39.8509 49.7556 36.6836 49.7712 33.5242 49.7323C33.1575 49.7245 32.6895 49.53 32.4398 49.2499C32.003 48.7597 32.2838 47.9194 32.9079 47.7016C33.1732 47.6082 33.4696 47.6082 33.7505 47.6082C39.9446 47.6004 46.1386 47.6082 52.3249 47.6082C52.481 47.6082 52.6292 47.6004 52.7852 47.616C53.4483 47.6704 53.8383 48.1139 53.8149 48.7442C53.7915 49.3433 53.4015 49.7478 52.754 49.7556C51.2406 49.7712 49.7271 49.7634 48.2059 49.7634C46.4819 49.7556 44.7422 49.7556 43.0104 49.7556Z" fill="white"/>
<path d="M43.0104 36.6142C39.9289 36.6142 36.8552 36.6142 33.7738 36.6142C33.5319 36.6142 33.2901 36.6142 33.0483 36.5676C32.549 36.4742 32.276 36.1241 32.2604 35.5794C32.2448 35.0348 32.4866 34.6613 32.9859 34.5368C33.2355 34.4746 33.5085 34.459 33.766 34.459C39.9445 34.4512 46.123 34.459 52.3015 34.459C52.3874 34.459 52.481 34.459 52.5668 34.459C53.4093 34.4901 53.8306 34.8714 53.815 35.5794C53.7994 36.2563 53.3937 36.6065 52.5668 36.6065C49.3917 36.622 46.2011 36.6142 43.0104 36.6142Z" fill="white"/>
<path d="M42.9713 45.4531C39.8977 45.4531 36.8241 45.4531 33.7504 45.4531C33.532 45.4531 33.3057 45.4687 33.0951 45.422C32.588 45.3053 32.276 44.9629 32.276 44.3794C32.276 43.7959 32.5802 43.4535 33.0873 43.329C33.2745 43.2823 33.4774 43.2979 33.6802 43.2979C39.9367 43.2979 46.1932 43.2979 52.4576 43.2979C52.6136 43.2979 52.7696 43.2901 52.9178 43.3135C53.4873 43.3913 53.8618 43.827 53.8384 44.4105C53.8072 45.0252 53.4795 45.3597 52.9256 45.4376C52.7306 45.4687 52.5278 45.4531 52.3327 45.4531C49.2045 45.4531 46.084 45.4531 42.9713 45.4531Z" fill="white"/>
<path d="M37.8771 30.063C39.3905 30.063 40.9039 30.063 42.4174 30.063C42.94 30.063 43.3769 30.3197 43.4237 30.8721C43.4549 31.23 43.2443 31.6658 43.0258 31.9692C42.901 32.1481 42.55 32.1948 42.3003 32.1948C39.3359 32.2104 36.3714 32.2104 33.4148 32.1948C32.6659 32.187 32.268 31.7825 32.2602 31.1289C32.2524 30.4442 32.6659 30.063 33.4616 30.0552C34.936 30.0552 36.4105 30.063 37.8771 30.063Z" fill="white"/>
<path d="M49.3683 30.063C50.5072 30.063 51.654 30.0552 52.793 30.063C53.5809 30.0708 54.0256 30.4521 54.049 31.0978C54.0646 31.7748 53.6043 32.2027 52.7852 32.2105C50.476 32.226 48.1747 32.226 45.8655 32.2105C45.0698 32.2027 44.6564 31.8059 44.6564 31.129C44.6564 30.4521 45.0698 30.0708 45.8734 30.063C47.0357 30.0552 48.1981 30.063 49.3683 30.063Z" fill="white"/>
<path d="M36.0594 41.0258C35.1623 41.0258 34.2652 41.0413 33.3602 41.018C32.6737 41.0024 32.2758 40.6056 32.2602 39.9754C32.2524 39.3452 32.6425 38.8939 33.3212 38.8783C35.1623 38.855 37.0034 38.855 38.8444 38.8783C39.5153 38.8861 39.9288 39.3607 39.921 39.9676C39.9132 40.5745 39.4763 41.0024 38.8132 41.0102C37.9005 41.0413 36.98 41.0258 36.0594 41.0258Z" fill="white"/>
<path d="M44.7731 41.0258C43.876 41.0258 42.9789 41.0414 42.074 41.018C41.4031 41.0025 40.9896 40.5823 40.9818 39.9677C40.9818 39.3452 41.3797 38.8939 42.0584 38.8862C43.8994 38.8628 45.7405 38.8628 47.5816 38.8862C48.2525 38.8939 48.6581 39.3686 48.6425 39.991C48.6269 40.6057 48.2057 41.0102 47.527 41.0258C46.6142 41.0414 45.6937 41.0258 44.7731 41.0258Z" fill="white"/>
<path d="M33.4928 58.2831C32.9467 58.2831 32.3928 58.3064 31.8467 58.2753C31.168 58.2364 30.7467 57.8163 30.7389 57.2172C30.7311 56.6103 31.1446 56.159 31.8233 56.1435C32.9623 56.1123 34.1012 56.1123 35.2402 56.1435C35.9189 56.159 36.3167 56.6025 36.3089 57.225C36.2933 57.8163 35.9033 58.2053 35.2636 58.2753C35.2168 58.2831 35.1778 58.2831 35.131 58.2831C34.5849 58.2909 34.0388 58.2909 33.4928 58.2831Z" fill="white"/>
<path d="M51.8256 41.0102C51.4512 41.0102 51.0767 41.0413 50.7101 41.0024C50.1874 40.9479 49.8675 40.6134 49.8285 40.0376C49.7895 39.454 50.0547 39.0028 50.5774 38.9561C51.4043 38.8783 52.2391 38.8783 53.066 38.9483C53.5887 38.995 53.8539 39.4385 53.8227 40.022C53.7915 40.5978 53.4795 40.9479 52.949 41.0024C52.5745 41.0413 52.2001 41.0102 51.8256 41.0102Z" fill="white"/>
</svg>
