<svg width="224" height="224" viewBox="0 0 224 224" fill="none" xmlns="http://www.w3.org/2000/svg">
<g clip-path="url(#clip0_908_432)">
<path d="M158.008 28.9885C139.537 18.7968 119.841 15.1672 98.9414 17.9074C81.5534 20.1669 65.9451 26.7771 52.3569 37.81C32.7804 53.7465 20.7555 74.1779 17.4366 99.2964C13.8532 126.362 20.539 150.832 37.7346 172.032C53.5835 191.574 74.1701 203.304 99.2541 206.525C126.262 209.986 150.649 203.232 171.764 186.07C191.221 170.253 202.837 149.726 206.131 124.752C208.873 104.032 205.193 84.4897 195.093 66.1495C199.013 62.0152 202.957 57.8808 207.214 54.059C207.358 54.3234 207.478 54.5637 207.647 54.8281C223.111 81.3409 227.295 109.536 220.152 139.366C209.715 182.801 171.812 216.885 127.464 222.774C124.771 223.135 122.005 222.99 119.432 223.976C114.189 223.976 108.922 223.976 103.679 223.976C101.25 222.966 98.6047 223.111 96.0795 222.774C51.3709 216.741 13.8772 182.921 3.22316 138.957C-10.7257 81.3889 21.8137 23.3158 78.4029 5.6967C109.211 -3.89403 138.96 -0.408678 167.219 15.2874C168.181 15.8162 169.119 16.3451 170.081 16.8979C166.257 21.1284 162.12 25.0464 158.008 28.9885Z" fill="white"/>
<path d="M224 37.2573C218.228 42.6656 212.648 48.2902 207.189 54.0591C202.956 57.8809 199.012 62.0153 195.068 66.1496C194.082 67.0871 192.951 67.9284 192.11 68.986C190.883 70.5003 189.681 70.7647 187.805 69.9715C181.937 67.4957 175.996 65.2122 170.08 62.8806C178.209 54.66 186.314 46.4153 194.467 38.1947C197.449 35.1901 200.503 32.2816 203.509 29.3491C206.107 29.7337 208.391 31.0317 210.82 31.9211C215.222 33.5075 219.599 35.1901 223.976 36.8486C224 36.9688 224 37.113 224 37.2573Z" fill="#F98149"/>
<path d="M167.075 65.8852C170.634 69.3946 173.183 73.6491 175.516 77.9758C181.793 89.6337 184.848 102.157 184.054 115.401C182.515 140.808 170.85 160.47 149.302 174.003C135.305 182.801 119.817 186.142 103.463 184.075C78.8118 180.95 60.2213 168.282 48.1243 146.649C39.9954 132.131 37.3019 116.339 40.4764 99.9696C45.9598 71.5579 62.6504 52.1842 90.0431 43.3146C114.357 35.4304 137.085 40.3099 157.383 56.006C158.345 56.7512 158.345 57.2079 157.527 58.0251C152.765 62.7364 148.003 67.4717 143.313 72.255C142.496 73.0723 142.015 72.9521 141.149 72.3271C117.869 55.8618 87.8546 60.7894 71.1399 83.7927C59.2112 100.186 59.1391 124.031 71.0919 140.568C81.5535 155.014 95.8151 162.273 113.636 161.792C136.459 161.168 156.204 144.294 160.461 122.084C163.155 108.022 160.341 95.042 152.044 83.2879C151.707 82.8312 151.226 82.4226 151.202 81.7976C156.469 76.4855 161.784 71.1733 167.075 65.8852Z" fill="#F98149"/>
<path d="M134.534 98.4551C137.853 103.19 138.984 108.575 138.503 114.199C137.492 126.314 129.147 135.712 117.315 138.429C102.572 141.818 87.4928 131.193 85.184 116.266C82.731 100.282 95.5495 84.6099 113.106 85.4271C117.002 85.5954 120.682 86.7011 124.193 88.4558C125.636 89.1769 125.804 89.7538 124.578 90.9556C118.974 96.4601 113.419 102.037 107.863 107.613C104.761 110.714 104.664 113.67 107.43 117.036C110.557 119.439 113.539 119.271 116.401 116.459C122.485 110.474 128.498 104.464 134.534 98.4551Z" fill="#F98149"/>
<path d="M158.008 28.9885C162.121 25.0465 166.257 21.1044 170.081 16.8739C173.881 13.1722 177.705 9.49458 181.457 5.76886C183.236 3.99013 184.944 2.11525 186.964 0C187.686 1.77873 188.191 3.02865 188.696 4.30261C190.572 9.10999 192.399 13.9414 194.347 18.7248C194.852 19.9747 194.732 20.816 193.746 21.8015C183.381 32.1133 173.039 42.4492 162.722 52.8091C161.519 54.0109 161.062 53.9629 160.461 52.3524C158.345 46.7037 156.156 41.0791 153.92 35.4785C153.415 34.2526 153.655 33.4834 154.569 32.6181C155.771 31.4884 156.854 30.2144 158.008 28.9885Z" fill="#F98149"/>
<path d="M203.533 29.3251C200.503 32.2816 197.449 35.1901 194.49 38.1707C186.338 46.3913 178.233 54.636 170.104 62.8566C168.901 63.6739 167.963 64.7315 167.098 65.8612C161.783 71.1734 156.492 76.4615 151.177 81.7496C145.477 87.1579 139.849 92.6383 134.534 98.4553C128.498 104.44 122.461 110.474 116.401 116.435C113.539 119.247 110.557 119.391 107.43 117.012C107.502 116.723 107.646 116.507 107.815 116.291C107.646 116.411 107.43 116.507 107.214 116.579C104.809 113.454 104.977 110.474 107.791 107.613C113.779 101.556 119.792 95.5228 125.78 89.4895C131.576 84.1773 137.059 78.5527 142.495 72.856C147.786 67.5678 153.101 62.2557 158.392 56.9435C159.522 56.0782 160.58 55.1167 161.398 53.9389C169.623 45.8144 177.872 37.714 186.097 29.5655C189.103 26.5849 192.013 23.5322 194.947 20.5276C195.909 21.417 196.823 22.3544 197.857 23.1476C199.084 24.0851 199.204 24.7821 198.435 25.7676C199.348 25.0946 200.022 25.2629 200.912 26.4407C201.705 27.4743 202.667 28.3636 203.533 29.3251Z" fill="white"/>
</g>
<defs>
<clipPath id="clip0_908_432">
<rect width="224" height="224" fill="white"/>
</clipPath>
</defs>
</svg>
