<svg width="109" height="115" viewBox="0 0 109 115" fill="none" xmlns="http://www.w3.org/2000/svg">
<path d="M54.3334 0C55.1304 0.227444 56.0574 0.454888 56.9357 0.763562C73.4112 6.40093 89.8543 12.1033 106.362 17.6432C108.607 18.3905 109.225 19.3165 108.932 21.6559C106.184 43.4906 103.532 65.3414 100.963 87.1923C100.735 89.1743 100.052 90.3278 98.2791 91.3025C84.357 98.9219 70.4674 106.606 56.6104 114.356C54.9189 115.298 53.634 115.152 52.0239 114.274C38.2319 106.655 24.4237 99.0681 10.5666 91.5625C8.8914 90.6527 8.28961 89.5642 8.07818 87.7284C5.47592 65.6339 2.79233 43.5555 0.0599509 21.4772C-0.151483 19.7714 0.141276 18.8616 1.83275 18.2768C18.8288 12.3632 35.8248 6.38468 52.8046 0.422396C53.26 0.259936 53.7316 0.16246 54.3334 0ZM54.3659 108.962C55.2279 108.605 56.155 108.345 56.9682 107.89C68.5971 101.489 80.1446 94.9741 91.8548 88.7357C94.8148 87.1598 96.0184 85.194 96.3925 81.9123C98.5719 63.3432 100.93 44.8065 103.386 26.2698C103.744 23.6217 103.061 22.5332 100.556 21.7047C86.1623 16.9283 71.8336 11.9895 57.4724 7.11575C56.464 6.77458 55.4719 6.3197 54.3659 6.61212C53.5527 6.69335 52.6745 6.59588 51.9426 6.85581C37.4187 11.9733 22.9273 17.172 8.40346 22.2733C6.37045 22.9881 6.07769 24.2065 6.28912 26.0911C8.58237 45.4726 10.8593 64.854 13.0713 84.2355C13.2827 86.0713 14.0471 87.241 15.6573 88.1183C27.8066 94.7792 39.9071 101.505 52.0402 108.182C52.7558 108.556 53.5852 108.702 54.3659 108.962Z" fill="#AAACB1"/>
<path d="M54 7.09329C55.1036 6.80213 56.0937 7.25505 57.0999 7.59474C71.431 12.4474 85.7296 17.3648 100.093 22.1205C102.592 22.9454 103.258 24.0292 102.917 26.6658C100.466 45.1223 98.113 63.5787 95.9382 82.0675C95.5487 85.335 94.3639 87.2761 91.41 88.8613C79.7245 95.0727 68.2012 101.575 56.5968 107.932C55.7853 108.385 54.8764 108.644 54 109C54 75.0311 54 41.0622 54 7.09329ZM71.3498 52.7087C71.3498 58.2407 71.3498 63.789 71.3498 69.3211C71.3498 77.8133 71.3498 77.9104 63.0238 77.7486C60.4595 77.7001 59.8266 78.5574 59.8103 80.9676C59.8103 83.4101 60.2323 84.5747 63.0725 84.51C70.8792 84.3321 78.6857 84.4292 86.4761 84.4615C88.4075 84.4777 89.8682 84.4292 89.852 81.744C89.8357 79.1882 88.8132 78.428 86.4761 78.5412C84.7071 78.6221 82.9218 78.3956 81.1527 78.4603C79.0266 78.5574 78.28 77.6839 78.28 75.5487C78.3449 61.298 78.3449 47.031 78.2962 32.7803C78.2962 30.9039 78.702 30.1598 80.7145 30.9039C82.6945 31.648 84.8044 32.0685 86.8007 32.7964C88.8944 33.5729 89.787 33.2008 89.8357 30.7583C89.8844 28.6231 89.1054 27.6202 87.1091 26.957C79.481 24.4498 71.9016 21.7808 64.306 19.1765C59.8103 17.6398 59.5669 17.8825 59.8428 22.5734C59.9239 23.9807 60.3946 24.7248 61.7417 25.0645C63.2349 25.4365 64.6631 26.1159 66.1562 26.3423C70.1813 26.9894 71.7718 28.8981 71.4634 33.2332C71.0252 39.7196 71.3498 46.2222 71.3498 52.7087Z" fill="#2E3750"/>
<path d="M54 7C54 41 54 75 54 109C53.2213 108.741 52.394 108.595 51.6965 108.223C39.5948 101.569 27.5093 94.8657 15.4076 88.2276C13.8016 87.3372 13.0392 86.1876 12.8283 84.3581C10.6221 65.0429 8.35103 45.7276 6.06371 26.4124C5.83661 24.5505 6.14483 23.32 8.17259 22.6076C22.6589 17.5238 37.1128 12.359 51.5991 7.24286C52.3129 6.98381 53.1889 7.06476 54 7ZM48.8576 44.9991C48.8576 35.7219 48.8252 27.9505 48.8738 20.1629C48.89 18.0581 48.5818 17.1838 46.0674 17.9124C43.5043 18.6571 42.5148 19.7257 42.5472 22.5267C42.7094 35.3819 42.6445 48.221 42.5959 61.0762C42.5797 64.9619 42.4661 68.88 41.3306 72.6362C40.3572 75.8581 38.4268 78.3029 34.9877 79.1771C29.894 80.4724 25.4816 77.8009 24.1676 72.701C23.3402 69.4629 23.5025 66.1438 23.4862 62.8571C23.4376 51.4267 23.4862 39.98 23.4214 28.5495C23.4214 27.5781 24.2162 25.9914 22.2534 25.781C19.1387 25.441 16.6081 27.821 16.5919 31.0914C16.5919 41.4695 16.5432 51.8476 16.6081 62.2095C16.6405 65.6257 16.8352 69.0419 17.2083 72.4419C18.0681 80.5371 23.0482 85.2 31.1431 85.7181C39.8706 86.2848 45.6781 81.4438 47.7383 71.7295C49.766 62.3876 48.4521 52.9 48.8576 44.9991Z" fill="#3C549D"/>
<path d="M71.5383 52.235C71.5383 45.7663 71.1986 39.2816 71.6678 32.8613C71.9752 28.5381 70.3895 26.6185 66.3769 25.9894C64.8721 25.7474 63.4483 25.086 61.9759 24.715C60.6329 24.3763 60.1637 23.6342 60.0828 22.2308C59.7916 17.5527 60.0504 17.3108 64.5323 18.8432C72.1046 21.4404 79.6608 24.102 87.2654 26.6024C89.2718 27.2638 90.0322 28.2478 89.9837 30.3932C89.9351 32.8291 89.0452 33.2001 86.958 32.4258C84.9679 31.6999 82.8644 31.2804 80.8905 30.5384C78.9003 29.7964 78.4796 30.5384 78.4796 32.4096C78.5282 46.6213 78.5443 60.8491 78.4634 75.0608C78.4473 77.1901 79.1915 78.0612 81.3273 77.9644C83.091 77.8837 84.8708 78.1257 86.6344 78.045C88.9805 77.9321 89.9999 78.6903 89.9999 81.239C90.016 83.9168 88.5598 83.9652 86.6344 83.9491C78.8518 83.9168 71.0691 83.82 63.3026 83.9975C60.4711 84.062 60.0504 82.8844 60.0504 80.4647C60.0504 78.0612 60.6977 77.2062 63.2541 77.2546C71.5707 77.3998 71.5707 77.303 71.5545 68.8502C71.5383 63.2688 71.5383 57.7519 71.5383 52.235Z" fill="#ACADAF"/>
<path d="M48.9512 44.716C48.5335 52.7374 49.8348 62.3335 47.8748 71.782C45.8345 81.6242 40.0831 86.5289 31.4398 85.9548C23.4231 85.4299 18.491 80.7056 17.6395 72.5038C17.2861 69.0754 17.0772 65.5979 17.0451 62.1367C16.9648 51.6219 17.013 41.1236 17.029 30.6088C17.029 27.2953 19.5353 24.8676 22.6359 25.2284C24.5798 25.4417 23.7766 27.0492 23.7926 28.0335C23.8569 39.6145 23.8087 51.2118 23.8569 62.7928C23.8729 66.1228 23.7123 69.4855 24.5316 72.7663C25.8329 77.9498 30.1867 80.64 35.2473 79.3277C38.6532 78.4419 40.549 75.965 41.529 72.7006C42.6535 68.895 42.7821 64.9253 42.7821 60.9884C42.8142 47.9639 42.8945 34.9558 42.7339 21.9313C42.7017 19.0935 43.6817 18.0272 46.2201 17.2563C48.7103 16.5181 49.0155 17.4039 48.9994 19.5364C48.9191 27.4265 48.9512 35.3167 48.9512 44.716Z" fill="#E7EAF1"/>
</svg>
