<svg width="118" height="106" viewBox="0 0 118 106" fill="none" xmlns="http://www.w3.org/2000/svg">
<path d="M22.7367 86.6835C23.1958 83.212 23.5064 79.6729 24.168 76.2148C24.6676 73.6213 24.384 72.2165 21.427 71.2979C15.7424 69.5284 10.409 66.8673 5.79112 62.9905C-1.87828 56.5472 -1.93229 49.0503 5.6426 42.4584C9.99039 38.6627 15.0538 36.0421 20.4953 34.3401C23.7224 33.327 24.8026 32.1923 23.9519 28.5317C22.6287 22.8854 22.3586 17.0499 23.5334 11.2145C25.4102 1.92097 31.4593 -1.86126 40.479 1.02945C46.8521 3.06915 52.1991 6.91892 57.1275 11.336C58.4913 12.5518 59.3149 12.6598 60.7597 11.3495C65.5665 6.99997 70.792 3.21774 76.9896 1.06997C86.1848 -2.10441 92.693 1.90746 94.4078 11.4711C95.461 17.3201 95.1099 23.1015 93.8812 28.8018C93.2061 31.9087 93.9757 33.2865 97.0138 34.205C102.739 35.9341 108.032 38.6357 112.555 42.634C119.819 49.0503 119.806 56.2636 112.569 62.6528C108.14 66.5702 102.955 69.2177 97.3919 70.9873C94.3673 71.9463 93.2466 73.027 94.0567 76.5255C95.4205 82.442 95.7176 88.5341 94.3943 94.5992C92.477 103.366 86.7789 106.864 78.1644 104.379C71.6967 102.515 66.3362 98.7191 61.4078 94.329C59.5849 92.7081 58.5318 92.7351 56.7629 94.3426C51.9696 98.7056 46.6901 102.38 40.3979 104.365C31.8914 107.054 25.8693 103.704 23.8709 95.018C23.2498 92.3299 23.1148 89.5202 22.7367 86.6835ZM59.1394 33.7998C51.0784 31.7061 46.123 34.7859 42.5989 42.1477C36.2122 55.4801 36.1312 49.9013 42.5583 63.1121C45.961 70.1092 50.6868 72.5407 58.2212 72.284C69.9954 71.8788 70.2249 72.3651 75.8014 62.072C82.1071 50.4281 81.7965 55.1289 75.9364 43.1608C72.3853 35.8935 67.862 31.0712 59.1394 33.7998ZM35.402 100.164C43.0849 99.0568 48.8505 94.3426 54.481 89.3851C55.4937 88.4936 54.4405 87.8317 53.9274 87.1968C51.3484 84.0765 48.7425 80.9832 46.1905 77.8358C45.4344 76.9038 44.5972 76.3769 43.355 76.2013C39.4798 75.6745 35.6181 75.0667 31.7834 74.3237C30.6087 74.0941 29.893 73.932 29.5825 75.3638C28.0972 82.3475 27.152 89.3311 29.7445 96.2877C30.6897 98.8137 32.634 100.002 35.402 100.164ZM5.26453 53.1297C5.18351 54.3319 6.03417 55.7368 7.16837 56.966C11.8672 62.0585 18.0244 64.625 24.3705 66.8808C25.7883 67.3806 26.2744 66.7052 26.7199 65.3544C27.9352 61.6532 29.3529 58.0061 30.7707 54.3724C31.1488 53.3864 31.3648 52.5083 30.9732 51.4682C29.488 47.5779 28.0162 43.7011 26.6524 39.7703C26.1798 38.406 25.6127 37.9467 24.168 38.4736C18.4564 40.5673 12.8799 42.8772 8.32959 47.0781C6.72279 48.5505 5.34554 50.212 5.26453 53.1297ZM89.7495 18.941C89.8035 16.415 89.682 13.9161 89.0338 11.4306C87.5756 5.77075 84.8751 4.14979 79.2715 5.82478C75.5989 6.91892 72.3988 8.9181 69.3067 11.1334C62.4205 16.0773 62.353 16.1179 67.8755 22.4666C70.5625 25.5599 72.4393 29.0315 77.6918 29.6664C89.6144 31.0982 89.682 31.4764 89.7495 18.941ZM112.717 52.4408C112.636 50.239 111.34 48.6856 109.855 47.2673C105.264 42.9042 99.5522 40.5673 93.7192 38.433C91.9504 37.7847 91.6398 38.7437 91.1807 40.135C89.9925 43.7147 88.6693 47.2673 87.2785 50.7793C86.8329 51.9005 86.6304 52.8596 87.076 54.0347C88.5342 57.79 89.9655 61.5587 91.2752 65.3679C91.7343 66.7052 92.3284 67.3671 93.7192 66.8538C99.9168 64.598 105.979 62.1125 110.624 57.1551C111.88 55.8313 112.771 54.3454 112.717 52.4408ZM89.7225 85.9676C90.1275 83.0229 89.2904 79.808 88.8313 76.5661C88.5748 74.756 88.1427 73.6753 85.6717 74.4048C82.4446 75.3774 79.0015 75.7826 75.6259 76.0933C73.6815 76.2689 72.3988 76.9713 71.2376 78.4977C69.0232 81.4154 66.5927 84.1575 64.2703 86.9807C63.6762 87.6966 62.488 88.399 63.7167 89.4527C69.1987 94.1264 74.6807 98.8272 82.2286 99.8133C85.3072 100.219 87.2515 98.8272 88.3992 96.004C89.6955 92.8837 89.898 89.6418 89.7225 85.9676ZM28.2322 18.8465C27.8812 22.0073 28.6913 25.2222 29.0829 28.4641C29.3259 30.5309 29.974 31.5575 32.5125 30.8686C36.0231 29.923 39.6688 29.4502 43.2875 29.0045C44.7187 28.8289 45.5289 28.1805 46.3525 27.1674C48.7965 24.1146 51.3079 21.1158 53.8059 18.117C54.454 17.3336 55.3047 16.7122 54.103 15.6451C49.053 11.201 43.7871 7.0405 37.0493 5.5276C32.742 4.56854 30.3926 6.17599 29.0694 10.4445C28.2727 13.1461 28.0432 15.9017 28.2322 18.8465ZM52.1721 77.1469C54.373 79.6999 56.0743 81.6721 57.7621 83.6577C58.5453 84.5763 59.3149 84.8599 60.2061 83.7793C61.9209 81.6991 63.6492 79.6459 65.7421 77.1469C61.0162 77.1469 57.0465 77.1469 52.1721 77.1469ZM40.911 34.8264C28.8128 36.3933 30.3116 35.1236 34.3218 45.3356C34.3623 45.4302 34.5109 45.4977 34.7134 45.6598C36.7658 42.0802 38.8047 38.5276 40.911 34.8264ZM83.3223 45.7409C88.1292 36.623 87.9941 36.3528 78.5424 34.8264C78.0968 34.7589 77.5972 34.4617 77.1922 35.1776C79.15 38.5411 81.1484 41.9721 83.3223 45.7409ZM76.8006 70.8927C80.0142 70.2443 82.4581 69.7175 84.9291 69.2718C86.0363 69.0691 87.0625 68.826 86.5089 67.4076C85.4962 64.8411 85.1586 61.9774 83.3088 59.492C81.1214 63.3012 79.1365 66.7863 76.8006 70.8927ZM34.6729 59.6C29.8525 67.8939 30.1766 68.6909 38.8722 70.3929C39.4663 70.5145 40.0739 70.5415 41.0461 70.6496C38.8857 66.8943 36.8873 63.4363 34.6729 59.6ZM52.3071 27.9103C57.006 27.9103 61.0027 27.9103 65.202 27.9103C63.7707 25.2628 61.7183 23.5472 60.044 21.5346C59.3419 20.6971 58.6938 20.5079 57.9106 21.4265C56.1553 23.4662 54.3865 25.5059 52.3071 27.9103Z" fill="#06DCFE"/>
<path d="M59.2472 41.8099C65.2153 41.9045 70.1167 46.9295 69.9952 52.8189C69.8737 58.7354 64.9183 63.4902 58.8962 63.4497C52.8741 63.4092 47.9727 58.5733 47.9727 52.6433C47.9592 46.5918 53.0361 41.7154 59.2472 41.8099Z" fill="#06DCFE"/>
</svg>
