<svg width="107" height="120" viewBox="0 0 107 120" fill="none" xmlns="http://www.w3.org/2000/svg">
<path d="M107 60.3C107 67.939 106.981 75.5779 107 83.2169C107.019 88.1508 105.005 91.9988 100.807 94.4563C87.15 102.476 73.4354 110.42 59.6829 118.288C55.599 120.612 51.2491 120.554 47.1841 118.211C33.5456 110.401 19.964 102.514 6.38249 94.5896C2.0326 92.056 0.000122805 88.1317 0.000122805 83.0645C0.0381131 67.6723 0.0381131 52.261 0.000122805 36.8688C-0.0188724 31.6301 2.16557 27.7439 6.66742 25.1341C19.926 17.4189 33.2037 9.72284 46.4623 2.02672C51.1921 -0.716445 55.9219 -0.659296 60.6517 2.10292C73.7963 9.76093 86.96 17.3999 100.124 25.0198C104.758 27.7058 107.038 31.6301 106.981 37.0212C106.943 44.7744 107 52.5467 107 60.3ZM8.09206 59.8238C8.09206 67.3294 8.18705 74.854 8.03509 82.3596C7.9781 85.2362 9.06081 86.9887 11.5112 88.3794C24.3899 95.7516 37.2306 103.2 50.0334 110.687C52.4458 112.096 54.5162 112.173 56.9666 110.725C69.7694 103.219 82.6101 95.7897 95.4888 88.4175C97.9012 87.0459 99.0599 85.3505 99.0409 82.4359C98.9269 67.4246 98.9269 52.3943 99.0409 37.3831C99.0599 34.659 98.0532 32.9636 95.7547 31.6301C82.781 24.1816 69.8263 16.6951 56.9096 9.15134C54.6112 7.81786 52.6167 7.76071 50.2993 9.11324C37.3826 16.676 24.4279 24.1626 11.4542 31.592C8.98484 33.0017 8.03507 34.8304 8.09206 37.6689C8.18703 45.0602 8.09206 52.4515 8.09206 59.8238Z" fill="black"/>
<path d="M26.0207 60.127C26.0207 56.1726 26.0585 52.1994 26.0018 48.245C25.964 44.9497 27.4384 42.5583 30.2358 40.9577C37.0026 37.0598 43.7694 33.1808 50.5361 29.2829C53.4659 27.5882 56.3579 27.5693 59.3443 29.2452C65.4118 32.6159 71.4792 35.9677 77.6411 39.15C80.0983 40.4116 80.4196 42.5395 79.588 44.4037C79.1343 45.4205 76.9607 46.0419 75.5052 46.1737C74.2766 46.2867 72.8968 45.5523 71.7249 44.9309C66.7916 42.3323 61.9717 39.5266 56.9816 37.0598C55.9042 36.5326 54.0708 36.5138 53.0312 37.0787C47.2473 40.1857 41.5579 43.4621 35.963 46.8893C34.9423 47.5107 33.9972 49.1489 33.9783 50.3352C33.7893 56.8882 33.7893 63.4599 33.9783 69.9941C34.0161 71.1804 35.0179 72.781 36.0386 73.4024C41.6335 76.8295 47.3229 80.106 53.1068 83.213C54.1464 83.759 55.9798 83.6837 57.0572 83.1376C62.0472 80.652 66.8672 77.8275 71.8194 75.2854C73.1992 74.5698 74.8248 74.0803 76.3369 74.0426C77.4521 74.0238 79.5502 74.9841 79.5313 75.436C79.4557 77.2061 79.2478 79.8235 78.1137 80.5202C71.6682 84.4558 65.0526 88.1465 58.248 91.3853C56.3201 92.2892 53.1446 92.1762 51.2166 91.1782C43.9584 87.4498 36.9648 83.1941 29.8956 79.0703C27.2115 77.5074 25.9451 75.0971 26.0018 71.9713C26.0585 68.0357 26.0207 64.0814 26.0207 60.127Z" fill="black"/>
</svg>
