<svg width="199" height="206" viewBox="0 0 199 206" fill="none" xmlns="http://www.w3.org/2000/svg">
<g clip-path="url(#clip0_586_181)">
<path d="M161.64 131.406C161.23 127.878 161.5 124.258 162.36 120.855C166.737 103.57 161.732 88.8431 152.892 77.8427C144.898 67.8898 142.903 53.1679 142.903 53.1679C137.029 33.2234 117.132 19.3896 99.0218 19.3896C80.912 19.3896 61.0729 32.427 55.2037 52.3715C55.2037 52.3715 52.5518 68.1601 45.1513 77.8427C36.5819 89.0555 31.3069 103.57 35.6834 120.855C36.5433 124.258 36.8138 127.878 36.4032 131.406C36.0989 134.013 35.4081 136.721 33.9637 138.593H164.085C162.636 136.716 161.945 134.013 161.64 131.406Z" fill="#191919"/>
<path d="M113.383 161.009L110.021 120.999C110.021 120.999 106.012 126.28 100.756 127.511C95.5003 128.742 90.462 124.639 90.3992 124.591C90.3364 124.542 86.1676 119.855 86.1676 119.855L83.3707 161.255C83.3659 161.752 83.3224 162.24 83.2548 162.718L113.446 162.298C113.407 161.873 113.378 161.444 113.383 161.009Z" fill="white" stroke="#1E0A05" stroke-width="2.9698" stroke-miterlimit="10"/>
<path d="M81.0811 113.595C81.0811 113.595 87.9308 137.893 102.683 136.185C115.011 134.756 111.214 110.004 111.214 110.004L81.0811 113.595Z" fill="#191919"/>
<path d="M74.1974 90.1561C74.3665 96.18 69.618 101.205 63.5895 101.374C57.561 101.543 52.5323 96.7979 52.3633 90.774C52.1942 84.7501 56.9426 79.7253 62.9712 79.5564C68.9997 79.3826 74.0235 84.1322 74.1974 90.1561Z" fill="white" stroke="#1E0A05" stroke-width="3.0487" stroke-miterlimit="10"/>
<path d="M144.695 90.1561C144.864 96.18 140.115 101.205 134.087 101.374C128.058 101.543 123.03 96.7979 122.861 90.774C122.692 84.7501 127.44 79.7253 133.469 79.5564C139.497 79.3826 144.521 84.1322 144.695 90.1561Z" fill="white" stroke="#1E0A05" stroke-width="3.0487" stroke-miterlimit="10"/>
<path d="M99.0218 107.34C122.974 107.34 142.391 87.9378 142.391 64.0043C142.391 40.0709 122.974 20.6689 99.0218 20.6689C75.0698 20.6689 55.653 40.0709 55.653 64.0043C55.653 87.9378 75.0698 107.34 99.0218 107.34Z" fill="#191919"/>
<path d="M135.038 70.7665C135.053 73.0158 132.517 94.2539 130.155 102.503C126.913 113.822 112.885 123.828 112.885 123.828C104.181 128.718 94.2105 128.887 85.3222 124.262C85.3222 124.262 70.5262 114.783 68.2414 102.595C65.2464 86.5986 63.2514 71.1334 63.2514 71.1334C63.2514 71.1334 59.527 34.4107 98.244 34.879C136.961 35.3423 135.038 70.7665 135.038 70.7665Z" fill="white" stroke="#1E0A05" stroke-width="2.9698" stroke-miterlimit="10"/>
<path d="M117.576 66.3064C117.576 66.3064 125.208 67.2717 124.571 70.8291C124.571 70.8291 124.435 74.5313 117.465 73.5466C110.494 72.5571 107.079 69.5741 107.408 67.8992C107.871 65.5437 113.905 65.5437 117.576 66.3064Z" fill="#191919"/>
<path d="M79.2503 66.3064C79.2503 66.3064 71.618 67.2717 72.2556 70.8291C72.2556 70.8291 72.3909 74.5313 79.3614 73.5466C86.3319 72.5571 89.7471 69.5741 89.4186 67.8992C88.9597 65.5437 82.9263 65.5437 79.2503 66.3064Z" fill="#191919"/>
<path d="M113.721 86.9703C115.453 86.9703 116.856 85.5678 116.856 83.8377C116.856 82.1076 115.453 80.7051 113.721 80.7051C111.99 80.7051 110.586 82.1076 110.586 83.8377C110.586 85.5678 111.99 86.9703 113.721 86.9703Z" fill="#191919"/>
<path d="M82.9795 86.9703C84.711 86.9703 86.1146 85.5678 86.1146 83.8377C86.1146 82.1076 84.711 80.7051 82.9795 80.7051C81.2481 80.7051 79.8445 82.1076 79.8445 83.8377C79.8445 85.5678 81.2481 86.9703 82.9795 86.9703Z" fill="#191919"/>
<path d="M99.4711 89.1616L100.249 95.7406H96.5824" stroke="black" stroke-width="3.0487" stroke-miterlimit="10" stroke-linecap="round" stroke-linejoin="round"/>
<path d="M89.4427 102.353C89.4427 102.353 92.8966 104.168 98.017 104.168C103.224 104.168 107.388 102.353 107.388 102.353" stroke="black" stroke-width="2.8498" stroke-miterlimit="10" stroke-linecap="round" stroke-linejoin="round"/>
<path d="M61.5511 64.4482C61.5511 64.4482 98.2489 56.4019 98.244 34.8741C98.244 34.8741 60.8216 18.1298 61.5511 64.4482Z" fill="#191919"/>
<path d="M133.995 64.4482C133.995 64.4482 97.2973 57.6906 97.3021 34.8741C97.3021 34.8741 134.725 18.1298 133.995 64.4482Z" fill="#191919"/>
<path d="M163.727 170.204L117.19 155.801H99.1135H98.93H80.854L34.3163 170.204C34.3163 170.204 14.4337 177.217 14.4337 205.261H98.93H99.1135H183.61C183.61 177.217 163.727 170.204 163.727 170.204Z" fill="#E69051" stroke="#1E0A05" stroke-width="3.0487" stroke-miterlimit="10"/>
<path d="M86.6604 154.005L58.5127 162.717C58.5127 162.717 67.8937 185.23 100.399 185.23C135.019 185.23 139.584 162.717 139.584 162.717L111.62 153.807" fill="white"/>
<path d="M86.6604 154.005L58.5127 162.717C58.5127 162.717 67.8937 185.23 100.399 185.23C135.019 185.23 139.584 162.717 139.584 162.717L111.62 153.807" stroke="#1E0A05" stroke-width="3.0487" stroke-miterlimit="10"/>
<path d="M84.6219 153.194L84.448 157.765L112.359 157.036L111.924 152.354L84.6219 153.194Z" fill="white"/>
</g>
<defs>
<clipPath id="clip0_586_181">
<rect width="199" height="206" fill="white"/>
</clipPath>
</defs>
</svg>
