<svg width="237" height="237" viewBox="0 0 237 237" fill="none" xmlns="http://www.w3.org/2000/svg">
<g clip-path="url(#clip0_908_424)">
<path d="M42.1628 237C42.1628 232.909 42.22 228.819 42.1342 224.728C42.1056 223.412 42.5058 223.04 43.8208 223.069C48.2229 223.155 52.625 223.04 56.9985 223.126C58.2277 223.155 58.8852 222.811 59.4569 221.639C75.6075 189.142 91.7582 156.646 107.937 124.207C108.566 122.977 108.423 122.376 107.223 121.661C104.622 120.173 102.763 117.885 100.963 115.568C100.763 115.167 100.562 114.738 100.362 114.338C96.246 106.357 96.7892 98.5759 102.278 91.5674C107.709 84.6162 115.169 82.2133 123.716 84.1013C131.234 85.7604 139.781 93.0835 139.553 105.327C139.067 112.307 135.951 117.828 130.148 121.718C128.862 122.576 128.89 123.177 129.491 124.407C145.613 156.732 161.706 189.056 177.742 221.41C178.4 222.726 179.086 223.155 180.515 223.126C184.746 223.012 189.005 223.155 193.236 223.04C194.779 223.012 195.151 223.498 195.122 224.985C195.008 228.99 195.065 233.024 195.065 237.028C186.575 237.028 178.086 237.028 169.567 237.028C169.396 236.514 169.281 235.999 169.053 235.541C154.931 206.992 140.753 178.501 126.575 150.009C126.346 149.58 126.346 148.979 125.632 148.836C125.632 173.066 125.632 197.209 125.603 221.381C125.603 222.668 125.918 223.097 127.261 223.069C130.806 222.983 134.35 223.097 137.923 223.012C139.238 222.983 139.61 223.412 139.581 224.699C139.495 228.79 139.524 232.881 139.524 236.971C125.632 236.971 111.711 236.971 97.8182 236.971C97.8182 232.881 97.8754 228.79 97.7896 224.699C97.7611 223.355 98.1898 223.012 99.4762 223.04C102.706 223.126 105.965 222.954 109.195 223.097C111.11 223.183 111.768 222.811 111.768 220.637C111.682 197.295 111.711 173.981 111.711 150.639C111.711 149.981 111.711 149.351 111.711 148.693C111.082 149.037 110.853 149.466 110.624 149.923C96.4747 178.358 82.325 206.792 68.2039 235.226C67.9467 235.741 67.4321 236.228 67.6894 236.943C59.171 237 50.6812 237 42.1628 237ZM125.546 104.497C125.603 100.464 122.659 97.4602 118.685 97.4316C114.884 97.403 111.739 100.464 111.682 104.24C111.625 108.102 114.769 111.306 118.657 111.306C122.544 111.306 125.517 108.388 125.546 104.497Z" fill="white"/>
<path d="M37.5038 103.925C33.7306 104.926 29.9573 105.985 26.1555 106.9C24.7262 107.243 24.3546 107.673 24.7834 109.217C26.9273 116.741 28.8425 124.35 30.9578 131.873C31.5009 133.761 31.2151 134.562 29.1855 134.963C26.0411 135.592 22.8968 136.421 19.8381 137.394C18.1802 137.938 17.78 137.48 17.3798 135.935C11.9772 115.31 6.43167 94.6568 0.914727 74.0034C0.686045 73.1452 0.71463 72.144 0 71.4574C0 71.1428 0 70.8281 0 70.542C3.80183 69.5694 7.63225 68.7399 11.3769 67.5956C13.1492 67.0521 13.578 67.5956 13.9782 69.1976C15.922 76.8067 18.0373 84.3873 20.0382 91.9965C20.4098 93.4268 20.81 94.0275 22.5251 93.4554C26.2698 92.2539 30.1002 91.3958 33.9021 90.3945C35.4171 94.8285 36.5033 99.3482 37.5038 103.925Z" fill="white"/>
<path d="M37.5039 103.925C36.532 99.3482 35.4172 94.7998 33.9022 90.3659C33.0161 86.8474 32.1585 83.3575 31.2438 79.8389C30.472 76.8353 30.4434 76.8639 33.5592 76.0344C40.7626 74.0891 47.9661 72.0867 55.1982 70.256C57.0276 69.7983 57.3707 69.1403 56.7989 67.3954C55.8271 64.3918 55.2268 61.2737 54.2549 58.2701C53.7117 56.5537 54.312 56.1246 55.8556 55.6956C70.0625 51.9482 84.2693 48.1436 98.4762 44.339C123.317 37.7024 148.157 31.0659 172.969 24.4579C173.484 24.3149 174.027 24.2863 174.541 24.2004C174.656 24.6581 174.742 25.0872 174.856 25.5449C180.744 47.314 186.633 69.0831 192.522 90.8522C185.918 93.0835 179.115 94.5996 172.398 96.4304C161.449 99.434 150.501 102.323 139.553 105.27C139.782 93.0263 131.235 85.7031 123.717 84.044C115.141 82.156 107.709 84.5589 102.278 91.5102C96.7897 98.5186 96.2465 106.299 100.363 114.28C100.563 114.681 100.763 115.11 100.963 115.511C91.7015 117.999 82.4399 120.459 73.1783 123.034C71.749 123.434 71.5203 123.034 71.2059 121.804C70.4055 118.514 69.3764 115.31 68.6046 112.021C68.233 110.447 67.6613 110.104 66.0891 110.533C58.6284 112.621 51.1105 114.481 43.6497 116.626C41.5916 117.227 40.9056 116.798 40.4482 114.767C39.6478 111.134 38.5044 107.558 37.5039 103.925Z" fill="#F98149"/>
<path d="M192.55 90.8809C186.662 69.1118 180.773 47.3427 174.885 25.5736C174.77 25.1159 174.656 24.6868 174.57 24.2291C178.286 22.6272 182.288 21.9406 186.147 20.8536C191.235 19.4519 196.324 18.136 201.44 16.7629C204.899 29.6928 208.329 42.6227 211.817 55.5526C214.361 65.0211 216.991 74.4611 219.592 83.9296C211.102 86.1895 202.612 88.4207 194.123 90.7092C193.608 90.8236 193.094 90.9953 192.55 90.8809Z" fill="white"/>
<path d="M219.592 83.901C216.991 74.4324 214.39 64.9925 211.817 55.5239C208.33 42.594 204.899 29.6642 201.441 16.7343C200.44 12.7867 199.468 8.81045 198.382 4.89144C198.039 3.68999 198.125 3.14648 199.525 2.83181C202.813 2.05945 206.1 1.14406 209.33 0.171461C210.902 -0.31484 211.36 0.200067 211.76 1.68757C215.562 16.1336 219.363 30.5795 223.337 44.9683C227.682 60.7302 232.198 76.4634 236.743 92.1681C237.315 94.1991 237.058 95.1145 234.857 95.5722C231.627 96.2301 228.425 97.1169 225.281 98.0609C224.023 98.4328 223.68 98.0895 223.365 96.9453C222.165 92.5972 220.85 88.2491 219.592 83.901Z" fill="#F98149"/>
<path d="M125.546 104.497C125.518 108.388 122.545 111.305 118.657 111.305C114.77 111.305 111.625 108.102 111.682 104.24C111.74 100.464 114.884 97.4316 118.686 97.4316C122.659 97.4602 125.603 100.464 125.546 104.497Z" fill="#F98149"/>
</g>
<defs>
<clipPath id="clip0_908_424">
<rect width="237" height="237" fill="white"/>
</clipPath>
</defs>
</svg>
