<svg width="78" height="84" viewBox="0 0 78 84" fill="none" xmlns="http://www.w3.org/2000/svg">
<path d="M66.826 24.951C66.826 26.0091 66.8104 26.9661 66.826 27.9154C66.8728 30.6074 66.0069 32.8716 64.1268 34.6222C63.5028 35.2057 63.5729 35.9138 63.7446 36.5362C63.8304 36.8552 64.3999 37.1275 64.7899 37.2287C65.9991 37.5555 67.2239 37.7889 68.5735 38.0845C68.5735 36.9953 68.5111 35.9994 68.6047 35.0112C68.6437 34.5677 68.9167 33.9998 69.2444 33.7741C69.9543 33.2839 70.7734 33.9297 70.8202 34.949C70.8592 35.9293 70.8592 36.9097 70.8202 37.8823C70.7968 38.4113 70.9528 38.637 71.4365 38.7692C74.869 39.6951 76.9519 42.605 77.0377 46.4331C77.1625 52.0351 77.225 57.6371 77.5058 63.2313C77.7242 67.7129 75.7583 71.4087 71.4287 72.7236C71.5691 74.1241 71.7173 75.5479 71.8578 76.9717C71.9904 78.2944 72.162 79.6171 72.2556 80.9398C72.3648 82.4415 71.5067 83.4685 70.1337 83.4685C62.4262 83.4763 54.7108 83.4763 47.0033 83.4685C45.6537 83.4685 44.7488 82.457 44.8736 81.0176C45.1076 78.2867 45.3807 75.5557 45.7161 72.8403C45.8097 72.0856 46.231 71.3853 46.4494 70.6384C46.5431 70.3194 46.5664 69.9459 46.5274 69.6191C46.4104 68.7944 46.1218 67.9852 46.1062 67.1605C46.0516 64.4762 46.0828 61.7841 46.0828 58.9987C45.7005 58.9753 45.3651 58.9442 45.0296 58.9442C31.3386 58.9442 17.6398 58.9442 3.94877 58.9286C3.29347 58.9286 2.57577 58.8197 1.99848 58.5163C0.921925 57.9561 0.563075 56.8824 0.563075 55.6063C0.563075 54.0425 0.438247 52.4319 1.96727 51.5216C2.38853 51.2726 2.91122 51.2026 3.3949 51.117C3.73035 51.0547 4.08138 51.1092 4.47924 51.1092C4.47924 36.7618 4.47924 22.5001 4.47924 8.12163C4.06578 8.12163 3.67573 8.13719 3.28567 8.12163C1.74104 8.06717 0.617674 6.83006 0.578668 5.14168C0.563066 4.51923 0.563066 3.88901 0.578668 3.26656C0.617674 1.63265 1.72543 0.39554 3.23105 0.294393C3.45729 0.278832 3.68354 0.286614 3.90977 0.286614C24.6608 0.286614 45.4119 0.286614 66.1707 0.286614C68.4643 0.286614 69.494 1.42257 69.5018 3.93569C69.5018 4.23135 69.5018 4.5348 69.5018 4.83046C69.4784 6.91565 68.3785 8.10607 66.4594 8.12163C66.1863 8.12163 65.9133 8.12163 65.5232 8.12163C65.5232 9.42876 65.5076 10.697 65.5388 11.9652C65.5388 12.1208 65.7729 12.292 65.9289 12.4087C69.2054 14.9919 70.8202 18.4931 70.8358 22.8658C70.8436 25.0988 70.8592 27.324 70.8202 29.5571C70.8124 30.0083 70.6564 30.5608 70.3834 30.8564C70.1649 31.0898 69.5798 31.1832 69.299 31.0354C68.9869 30.872 68.6593 30.374 68.6281 29.9928C68.5345 28.8568 68.5423 27.7131 68.6047 26.5693C68.6437 25.8535 68.4643 25.4489 67.7856 25.3322C67.4891 25.2933 67.2161 25.1144 66.826 24.951ZM6.85861 8.17609C6.85861 22.4923 6.85861 36.7774 6.85861 51.1247C7.82595 51.1247 8.72307 51.0936 9.6202 51.1325C10.2599 51.1637 10.6344 51.5838 10.65 52.2918C10.6656 52.9921 10.3145 53.4045 9.68262 53.5212C9.44078 53.5678 9.18335 53.5601 8.93372 53.5601C7.38129 53.5601 5.82886 53.5601 4.27643 53.5601C2.83322 53.5601 2.83321 53.5601 2.83321 55.1084C2.83321 56.4933 2.8332 56.4933 4.13599 56.4933C14.3243 56.4933 24.5126 56.4933 34.7009 56.4933C34.9583 56.4933 35.2236 56.4933 35.481 56.4933C34.4045 55.5285 33.3123 54.7194 32.1733 53.9958C31.7911 53.7468 31.2996 53.5834 30.8549 53.5834C25.4721 53.5523 20.0894 53.5678 14.7066 53.5601C14.3867 53.5601 14.0512 53.5601 13.7392 53.4823C13.1853 53.3422 12.8889 52.9065 12.9045 52.2918C12.9201 51.6772 13.2321 51.2726 13.7938 51.1559C14.0591 51.1014 14.3399 51.1092 14.613 51.1092C18.7944 51.1092 22.9758 51.1092 27.1572 51.1092C27.4068 51.1092 27.6565 51.1092 27.9139 51.1092C27.9451 51.0158 27.9685 50.9302 27.9997 50.8369C27.4458 50.3156 26.9154 49.7554 26.3303 49.273C25.0275 48.1759 24.4424 46.7676 24.731 44.9937C24.8169 44.4879 24.7388 44.1689 24.3176 43.9355C24.1148 43.8266 23.9431 43.6632 23.7559 43.5232C21.7744 42.0448 19.7929 40.5665 17.8192 39.0882C17.0547 38.5125 16.8597 37.8044 17.2731 37.1742C17.6944 36.5362 18.3185 36.5051 19.1142 37.0886C19.4653 37.3454 19.8163 37.6099 20.1674 37.8745C22.1645 39.3683 24.1616 40.8622 26.143 42.3405C27.8983 41.0878 29.5678 41.189 31.2138 42.465C32.1031 43.1575 33.0315 43.7877 33.9364 44.4568C35.715 45.7717 37.4859 47.1022 39.2646 48.4171C39.4362 48.5494 39.6312 48.6428 39.9043 48.8139C39.9667 47.7947 40.0291 46.8999 40.0837 46.0129C40.2787 42.4494 42.4318 39.6095 45.6225 38.7926C46.192 38.6447 46.3012 38.3646 46.2934 37.7967C46.2778 32.7938 46.2622 27.7909 46.2856 22.788C46.3246 15.5832 51.2939 10.2146 57.9171 10.2613C59.6724 10.2691 61.4198 10.5103 63.1829 10.6425C63.1829 9.95006 63.1829 9.0942 63.1829 8.18387C44.4133 8.17609 25.6516 8.17609 6.85861 8.17609ZM46.0984 56.4155C46.0984 55.5752 46.0672 54.7816 46.1062 53.9958C46.1374 53.2955 46.5586 52.8987 47.1749 52.8676C47.7678 52.8365 48.1657 53.2177 48.3061 53.8479C48.3607 54.1047 48.3451 54.3848 48.3451 54.6571C48.3451 58.7341 48.3451 62.8111 48.3451 66.8959C48.3451 69.2301 49.4139 70.3816 51.5826 70.3816C57.0356 70.3894 62.4964 70.3816 67.9494 70.3816C68.2146 70.3816 68.4799 70.3816 68.7919 70.3816C68.7919 69.9537 68.7919 69.658 68.7919 69.3624C68.7919 64.4684 68.7919 59.5744 68.7919 54.6805C68.7919 54.4081 68.7685 54.128 68.8231 53.8713C68.9557 53.2411 69.3458 52.852 69.9387 52.8676C70.5628 52.8832 70.9606 53.28 71.0387 53.9724C71.062 54.2136 71.0542 54.4626 71.0542 54.7038C71.0542 59.5433 71.0542 64.3828 71.0542 69.2223C71.0542 69.518 71.0542 69.8136 71.0542 70.2104C71.4287 70.086 71.7407 70.0159 72.0294 69.8837C74.0499 68.95 75.2903 66.8415 75.2356 64.2895C75.103 58.2284 74.9548 52.1673 74.7754 46.1063C74.6896 43.1808 72.4273 40.9244 69.6813 40.9322C68.0976 47.3667 62.512 49.6465 58.471 49.6153C54.3052 49.5764 48.9848 47.1333 47.487 40.9478C44.8346 40.8544 42.5801 43.0797 42.3694 46.0051C42.307 46.8688 42.2602 47.7402 42.2056 48.6116C42.0652 50.7902 40.0759 51.9028 38.3908 50.6968C36.5186 49.3508 34.6775 47.9503 32.8676 46.6043C32.1187 47.7558 31.4088 48.8528 30.6833 49.9655C30.6911 49.9732 30.7379 50.0355 30.8003 50.0744C33.6009 52.0273 36.3937 53.988 39.2022 55.9176C39.5298 56.1432 39.9355 56.3688 40.3099 56.3766C42.1978 56.4466 44.0935 56.4155 46.0984 56.4155ZM35.0051 5.67854C41.8389 5.67854 48.6728 5.67854 55.5066 5.67854C59.1107 5.67854 62.7148 5.66297 66.319 5.6941C67.0055 5.70188 67.3019 5.42956 67.2395 4.69819C67.2239 4.51145 67.2395 4.31694 67.2395 4.13021C67.2395 2.76861 67.2239 2.75305 65.9913 2.75305C45.4431 2.75305 24.8949 2.75305 4.34664 2.75305C2.83321 2.75305 2.83321 2.75305 2.83321 4.40252C2.83321 5.68632 2.8332 5.68632 3.98777 5.68632C14.3321 5.67854 24.6686 5.67854 35.0051 5.67854ZM48.2749 71.8755C47.5182 74.9255 47.565 77.9677 47.0969 80.9865C54.7889 80.9865 62.3482 80.9865 69.9855 80.9865C69.9699 80.6831 69.9621 80.4185 69.9387 80.1618C69.7124 78.0299 69.4472 75.9058 69.26 73.7739C69.1976 73.0659 69.0104 72.8247 68.3161 72.8247C62.9411 72.8558 57.5661 72.8325 52.1833 72.8481C50.8727 72.8481 49.5855 72.7936 48.2749 71.8755ZM68.5189 23.0214C68.5501 22.788 68.5813 22.6635 68.5735 22.5312C68.4721 18.9988 67.0835 16.2212 64.3765 14.2527C62.434 12.8366 60.2497 12.6499 57.9795 12.6655C52.4407 12.7199 48.4309 17.1549 48.5479 23.1614C48.5557 23.6672 48.7274 23.8695 49.1486 24.0017C50.9429 24.5619 52.7528 24.5619 54.5704 24.1651C57.8937 23.4415 60.8191 21.7765 63.5574 19.6602C64.5559 18.8899 65.1566 19.0533 65.6715 20.2515C66.2409 21.5742 67.1537 22.4768 68.5189 23.0214ZM61.5212 37.2598C60.4681 37.5088 59.5007 37.9289 58.549 37.9134C57.5973 37.8978 56.6455 37.4621 55.647 37.1976C55.2413 38.6837 54.1804 39.4228 52.7215 39.6718C51.7386 39.8352 50.7713 40.1153 49.8117 40.3331C50.1394 44.0211 54.1023 47.11 58.5022 47.1567C62.9176 47.2111 66.9586 44.1145 67.3565 40.3253C66.3424 40.0919 65.3282 39.8118 64.2985 39.6329C62.9021 39.3917 61.9269 38.6525 61.5212 37.2598ZM52.6747 26.8961C52.5811 28.6234 52.5655 30.3196 53.6343 31.6111C54.625 32.8171 55.7718 33.8908 56.942 34.8867C57.9951 35.7815 59.2355 35.7737 60.2887 34.879C61.4276 33.9219 62.5276 32.8716 63.4871 31.7123C63.9864 31.1054 64.3531 30.1873 64.4233 29.3703C64.5871 27.4563 64.5637 25.5189 64.5637 23.5972C64.5637 23.1537 64.3609 22.7179 64.2205 22.1655C60.6085 24.7565 56.9342 26.5693 52.6747 26.8961ZM48.6103 38.069C49.8819 37.7889 51.1067 37.5632 52.3081 37.2287C52.7137 37.1198 53.3066 36.8163 53.3925 36.4817C53.5485 35.8593 53.6343 35.1513 53.0258 34.5522C51.3876 32.9338 50.4358 30.9342 50.389 28.4756C50.3578 26.7716 50.3188 26.7716 48.7976 26.4371C48.7508 26.4293 48.704 26.4526 48.6103 26.4682C48.6103 30.2962 48.6103 34.1398 48.6103 38.069ZM29.0061 47.9425C29.1153 47.8569 29.3883 47.7247 29.5755 47.499C29.8096 47.2189 29.9734 46.8766 30.1684 46.5653C30.8939 45.3827 30.8315 45.0793 29.7004 44.309C28.9125 43.7721 28.2337 43.7566 27.6096 44.2623C27.0324 44.7291 26.7905 45.5383 27.0012 46.293C27.1962 46.9777 28.2259 47.9114 29.0061 47.9425Z" fill="white"/>
<path d="M26.572 15.3422C22.0708 15.3422 17.5695 15.3422 13.0604 15.3422C12.7874 15.3422 12.5065 15.35 12.2335 15.3111C11.625 15.2255 11.2817 14.8054 11.2583 14.1674C11.2349 13.5216 11.5626 13.0859 12.1555 12.9458C12.3973 12.8914 12.6548 12.8914 12.9044 12.8914C21.9849 12.8914 31.0655 12.8914 40.146 12.8914C40.4425 12.8914 40.7545 12.8991 41.0354 12.9847C41.5892 13.1637 41.8311 13.6227 41.7843 14.2374C41.7375 14.8132 41.441 15.1944 40.9027 15.2955C40.6063 15.35 40.302 15.3422 40.0056 15.3422C35.5277 15.3422 31.0499 15.3422 26.572 15.3422Z" fill="white"/>
<path d="M26.4708 23.8462C21.9695 23.8462 17.4682 23.8462 12.9592 23.8462C11.7968 23.8462 11.2585 23.4649 11.2507 22.6324C11.2429 21.7999 11.789 21.3875 12.928 21.3875C21.9851 21.3875 31.0422 21.3875 40.0916 21.3875C40.3646 21.3875 40.6455 21.3797 40.9107 21.442C41.4724 21.5665 41.7766 21.9788 41.7766 22.6013C41.7766 23.2549 41.4724 23.6828 40.8639 23.7917C40.5674 23.8462 40.2632 23.8384 39.9668 23.8384C35.4811 23.8462 30.972 23.8462 26.4708 23.8462Z" fill="white"/>
<path d="M19.4654 29.8997C21.6185 29.8997 23.7716 29.8997 25.9248 29.8997C26.1744 29.8997 26.4318 29.8997 26.6737 29.9386C27.2431 30.0397 27.5708 30.4521 27.5942 31.0512C27.6254 31.6892 27.3133 32.1405 26.7127 32.2883C26.4474 32.3505 26.1666 32.3505 25.8935 32.3505C21.5873 32.3505 17.2811 32.3505 12.9748 32.3505C11.8203 32.3505 11.2742 31.9615 11.2586 31.1445C11.243 30.2965 11.7891 29.8997 13.0061 29.8997C15.1592 29.8997 17.3123 29.8997 19.4654 29.8997Z" fill="white"/>
</svg>
