<svg width="68" height="73" viewBox="0 0 68 73" fill="none" xmlns="http://www.w3.org/2000/svg">
<path d="M62.7399 72.9752C57.7004 72.9752 52.7701 72.9752 47.7617 72.9752C47.7617 72.2283 47.7617 71.4891 47.7617 70.6644C47.4263 70.6644 47.1689 70.6644 46.9114 70.6644C35.5529 70.6644 24.1867 70.6644 12.8282 70.6644C9.24747 70.6644 7.00854 68.2446 7.00854 64.3699C7.00854 61.1721 7.00074 57.9665 7.01634 54.7687C7.01634 54.3485 6.92272 54.0996 6.58727 53.8272C6.15821 53.4771 5.75256 53.0025 5.51072 52.489C3.90369 49.0811 2.33565 45.6577 0.775421 42.2264C0.650603 41.9541 0.58819 41.6273 0.58819 41.3239C0.580389 30.1666 0.572587 19.0093 0.58819 7.85971C0.595991 3.86829 3.40441 0.833876 7.08655 0.810534C8.1319 0.802754 9.19286 0.763854 10.2226 0.935026C12.4303 1.30071 14.0062 2.68565 14.9657 4.8642C15.1685 5.33104 15.3948 5.47109 15.855 5.47109C28.9142 5.45552 41.9733 5.45553 55.0324 5.46331C57.9266 5.46331 60.1031 7.45513 60.54 10.4973C60.6024 10.9253 60.5946 11.3687 60.5946 11.8045C60.5946 19.0093 60.6024 26.2063 60.5868 33.4111C60.5868 33.8857 60.696 34.228 61.0159 34.5548C61.8272 35.3873 62.5995 36.2587 63.3874 37.1224C66.2739 40.2735 67.4752 44.0704 66.8589 48.4587C66.3128 52.3878 65.7668 56.317 64.9945 60.1995C64.5498 62.4481 63.6449 64.5955 62.9662 66.7974C62.8413 67.202 62.7477 67.6377 62.7399 68.0579C62.7243 69.6684 62.7399 71.2868 62.7399 72.9752ZM54.0495 45.5254C54.0729 45.5332 54.0885 45.5409 54.1119 45.5409C54.1119 36.072 54.1119 26.6031 54.1119 17.1575C41.24 17.1575 28.4227 17.1575 15.582 17.1575C15.582 17.5076 15.582 17.7955 15.582 18.0911C15.582 24.4167 15.582 30.7501 15.582 37.0757C15.582 38.6552 15.816 40.2891 15.4962 41.7829C15.1841 43.2535 14.3026 44.5762 13.6707 45.9689C13.6473 46.0156 13.6161 46.0545 13.6083 46.0934C13.5459 46.3735 13.4445 46.6458 13.4445 46.9259C13.4289 49.2056 13.4367 51.4853 13.4367 53.765C13.4367 53.9517 13.4679 54.1307 13.4835 54.2941C24.2647 54.2941 34.9835 54.2941 45.7334 54.2941C45.7724 53.7883 45.8114 53.3293 45.8426 52.8702C46.0611 49.8747 46.2561 46.8714 46.4979 43.8837C46.654 42.0086 48.0426 40.5458 49.7276 40.3824C51.4439 40.2191 52.9885 41.3706 53.48 43.199C53.7062 43.9771 53.87 44.7551 54.0495 45.5254ZM15.621 14.7689C15.9487 14.7689 16.2139 14.7689 16.4791 14.7689C28.844 14.7689 41.2166 14.7689 53.5814 14.7689C53.8076 14.7689 54.026 14.7611 54.2523 14.7766C55.3912 14.8467 56.2494 15.7881 56.3118 17.033C56.3196 17.2742 56.3196 17.5154 56.3196 17.7644C56.3196 29.2407 56.3118 40.7092 56.3352 52.1855C56.3352 52.738 56.5068 53.3448 56.7721 53.8117C56.9359 54.0996 57.4664 54.3563 57.7472 54.2785C58.0358 54.2007 58.2387 53.7027 58.4415 53.3604C58.5117 53.2359 58.4571 53.0258 58.4571 52.8624C58.4571 39.1376 58.4571 25.4049 58.4571 11.68C58.4571 9.21353 57.1621 7.80525 54.8842 7.80525C42.0435 7.80525 29.2106 7.80525 16.3699 7.80525C16.1281 7.80525 15.894 7.80525 15.6288 7.80525C15.621 10.1394 15.621 12.4036 15.621 14.7689ZM45.6086 56.6905C45.2498 56.6905 44.9845 56.6905 44.7193 56.6905C34.4062 56.6905 24.1008 56.6905 13.7877 56.6905C12.1027 56.6905 11.2914 55.8035 11.2914 53.9673C11.2914 53.1348 11.2914 52.31 11.2914 51.4775C10.9871 51.8354 10.8389 52.2478 10.6205 52.5901C10.3396 53.0181 10.0588 53.4927 9.66093 53.765C9.23186 54.0607 9.13825 54.3719 9.13825 54.8698C9.15385 58.0443 9.14605 61.2188 9.14605 64.401C9.14605 66.9608 10.4254 68.3302 12.797 68.3302C24.1789 68.3302 35.5607 68.3302 46.9426 68.3302C47.1844 68.3302 47.4263 68.3302 47.7695 68.3302C47.7071 67.8556 47.7305 67.4277 47.5901 67.0775C46.3029 63.7864 45.4526 60.4018 45.6086 56.6905ZM60.5946 37.4803C60.5946 37.7682 60.5946 37.9316 60.5946 38.1027C60.5946 43.0979 60.5946 48.093 60.5946 53.0881C60.5946 54.9321 59.6897 56.2314 58.1685 56.6127C56.7565 56.9628 55.3366 56.2236 54.7048 54.5897C53.87 52.4267 53.1211 50.2248 52.4268 48.0074C52.0211 46.708 51.7949 45.3387 51.4751 44.0004C51.2722 43.1601 50.6794 42.6777 49.9773 42.7244C49.2674 42.7711 48.7447 43.3313 48.6432 44.1871C48.5964 44.545 48.573 44.9107 48.5496 45.2764C48.3078 48.731 48.0972 52.1933 47.8163 55.6479C47.5277 59.1414 48.1206 62.4481 49.4078 65.6303C49.478 65.8015 49.712 65.9883 49.8758 65.996C53.4488 66.0194 57.0217 66.0194 60.5868 65.996C60.7428 65.996 60.9847 65.8482 61.0315 65.7081C61.7024 63.6307 62.5293 61.5922 62.9584 59.4604C63.6449 56.0603 63.9959 52.5746 64.6122 49.1589C65.4781 44.3816 64.0895 40.5847 60.5946 37.4803ZM2.6867 10.0616C6.34544 10.0616 9.87936 10.0616 13.4289 10.0616C13.4289 9.14351 13.4757 8.27209 13.4211 7.40845C13.2963 5.39328 11.9389 3.63488 10.1056 3.28475C9.06024 3.09024 7.97588 3.12914 6.91492 3.13692C4.91003 3.16026 3.20158 4.68525 2.85053 6.83268C2.6789 7.87528 2.73351 8.95677 2.6867 10.0616ZM2.77251 12.4814C2.77251 21.8103 2.77251 31.0769 2.77251 40.3513C3.48242 40.3513 4.13771 40.3513 4.83202 40.3513C4.83202 31.0458 4.83202 21.7791 4.83202 12.4814C4.13771 12.4814 3.47462 12.4814 2.77251 12.4814ZM7.06314 12.4814C7.06314 21.818 7.06314 31.0847 7.06314 40.3513C7.77305 40.3513 8.42834 40.3513 9.12265 40.3513C9.12265 31.0458 9.12265 21.7791 9.12265 12.4814C8.42054 12.4814 7.76525 12.4814 7.06314 12.4814ZM11.346 12.4814C11.346 21.8025 11.346 31.0691 11.346 40.328C12.0637 40.328 12.7424 40.328 13.4133 40.328C13.4133 31.0224 13.4133 21.7713 13.4133 12.4814C12.719 12.4814 12.0559 12.4814 11.346 12.4814ZM3.44341 42.7555C3.53703 42.9811 3.59164 43.1601 3.66965 43.3235C4.87883 45.9611 6.088 48.6065 7.32838 51.2285C7.4766 51.5475 7.83546 51.9132 8.1163 51.9366C8.34254 51.9599 8.69359 51.5398 8.83401 51.2363C10.0744 48.6143 11.2758 45.9689 12.4849 43.3313C12.563 43.1523 12.6254 42.9578 12.7034 42.7555C9.59071 42.7555 6.54827 42.7555 3.44341 42.7555ZM60.54 70.641C60.54 69.8863 60.54 69.1316 60.54 68.3769C56.9827 68.3769 53.4566 68.3769 49.9382 68.3769C49.9382 69.1627 49.9382 69.8941 49.9382 70.641C53.4878 70.641 56.9827 70.641 60.54 70.641Z" fill="white"/>
<path d="M27.861 19.3206C28.4461 19.5306 29.0702 19.6629 29.6084 19.9741C33.6806 22.3238 37.7372 24.7125 41.8016 27.0856C42.8314 27.6847 43.4243 28.6028 43.4399 29.8788C43.4477 31.1859 42.847 32.1273 41.7938 32.742C37.7528 35.1073 33.7196 37.4882 29.663 39.8301C26.9795 41.3784 24.1632 39.5033 24.1554 36.1966C24.1476 31.9328 24.1398 27.6613 24.1633 23.3976C24.1711 21.1568 25.8093 19.4139 27.861 19.3206ZM26.3008 29.871C26.3008 31.9562 26.293 34.0414 26.3008 36.1266C26.3086 37.776 27.4007 38.5074 28.7347 37.7294C32.7055 35.4185 36.6685 33.0999 40.6159 30.758C40.8967 30.5946 41.2556 30.2056 41.2399 29.9488C41.2243 29.6376 40.8967 29.233 40.6081 29.0618C36.6607 26.7199 32.6899 24.4013 28.7269 22.0827C27.3929 21.3046 26.3008 22.036 26.3008 23.6854C26.3008 25.7473 26.3008 27.8091 26.3008 29.871Z" fill="white"/>
<path d="M44.5087 46.2023C44.5087 47.0115 44.5087 47.7117 44.5087 48.5365C44.2513 48.5365 43.9939 48.5365 43.7364 48.5365C38.8061 48.5365 33.8758 48.5443 28.9454 48.5287C28.4852 48.5287 28.2667 48.661 28.0717 49.1511C27.3462 50.9951 26.0122 51.9755 24.1633 52.0222C22.4237 52.0689 20.8635 50.9173 20.2082 49.1122C20.0365 48.6298 19.8181 48.5209 19.3812 48.5287C18.1409 48.5598 16.8927 48.5365 15.6133 48.5365C15.6133 47.7584 15.6133 47.0426 15.6133 46.2568C15.7615 46.2412 15.9253 46.2101 16.0969 46.2023C16.9239 46.1945 17.7508 46.1479 18.5699 46.2101C19.467 46.2801 20.0365 46.1167 20.4968 45.0586C21.2379 43.3702 22.6811 42.5999 24.413 42.7244C26.1136 42.8411 27.3696 43.7981 28.0249 45.5099C28.2511 46.109 28.532 46.2101 29.0547 46.2101C33.9382 46.1945 38.8217 46.2023 43.7052 46.2023C43.9627 46.2023 44.2045 46.2023 44.5087 46.2023ZM24.1555 45.043C22.9932 45.043 22.0258 46.0934 22.018 47.3538C22.0102 48.6143 22.9698 49.6802 24.1243 49.6958C25.3101 49.7113 26.3008 48.6376 26.293 47.3461C26.2852 46.0856 25.3179 45.043 24.1555 45.043Z" fill="white"/>
<path d="M40.1788 12.4348C35.9038 12.4348 31.6912 12.4348 27.4239 12.4348C27.4239 11.6879 27.4239 10.9487 27.4239 10.1707C31.66 10.1707 35.9038 10.1707 40.1788 10.1707C40.1788 10.9254 40.1788 11.6723 40.1788 12.4348Z" fill="white"/>
<path d="M33.8756 59.0088C36.2628 59.0088 38.6499 59.0088 41.0371 59.0088C42.7533 59.0088 43.7051 60.277 43.3852 62.1133C42.9795 64.4085 41.2945 65.9802 39.157 65.9958C35.5841 66.0113 32.0189 66.0191 28.446 65.9958C26.1135 65.9802 24.2256 63.9884 24.1632 61.5375C24.1242 60.0825 25.0369 59.0322 26.3787 59.0244C28.8751 59.001 31.3714 59.0088 33.8756 59.0088ZM41.2711 61.3897C36.2628 61.3897 31.2934 61.3897 26.3319 61.3897C26.4255 62.7513 27.2524 63.6538 28.446 63.6616C32.0189 63.6772 35.5841 63.6772 39.157 63.6616C40.3584 63.6538 41.1775 62.7513 41.2711 61.3897Z" fill="white"/>
</svg>
