<svg width="329" height="291" viewBox="0 0 329 291" fill="none" xmlns="http://www.w3.org/2000/svg">
<g clip-path="url(#clip0_494_5294)">
<path d="M93.1076 152.402H46.2617" stroke="#4C4C4C" stroke-width="2.471" stroke-miterlimit="10" stroke-linecap="round" stroke-linejoin="round"/>
<path d="M23.7234 172.354C36.171 172.354 46.2618 162.265 46.2618 149.82C46.2618 137.375 36.171 127.286 23.7234 127.286C11.2758 127.286 1.18506 137.375 1.18506 149.82C1.18506 162.265 11.2758 172.354 23.7234 172.354Z" stroke="#4C4C4C" stroke-width="2.6906" stroke-miterlimit="10" stroke-linecap="round" stroke-linejoin="round"/>
<path d="M225.171 144.54H283.481" stroke="#4C4C4C" stroke-width="2.6906" stroke-miterlimit="10" stroke-linecap="round" stroke-linejoin="round"/>
<path d="M305.276 164.969C317.724 164.969 327.815 154.881 327.815 142.436C327.815 129.991 317.724 119.902 305.276 119.902C292.829 119.902 282.738 129.991 282.738 142.436C282.738 154.881 292.829 164.969 305.276 164.969Z" stroke="#4C4C4C" stroke-width="2.6906" stroke-miterlimit="10" stroke-linecap="round" stroke-linejoin="round"/>
<path d="M320.083 132.61C320.083 135.44 313.732 137.74 305.904 137.74C298.076 137.74 291.725 135.44 291.725 132.61C291.725 129.78 298.076 127.481 305.904 127.481C313.732 127.481 320.083 129.78 320.083 132.61Z" fill="#FF8401"/>
<path opacity="0.7" d="M319.066 137.589C316.979 139.482 311.875 140.817 305.904 140.817C299.924 140.817 294.829 139.482 292.742 137.589C292.096 138.173 291.725 138.819 291.725 139.491C291.725 142.33 298.076 144.62 305.904 144.62C313.732 144.62 320.083 142.321 320.083 139.491C320.083 138.819 319.721 138.173 319.066 137.589Z" fill="#FF8401"/>
<path opacity="0.5" d="M319.066 144.62C316.979 146.513 311.875 147.857 305.904 147.857C299.924 147.857 294.829 146.513 292.742 144.62C292.096 145.204 291.725 145.849 291.725 146.521C291.725 149.36 298.076 151.651 305.904 151.651C313.732 151.651 320.083 149.351 320.083 146.521C320.083 145.841 319.721 145.204 319.066 144.62Z" fill="#FF8401"/>
<path opacity="0.2" d="M319.066 151.651C316.979 153.543 311.875 154.888 305.904 154.888C299.924 154.888 294.829 153.552 292.742 151.651C292.096 152.234 291.725 152.88 291.725 153.552C291.725 156.391 298.076 158.681 305.904 158.681C313.732 158.681 320.083 156.382 320.083 153.552C320.083 152.871 319.721 152.234 319.066 151.651Z" fill="#FF8401"/>
<path d="M218.183 178.765V254.688" stroke="#4C4C4C" stroke-width="2.6906" stroke-miterlimit="10" stroke-linecap="round" stroke-linejoin="round"/>
<path d="M241.022 267.281C241.022 279.724 230.929 289.815 218.484 289.815C206.038 289.815 195.945 279.724 195.945 267.281C195.945 254.838 206.038 244.748 218.484 244.748C230.929 244.748 241.022 254.838 241.022 267.281Z" stroke="#4C4C4C" stroke-width="2.6906" stroke-miterlimit="10" stroke-linecap="round" stroke-linejoin="round"/>
<path d="M229.514 270.881C229.674 270.377 229.797 269.873 229.895 269.368L233.972 268.511L232.159 259.906L228.081 260.764C227.498 259.906 226.799 259.127 226.003 258.447L227.294 254.493L218.935 251.761L217.644 255.714C216.6 255.793 215.574 256.015 214.601 256.359L211.814 253.255L205.269 259.128L208.055 262.232C207.834 262.691 207.631 263.178 207.471 263.673C207.312 264.177 207.188 264.681 207.091 265.185L203.013 266.043L204.827 274.648L208.904 273.79C209.488 274.648 210.178 275.426 210.983 276.107L209.692 280.06L218.051 282.793L219.342 278.84C220.386 278.76 221.412 278.539 222.385 278.194L225.171 281.298L231.726 275.426L228.939 272.322C229.152 271.871 229.346 271.385 229.514 270.881Z" fill="#003F82"/>
<path d="M226.701 269.97C225.215 274.507 220.333 276.983 215.795 275.506C211.257 274.02 208.78 269.139 210.266 264.593C211.752 260.056 216.635 257.58 221.173 259.066C225.711 260.542 228.187 265.424 226.701 269.97Z" fill="#FF8401"/>
<path d="M222.332 268.537C221.642 270.66 219.351 271.818 217.228 271.128C215.105 270.438 213.946 268.148 214.636 266.026C215.326 263.903 217.617 262.745 219.74 263.434C221.863 264.124 223.022 266.415 222.332 268.537Z" fill="#FF8401"/>
<path d="M132.913 121.892V23.7186H164.756" stroke="#4C4C4C" stroke-width="2.6906" stroke-miterlimit="10" stroke-linecap="round" stroke-linejoin="round"/>
<path d="M197.325 23.7186C197.325 36.1616 187.233 46.2522 174.787 46.2522C162.341 46.2522 152.249 36.1616 152.249 23.7186C152.249 11.2756 162.341 1.19385 174.787 1.19385C187.233 1.19385 197.325 11.2756 197.325 23.7186Z" stroke="#4C4C4C" stroke-width="2.6906" stroke-miterlimit="10" stroke-linecap="round" stroke-linejoin="round"/>
<path d="M186.463 17.9437C185.818 12.8232 181.457 8.87012 176.158 8.87012C170.789 8.87012 166.375 12.9293 165.827 18.1471C161.997 19.058 159.148 22.4893 159.148 26.5928C159.148 31.3949 163.04 35.2772 167.835 35.2772C169.728 35.2772 171.479 34.667 172.912 33.6323C174.345 34.667 176.088 35.2772 177.989 35.2772C179.369 35.2772 180.67 34.95 181.828 34.3752C182.987 34.95 184.287 35.2772 185.667 35.2772C190.47 35.2772 194.354 31.386 194.354 26.5928C194.362 22.0648 190.886 18.3505 186.463 17.9437Z" fill="#FF8401"/>
<path d="M181.828 34.3752C182.987 34.95 184.287 35.2772 185.667 35.2772C190.47 35.2772 194.353 31.386 194.353 26.5928C194.353 22.0648 190.886 18.3505 186.454 17.9437C186.269 16.4845 185.773 15.1226 185.048 13.911L164.385 34.5698C165.437 35.0208 166.605 35.2772 167.826 35.2772C169.719 35.2772 171.47 34.667 172.903 33.6323C174.336 34.667 176.079 35.2772 177.98 35.2772C179.369 35.2772 180.669 34.95 181.828 34.3752Z" fill="#003F82"/>
<path d="M28.5882 139.623L12.8521 151.465L29.4109 163.731" stroke="#3D3544" stroke-width="2.018" stroke-miterlimit="10" stroke-linecap="round" stroke-linejoin="round"/>
<path d="M32.693 139.623C32.693 141.887 30.8531 143.727 28.5887 143.727C26.3242 143.727 24.4844 141.887 24.4844 139.623C24.4844 137.359 26.3242 135.52 28.5887 135.52C30.8531 135.52 32.693 137.359 32.693 139.623Z" fill="#FF8401"/>
<path d="M16.9567 151.465C16.9567 153.729 15.1168 155.568 12.8524 155.568C10.5879 155.568 8.74805 153.729 8.74805 151.465C8.74805 149.201 10.5879 147.362 12.8524 147.362C15.1168 147.362 16.9567 149.201 16.9567 151.465Z" fill="#FF8401"/>
<path d="M32.693 163.731C32.693 165.995 30.8531 167.835 28.5887 167.835C26.3242 167.835 24.4844 165.995 24.4844 163.731C24.4844 161.467 26.3242 159.628 28.5887 159.628C30.8531 159.628 32.693 161.467 32.693 163.731Z" fill="#FF8401"/>
<path d="M106.968 117.576V46.9774H56.9028" stroke="#4C4C4C" stroke-width="2.6906" stroke-miterlimit="10" stroke-linecap="round" stroke-linejoin="round"/>
<path d="M66.4298 46.9773C66.4298 59.4203 56.337 69.5109 43.8914 69.5109C31.4458 69.5109 21.353 59.4203 21.353 46.9773C21.353 34.5343 31.4458 24.4437 43.8914 24.4437C56.3459 24.4526 66.4298 34.5343 66.4298 46.9773Z" stroke="#4C4C4C" stroke-width="2.6906" stroke-miterlimit="10" stroke-linecap="round" stroke-linejoin="round"/>
<path d="M60.0345 40.1058H28.2349V52.8849H60.0345V40.1058Z" fill="#003F82"/>
<path d="M60.0345 40.1058H28.2349V46.2522H60.0345V40.1058Z" fill="#FF8401"/>
<path d="M32.4985 41.7065H30.3579V43.8467H32.4985V41.7065Z" fill="white"/>
<path d="M36.8418 41.7065H34.7012V43.8467H36.8418V41.7065Z" fill="#003F82"/>
<path d="M234.45 126.473V56.6346" stroke="#4C4C4C" stroke-width="2.6906" stroke-miterlimit="10" stroke-linecap="round" stroke-linejoin="round"/>
<path d="M270.239 46.2522C270.239 58.6952 260.146 68.7858 247.7 68.7858C235.255 68.7858 225.162 58.6952 225.162 46.2522C225.162 33.8092 235.255 23.7186 247.7 23.7186C260.146 23.7186 270.239 33.8092 270.239 46.2522Z" stroke="#4C4C4C" stroke-width="2.6906" stroke-miterlimit="10" stroke-linecap="round" stroke-linejoin="round"/>
<path d="M247.701 59.0578C254.775 59.0578 260.509 53.3246 260.509 46.2522C260.509 39.1799 254.775 33.4467 247.701 33.4467C240.627 33.4467 234.893 39.1799 234.893 46.2522C234.893 53.3246 240.627 59.0578 247.701 59.0578Z" fill="#003F82"/>
<path d="M247.701 51.355C250.52 51.355 252.805 49.0704 252.805 46.2522C252.805 43.434 250.52 41.1494 247.701 41.1494C244.882 41.1494 242.597 43.434 242.597 46.2522C242.597 49.0704 244.882 51.355 247.701 51.355Z" fill="#FF8401"/>
<path d="M100.998 178.261V256.731H57.9292" stroke="#4C4C4C" stroke-width="2.6906" stroke-miterlimit="10" stroke-linecap="round" stroke-linejoin="round"/>
<path d="M67.2169 256.731C67.2169 269.174 57.1241 279.264 44.6785 279.264C32.2329 279.264 22.1401 269.174 22.1401 256.731C22.1401 244.288 32.224 234.197 44.6785 234.197C57.1241 234.206 67.2169 244.288 67.2169 256.731Z" stroke="#4C4C4C" stroke-width="2.6906" stroke-miterlimit="10" stroke-linecap="round" stroke-linejoin="round"/>
<path d="M58.7697 256.731C58.7697 264.513 52.4628 270.819 44.6788 270.819C36.8947 270.819 30.5879 264.513 30.5879 256.731C30.5879 248.948 36.8947 242.643 44.6788 242.643C52.4628 242.652 58.7697 248.957 58.7697 256.731Z" fill="#FF8401"/>
<path d="M62.3961 258.65H48.4733L45.2889 263.558L42.9891 255.484L39.1236 262.824L36.6911 250.814L33.8959 257.182H27.1821" stroke="#3D3544" stroke-width="1.3453" stroke-miterlimit="10" stroke-linecap="round" stroke-linejoin="round"/>
<path d="M52.604 258.906C52.604 260.321 51.4541 261.462 50.0388 261.462C48.6235 261.462 47.4824 260.313 47.4824 258.906C47.4824 257.5 48.6323 256.342 50.0388 256.342C51.4541 256.351 52.604 257.491 52.604 258.906Z" fill="white"/>
<path d="M169.33 133.848V61.702H199.095" stroke="#4C4C4C" stroke-width="2.6906" stroke-miterlimit="10" stroke-linecap="round" stroke-linejoin="round"/>
<path d="M208.55 61.2864C208.55 63.8599 206.463 65.947 203.889 65.947C201.315 65.947 199.227 63.8599 199.227 61.2864C199.227 58.7129 201.315 56.6346 203.889 56.6346C206.463 56.6346 208.55 58.7129 208.55 61.2864Z" stroke="#3D3544" stroke-width="2.6906" stroke-miterlimit="10"/>
<path d="M93.1517 110.245H55.1426" stroke="#4C4C4C" stroke-width="2.6906" stroke-miterlimit="10" stroke-linecap="round" stroke-linejoin="round"/>
<path d="M54.7006 110.245C54.7006 112.818 52.6131 114.905 50.039 114.905C47.465 114.905 45.3774 112.818 45.3774 110.245C45.3774 107.671 47.465 105.593 50.039 105.593C52.6131 105.584 54.7006 107.671 54.7006 110.245Z" stroke="#3D3544" stroke-width="1.3453" stroke-miterlimit="10"/>
<path d="M262.243 121.768V83.7758" stroke="#4C4C4C" stroke-width="2.6906" stroke-miterlimit="10" stroke-linecap="round" stroke-linejoin="round"/>
<path d="M266.895 78.1335C266.895 80.707 264.808 82.7853 262.234 82.7853C259.66 82.7853 257.572 80.6982 257.572 78.1335C257.572 75.56 259.66 73.4729 262.234 73.4729C264.817 73.4817 266.895 75.56 266.895 78.1335Z" stroke="#3D3544" stroke-width="1.3453" stroke-miterlimit="10"/>
<path d="M282.915 215.581H244.915" stroke="#4C4C4C" stroke-width="2.6906" stroke-miterlimit="10" stroke-linecap="round" stroke-linejoin="round"/>
<path d="M293.901 215.573C293.901 218.146 291.813 220.233 289.239 220.233C286.665 220.233 284.578 218.146 284.578 215.573C284.578 212.999 286.665 210.921 289.239 210.921C291.813 210.921 293.901 213.008 293.901 215.573Z" stroke="#3D3544" stroke-width="2.6906" stroke-miterlimit="10"/>
<path d="M177.388 253.202V215.201" stroke="#4C4C4C" stroke-width="2.6906" stroke-miterlimit="10" stroke-linecap="round" stroke-linejoin="round"/>
<path d="M182.376 257.854C182.376 260.428 180.289 262.515 177.715 262.515C175.141 262.515 173.053 260.428 173.053 257.854C173.053 255.281 175.141 253.202 177.715 253.202C180.289 253.202 182.376 255.281 182.376 257.854Z" stroke="#3D3544" stroke-width="2.6906" stroke-miterlimit="10"/>
<path d="M121.44 257.182V219.19" stroke="#4C4C4C" stroke-width="2.6906" stroke-miterlimit="10" stroke-linecap="round" stroke-linejoin="round"/>
<path d="M126.093 261.391C126.093 263.965 124.005 266.052 121.431 266.052C118.857 266.052 116.77 263.965 116.77 261.391C116.77 258.818 118.857 256.74 121.431 256.74C124.005 256.731 126.093 258.818 126.093 261.391Z" stroke="#3D3544" stroke-width="2.6906" stroke-miterlimit="10"/>
<path d="M237.475 189.024H299.544" stroke="#4C4C4C" stroke-width="2.6906" stroke-miterlimit="10" stroke-linecap="round" stroke-linejoin="round"/>
<path d="M307.983 189.024C307.983 191.261 306.17 193.074 303.932 193.074C301.694 193.074 299.88 191.261 299.88 189.024C299.88 186.786 301.694 184.974 303.932 184.974C306.17 184.974 307.983 186.786 307.983 189.024Z" stroke="#3D3544" stroke-width="2.6906" stroke-miterlimit="10"/>
<path d="M141.033 177.297V276.169H173.664" stroke="#4C4C4C" stroke-width="2.6906" stroke-miterlimit="10" stroke-linecap="round" stroke-linejoin="round"/>
<path d="M177.715 279.981C179.952 279.981 181.766 278.167 181.766 275.93C181.766 273.693 179.952 271.88 177.715 271.88C175.477 271.88 173.664 273.693 173.664 275.93C173.664 278.167 175.477 279.981 177.715 279.981Z" stroke="#3D3544" stroke-width="1.3453" stroke-miterlimit="10"/>
<path d="M88.0482 197.355H50.0391" stroke="#4C4C4C" stroke-width="2.6906" stroke-miterlimit="10" stroke-linecap="round" stroke-linejoin="round"/>
<path d="M50.039 197.77C50.039 200.344 47.9515 202.422 45.3774 202.422C42.8034 202.422 40.7158 200.335 40.7158 197.77C40.7158 195.197 42.8034 193.11 45.3774 193.11C47.9515 193.119 50.039 195.197 50.039 197.77Z" stroke="#3D3544" stroke-width="2.6906" stroke-miterlimit="10"/>
<path d="M271.964 87.4901H71.8608V106.946H271.964V87.4901Z" fill="#4F4F4F"/>
<path d="M271.964 106.937H71.8608V231.659H271.964V106.937Z" fill="#F0F1F1"/>
<path d="M83.4397 95.1222H79.2646V99.2964H83.4397V95.1222Z" fill="#FF8401"/>
<path d="M92.2234 95.1222H88.0483V99.2964H92.2234V95.1222Z" fill="#003F82"/>
<path d="M100.998 95.1222H96.8232V99.2964H100.998V95.1222Z" fill="#003F82"/>
<path d="M234.256 163.519C233.681 160.839 232.646 158.337 231.222 156.081C230.045 154.047 228.621 152.438 227.109 151.182C227.259 149.422 227.153 147.68 226.79 145.982C225.198 138.474 218.865 132.761 211.266 131.885C208.285 125.721 202.023 121.768 195.132 121.768C193.885 121.768 192.629 121.901 191.399 122.166C185.429 123.431 180.581 127.578 178.388 133.291C174.885 136.316 172.638 140.242 171.904 144.346C171.17 140.242 168.914 136.316 165.42 133.291C163.218 127.587 158.379 123.44 152.408 122.166C151.179 121.901 149.923 121.768 148.667 121.768C141.785 121.768 135.522 125.712 132.532 131.885C124.943 132.752 118.61 138.465 117.017 145.982C116.655 147.68 116.549 149.422 116.699 151.182C115.178 152.447 113.762 154.047 112.577 156.09C111.153 158.345 110.127 160.839 109.552 163.519C108.145 170.152 109.729 176.979 113.904 182.32C113.789 189.112 116.796 195.736 122.006 200.14C125.182 206.163 130.808 210.426 137.477 211.841C139.043 212.168 140.644 212.345 142.227 212.345C146.181 212.345 150.073 211.301 153.532 209.338C154.867 210.258 156.389 210.921 157.99 211.257C160.555 211.796 163.147 211.584 165.455 210.638C166.543 210.187 167.773 209.364 168.852 208.383C170.232 207.118 171.302 205.402 171.913 203.554C172.514 205.402 173.584 207.118 174.964 208.383C176.035 209.364 177.273 210.187 178.361 210.638C180.67 211.593 183.253 211.805 185.827 211.257C187.428 210.921 188.949 210.258 190.285 209.338C193.735 211.31 197.627 212.345 201.589 212.345C203.173 212.345 204.774 212.177 206.339 211.841C213 210.426 218.626 206.172 221.81 200.14C227.02 195.736 230.028 189.121 229.913 182.32C234.079 176.979 235.662 170.152 234.256 163.519ZM179.104 181.047C178.423 182.152 177.423 182.957 176.822 184.16C175.805 186.203 175.053 188.104 174.964 190.421C174.911 192.004 174.796 193.587 174.549 195.153C174.416 196.01 173.62 196.638 173.213 197.443C173.204 197.585 173.178 197.735 173.098 197.885C173.036 198 172.974 198.106 172.912 198.221C172.452 199.07 171.373 198.681 171.178 197.921C170.949 197.876 170.719 197.753 170.55 197.514C169.02 195.329 169.171 192.411 168.834 189.855C168.428 186.787 166.694 183.576 165.066 180.959C164.527 180.092 165.553 179.305 166.296 179.632C168.755 177.987 170.471 175.299 171.205 171.823C172.16 167.322 170.046 162.467 167.286 159.186C167.242 159.203 167.198 159.23 167.145 159.247C165.977 159.663 165.473 157.806 166.632 157.399C167.605 157.054 168.304 155.179 168.834 154.366C169.781 152.924 170.931 151.651 171.444 149.97C171.515 149.732 171.656 149.581 171.815 149.475C172.09 149.042 172.815 149.042 172.992 149.511C173.266 149.714 173.425 150.05 173.301 150.483C173.239 150.687 173.16 150.89 173.089 151.085C173.496 153.853 175.716 156.32 177.468 158.257C177.645 158.46 177.662 158.681 177.6 158.885C177.662 159.097 177.671 159.345 177.538 159.592C177.008 160.671 176.335 161.618 175.84 162.723C175.424 163.66 174.805 164.58 174.664 165.606C174.628 165.88 174.496 166.084 174.327 166.234C173.806 170.311 174.213 177.51 178.927 179.225C179.812 179.552 179.714 180.711 179.104 181.047Z" fill="#FF8401"/>
<path d="M202.792 213.945C198.696 213.945 194.663 212.866 191.08 210.832C189.701 211.787 188.117 212.468 186.463 212.822C183.801 213.388 181.12 213.167 178.732 212.177C177.609 211.717 176.326 210.868 175.22 209.842C171.567 206.49 169.957 200.149 173.372 196.063C173.469 195.94 173.602 195.807 173.734 195.666C173.885 195.515 174.159 195.232 174.239 195.073C173.814 191.624 173.929 185.46 178.706 180.587C175.707 178.96 173.628 175.962 172.779 171.973C171.762 167.162 174.132 161.945 177.122 158.549C174.371 155.657 172.735 152.845 172.125 149.962C170.78 143.603 173.319 136.776 178.768 132.071C181.041 126.163 186.056 121.865 192.239 120.556C193.513 120.282 194.813 120.15 196.105 120.15C203.234 120.15 209.718 124.235 212.805 130.629C220.669 131.531 227.223 137.439 228.877 145.221C229.249 146.99 229.364 148.812 229.205 150.643C232.991 154.003 235.547 158.398 236.608 163.386C238.059 170.258 236.423 177.324 232.106 182.851C232.221 189.891 229.107 196.744 223.712 201.299C220.421 207.543 214.592 211.947 207.692 213.415C206.082 213.768 204.437 213.945 202.792 213.945ZM191.019 208.33C191.222 208.33 191.434 208.383 191.611 208.498C194.99 210.576 198.856 211.664 202.792 211.664C204.278 211.664 205.773 211.513 207.241 211.195C213.548 209.86 218.864 205.8 221.819 200.061C221.889 199.928 221.987 199.804 222.102 199.707C227.179 195.497 230.063 189.077 229.833 182.515C229.824 182.241 229.912 181.976 230.089 181.754C234.176 176.714 235.741 170.187 234.397 163.864C233.406 159.185 230.947 155.073 227.303 151.987C227.011 151.739 226.861 151.368 226.905 150.987C227.117 149.201 227.038 147.415 226.675 145.699C225.18 138.677 219.147 133.389 211.982 132.84C211.567 132.805 211.195 132.548 211.027 132.168C208.427 126.261 202.58 122.44 196.122 122.44C194.99 122.44 193.84 122.564 192.726 122.794C187.215 123.961 182.757 127.835 180.811 133.15C180.74 133.336 180.625 133.504 180.475 133.627C176.583 136.891 172.938 142.781 174.362 149.493C174.92 152.146 176.653 154.914 179.511 157.726C179.723 157.939 179.847 158.23 179.847 158.531C179.847 158.832 179.723 159.132 179.511 159.345C176.698 162.148 174.079 167.145 175.008 171.505C175.592 174.246 177.122 177.81 181.12 179.172C181.51 179.305 181.802 179.641 181.872 180.048C181.943 180.454 181.793 180.87 181.474 181.135C176.185 185.504 176.087 191.624 176.503 194.887C176.636 195.94 175.875 196.736 175.362 197.257C175.265 197.355 175.176 197.443 175.105 197.532C172.523 200.618 173.867 205.526 176.751 208.17C177.653 209.002 178.723 209.718 179.599 210.081C181.563 210.894 183.774 211.071 185.985 210.602C187.56 210.266 189.055 209.568 190.302 208.586C190.514 208.409 190.762 208.33 191.019 208.33Z" fill="#003F82"/>
<path d="M202.748 177.342C202.261 177.342 201.81 177.023 201.66 176.537C200.094 171.381 197.874 168.48 189.524 165.986C180.262 163.218 175.212 156.329 174.999 156.037C174.628 155.524 174.743 154.817 175.256 154.445C175.769 154.074 176.476 154.189 176.848 154.702C176.892 154.764 181.678 161.264 190.169 163.802C199.413 166.561 202.102 170.169 203.836 175.873C204.013 176.475 203.676 177.112 203.075 177.297C202.969 177.324 202.854 177.342 202.748 177.342Z" fill="#003F82"/>
<path d="M189.338 164.801C187.825 164.801 186.189 164.474 184.491 163.82C183.907 163.598 183.615 162.935 183.836 162.352C184.057 161.768 184.721 161.476 185.304 161.697C188.215 162.82 190.815 162.803 192.62 161.662C194.327 160.583 195.335 158.54 195.548 155.745C195.592 155.117 196.158 154.658 196.768 154.693C197.396 154.746 197.865 155.285 197.821 155.913C197.547 159.46 196.176 162.113 193.84 163.581C192.558 164.394 191.027 164.801 189.338 164.801Z" fill="#003F82"/>
<path d="M233.318 158.938C232.893 158.938 232.478 158.69 232.283 158.283C227.17 147.353 215.388 148.131 214.884 148.166C214.247 148.219 213.708 147.751 213.663 147.123C213.61 146.495 214.079 145.947 214.707 145.902C214.849 145.894 228.55 144.938 234.344 157.32C234.609 157.894 234.362 158.566 233.796 158.832C233.636 158.903 233.477 158.938 233.318 158.938Z" fill="#003F82"/>
<path d="M213.38 203.802C210.134 203.802 206.666 202.767 203.535 199.663C203.084 199.221 203.084 198.495 203.526 198.053C203.968 197.602 204.694 197.602 205.136 198.044C213.168 205.986 223.773 198.062 224.224 197.717C224.72 197.337 225.436 197.425 225.817 197.929C226.197 198.425 226.1 199.141 225.604 199.521C225.516 199.583 219.908 203.802 213.38 203.802Z" fill="#003F82"/>
<path d="M190.382 186.477C190.373 186.477 190.355 186.477 190.346 186.477C189.718 186.459 189.223 185.929 189.25 185.301C189.665 173.141 200.032 170.125 200.13 170.099C200.731 169.93 201.359 170.284 201.536 170.894C201.704 171.496 201.35 172.124 200.749 172.292C200.377 172.398 191.886 174.936 191.532 185.38C191.496 185.982 190.992 186.477 190.382 186.477Z" fill="#003F82"/>
<path d="M174.805 197.355C174.557 197.355 174.309 197.275 174.097 197.107C173.602 196.718 173.522 196.002 173.911 195.506C176.875 191.783 181.421 191.085 183.863 190.996C184.473 190.97 185.021 191.465 185.039 192.093C185.057 192.721 184.57 193.251 183.942 193.269C182.288 193.331 178.175 193.8 175.689 196.921C175.468 197.204 175.141 197.355 174.805 197.355Z" fill="#003F82"/>
<path d="M178.52 135.078C178.192 135.078 177.865 134.936 177.635 134.662C177.237 134.176 177.308 133.459 177.794 133.061C183.084 128.746 190.815 129.011 191.142 129.02C191.77 129.046 192.257 129.577 192.23 130.205C192.204 130.833 191.664 131.319 191.045 131.301C190.974 131.293 183.836 131.072 179.227 134.83C179.033 134.998 178.776 135.078 178.52 135.078Z" fill="#003F82"/>
<path d="M224.03 179.429C224.021 179.429 224.021 179.429 224.012 179.429C223.384 179.42 222.88 178.898 222.889 178.27C223.11 161.803 212.177 158.885 212.071 158.849C211.461 158.699 211.089 158.08 211.239 157.47C211.39 156.86 212.009 156.488 212.619 156.638C212.743 156.674 225.41 160.052 225.162 178.297C225.153 178.924 224.649 179.429 224.03 179.429Z" fill="#003F82"/>
<path d="M204.782 153.552C204.65 153.552 204.508 153.526 204.375 153.481C203.792 153.26 203.491 152.606 203.712 152.013C207.418 142.188 200.961 134.565 200.899 134.485C200.483 134.008 200.536 133.291 201.014 132.876C201.492 132.46 202.208 132.513 202.615 132.991C202.925 133.344 210.019 141.728 205.844 152.809C205.676 153.269 205.242 153.552 204.782 153.552Z" fill="#003F82"/>
<path d="M186.578 205.624C184.42 205.624 182.155 204.898 180.041 202.944C179.581 202.519 179.555 201.794 179.979 201.334C180.404 200.874 181.129 200.848 181.589 201.272C187.206 206.472 193.716 200.308 193.999 200.052C194.451 199.619 195.176 199.628 195.609 200.079C196.043 200.53 196.034 201.246 195.583 201.688C193.778 203.439 190.329 205.624 186.578 205.624Z" fill="#003F82"/>
<path d="M184.163 155.091C183.845 155.091 183.526 154.958 183.296 154.693C181.067 152.102 179.723 149.121 179.316 145.823C179.236 145.204 179.679 144.629 180.307 144.549C180.935 144.479 181.501 144.912 181.58 145.54C181.934 148.379 183.102 150.961 185.03 153.207C185.437 153.685 185.384 154.401 184.906 154.817C184.685 155.002 184.42 155.091 184.163 155.091Z" fill="#003F82"/>
<path d="M203.677 192.579C203.049 192.579 202.544 192.066 202.544 191.438C202.544 190.81 203.057 190.297 203.677 190.297C210.152 190.297 215.424 185.027 215.424 178.553C215.424 175.352 214.159 172.354 211.859 170.125C211.408 169.683 211.39 168.967 211.832 168.516C212.266 168.065 212.991 168.056 213.442 168.489C216.193 171.151 217.697 174.724 217.697 178.553C217.697 186.291 211.408 192.579 203.677 192.579Z" fill="#003F82"/>
<path d="M194.796 130.161C194.796 132.195 193.141 133.849 191.107 133.849C189.073 133.849 187.418 132.195 187.418 130.161C187.418 128.127 189.073 126.473 191.107 126.473C193.141 126.473 194.796 128.127 194.796 130.161Z" fill="#003F82"/>
<path d="M184.128 144.019C184.128 146.053 182.474 147.706 180.44 147.706C178.396 147.706 176.751 146.053 176.751 144.019C176.751 141.985 178.405 140.331 180.44 140.331C182.483 140.331 184.128 141.985 184.128 144.019Z" fill="#003F82"/>
<path d="M200.377 155.365C200.377 157.408 198.723 159.053 196.689 159.053C194.654 159.053 193 157.399 193 155.365C193 153.331 194.654 151.677 196.689 151.677C198.723 151.677 200.377 153.331 200.377 155.365Z" fill="#003F82"/>
<path d="M205.454 133.848C205.454 135.883 203.8 137.536 201.757 137.536C199.722 137.536 198.068 135.883 198.068 133.848C198.068 131.814 199.722 130.161 201.757 130.161C203.8 130.161 205.454 131.814 205.454 133.848Z" fill="#003F82"/>
<path d="M218.484 146.132C218.484 148.166 216.83 149.82 214.796 149.82C212.761 149.82 211.107 148.166 211.107 146.132C211.107 144.098 212.761 142.444 214.796 142.444C216.83 142.444 218.484 144.089 218.484 146.132Z" fill="#003F82"/>
<path d="M227.745 178.765C227.745 180.799 226.091 182.453 224.057 182.453C222.022 182.453 220.368 180.799 220.368 178.765C220.368 176.731 222.022 175.078 224.057 175.078C226.091 175.078 227.745 176.731 227.745 178.765Z" fill="#003F82"/>
<path d="M207.365 190.89C207.365 192.933 205.711 194.578 203.676 194.578C201.642 194.578 199.988 192.924 199.988 190.89C199.988 188.856 201.642 187.202 203.676 187.202C205.711 187.202 207.365 188.856 207.365 190.89Z" fill="#003F82"/>
<path d="M194.486 185.336C194.486 187.379 192.832 189.024 190.797 189.024C188.763 189.024 187.109 187.37 187.109 185.336C187.109 183.302 188.763 181.648 190.797 181.648C192.832 181.648 194.486 183.293 194.486 185.336Z" fill="#003F82"/>
<path d="M188.586 192.137C188.586 194.171 186.932 195.825 184.898 195.825C182.863 195.825 181.209 194.171 181.209 192.137C181.209 190.103 182.863 188.449 184.898 188.449C186.932 188.449 188.586 190.103 188.586 192.137Z" fill="#003F82"/>
<path d="M199.094 199.91C199.094 201.944 197.44 203.598 195.406 203.598C193.363 203.598 191.717 201.944 191.717 199.91C191.717 197.868 193.371 196.223 195.406 196.223C197.449 196.223 199.094 197.868 199.094 199.91Z" fill="#003F82"/>
<path d="M208.559 198.619C208.559 200.653 206.905 202.307 204.871 202.307C202.836 202.307 201.182 200.653 201.182 198.619C201.182 196.576 202.836 194.932 204.871 194.932C206.905 194.932 208.559 196.576 208.559 198.619Z" fill="#003F82"/>
<path d="M136.407 213.424C129.507 211.956 123.678 207.551 120.387 201.308C114.992 196.745 111.878 189.891 111.993 182.86C107.676 177.333 106.031 170.258 107.491 163.395C108.552 158.416 111.1 154.021 114.885 150.651C114.726 148.821 114.832 146.999 115.213 145.23C116.867 137.448 123.421 131.531 131.285 130.638C134.372 124.253 140.856 120.159 147.985 120.159C149.277 120.159 150.577 120.3 151.86 120.565C158.043 121.874 163.058 126.172 165.34 132.08C170.789 136.785 173.337 143.612 171.983 149.97C171.373 152.845 169.736 155.666 166.986 158.558C169.984 161.954 172.355 167.171 171.329 171.982C170.479 175.971 168.41 178.96 165.402 180.596C170.179 185.478 170.285 191.633 169.869 195.082C169.949 195.232 170.223 195.515 170.373 195.674C170.506 195.816 170.639 195.949 170.736 196.072C174.159 200.158 172.54 206.49 168.887 209.851C167.773 210.868 166.499 211.726 165.376 212.186C162.987 213.176 160.307 213.397 157.645 212.831C155.991 212.477 154.407 211.796 153.027 210.841C149.454 212.875 145.42 213.954 141.325 213.954C139.688 213.945 138.025 213.769 136.407 213.424ZM153.806 208.577C155.053 209.559 156.548 210.258 158.122 210.594C160.334 211.062 162.545 210.885 164.509 210.072C165.384 209.709 166.446 208.993 167.348 208.162C170.232 205.517 171.576 200.609 168.993 197.523C168.923 197.434 168.834 197.346 168.737 197.249C168.233 196.727 167.463 195.931 167.596 194.879C168.012 191.615 167.914 185.495 162.625 181.127C162.306 180.861 162.156 180.446 162.227 180.039C162.297 179.632 162.589 179.296 162.978 179.163C166.977 177.801 168.507 174.246 169.091 171.496C170.02 167.136 167.401 162.13 164.588 159.336C164.376 159.124 164.252 158.832 164.252 158.522C164.252 158.222 164.376 157.93 164.588 157.718C167.445 154.914 169.179 152.146 169.736 149.484C171.161 142.772 167.516 136.882 163.624 133.619C163.474 133.495 163.359 133.327 163.288 133.141C161.333 127.826 156.884 123.952 151.373 122.785C150.25 122.546 149.109 122.431 147.976 122.431C141.519 122.431 135.672 126.252 133.072 132.159C132.904 132.54 132.532 132.805 132.116 132.832C124.952 133.389 118.91 138.677 117.424 145.69C117.061 147.415 116.982 149.192 117.194 150.979C117.238 151.359 117.088 151.73 116.796 151.978C113.143 155.064 110.693 159.168 109.702 163.855C108.357 170.187 109.932 176.705 114.01 181.746C114.178 181.958 114.275 182.232 114.266 182.506C114.036 189.068 116.929 195.498 121.997 199.698C122.121 199.796 122.218 199.919 122.28 200.052C125.235 205.792 130.551 209.851 136.858 211.186C138.326 211.496 139.821 211.655 141.307 211.655C145.234 211.655 149.1 210.558 152.479 208.489C152.665 208.374 152.868 208.321 153.08 208.321C153.355 208.33 153.602 208.409 153.806 208.577Z" fill="#003F82"/>
<path d="M141.369 177.342C141.855 177.342 142.306 177.023 142.457 176.537C144.023 171.381 146.243 168.48 154.593 165.986C163.854 163.218 168.905 156.329 169.108 156.037C169.48 155.524 169.356 154.817 168.852 154.445C168.348 154.074 167.631 154.189 167.26 154.702C167.215 154.764 162.43 161.264 153.938 163.802C144.695 166.561 142.006 170.169 140.272 175.873C140.086 176.475 140.431 177.112 141.033 177.297C141.148 177.324 141.263 177.342 141.369 177.342Z" fill="#003F82"/>
<path d="M154.779 164.801C156.291 164.801 157.928 164.474 159.626 163.82C160.21 163.598 160.502 162.935 160.281 162.352C160.06 161.768 159.396 161.476 158.812 161.697C155.902 162.82 153.302 162.803 151.497 161.662C149.79 160.583 148.782 158.54 148.569 155.745C148.525 155.117 147.959 154.658 147.349 154.693C146.721 154.746 146.252 155.285 146.305 155.913C146.579 159.46 147.95 162.113 150.285 163.581C151.559 164.394 153.089 164.801 154.779 164.801Z" fill="#003F82"/>
<path d="M110.799 158.938C111.232 158.938 111.639 158.69 111.834 158.283C116.946 147.353 128.729 148.131 129.233 148.166C129.87 148.219 130.409 147.751 130.453 147.123C130.498 146.495 130.038 145.947 129.41 145.902C129.268 145.894 115.558 144.938 109.773 157.32C109.507 157.894 109.755 158.566 110.321 158.832C110.48 158.903 110.639 158.938 110.799 158.938Z" fill="#003F82"/>
<path d="M130.737 203.802C133.983 203.802 137.45 202.767 140.582 199.663C141.033 199.221 141.033 198.495 140.591 198.053C140.148 197.602 139.423 197.602 138.981 198.044C130.949 205.986 120.343 198.062 119.892 197.717C119.397 197.337 118.68 197.425 118.3 197.929C117.919 198.425 118.017 199.141 118.512 199.521C118.601 199.583 124.209 203.802 130.737 203.802Z" fill="#003F82"/>
<path d="M153.735 186.477C153.744 186.477 153.762 186.477 153.77 186.477C154.398 186.459 154.894 185.929 154.867 185.301C154.452 173.141 144.085 170.125 143.987 170.099C143.386 169.931 142.749 170.284 142.581 170.895C142.413 171.496 142.767 172.124 143.368 172.292C143.74 172.398 152.231 174.936 152.585 185.38C152.621 185.982 153.125 186.477 153.735 186.477Z" fill="#003F82"/>
<path d="M169.312 197.355C169.56 197.355 169.807 197.275 170.02 197.107C170.515 196.718 170.594 196.002 170.205 195.506C167.242 191.783 162.695 191.085 160.254 190.996C159.653 190.97 159.095 191.465 159.078 192.093C159.06 192.721 159.546 193.251 160.174 193.269C161.829 193.331 165.942 193.8 168.427 196.921C168.648 197.204 168.976 197.355 169.312 197.355Z" fill="#003F82"/>
<path d="M165.597 135.078C165.924 135.078 166.251 134.936 166.481 134.662C166.879 134.176 166.809 133.459 166.322 133.061C161.033 128.746 153.302 129.011 152.974 129.02C152.346 129.046 151.86 129.577 151.886 130.205C151.913 130.833 152.452 131.319 153.072 131.302C153.142 131.293 160.281 131.072 164.889 134.83C165.084 134.998 165.34 135.078 165.597 135.078Z" fill="#003F82"/>
<path d="M120.095 179.429C120.104 179.429 120.104 179.429 120.113 179.429C120.741 179.42 121.245 178.898 121.236 178.27C121.015 161.803 131.948 158.885 132.054 158.85C132.665 158.699 133.036 158.08 132.886 157.47C132.736 156.86 132.116 156.488 131.506 156.639C131.382 156.674 118.715 160.052 118.963 178.297C118.963 178.925 119.467 179.429 120.095 179.429Z" fill="#003F82"/>
<path d="M139.334 153.552C139.467 153.552 139.6 153.526 139.732 153.481C140.325 153.26 140.617 152.606 140.396 152.013C136.689 142.188 143.147 134.565 143.209 134.485C143.624 134.008 143.571 133.291 143.094 132.876C142.616 132.46 141.899 132.513 141.484 132.991C141.183 133.344 134.08 141.728 138.255 152.809C138.441 153.269 138.874 153.552 139.334 153.552Z" fill="#003F82"/>
<path d="M157.538 205.624C159.697 205.624 161.961 204.898 164.066 202.944C164.526 202.519 164.553 201.794 164.128 201.334C163.704 200.874 162.978 200.848 162.518 201.272C156.901 206.472 150.391 200.308 150.108 200.052C149.657 199.619 148.932 199.628 148.498 200.079C148.065 200.53 148.074 201.246 148.525 201.688C150.338 203.439 153.788 205.624 157.538 205.624Z" fill="#003F82"/>
<path d="M159.953 155.091C160.272 155.091 160.59 154.958 160.82 154.693C163.049 152.102 164.394 149.121 164.81 145.823C164.889 145.204 164.447 144.629 163.819 144.549C163.191 144.479 162.625 144.912 162.545 145.54C162.191 148.379 161.024 150.961 159.095 153.207C158.688 153.685 158.742 154.401 159.219 154.817C159.431 155.002 159.697 155.091 159.953 155.091Z" fill="#003F82"/>
<path d="M140.44 192.579C141.068 192.579 141.581 192.066 141.581 191.438C141.581 190.81 141.068 190.297 140.44 190.297C133.965 190.297 128.693 185.027 128.693 178.553C128.693 175.352 129.958 172.354 132.258 170.125C132.709 169.683 132.718 168.967 132.285 168.516C131.842 168.065 131.126 168.056 130.675 168.489C127.933 171.151 126.42 174.724 126.42 178.553C126.411 186.291 132.709 192.579 140.44 192.579Z" fill="#003F82"/>
<path d="M149.321 130.161C149.321 132.195 150.975 133.849 153.009 133.849C155.044 133.849 156.698 132.195 156.698 130.161C156.698 128.127 155.044 126.473 153.009 126.473C150.975 126.473 149.321 128.127 149.321 130.161Z" fill="#003F82"/>
<path d="M159.989 144.019C159.989 146.053 161.643 147.707 163.677 147.707C165.712 147.707 167.366 146.053 167.366 144.019C167.366 141.985 165.712 140.331 163.677 140.331C161.643 140.331 159.989 141.985 159.989 144.019Z" fill="#003F82"/>
<path d="M143.739 155.365C143.739 157.408 145.393 159.053 147.428 159.053C149.462 159.053 151.116 157.399 151.116 155.365C151.116 153.331 149.462 151.677 147.428 151.677C145.385 151.677 143.739 153.331 143.739 155.365Z" fill="#003F82"/>
<path d="M138.662 133.849C138.662 135.883 140.316 137.536 142.351 137.536C144.385 137.536 146.039 135.883 146.039 133.849C146.039 131.815 144.385 130.161 142.351 130.161C140.316 130.161 138.662 131.815 138.662 133.849Z" fill="#003F82"/>
<path d="M125.633 146.132C125.633 148.166 127.287 149.82 129.321 149.82C131.356 149.82 133.01 148.166 133.01 146.132C133.01 144.098 131.356 142.445 129.321 142.445C127.287 142.445 125.633 144.089 125.633 146.132Z" fill="#003F82"/>
<path d="M116.372 178.765C116.372 180.799 118.026 182.453 120.06 182.453C122.103 182.453 123.749 180.799 123.749 178.765C123.749 176.731 122.095 175.078 120.06 175.078C118.026 175.078 116.372 176.731 116.372 178.765Z" fill="#003F82"/>
<path d="M136.751 190.89C136.751 192.933 138.406 194.578 140.44 194.578C142.475 194.578 144.129 192.924 144.129 190.89C144.129 188.856 142.475 187.202 140.44 187.202C138.397 187.202 136.751 188.856 136.751 190.89Z" fill="#003F82"/>
<path d="M149.63 185.336C149.63 187.379 151.284 189.024 153.319 189.024C155.362 189.024 157.016 187.37 157.016 185.336C157.016 183.302 155.362 181.648 153.319 181.648C151.284 181.648 149.63 183.293 149.63 185.336Z" fill="#003F82"/>
<path d="M155.531 192.137C155.531 194.171 157.185 195.825 159.219 195.825C161.263 195.825 162.908 194.171 162.908 192.137C162.908 190.103 161.254 188.449 159.219 188.449C157.185 188.449 155.531 190.103 155.531 192.137Z" fill="#003F82"/>
<path d="M145.022 199.911C145.022 201.945 146.676 203.598 148.711 203.598C150.745 203.598 152.399 201.945 152.399 199.911C152.399 197.868 150.745 196.223 148.711 196.223C146.667 196.223 145.022 197.868 145.022 199.911Z" fill="#003F82"/>
<path d="M135.548 198.619C135.548 200.653 137.202 202.307 139.237 202.307C141.271 202.307 142.925 200.653 142.925 198.619C142.925 196.576 141.271 194.932 139.237 194.932C137.202 194.923 135.548 196.576 135.548 198.619Z" fill="#003F82"/>
</g>
<defs>
<clipPath id="clip0_494_5294">
<rect width="329" height="291" fill="white"/>
</clipPath>
</defs>
</svg>
