<svg width="34" height="34" viewBox="0 0 34 34" fill="none" xmlns="http://www.w3.org/2000/svg">
<path d="M18.2967 24.9656C18.6188 25.1456 18.9529 25.3257 19.2632 25.5178C20.1441 26.0494 20.9891 26.639 21.7928 27.2826C20.9943 27.9404 20.1488 28.5382 19.2632 29.0714C18.9529 29.2634 18.6188 29.4315 18.2847 29.6236C18.5766 28.878 18.7263 28.0839 18.7262 27.2826C18.7255 26.4903 18.5799 25.7049 18.2967 24.9656ZM6.99673 24.9656C6.7135 25.7049 6.56789 26.4903 6.56716 27.2826C6.57306 28.0833 6.72262 28.8764 7.00866 29.6236C6.67455 29.4315 6.34045 29.2634 6.03021 29.0714C5.14582 28.5422 4.304 27.9441 3.51248 27.2826C4.30744 26.6436 5.14906 26.0657 6.03021 25.5538C6.34045 25.3257 6.67455 25.1456 6.99673 24.9656ZM12.6527 23.1528C13.7046 23.2098 14.6947 23.6704 15.4193 24.4398C16.1439 25.2091 16.5478 26.2287 16.5478 27.2886C16.5478 28.3485 16.1439 29.368 15.4193 30.1374C14.6947 30.9067 13.7046 31.3673 12.6527 31.4244C11.6007 31.3673 10.6106 30.9067 9.88599 30.1374C9.16141 29.368 8.75755 28.3485 8.75755 27.2886C8.75755 26.2287 9.16141 25.2091 9.88599 24.4398C10.6106 23.6704 11.6007 23.2098 12.6527 23.1528ZM20.3968 14.425H22.6162V17.1502H20.3968V14.425ZM11.531 13.4405H13.7385V17.1502H11.531V13.4405ZM15.9818 10.4752H18.1893V17.1502H15.9818V10.4752ZM24.8356 7.12578H27.055V17.1502H24.8237L24.8356 7.12578ZM23.7139 4.90481C23.4282 4.92723 23.16 5.05239 22.9584 5.2574C22.7569 5.46241 22.6354 5.73357 22.6162 6.0213V12.204H20.3968V9.35876C20.3968 9.06264 20.2798 8.77866 20.0717 8.56928C19.8636 8.3599 19.5814 8.24227 19.287 8.24227H14.8601C14.5723 8.26192 14.3012 8.38586 14.0972 8.59114C13.8932 8.79641 13.77 9.06912 13.7504 9.35876V11.2196H10.4213C10.2761 11.218 10.1321 11.2454 9.99755 11.3002C9.86298 11.355 9.74055 11.4361 9.63734 11.5388C9.53414 11.6415 9.45221 11.7638 9.39629 11.8986C9.34038 12.0334 9.31159 12.178 9.3116 12.324V18.2666C9.31159 18.4127 9.34038 18.5573 9.39629 18.6921C9.45221 18.8269 9.53414 18.9492 9.63734 19.0519C9.74055 19.1546 9.86298 19.2357 9.99755 19.2905C10.1321 19.3453 10.2761 19.3727 10.4213 19.3711H28.1409C28.4331 19.3711 28.7136 19.2552 28.9213 19.0484C29.1291 18.8416 29.2474 18.5607 29.2506 18.2666V6.0213C29.2506 5.72519 29.1336 5.4412 28.9255 5.23182C28.7174 5.02244 28.4352 4.90481 28.1409 4.90481H23.7139ZM11.543 2.67184H27.055C27.6382 2.66706 28.2166 2.77891 28.7565 3.0009C29.2964 3.22289 29.7871 3.55059 30.2001 3.96497C30.6131 4.37936 30.9401 4.87216 31.1622 5.41477C31.3843 5.95738 31.497 6.53897 31.4938 7.12578L31.6848 21.7121C31.6895 22.2968 31.5786 22.8766 31.3584 23.4177C31.1382 23.9588 30.8132 24.4503 30.4023 24.8638C29.9914 25.2772 29.5028 25.6042 28.965 25.8257C28.4271 26.0473 27.8509 26.1589 27.2698 26.1541H24.0958C22.9233 25.224 21.696 24.3661 20.4206 23.585C18.1415 22.2044 15.3136 20.7517 12.6527 20.7517C10.7063 20.857 8.8109 21.4159 7.11605 22.3844V7.12578C7.14334 5.95316 7.61851 4.83616 8.44287 4.00676C9.26723 3.17736 10.3774 2.6993 11.543 2.67184ZM27.055 0.450867H11.543C9.78327 0.454028 8.09638 1.15791 6.85098 2.40867C5.60558 3.65943 4.90294 5.35536 4.89663 7.12578V23.597C3.51326 24.4578 2.17873 25.3957 0.899296 26.4062C0.773863 26.5121 0.673004 26.6444 0.603806 26.7937C0.534608 26.943 0.498749 27.1058 0.498749 27.2706C0.498749 27.4353 0.534608 27.5981 0.603806 27.7474C0.673004 27.8968 0.773863 28.029 0.899296 28.1349C2.17325 29.1566 3.50819 30.0988 4.89663 30.9562C7.18764 32.3608 10.0037 33.8374 12.6765 33.8374C15.3494 33.8374 18.1654 32.3608 20.4445 30.9562C21.7172 30.1812 22.9406 29.3272 24.1077 28.3991H27.2698C28.141 28.3959 29.0031 28.2201 29.8068 27.8818C30.6106 27.5434 31.3402 27.0491 31.954 26.4271C32.5679 25.805 33.0539 25.0674 33.3844 24.2564C33.715 23.4453 33.8834 22.5767 33.8803 21.7001L33.6775 7.12578C33.6743 5.35646 32.9743 3.66051 31.7308 2.40941C30.4873 1.15831 28.8017 0.45404 27.0431 0.450867H27.055Z" fill="white"/>
</svg>
