<svg width="26" height="27" viewBox="0 0 26 27" fill="none" xmlns="http://www.w3.org/2000/svg">
<path d="M23.1192 0.216553H1.99902C0.893395 0.216553 0 1.1933 0 2.40137V24.2615C0 25.4659 0.893395 26.4454 1.99902 26.4454H23.1192C24.2198 26.4454 25.1157 25.4668 25.1157 24.2615V2.40137C25.1149 1.1933 24.219 0.216553 23.1192 0.216553ZM16.8822 8.00387C16.363 7.67156 15.9511 7.40901 15.4335 7.40901C14.9268 7.40901 14.494 7.54763 14.2725 7.7808C14.051 8.01213 13.9412 8.46011 13.9412 9.12199V10.1015H16.6499L16.0635 12.8261H13.9412V21.8793H10.5387V12.8261H8.95073V10.1015H10.5404V9.0614C10.5404 7.96623 10.6603 7.31079 10.8969 6.77009C11.1326 6.23123 11.5898 5.63086 12.2257 5.29121C12.8607 4.95247 13.8002 4.78172 14.7725 4.78172C15.7691 4.78172 16.5475 5.14525 17.5022 5.43809L16.8822 8.00387Z" fill="white"/>
</svg>
