<svg width="673" height="549" viewBox="0 0 673 549" fill="none" xmlns="http://www.w3.org/2000/svg">
<path d="M190.829 291.349C187.058 187.484 265.898 100.311 366.924 96.6426C467.95 92.974 552.905 174.199 556.677 278.064C560.448 381.928 481.608 469.101 380.582 472.77C279.556 476.438 194.601 395.213 190.829 291.349ZM484.527 280.684C482.243 217.786 430.796 168.598 369.617 170.82C308.439 173.042 260.696 225.831 262.98 288.729C265.264 351.626 316.71 400.814 377.889 398.592C439.067 396.371 486.811 343.581 484.527 280.684Z" fill="#FF914C"/>
<path d="M66.7168 460.858L66.7168 452.652L57.1427 452.652L57.1427 443.078L48.9363 443.078L48.9363 452.652L39.3623 452.652L39.3623 460.858L48.9364 460.858L48.9364 470.432L57.1427 470.432L57.1427 460.858L66.7168 460.858Z" fill="#F98149"/>
<path d="M27.6406 460.858L27.6406 452.652L18.0665 452.652L18.0665 443.078L9.86018 443.078L9.86018 452.652L0.28609 452.652L0.28609 460.858L9.86018 460.858L9.86018 470.432L18.0665 470.432L18.0665 460.858L27.6406 460.858Z" fill="#F98149"/>
<path d="M66.7168 421.78L66.7168 413.574L57.1427 413.574L57.1427 404L48.9363 404L48.9363 413.574L39.3623 413.574L39.3623 421.78L48.9364 421.78L48.9364 431.355L57.1427 431.355L57.1427 421.78L66.7168 421.78Z" fill="#F98149"/>
<path d="M27.6406 421.78L27.6406 413.574L18.0665 413.574L18.0665 404L9.86018 404L9.86018 413.574L0.28609 413.574L0.28609 421.78L9.86018 421.78L9.86018 431.355L18.0665 431.355L18.0665 421.78L27.6406 421.78Z" fill="#F98149"/>
<path d="M66.7168 539.014L66.7168 530.808L57.1427 530.808L57.1427 521.234L48.9363 521.234L48.9363 530.808L39.3623 530.808L39.3623 539.014L48.9364 539.014L48.9364 548.588L57.1427 548.588L57.1427 539.014L66.7168 539.014Z" fill="#F98149"/>
<path d="M27.6406 539.014L27.6406 530.808L18.0665 530.808L18.0665 521.234L9.86018 521.234L9.86018 530.808L0.28609 530.808L0.28609 539.014L9.86018 539.014L9.86018 548.588L18.0665 548.588L18.0665 539.014L27.6406 539.014Z" fill="#F98149"/>
<path d="M66.7168 499.936L66.7168 491.73L57.1427 491.73L57.1427 482.156L48.9363 482.156L48.9363 491.73L39.3623 491.73L39.3623 499.936L48.9364 499.936L48.9364 509.511L57.1427 509.511L57.1427 499.936L66.7168 499.936Z" fill="#F98149"/>
<path d="M27.6406 499.936L27.6406 491.73L18.0665 491.73L18.0665 482.156L9.86018 482.156L9.86018 491.73L0.28609 491.73L0.28609 499.936L9.86018 499.936L9.86018 509.511L18.0665 509.511L18.0665 499.936L27.6406 499.936Z" fill="#F98149"/>
<path fill-rule="evenodd" clip-rule="evenodd" d="M672.088 25.5578C670.838 26.8707 668.77 26.9116 667.469 25.6492L648.5 7.23464L629.531 25.6492C628.23 26.9116 626.162 26.8707 624.912 25.5578C623.661 24.2448 623.702 22.157 625.003 20.8946L645.104 1.38104C647.001 -0.460352 649.999 -0.460343 651.896 1.38104L671.997 20.8946C673.298 22.157 673.339 24.2448 672.088 25.5578ZM672.088 54.4153C670.838 55.7282 668.77 55.7692 667.469 54.5067L648.5 36.0922L629.531 54.5067C628.23 55.7692 626.162 55.7282 624.912 54.4153C623.661 53.1023 623.702 51.0146 625.003 49.7521L645.104 30.2386C647.001 28.3972 649.999 28.3972 651.896 30.2386L671.997 49.7521C673.298 51.0146 673.339 53.1023 672.088 54.4153ZM667.469 83.3642C668.77 84.6267 670.838 84.5858 672.088 83.2728C673.339 81.9599 673.298 79.8721 671.997 78.6096L651.896 59.0961C649.999 57.2547 647.001 57.2547 645.104 59.0961L625.003 78.6096C623.702 79.8721 623.661 81.9599 624.912 83.2728C626.162 84.5858 628.23 84.6267 629.531 83.3642L648.5 64.9497L667.469 83.3642ZM672.088 112.13C670.838 113.443 668.77 113.484 667.469 112.222L648.5 93.8072L629.531 112.222C628.23 113.484 626.162 113.443 624.912 112.13C623.661 110.817 623.702 108.73 625.003 107.467L645.104 87.9536C647.001 86.1122 649.999 86.1122 651.896 87.9536L671.997 107.467C673.298 108.73 673.339 110.817 672.088 112.13ZM667.469 141.079C668.77 142.342 670.838 142.301 672.088 140.988C673.339 139.675 673.298 137.587 671.997 136.325L651.896 116.811C649.999 114.97 647.001 114.97 645.104 116.811L625.003 136.325C623.702 137.587 623.661 139.675 624.912 140.988C626.162 142.301 628.23 142.342 629.531 141.079L648.5 122.665L667.469 141.079Z" fill="#003F7D"/>
</svg>
