<svg width="108" height="403" viewBox="0 0 108 403" fill="none" xmlns="http://www.w3.org/2000/svg">
<g clip-path="url(#clip0_6471_242)">
<path d="M6.27684 224.731C9.4673 224.731 12.0537 222.145 12.0537 218.955C12.0537 215.764 9.4673 213.178 6.27684 213.178C3.08638 213.178 0.5 215.764 0.5 218.955C0.5 222.145 3.08638 224.731 6.27684 224.731Z" fill="#FF914C"/>
<path d="M6.27684 260.285C9.4673 260.285 12.0537 257.699 12.0537 254.508C12.0537 251.318 9.4673 248.731 6.27684 248.731C3.08638 248.731 0.5 251.318 0.5 254.508C0.5 257.699 3.08638 260.285 6.27684 260.285Z" fill="#FF914C"/>
<path d="M6.27684 295.839C9.4673 295.839 12.0537 293.252 12.0537 290.062C12.0537 286.872 9.4673 284.285 6.27684 284.285C3.08638 284.285 0.5 286.872 0.5 290.062C0.5 293.252 3.08638 295.839 6.27684 295.839Z" fill="#FF914C"/>
<path d="M6.27684 331.393C9.4673 331.393 12.0537 328.806 12.0537 325.616C12.0537 322.425 9.4673 319.839 6.27684 319.839C3.08638 319.839 0.5 322.425 0.5 325.616C0.5 328.806 3.08638 331.393 6.27684 331.393Z" fill="#FF914C"/>
<path d="M6.27684 366.946C9.4673 366.946 12.0537 364.36 12.0537 361.169C12.0537 357.979 9.4673 355.393 6.27684 355.393C3.08638 355.393 0.5 357.979 0.5 361.169C0.5 364.36 3.08638 366.946 6.27684 366.946Z" fill="#FF914C"/>
<path d="M6.27684 402.5C9.4673 402.5 12.0537 399.914 12.0537 396.723C12.0537 393.533 9.4673 390.946 6.27684 390.946C3.08638 390.946 0.5 393.533 0.5 396.723C0.5 399.914 3.08638 402.5 6.27684 402.5Z" fill="#FF914C"/>
<path d="M37.8306 224.731C41.021 224.731 43.6074 222.145 43.6074 218.955C43.6074 215.764 41.021 213.178 37.8306 213.178C34.6401 213.178 32.0537 215.764 32.0537 218.955C32.0537 222.145 34.6401 224.731 37.8306 224.731Z" fill="#FF914C"/>
<path d="M37.8306 260.285C41.021 260.285 43.6074 257.699 43.6074 254.508C43.6074 251.318 41.021 248.731 37.8306 248.731C34.6401 248.731 32.0537 251.318 32.0537 254.508C32.0537 257.699 34.6401 260.285 37.8306 260.285Z" fill="#FF914C"/>
<path d="M37.8306 295.839C41.021 295.839 43.6074 293.252 43.6074 290.062C43.6074 286.872 41.021 284.285 37.8306 284.285C34.6401 284.285 32.0537 286.872 32.0537 290.062C32.0537 293.252 34.6401 295.839 37.8306 295.839Z" fill="#FF914C"/>
<path d="M37.8306 331.393C41.021 331.393 43.6074 328.806 43.6074 325.616C43.6074 322.425 41.021 319.839 37.8306 319.839C34.6401 319.839 32.0537 322.425 32.0537 325.616C32.0537 328.806 34.6401 331.393 37.8306 331.393Z" fill="#FF914C"/>
<path d="M37.8306 366.946C41.021 366.946 43.6074 364.36 43.6074 361.169C43.6074 357.979 41.021 355.393 37.8306 355.393C34.6401 355.393 32.0537 357.979 32.0537 361.169C32.0537 364.36 34.6401 366.946 37.8306 366.946Z" fill="#FF914C"/>
<path d="M37.8306 402.5C41.021 402.5 43.6074 399.914 43.6074 396.723C43.6074 393.533 41.021 390.946 37.8306 390.946C34.6401 390.946 32.0537 393.533 32.0537 396.723C32.0537 399.914 34.6401 402.5 37.8306 402.5Z" fill="#FF914C"/>
<path d="M69.3843 224.731C72.5747 224.731 75.1611 222.145 75.1611 218.955C75.1611 215.764 72.5747 213.178 69.3843 213.178C66.1938 213.178 63.6074 215.764 63.6074 218.955C63.6074 222.145 66.1938 224.731 69.3843 224.731Z" fill="#FF914C"/>
<path d="M69.3843 260.285C72.5747 260.285 75.1611 257.699 75.1611 254.508C75.1611 251.318 72.5747 248.731 69.3843 248.731C66.1938 248.731 63.6074 251.318 63.6074 254.508C63.6074 257.699 66.1938 260.285 69.3843 260.285Z" fill="#FF914C"/>
<path d="M69.3843 295.839C72.5747 295.839 75.1611 293.252 75.1611 290.062C75.1611 286.872 72.5747 284.285 69.3843 284.285C66.1938 284.285 63.6074 286.872 63.6074 290.062C63.6074 293.252 66.1938 295.839 69.3843 295.839Z" fill="#FF914C"/>
<path d="M69.3843 331.393C72.5747 331.393 75.1611 328.806 75.1611 325.616C75.1611 322.425 72.5747 319.839 69.3843 319.839C66.1938 319.839 63.6074 322.425 63.6074 325.616C63.6074 328.806 66.1938 331.393 69.3843 331.393Z" fill="#FF914C"/>
<path d="M69.3843 366.946C72.5747 366.946 75.1611 364.36 75.1611 361.169C75.1611 357.979 72.5747 355.393 69.3843 355.393C66.1938 355.393 63.6074 357.979 63.6074 361.169C63.6074 364.36 66.1938 366.946 69.3843 366.946Z" fill="#FF914C"/>
<path d="M69.3843 402.5C72.5747 402.5 75.1611 399.914 75.1611 396.723C75.1611 393.533 72.5747 390.946 69.3843 390.946C66.1938 390.946 63.6074 393.533 63.6074 396.723C63.6074 399.914 66.1938 402.5 69.3843 402.5Z" fill="#FF914C"/>
<path d="M100.938 224.731C104.128 224.731 106.715 222.145 106.715 218.955C106.715 215.764 104.128 213.178 100.938 213.178C97.7475 213.178 95.1611 215.764 95.1611 218.955C95.1611 222.145 97.7475 224.731 100.938 224.731Z" fill="#FF914C"/>
<path d="M100.938 260.285C104.128 260.285 106.715 257.699 106.715 254.508C106.715 251.318 104.128 248.731 100.938 248.731C97.7475 248.731 95.1611 251.318 95.1611 254.508C95.1611 257.699 97.7475 260.285 100.938 260.285Z" fill="#FF914C"/>
<path d="M100.938 295.839C104.128 295.839 106.715 293.252 106.715 290.062C106.715 286.872 104.128 284.285 100.938 284.285C97.7475 284.285 95.1611 286.872 95.1611 290.062C95.1611 293.252 97.7475 295.839 100.938 295.839Z" fill="#FF914C"/>
<path d="M100.938 331.393C104.128 331.393 106.715 328.806 106.715 325.616C106.715 322.425 104.128 319.839 100.938 319.839C97.7475 319.839 95.1611 322.425 95.1611 325.616C95.1611 328.806 97.7475 331.393 100.938 331.393Z" fill="#FF914C"/>
<path d="M100.938 366.946C104.128 366.946 106.715 364.36 106.715 361.169C106.715 357.979 104.128 355.393 100.938 355.393C97.7475 355.393 95.1611 357.979 95.1611 361.169C95.1611 364.36 97.7475 366.946 100.938 366.946Z" fill="#FF914C"/>
<path d="M100.938 402.5C104.128 402.5 106.715 399.914 106.715 396.723C106.715 393.533 104.128 390.946 100.938 390.946C97.7475 390.946 95.1611 393.533 95.1611 396.723C95.1611 399.914 97.7475 402.5 100.938 402.5Z" fill="#FF914C"/>
<path d="M6.27682 12.1777C9.46729 12.1777 12.0537 9.59132 12.0537 6.40086C12.0537 3.2104 9.46729 0.624023 6.27682 0.624023C3.08636 0.624023 0.5 3.2104 0.5 6.40086C0.5 9.59132 3.08636 12.1777 6.27682 12.1777Z" fill="#FF914C"/>
<path d="M6.27686 47.7314C9.46732 47.7314 12.0537 45.145 12.0537 41.9546C12.0537 38.7641 9.46732 36.1777 6.27686 36.1777C3.08639 36.1777 0.5 38.7641 0.5 41.9546C0.5 45.145 3.08639 47.7314 6.27686 47.7314Z" fill="#FF914C"/>
<path d="M6.27686 83.2851C9.46732 83.2851 12.0537 80.6987 12.0537 77.5083C12.0537 74.3178 9.46732 71.7314 6.27686 71.7314C3.08639 71.7314 0.5 74.3178 0.5 77.5083C0.5 80.6987 3.08639 83.2851 6.27686 83.2851Z" fill="#FF914C"/>
<path d="M6.27682 118.839C9.46729 118.839 12.0537 116.252 12.0537 113.062C12.0537 109.872 9.46729 107.285 6.27682 107.285C3.08636 107.285 0.5 109.872 0.5 113.062C0.5 116.252 3.08636 118.839 6.27682 118.839Z" fill="#FF914C"/>
<path d="M6.27684 154.393C9.4673 154.393 12.0537 151.806 12.0537 148.616C12.0537 145.425 9.4673 142.839 6.27684 142.839C3.08638 142.839 0.5 145.425 0.5 148.616C0.5 151.806 3.08638 154.393 6.27684 154.393Z" fill="#FF914C"/>
<path d="M6.27684 189.946C9.4673 189.946 12.0537 187.36 12.0537 184.169C12.0537 180.979 9.4673 178.393 6.27684 178.393C3.08638 178.393 0.5 180.979 0.5 184.169C0.5 187.36 3.08638 189.946 6.27684 189.946Z" fill="#FF914C"/>
<path d="M37.8305 12.1777C41.021 12.1777 43.6074 9.59133 43.6074 6.40087C43.6074 3.2104 41.021 0.624023 37.8305 0.624023C34.6401 0.624023 32.0537 3.2104 32.0537 6.40087C32.0537 9.59133 34.6401 12.1777 37.8305 12.1777Z" fill="#FF914C"/>
<path d="M37.8306 47.7314C41.021 47.7314 43.6074 45.145 43.6074 41.9546C43.6074 38.7641 41.021 36.1777 37.8306 36.1777C34.6401 36.1777 32.0537 38.7641 32.0537 41.9546C32.0537 45.145 34.6401 47.7314 37.8306 47.7314Z" fill="#FF914C"/>
<path d="M37.8306 83.2851C41.021 83.2851 43.6074 80.6987 43.6074 77.5083C43.6074 74.3178 41.021 71.7314 37.8306 71.7314C34.6401 71.7314 32.0537 74.3178 32.0537 77.5083C32.0537 80.6987 34.6401 83.2851 37.8306 83.2851Z" fill="#FF914C"/>
<path d="M37.8305 118.839C41.021 118.839 43.6074 116.252 43.6074 113.062C43.6074 109.872 41.021 107.285 37.8305 107.285C34.6401 107.285 32.0537 109.872 32.0537 113.062C32.0537 116.252 34.6401 118.839 37.8305 118.839Z" fill="#FF914C"/>
<path d="M37.8306 154.393C41.021 154.393 43.6074 151.806 43.6074 148.616C43.6074 145.425 41.021 142.839 37.8306 142.839C34.6401 142.839 32.0537 145.425 32.0537 148.616C32.0537 151.806 34.6401 154.393 37.8306 154.393Z" fill="#FF914C"/>
<path d="M37.8306 189.946C41.021 189.946 43.6074 187.36 43.6074 184.169C43.6074 180.979 41.021 178.393 37.8306 178.393C34.6401 178.393 32.0537 180.979 32.0537 184.169C32.0537 187.36 34.6401 189.946 37.8306 189.946Z" fill="#FF914C"/>
<path d="M69.3842 12.1777C72.5747 12.1777 75.1611 9.59132 75.1611 6.40086C75.1611 3.2104 72.5747 0.624023 69.3842 0.624023C66.1938 0.624023 63.6074 3.2104 63.6074 6.40086C63.6074 9.59132 66.1938 12.1777 69.3842 12.1777Z" fill="#FF914C"/>
<path d="M69.3843 47.7314C72.5747 47.7314 75.1611 45.145 75.1611 41.9546C75.1611 38.7641 72.5747 36.1777 69.3843 36.1777C66.1938 36.1777 63.6074 38.7641 63.6074 41.9546C63.6074 45.145 66.1938 47.7314 69.3843 47.7314Z" fill="#FF914C"/>
<path d="M69.3843 83.2851C72.5747 83.2851 75.1611 80.6987 75.1611 77.5083C75.1611 74.3178 72.5747 71.7314 69.3843 71.7314C66.1938 71.7314 63.6074 74.3178 63.6074 77.5083C63.6074 80.6987 66.1938 83.2851 69.3843 83.2851Z" fill="#FF914C"/>
<path d="M69.3842 118.839C72.5747 118.839 75.1611 116.252 75.1611 113.062C75.1611 109.872 72.5747 107.285 69.3842 107.285C66.1938 107.285 63.6074 109.872 63.6074 113.062C63.6074 116.252 66.1938 118.839 69.3842 118.839Z" fill="#FF914C"/>
<path d="M69.3843 154.393C72.5747 154.393 75.1611 151.806 75.1611 148.616C75.1611 145.425 72.5747 142.839 69.3843 142.839C66.1938 142.839 63.6074 145.425 63.6074 148.616C63.6074 151.806 66.1938 154.393 69.3843 154.393Z" fill="#FF914C"/>
<path d="M69.3843 189.946C72.5747 189.946 75.1611 187.36 75.1611 184.169C75.1611 180.979 72.5747 178.393 69.3843 178.393C66.1938 178.393 63.6074 180.979 63.6074 184.169C63.6074 187.36 66.1938 189.946 69.3843 189.946Z" fill="#FF914C"/>
<path d="M100.938 12.1777C104.128 12.1777 106.715 9.59132 106.715 6.40086C106.715 3.2104 104.128 0.624023 100.938 0.624023C97.7475 0.624023 95.1611 3.2104 95.1611 6.40086C95.1611 9.59132 97.7475 12.1777 100.938 12.1777Z" fill="#FF914C"/>
<path d="M100.938 47.7314C104.128 47.7314 106.715 45.145 106.715 41.9546C106.715 38.7641 104.128 36.1777 100.938 36.1777C97.7475 36.1777 95.1611 38.7641 95.1611 41.9546C95.1611 45.145 97.7475 47.7314 100.938 47.7314Z" fill="#FF914C"/>
<path d="M100.938 83.2851C104.128 83.2851 106.715 80.6987 106.715 77.5083C106.715 74.3178 104.128 71.7314 100.938 71.7314C97.7475 71.7314 95.1611 74.3178 95.1611 77.5083C95.1611 80.6987 97.7475 83.2851 100.938 83.2851Z" fill="#FF914C"/>
<path d="M100.938 118.839C104.128 118.839 106.715 116.252 106.715 113.062C106.715 109.872 104.128 107.285 100.938 107.285C97.7475 107.285 95.1611 109.872 95.1611 113.062C95.1611 116.252 97.7475 118.839 100.938 118.839Z" fill="#FF914C"/>
<path d="M100.938 154.393C104.128 154.393 106.715 151.806 106.715 148.616C106.715 145.425 104.128 142.839 100.938 142.839C97.7475 142.839 95.1611 145.425 95.1611 148.616C95.1611 151.806 97.7475 154.393 100.938 154.393Z" fill="#FF914C"/>
<path d="M100.938 189.946C104.128 189.946 106.715 187.36 106.715 184.169C106.715 180.979 104.128 178.393 100.938 178.393C97.7475 178.393 95.1611 180.979 95.1611 184.169C95.1611 187.36 97.7475 189.946 100.938 189.946Z" fill="#FF914C"/>
</g>
<defs>
<clipPath id="clip0_6471_242">
<rect width="402" height="107" fill="white" transform="matrix(0 -1 1 0 0.5 402.5)"/>
</clipPath>
</defs>
</svg>
