<svg width="383" height="319" viewBox="0 0 383 319" fill="none" xmlns="http://www.w3.org/2000/svg">
<g clip-path="url(#clip0_494_5470)">
<path d="M189.548 46.5644L189.419 46.1479L183.711 47.5547C182.648 44.1209 181.26 40.7797 179.595 37.6143L184.627 34.5692L184.433 34.1805C181.547 28.5994 177.819 23.5182 173.361 19.0478C168.902 14.5866 163.815 10.8566 158.237 7.96893L157.849 7.76531L154.806 12.791C151.633 11.1251 148.294 9.73673 144.871 8.67235L146.277 2.96171L145.861 2.83213C133.892 -0.971877 120.794 -0.971877 108.825 2.83213L108.408 2.96171L109.814 8.67235C106.383 9.73673 103.043 11.1251 99.8799 12.791L96.8367 7.76531L96.4482 7.96893C90.8706 10.8566 85.7831 14.5866 81.3247 19.0478C76.8663 23.5089 73.1386 28.5994 70.2526 34.1805L70.0491 34.5692L75.0718 37.6143C73.4068 40.7797 72.0193 44.1209 70.9556 47.5547L65.2484 46.1479L65.1189 46.5644C63.2227 52.5527 62.2515 58.7816 62.2515 65.0939C62.2515 71.4061 63.2134 77.6351 65.1189 83.6234L65.2484 84.0399L70.9556 82.633C72.0193 86.0668 73.4068 89.4081 75.0718 92.5734L70.0399 95.6185L70.2434 96.0072C73.1293 101.588 76.857 106.679 81.3154 111.14C85.7739 115.601 90.8613 119.331 96.439 122.219L96.8275 122.422L99.8707 117.397C103.043 119.063 106.383 120.451 109.805 121.515L108.399 127.226L108.815 127.356C114.8 129.253 121.025 130.225 127.334 130.225C133.642 130.225 139.867 129.262 145.852 127.356L146.268 127.226L144.862 121.515C148.294 120.451 151.633 119.063 154.796 117.397L157.84 122.432L158.228 122.228C163.806 119.34 168.893 115.61 173.352 111.149C177.81 106.688 181.538 101.598 184.424 96.0165L184.618 95.6278L179.586 92.5827C181.251 89.4173 182.638 86.0761 183.702 82.6423L189.409 84.0491L189.539 83.6326C191.444 77.6443 192.406 71.4154 192.406 65.1031C192.416 58.7816 191.454 52.5527 189.548 46.5644ZM127.343 100.311C107.937 100.311 92.147 84.5119 92.147 65.0939C92.147 45.6758 107.937 29.8767 127.343 29.8767C146.749 29.8767 162.539 45.6758 162.539 65.0939C162.539 84.5119 146.749 100.311 127.343 100.311Z" fill="#F2831F"/>
<path d="M380.687 120.257L380.539 119.923L376.95 120.571C375.776 115.462 373.769 110.612 370.975 106.151L373.972 104.069L373.833 103.726C372.418 100.135 370.365 96.9791 367.719 94.3413C365.083 91.7034 361.929 89.6487 358.34 88.2234L357.997 88.0845L355.916 91.0833C351.458 88.2882 346.611 86.2797 341.505 85.1043L342.152 81.5131L341.819 81.365C334.743 78.2922 326.992 78.2922 319.916 81.365L319.583 81.5131L320.23 85.1043C315.124 86.2797 310.277 88.2882 305.819 91.0833L303.738 88.0845L303.396 88.2234C299.807 89.6395 296.652 91.6942 294.016 94.3413C291.38 96.9791 289.326 100.135 287.911 103.726L287.772 104.069L290.769 106.151C287.976 110.612 285.969 115.453 284.794 120.571L281.205 119.923L281.057 120.257C279.522 123.792 278.745 127.485 278.745 131.215C278.745 134.945 279.522 138.638 281.057 142.174L281.205 142.507L284.794 141.859C285.969 146.968 287.976 151.818 290.769 156.279L287.772 158.362L287.911 158.704C289.326 162.295 291.38 165.451 294.016 168.089C296.652 170.727 299.807 172.782 303.396 174.198L303.738 174.337L305.819 171.338C310.277 174.133 315.115 176.141 320.23 177.317L319.583 180.908L319.916 181.056C323.458 182.592 327.14 183.37 330.868 183.37C334.595 183.37 338.277 182.592 341.819 181.056L342.152 180.908L341.505 177.317C346.611 176.141 351.458 174.133 355.916 171.338L357.997 174.337L358.34 174.198C361.929 172.782 365.083 170.727 367.719 168.089C370.355 165.451 372.409 162.295 373.833 158.704L373.972 158.362L370.975 156.279C373.769 151.818 375.776 146.977 376.95 141.859L380.539 142.507L380.687 142.174C382.223 138.638 383 134.945 383 131.215C383 127.485 382.223 123.792 380.687 120.257ZM330.886 165.636C311.924 165.636 296.486 150.198 296.486 131.215C296.486 112.232 311.915 96.794 330.886 96.794C349.848 96.794 365.286 112.232 365.286 131.215C365.286 150.198 349.848 165.636 330.886 165.636Z" fill="#F2831F"/>
<path d="M101.924 247.964L101.776 247.631L98.1873 248.279C97.0126 243.16 95.0053 238.32 92.2119 233.859L95.2088 231.776L95.0701 231.434C93.6549 227.843 91.6014 224.686 88.9559 222.049C86.3197 219.411 83.1655 217.356 79.5766 215.931L79.2343 215.792L77.1531 218.791C72.6947 215.996 67.8477 213.987 62.7418 212.812L63.3893 209.221L63.0563 209.072C55.9801 206 48.2288 206 41.1526 209.072L40.8196 209.221L41.4671 212.812C36.3612 213.987 31.5142 215.996 27.0558 218.791L24.9746 215.792L24.6323 215.931C21.0434 217.347 17.8892 219.402 15.253 222.049C12.6168 224.686 10.5633 227.843 9.14806 231.434L9.00932 231.776L12.0063 233.859C9.21281 238.32 7.20559 243.16 6.03086 248.279L2.44191 247.631L2.29391 247.964C0.758434 251.5 -0.0185547 255.193 -0.0185547 258.923C-0.0185547 262.653 0.758434 266.345 2.29391 269.881L2.44191 270.214L6.03086 269.566C7.20559 274.675 9.21281 279.525 12.0063 283.986L9.00932 286.069L9.14806 286.411C10.5633 290.003 12.6168 293.159 15.253 295.796C17.8892 298.434 21.0434 300.489 24.6323 301.905L24.9746 302.044L27.0558 299.045C31.5142 301.84 36.3519 303.849 41.4671 305.024L40.8196 308.615L41.1526 308.763C44.6953 310.3 48.3768 311.077 52.1045 311.077C55.8321 311.077 59.5136 310.3 63.0563 308.763L63.3893 308.615L62.7418 305.024C67.8477 303.849 72.6947 301.84 77.1531 299.045L79.2343 302.044L79.5766 301.905C83.1655 300.489 86.3197 298.434 88.9559 295.796C91.5921 293.159 93.6456 290.003 95.0701 286.411L95.2088 286.069L92.2119 283.986C95.0053 279.525 97.0126 274.685 98.1873 269.566L101.776 270.214L101.924 269.881C103.46 266.345 104.237 262.653 104.237 258.923C104.237 255.193 103.46 251.5 101.924 247.964ZM52.1137 284.551C37.9892 284.551 26.5008 273.056 26.5008 258.923C26.5008 244.789 37.9892 233.294 52.1137 233.294C66.2383 233.294 77.7266 244.789 77.7266 258.923C77.7266 273.056 66.2383 284.551 52.1137 284.551Z" fill="#F2831F"/>
<path d="M323.375 251.231C323.375 254.341 320.841 256.877 317.733 256.877H31.6991C28.6004 256.877 26.0566 254.332 26.0566 251.231V85.4837C26.0566 82.3832 28.6004 79.8379 31.6991 79.8379H317.733C320.841 79.8379 323.375 82.3832 323.375 85.4837V251.231Z" fill="#1C417F"/>
<path d="M314.449 89.0841H34.9922V247.622H314.449V89.0841Z" fill="white"/>
<path opacity="0.1" d="M34.9922 247.622L314.44 89.0841V247.622H34.9922Z" fill="white"/>
<path d="M199.242 286.217H148.451L157.858 256.636H189.835L199.242 286.217Z" fill="#15325B"/>
<path d="M222.746 286.217C222.746 288.707 220.73 290.724 218.241 290.724H129.443C126.954 290.724 124.938 288.707 124.938 286.217C124.938 283.727 126.954 281.709 129.443 281.709H218.241C220.739 281.719 222.746 283.727 222.746 286.217Z" fill="#1C417F"/>
<path d="M335.659 55.5978H46.3511V219.726H335.659V55.5978Z" fill="#C6C6DB"/>
<path d="M335.659 55.5978H46.3511V69.5643H335.659V55.5978Z" fill="#1C417F"/>
<path d="M57.155 62.5857C57.155 63.974 56.0265 65.1032 54.639 65.1032C53.2515 65.1032 52.123 63.974 52.123 62.5857C52.123 61.1973 53.2515 60.0682 54.639 60.0682C56.0265 60.0589 57.155 61.1881 57.155 62.5857Z" fill="#EF6287"/>
<path d="M66.405 62.5856C66.405 63.9739 65.2765 65.1031 63.889 65.1031C62.5015 65.1031 61.373 63.9739 61.373 62.5856C61.373 61.1973 62.5015 60.0681 63.889 60.0681C65.2765 60.0681 66.405 61.188 66.405 62.5856Z" fill="#DDB03E"/>
<path d="M75.6545 62.5856C75.6545 63.9739 74.526 65.1031 73.1385 65.1031C71.751 65.1031 70.6226 63.9739 70.6226 62.5856C70.6226 61.1973 71.751 60.0681 73.1385 60.0681C74.526 60.0681 75.6545 61.188 75.6545 62.5856Z" fill="#23C16E"/>
<path d="M76.8109 77.4592H53.27V81.0966H76.8109V77.4592Z" fill="#1C417F"/>
<path d="M95.3107 86.7147H53.27V90.3521H95.3107V86.7147Z" fill="#1C417F"/>
<path d="M211.258 77.4592H90.2695V81.0966H211.258V77.4592Z" fill="#1C417F"/>
<path d="M194.21 86.7147H107.937V90.3521H194.21V86.7147Z" fill="#1C417F"/>
<path d="M85.0618 95.9702H53.27V99.6076H85.0618V95.9702Z" fill="#1C417F"/>
<path d="M266.646 95.9702H103.238V99.6076H266.646V95.9702Z" fill="#1C417F"/>
<path d="M110.046 105.226H53.27V108.863H110.046V105.226Z" fill="#1C417F"/>
<path d="M243.632 105.226H127.103V108.863H243.632V105.226Z" fill="#1C417F"/>
<path d="M71.0945 114.481H53.27V118.119H71.0945V114.481Z" fill="#1C417F"/>
<path d="M85.1081 123.737H53.27V127.374H85.1081V123.737Z" fill="#1C417F"/>
<path d="M172.926 114.481H81.2876V118.119H172.926V114.481Z" fill="#1C417F"/>
<path d="M160.023 123.737H94.6724V127.374H160.023V123.737Z" fill="#1C417F"/>
<path d="M77.3474 132.992H53.27V136.63H77.3474V132.992Z" fill="#1C417F"/>
<path d="M214.893 132.992H91.1206V136.63H214.893V132.992Z" fill="#1C417F"/>
<path d="M96.2727 142.248H53.27V145.885H96.2727V142.248Z" fill="#1C417F"/>
<path d="M197.457 142.248H109.195V145.885H197.457V142.248Z" fill="#1C417F"/>
<path d="M76.8109 151.503H53.27V155.141H76.8109V151.503Z" fill="#1C417F"/>
<path d="M95.3107 160.759H53.27V164.396H95.3107V160.759Z" fill="#1C417F"/>
<path d="M211.258 151.503H90.2695V155.141H211.258V151.503Z" fill="#1C417F"/>
<path d="M194.21 160.759H107.937V164.396H194.21V160.759Z" fill="#1C417F"/>
<path d="M85.0618 170.014H53.27V173.652H85.0618V170.014Z" fill="#1C417F"/>
<path d="M266.646 170.014H103.238V173.652H266.646V170.014Z" fill="#1C417F"/>
<path d="M110.046 179.27H53.27V182.907H110.046V179.27Z" fill="#1C417F"/>
<path d="M243.632 179.27H127.103V182.907H243.632V179.27Z" fill="#1C417F"/>
<path d="M71.0945 188.525H53.27V192.163H71.0945V188.525Z" fill="#1C417F"/>
<path d="M85.1081 197.781H53.27V201.418H85.1081V197.781Z" fill="#1C417F"/>
<path d="M172.926 188.525H81.2876V192.163H172.926V188.525Z" fill="#1C417F"/>
<path d="M160.023 197.781H94.6724V201.418H160.023V197.781Z" fill="#1C417F"/>
<path d="M77.3474 207.036H53.27V210.674H77.3474V207.036Z" fill="#1C417F"/>
<path d="M214.893 207.036H91.1206V210.674H214.893V207.036Z" fill="#1C417F"/>
<path d="M255.241 296.009C255.241 300.035 251.948 303.33 247.924 303.33H185.737C181.713 303.33 178.42 300.035 178.42 296.009V163.008C178.42 158.982 181.713 155.687 185.737 155.687H247.924C251.948 155.687 255.241 158.982 255.241 163.008V296.009Z" fill="#1C417F"/>
<path d="M250.82 165.349H182.833V286.707H250.82V165.349Z" fill="#C6C6DB"/>
<path d="M221.099 294.427C221.099 296.953 219.055 298.999 216.521 298.999C213.995 298.999 211.951 296.953 211.951 294.427C211.951 291.9 213.995 289.854 216.521 289.854C219.046 289.854 221.099 291.9 221.099 294.427Z" fill="white"/>
<path d="M230.395 160.509C230.395 161.009 229.988 161.425 229.48 161.425H204.477C203.969 161.425 203.562 161.018 203.562 160.509C203.562 160 203.969 159.593 204.477 159.593H229.48C229.988 159.593 230.395 160.009 230.395 160.509Z" fill="white"/>
<path d="M250.82 181.861H182.833V209.924H250.82V181.861Z" fill="white"/>
<path d="M187.402 198.438C188.807 198.438 189.946 197.298 189.946 195.893C189.946 194.487 188.807 193.347 187.402 193.347C185.997 193.347 184.858 194.487 184.858 195.893C184.858 197.298 185.997 198.438 187.402 198.438Z" fill="#C8C5FC"/>
<path d="M187.06 195.893C187.393 195.541 187.735 195.189 188.068 194.837C188.336 194.551 187.911 194.125 187.633 194.402C187.226 194.828 186.829 195.245 186.422 195.67C186.301 195.791 186.301 195.976 186.422 196.105C186.829 196.531 187.226 196.948 187.633 197.373C187.902 197.66 188.336 197.225 188.068 196.938C187.726 196.596 187.393 196.244 187.06 195.893Z" fill="white"/>
<path d="M246.555 198.438C247.96 198.438 249.099 197.298 249.099 195.893C249.099 194.487 247.96 193.347 246.555 193.347C245.15 193.347 244.011 194.487 244.011 195.893C244.011 197.298 245.15 198.438 246.555 198.438Z" fill="#C8C5FC"/>
<path d="M246.897 195.892C246.564 196.244 246.222 196.596 245.889 196.948C245.621 197.235 246.046 197.66 246.324 197.383C246.731 196.957 247.128 196.54 247.535 196.115C247.646 195.994 247.646 195.809 247.535 195.68C247.128 195.254 246.722 194.837 246.324 194.412C246.056 194.125 245.621 194.56 245.889 194.847C246.231 195.198 246.564 195.541 246.897 195.892Z" fill="white"/>
<path d="M243.632 173.809C243.632 175.928 241.903 177.659 239.784 177.659H193.877C191.759 177.659 190.029 175.928 190.029 173.809V172.809C190.029 170.69 191.759 168.959 193.877 168.959H239.784C241.903 168.959 243.632 170.69 243.632 172.809V173.809Z" fill="white"/>
<path d="M195.607 171.282C194.756 170.431 193.369 170.431 192.518 171.282C191.667 172.134 191.667 173.522 192.518 174.374C193.285 175.142 194.488 175.207 195.339 174.586L196.689 175.938L197.17 175.456L195.82 174.105C196.44 173.254 196.375 172.05 195.607 171.282ZM195.126 173.892C194.543 174.475 193.581 174.475 192.999 173.892C192.416 173.309 192.416 172.347 192.999 171.763C193.581 171.18 194.534 171.18 195.126 171.763C195.709 172.347 195.709 173.3 195.126 173.892Z" fill="#9797FC"/>
<path d="M214.31 214.404H186.866V234.534H214.31V214.404Z" fill="white"/>
<path d="M214.31 237.792H186.866V239.218H214.31V237.792Z" fill="#9797FC"/>
<path d="M214.31 241.448H186.866V242.873H214.31V241.448Z" fill="#9797FC"/>
<path d="M214.31 245.113H186.866V246.539H214.31V245.113Z" fill="#9797FC"/>
<path d="M204.607 222.021L197.281 231.693L193.276 226.389L187.106 234.534H195.135H199.437H214.079L204.607 222.021Z" fill="#E1E1FF"/>
<path d="M198.336 224.205C198.336 225.038 197.661 225.705 196.837 225.705C196.005 225.705 195.339 225.029 195.339 224.205C195.339 223.372 196.014 222.697 196.837 222.697C197.661 222.697 198.336 223.372 198.336 224.205Z" fill="#E1E1FF"/>
<path d="M247.092 214.404H219.647V234.534H247.092V214.404Z" fill="white"/>
<path d="M247.092 237.792H219.647V239.218H247.092V237.792Z" fill="#9797FC"/>
<path d="M247.092 241.448H219.647V242.873H247.092V241.448Z" fill="#9797FC"/>
<path d="M247.092 245.113H219.647V246.539H247.092V245.113Z" fill="#9797FC"/>
<path d="M237.379 222.021L230.053 231.693L226.048 226.389L219.878 234.534H227.907H232.208H246.851L237.379 222.021Z" fill="#E1E1FF"/>
<path d="M231.108 224.205C231.108 225.038 230.433 225.705 229.609 225.705C228.777 225.705 228.111 225.029 228.111 224.205C228.111 223.372 228.786 222.697 229.609 222.697C230.433 222.697 231.108 223.372 231.108 224.205Z" fill="#E1E1FF"/>
<path d="M214.31 249.787H186.866V269.918H214.31V249.787Z" fill="white"/>
<path d="M214.31 273.176H186.866V274.601H214.31V273.176Z" fill="#9797FC"/>
<path d="M214.31 276.832H186.866V278.257H214.31V276.832Z" fill="#9797FC"/>
<path d="M214.31 280.497H186.866V281.922H214.31V280.497Z" fill="#9797FC"/>
<path d="M204.607 257.414L197.281 267.077L193.276 261.783L187.106 269.918H195.135H199.437H214.079L204.607 257.414Z" fill="#E1E1FF"/>
<path d="M198.336 259.589C198.336 260.422 197.661 261.088 196.837 261.088C196.005 261.088 195.339 260.413 195.339 259.589C195.339 258.756 196.014 258.08 196.837 258.08C197.661 258.09 198.336 258.756 198.336 259.589Z" fill="#E1E1FF"/>
<path d="M247.092 249.787H219.647V269.918H247.092V249.787Z" fill="white"/>
<path d="M247.092 273.176H219.647V274.601H247.092V273.176Z" fill="#9797FC"/>
<path d="M247.092 276.832H219.647V278.257H247.092V276.832Z" fill="#9797FC"/>
<path d="M247.092 280.497H219.647V281.922H247.092V280.497Z" fill="#9797FC"/>
<path d="M237.379 257.414L230.053 267.077L226.048 261.782L219.878 269.918H227.907H232.208H246.851L237.379 257.414Z" fill="#E1E1FF"/>
<path d="M231.108 259.589C231.108 260.422 230.433 261.088 229.609 261.088C228.777 261.088 228.111 260.413 228.111 259.589C228.111 258.756 228.786 258.08 229.609 258.08C230.433 258.089 231.108 258.756 231.108 259.589Z" fill="#E1E1FF"/>
<path d="M139.923 265.522C139.923 267.558 138.258 269.224 136.223 269.224H84.7844C82.7494 269.224 81.0845 267.558 81.0845 265.522V235.904C81.0845 233.868 82.7494 232.202 84.7844 232.202H136.223C138.258 232.202 139.923 233.868 139.923 235.904V265.522Z" fill="#EAAA2A"/>
<path d="M138.073 262.745C138.073 264.781 136.408 266.447 134.373 266.447H82.9343C80.8994 266.447 79.2344 264.781 79.2344 262.745V233.127C79.2344 231.091 80.8994 229.425 82.9343 229.425H134.373C136.408 229.425 138.073 231.091 138.073 233.127V262.745Z" fill="#EFC45E"/>
<path d="M103.016 244.947L95.7085 247.622L103.016 250.278V253.027L92.5728 249.056V246.196L103.016 242.226V244.947Z" fill="#1C417F"/>
<path d="M110.869 236.82H113.921L106.678 257.506H103.626L110.869 236.82Z" fill="#1C417F"/>
<path d="M124.762 246.196V249.047L114.319 253.017V250.269L121.626 247.612L114.319 244.937V242.216L124.762 246.196Z" fill="#1C417F"/>
<path d="M365.231 232.952C365.231 235.08 363.492 236.811 361.374 236.811H309.01C306.883 236.811 305.153 235.071 305.153 232.952V180.556C305.153 178.427 306.892 176.697 309.01 176.697H361.374C363.492 176.697 365.231 178.437 365.231 180.556V232.952Z" fill="#1C417F"/>
<path d="M362.826 230.545C362.826 232.674 361.087 234.405 358.969 234.405H306.605C304.487 234.405 302.748 232.665 302.748 230.545V178.15C302.748 176.03 304.487 174.29 306.605 174.29H358.969C361.096 174.29 362.826 176.03 362.826 178.15V230.545Z" fill="#EFC45E"/>
<path d="M320.371 198.318V209.615H317.756V204.984H312.624V209.615H310.01V198.318H312.624V202.773H317.756V198.318H320.371ZM325.383 200.449H321.768V198.318H331.613V200.449H327.998V209.615H325.383V200.449ZM343.299 209.615L343.283 202.837L339.959 208.421H338.781L335.472 202.982V209.615H333.019V198.318H335.182L339.41 205.339L343.574 198.318H345.72L345.752 209.615H343.299ZM310.01 218.318H312.624V227.485H318.289V229.615H310.01V218.318Z" fill="#1C417F"/>
<path d="M359.283 90.167C359.283 91.833 357.914 93.2028 356.249 93.2028H315.087C313.422 93.2028 312.053 91.833 312.053 90.167V48.98C312.053 47.3048 313.422 45.9442 315.087 45.9442H356.249C357.914 45.9442 359.283 47.314 359.283 48.98V90.167Z" fill="#1C417F"/>
<path d="M357.396 88.2696C357.396 89.9356 356.027 91.3054 354.362 91.3054H313.2C311.535 91.3054 310.167 89.9356 310.167 88.2696V47.0827C310.167 45.4167 311.535 44.0469 313.2 44.0469H354.362C356.027 44.0469 357.396 45.4167 357.396 47.0827V88.2696Z" fill="#F2831F"/>
<path d="M318.477 71.3896C317.877 71.3896 317.323 71.2796 316.815 71.0597C316.316 70.8313 315.906 70.5099 315.585 70.0954L316.727 68.7251C317.209 69.3764 317.758 69.702 318.376 69.702C319.213 69.702 319.632 69.2114 319.632 68.2302V64.0051H316.511V62.3556H321.675V68.116C321.675 69.2072 321.404 70.0277 320.863 70.5775C320.321 71.1189 319.526 71.3896 318.477 71.3896ZM329.369 69.3341H325.245L324.458 71.2373H322.352L326.311 62.3556H328.341L332.312 71.2373H330.155L329.369 69.3341ZM328.721 67.7735L327.313 64.373L325.905 67.7735H328.721ZM341.289 62.3556L337.445 71.2373H335.415L331.583 62.3556H333.804L336.506 68.6997L339.247 62.3556H341.289ZM322.69 84.3341H318.566L317.78 86.2373H315.673L319.632 77.3556H321.662L325.634 86.2373H323.477L322.69 84.3341ZM322.043 82.7735L320.634 79.373L319.226 82.7735H322.043Z" fill="#FDFDFD"/>
<path d="M313.941 159.741C313.941 161.527 312.479 162.989 310.694 162.989H266.6C264.815 162.989 263.353 161.527 263.353 159.741V115.62C263.353 113.833 264.815 112.371 266.6 112.371H310.694C312.479 112.371 313.941 113.833 313.941 115.62V159.741Z" fill="#EAAA2A"/>
<path d="M311.915 157.714C311.915 159.5 310.453 160.962 308.668 160.962H264.574C262.789 160.962 261.327 159.5 261.327 157.714V113.593C261.327 111.806 262.789 110.344 264.574 110.344H308.668C310.453 110.344 311.915 111.806 311.915 113.593V157.714Z" fill="#EFC45E"/>
<path d="M275.288 141.313C273.934 141.313 272.707 141.022 271.607 140.44C270.519 139.845 269.658 139.029 269.026 137.992C268.406 136.942 268.096 135.759 268.096 134.444C268.096 133.128 268.406 131.951 269.026 130.914C269.658 129.864 270.519 129.048 271.607 128.466C272.707 127.872 273.941 127.574 275.307 127.574C276.458 127.574 277.495 127.777 278.419 128.181C279.355 128.586 280.139 129.168 280.772 129.927L278.798 131.749C277.9 130.712 276.787 130.193 275.459 130.193C274.636 130.193 273.903 130.376 273.257 130.743C272.612 131.097 272.106 131.597 271.739 132.242C271.385 132.887 271.208 133.621 271.208 134.444C271.208 135.266 271.385 136 271.739 136.645C272.106 137.29 272.612 137.796 273.257 138.163C273.903 138.517 274.636 138.694 275.459 138.694C276.787 138.694 277.9 138.169 278.798 137.119L280.772 138.941C280.139 139.712 279.355 140.301 278.419 140.706C277.483 141.11 276.439 141.313 275.288 141.313ZM287.101 141.313C286.051 141.313 285.033 141.174 284.046 140.895C283.072 140.604 282.288 140.231 281.693 139.776L282.737 137.461C283.306 137.878 283.983 138.213 284.767 138.466C285.551 138.719 286.336 138.846 287.12 138.846C287.993 138.846 288.638 138.719 289.056 138.466C289.473 138.201 289.682 137.853 289.682 137.423C289.682 137.106 289.555 136.847 289.302 136.645C289.062 136.43 288.746 136.259 288.354 136.132C287.974 136.006 287.455 135.867 286.798 135.715C285.785 135.475 284.957 135.234 284.312 134.994C283.666 134.753 283.11 134.368 282.642 133.836C282.186 133.305 281.959 132.597 281.959 131.711C281.959 130.939 282.167 130.244 282.585 129.624C283.002 128.991 283.629 128.491 284.463 128.125C285.311 127.758 286.342 127.574 287.557 127.574C288.404 127.574 289.233 127.675 290.042 127.878C290.852 128.08 291.56 128.371 292.168 128.751L291.219 131.085C289.992 130.389 288.765 130.041 287.538 130.041C286.677 130.041 286.038 130.18 285.621 130.459C285.216 130.737 285.014 131.104 285.014 131.559C285.014 132.015 285.248 132.356 285.716 132.584C286.197 132.799 286.924 133.014 287.898 133.229C288.91 133.469 289.739 133.71 290.384 133.95C291.029 134.191 291.579 134.57 292.035 135.089C292.503 135.607 292.737 136.309 292.737 137.195C292.737 137.954 292.522 138.65 292.092 139.282C291.674 139.902 291.042 140.396 290.194 140.762C289.347 141.129 288.316 141.313 287.101 141.313ZM273.295 164.313C272.245 164.313 271.227 164.174 270.24 163.895C269.266 163.604 268.482 163.231 267.887 162.776L268.931 160.461C269.5 160.878 270.177 161.213 270.961 161.466C271.746 161.719 272.53 161.846 273.314 161.846C274.187 161.846 274.832 161.719 275.25 161.466C275.667 161.201 275.876 160.853 275.876 160.423C275.876 160.106 275.75 159.847 275.497 159.645C275.256 159.43 274.94 159.259 274.548 159.132C274.168 159.006 273.65 158.867 272.992 158.715C271.98 158.475 271.151 158.234 270.506 157.994C269.861 157.753 269.304 157.368 268.836 156.836C268.381 156.305 268.153 155.597 268.153 154.711C268.153 153.939 268.362 153.244 268.779 152.624C269.197 151.991 269.823 151.491 270.658 151.125C271.505 150.758 272.536 150.574 273.751 150.574C274.598 150.574 275.427 150.675 276.237 150.878C277.046 151.08 277.755 151.371 278.362 151.751L277.413 154.085C276.186 153.389 274.959 153.041 273.732 153.041C272.872 153.041 272.233 153.18 271.815 153.459C271.41 153.737 271.208 154.104 271.208 154.559C271.208 155.015 271.442 155.356 271.91 155.584C272.391 155.799 273.118 156.014 274.092 156.229C275.104 156.469 275.933 156.71 276.578 156.95C277.223 157.191 277.774 157.57 278.229 158.089C278.697 158.607 278.931 159.309 278.931 160.195C278.931 160.954 278.716 161.65 278.286 162.282C277.869 162.902 277.236 163.396 276.388 163.762C275.541 164.129 274.51 164.313 273.295 164.313Z" fill="#1C417F"/>
<path d="M60.494 195.198C60.494 196.864 59.125 198.234 57.46 198.234H16.2981C14.6331 198.234 13.2642 196.864 13.2642 195.198V154.011C13.2642 152.336 14.6331 150.976 16.2981 150.976H57.46C59.125 150.976 60.494 152.345 60.494 154.011V195.198Z" fill="#F2831F"/>
<path d="M58.6073 193.301C58.6073 194.967 57.2383 196.337 55.5733 196.337H14.4114C12.7464 196.337 11.3774 194.967 11.3774 193.301V152.114C11.3774 150.448 12.7464 149.078 14.4114 149.078H55.5733C57.2383 149.078 58.6073 150.448 58.6073 152.114V193.301Z" fill="#1C417F"/>
<path d="M25.0921 178.241C23.8341 178.241 22.6936 177.971 21.6707 177.43C20.6596 176.877 19.8601 176.119 19.2722 175.155C18.6961 174.179 18.408 173.08 18.408 171.857C18.408 170.634 18.6961 169.541 19.2722 168.576C19.8601 167.601 20.6596 166.842 21.6707 166.301C22.6936 165.749 23.84 165.472 25.1098 165.472C26.1797 165.472 27.1438 165.661 28.0021 166.037C28.8722 166.413 29.6011 166.954 30.189 167.659L28.3548 169.352C27.5201 168.388 26.4854 167.906 25.2509 167.906C24.4866 167.906 23.8047 168.077 23.2051 168.418C22.6054 168.747 22.1351 169.211 21.7942 169.811C21.465 170.411 21.3004 171.093 21.3004 171.857C21.3004 172.621 21.465 173.303 21.7942 173.903C22.1351 174.502 22.6054 174.972 23.2051 175.313C23.8047 175.643 24.4866 175.807 25.2509 175.807C26.4854 175.807 27.5201 175.319 28.3548 174.343L30.189 176.037C29.6011 176.754 28.8722 177.3 28.0021 177.677C27.1321 178.053 26.1621 178.241 25.0921 178.241ZM40.0395 172.933H36.9708V175.931H34.6957V172.933H31.6447V170.781H34.6957V167.783H36.9708V170.781H40.0395V172.933ZM27.2085 193.933H24.1398V196.931H21.8647V193.933H18.8137V191.781H21.8647V188.783H24.1398V191.781H27.2085V193.933Z" fill="#FDFDFD"/>
<path d="M258.756 80.6246C258.756 82.7071 257.054 84.4194 254.972 84.4194H203.589C201.508 84.4194 199.797 82.7164 199.797 80.6246V29.2196C199.797 27.1371 201.499 25.4341 203.589 25.4341H254.963C257.044 25.4341 258.746 27.1371 258.746 29.2196V80.6246H258.756Z" fill="#1C417F"/>
<path d="M256.397 78.2644C256.397 80.3469 254.695 82.0499 252.614 82.0499H201.24C199.159 82.0499 197.448 80.3469 197.448 78.2644V26.8594C197.448 24.7769 199.15 23.0739 201.24 23.0739H252.614C254.695 23.0739 256.397 24.7769 256.397 26.8594V78.2644Z" fill="#F2831F"/>
<path d="M215.144 45.9489C216.125 45.9489 216.975 46.1126 217.693 46.4398C218.422 46.7671 218.981 47.2316 219.372 47.8333C219.762 48.4351 219.958 49.1476 219.958 49.9711C219.958 50.7839 219.762 51.4965 219.372 52.1088C218.981 52.7106 218.422 53.1751 217.693 53.5023C216.975 53.819 216.125 53.9774 215.144 53.9774H212.911V57.0336H210.346V45.9489H215.144ZM215.001 51.8871C215.772 51.8871 216.358 51.7235 216.759 51.3962C217.16 51.0584 217.361 50.5834 217.361 49.9711C217.361 49.3482 217.16 48.8732 216.759 48.5459C216.358 48.2081 215.772 48.0392 215.001 48.0392H212.911V51.8871H215.001ZM231.955 45.9489V57.0336H229.39V52.4889H224.354V57.0336H221.789V45.9489H224.354V50.3194H229.39V45.9489H231.955ZM215.144 64.9489C216.125 64.9489 216.975 65.1126 217.693 65.4398C218.422 65.7671 218.981 66.2316 219.372 66.8333C219.762 67.4351 219.958 68.1476 219.958 68.9711C219.958 69.7839 219.762 70.4965 219.372 71.1088C218.981 71.7106 218.422 72.1751 217.693 72.5023C216.975 72.819 216.125 72.9774 215.144 72.9774H212.911V76.0336H210.346V64.9489H215.144ZM215.001 70.8871C215.772 70.8871 216.358 70.7235 216.759 70.3962C217.16 70.0584 217.361 69.5834 217.361 68.9711C217.361 68.3482 217.16 67.8732 216.759 67.5459C216.358 67.2081 215.772 67.0392 215.001 67.0392H212.911V70.8871H215.001Z" fill="#FDFDFD"/>
<path d="M290.446 315.964C290.446 317.63 289.077 319 287.412 319H246.25C244.585 319 243.216 317.63 243.216 315.964V274.777C243.216 273.102 244.585 271.741 246.25 271.741H287.412C289.077 271.741 290.446 273.111 290.446 274.777V315.964Z" fill="#E27CF7"/>
<path d="M288.559 314.076C288.559 315.742 287.19 317.112 285.525 317.112H244.363C242.698 317.112 241.329 315.742 241.329 314.076V272.889C241.329 271.223 242.698 269.853 244.363 269.853H285.525C287.19 269.853 288.559 271.223 288.559 272.889V314.076Z" fill="#F2831F"/>
<path d="M258.763 300.36C257.886 300.36 257.077 300.199 256.335 299.878C255.607 299.544 255.007 299.075 254.538 298.47L256.206 296.468C256.91 297.419 257.713 297.895 258.615 297.895C259.838 297.895 260.449 297.179 260.449 295.745V289.575H255.891V287.166H263.433V295.579C263.433 297.172 263.038 298.371 262.247 299.174C261.456 299.964 260.295 300.36 258.763 300.36ZM260.635 323.36C259.609 323.36 258.615 323.224 257.651 322.952C256.7 322.668 255.934 322.303 255.353 321.859L256.373 319.598C256.928 320.006 257.589 320.333 258.355 320.58C259.121 320.827 259.887 320.951 260.653 320.951C261.506 320.951 262.136 320.827 262.543 320.58C262.951 320.321 263.155 319.981 263.155 319.561C263.155 319.252 263.031 318.999 262.784 318.801C262.55 318.591 262.241 318.424 261.858 318.301C261.487 318.177 260.981 318.041 260.338 317.893C259.35 317.658 258.541 317.424 257.911 317.189C257.281 316.954 256.737 316.577 256.28 316.058C255.835 315.54 255.613 314.848 255.613 313.983C255.613 313.229 255.817 312.55 256.224 311.945C256.632 311.327 257.244 310.839 258.059 310.481C258.887 310.122 259.893 309.943 261.079 309.943C261.907 309.943 262.716 310.042 263.507 310.24C264.298 310.437 264.99 310.721 265.583 311.092L264.656 313.371C263.458 312.692 262.259 312.352 261.061 312.352C260.221 312.352 259.597 312.488 259.189 312.76C258.794 313.032 258.596 313.39 258.596 313.835C258.596 314.279 258.825 314.613 259.282 314.835C259.751 315.045 260.462 315.255 261.413 315.465C262.401 315.7 263.211 315.935 263.841 316.17C264.471 316.404 265.008 316.775 265.453 317.282C265.91 317.788 266.138 318.474 266.138 319.338C266.138 320.08 265.928 320.759 265.508 321.377C265.101 321.982 264.483 322.464 263.655 322.822C262.828 323.181 261.821 323.36 260.635 323.36Z" fill="#FDFDFD"/>
</g>
<defs>
<clipPath id="clip0_494_5470">
<rect width="383" height="319" fill="white"/>
</clipPath>
</defs>
</svg>
