<svg width="34" height="36" viewBox="0 0 34 36" fill="none" xmlns="http://www.w3.org/2000/svg">
<g clip-path="url(#clip0_967_754)">
<path d="M34.0001 5.99796C33.9393 6.52126 33.8836 6.99762 33.828 7.47572C33.7133 8.46495 33.5968 9.45592 33.482 10.4452C33.3569 11.5144 33.2334 12.5836 33.1083 13.6545C32.9831 14.7289 32.8562 15.8033 32.731 16.8778C32.6041 17.9626 32.4772 19.0457 32.3503 20.1306C32.2251 21.1998 32.1017 22.269 31.9782 23.3399C31.8531 24.4143 31.7262 25.4888 31.601 26.5632C31.5454 27.0361 31.488 27.5072 31.4393 27.9818C31.4271 28.1018 31.3906 28.1765 31.2776 28.2374C26.5663 30.807 21.8584 33.38 17.1505 35.9548C17.0427 36.0139 16.961 36.0174 16.8497 35.9565C12.1488 33.38 7.44615 30.8052 2.74349 28.2339C2.62701 28.1696 2.57485 28.1 2.55921 27.961C2.38883 26.4589 2.20977 24.9568 2.03418 23.4547C1.86902 22.0378 1.70734 20.6191 1.54044 19.2005C1.36485 17.6984 1.18579 16.1963 1.0102 14.6941C0.834608 13.192 0.662496 11.6899 0.486906 10.1861C0.332179 8.85786 0.173975 7.52962 0.0192477 6.20137C0.0157707 6.1666 0.0175092 6.13009 0.00881668 6.09706C-0.020738 5.98058 0.0296788 5.93711 0.139205 5.89713C5.71634 3.93953 11.2935 1.97671 16.8723 0.017376C16.9523 -0.0104407 17.0601 -0.00174799 17.1436 0.0278072C21.8445 1.67595 26.5437 3.3293 31.2446 4.98265C32.1225 5.29211 33.0005 5.59984 33.8767 5.91103C33.9271 5.92842 33.9688 5.97536 34.0001 5.99796ZM27.6076 27.4777C24.0663 19.6281 20.5354 11.8012 16.994 3.94996C13.4492 11.8099 9.92005 19.6351 6.38219 27.4777C6.46042 27.4777 6.5091 27.4777 6.55951 27.4777C7.76778 27.4777 8.97604 27.4759 10.1826 27.4811C10.306 27.4811 10.3651 27.4446 10.4103 27.3299C11.0762 25.6783 11.749 24.0284 12.4148 22.3768C12.4635 22.2568 12.5174 22.2116 12.6512 22.2116C15.5476 22.2168 18.4457 22.2168 21.342 22.2116C21.469 22.2116 21.5229 22.2533 21.5681 22.3663C22.2374 24.0232 22.9119 25.6765 23.5795 27.3334C23.6247 27.4446 23.6751 27.4811 23.7951 27.4811C25.0086 27.4759 26.2203 27.4777 27.4338 27.4777C27.4842 27.4777 27.5311 27.4777 27.6076 27.4777Z" fill="white"/>
<path d="M16.9958 11.5908C18.0389 14.0665 19.0646 16.5022 20.0973 18.9553C18.0284 18.9553 15.9735 18.9553 13.896 18.9553C14.9252 16.5092 15.9527 14.07 16.9958 11.5908Z" fill="white"/>
</g>
<defs>
<clipPath id="clip0_967_754">
<rect width="34" height="36" fill="white"/>
</clipPath>
</defs>
</svg>
