<svg width="19" height="20" viewBox="0 0 19 20" fill="none" xmlns="http://www.w3.org/2000/svg">
<path fill-rule="evenodd" clip-rule="evenodd" d="M18.8867 9.77344C18.8867 14.9656 14.7029 19.1904 9.56116 19.1904C4.41942 19.1904 0.235596 14.9656 0.235596 9.77344C0.235596 4.58129 4.41942 0.356445 9.56116 0.356445C14.7029 0.356445 18.8867 4.58129 18.8867 9.77344ZM17.2446 9.77344C17.2446 5.49516 13.7979 2.01469 9.56116 2.01469C5.32443 2.01469 1.87774 5.49516 1.87774 9.77344C1.87774 14.0517 5.32443 17.5322 9.56116 17.5322C13.7979 17.5322 17.2446 14.0517 17.2446 9.77344Z" fill="#F98149"/>
<path fill-rule="evenodd" clip-rule="evenodd" d="M14.8851 8.4487C15.0292 8.89827 14.9106 9.38469 14.5749 9.7145L12.9565 11.3083L13.3378 13.5598C13.4181 14.0259 13.2302 14.4902 12.8507 14.7685C12.4711 15.0467 11.9785 15.0817 11.5625 14.8624L9.56089 13.7993L7.55929 14.8624C7.37866 14.9582 7.18342 15.0043 6.98819 15.0043C6.73457 15.0043 6.4846 14.9251 6.2693 14.7666C5.88978 14.4884 5.70367 14.0259 5.78395 13.5579L6.16529 11.3083L4.54687 9.7145C4.20932 9.38285 4.09254 8.89827 4.23668 8.44686C4.38083 7.99729 4.76035 7.67486 5.2238 7.60668L7.46259 7.27872L8.4643 5.22986C8.6723 4.80425 9.09196 4.54077 9.56089 4.54077C10.0298 4.54077 10.4513 4.80609 10.6575 5.22986L11.6592 7.27872L13.8962 7.60668C14.3614 7.67486 14.7409 7.99729 14.8851 8.4487ZM12.8215 9.1249L11.2049 8.88722C10.8071 8.82826 10.4622 8.57584 10.2853 8.21286L9.56089 6.7315L8.83834 8.21102C8.65953 8.57584 8.31468 8.82826 7.91692 8.88722L6.30031 9.1249L7.46989 10.2765C7.75818 10.5602 7.88955 10.9692 7.82204 11.3709L7.5447 12.996L8.99161 12.2277C9.34741 12.0379 9.77437 12.0379 10.1302 12.2277L11.5771 12.996L11.2997 11.3691C11.2322 10.9692 11.3636 10.5602 11.6519 10.2765L12.8215 9.1249Z" fill="#F98149"/>
</svg>
