<svg width="34" height="35" viewBox="0 0 34 35" fill="none" xmlns="http://www.w3.org/2000/svg">
<g clip-path="url(#clip0_494_320)">
<path d="M5.1148 29.181H6.20092L7.43515 29.3291V32.6245H6.27497C6.12275 32.6278 5.97141 32.6005 5.82996 32.5441C5.68852 32.4878 5.55985 32.4036 5.45161 32.2965C5.34337 32.1894 5.25778 32.0616 5.19991 31.9208C5.14205 31.7799 5.1131 31.6289 5.1148 31.4767V29.181ZM20.0613 28.0208C19.8017 28.0233 19.5506 28.1138 19.3491 28.2774C19.1475 28.441 19.0074 28.6681 18.9515 28.9216C18.8957 29.1751 18.9274 29.4401 19.0415 29.6733C19.1557 29.9064 19.3455 30.094 19.58 30.2054L21.8756 31.3532C22.011 31.4213 22.1584 31.4621 22.3095 31.4732C22.4606 31.4843 22.6124 31.4655 22.7562 31.4179C22.9 31.3704 23.0331 31.2949 23.1478 31.196C23.2624 31.097 23.3565 30.9764 23.4246 30.841C23.4927 30.7057 23.5334 30.5583 23.5445 30.4072C23.5556 30.2561 23.5368 30.1043 23.4893 29.9605C23.4417 29.8166 23.3663 29.6836 23.2673 29.5689C23.1683 29.4542 23.0477 29.3601 22.9124 29.2921L20.6044 28.1442C20.4351 28.0623 20.2494 28.02 20.0613 28.0208ZM20.0613 23.7504C19.7758 23.7799 19.5114 23.9143 19.3192 24.1274C19.127 24.3406 19.0206 24.6174 19.0206 24.9044C19.0206 25.1914 19.127 25.4682 19.3192 25.6814C19.5114 25.8945 19.7758 26.0288 20.0613 26.0584H22.394C22.6795 26.0288 22.9439 25.8945 23.1361 25.6814C23.3283 25.4682 23.4347 25.1914 23.4347 24.9044C23.4347 24.6174 23.3283 24.3406 23.1361 24.1274C22.9439 23.9143 22.6795 23.7799 22.394 23.7504H20.0613ZM2.7821 23.4171H5.1148V26.873H2.80679L2.7821 23.4171ZM14.3098 22.4051V27.8727L7.39812 27.0087V23.3061L14.3098 22.4051ZM22.3817 18.8011C22.1978 18.8022 22.0164 18.8444 21.8509 18.9245L19.58 20.1217C19.4446 20.189 19.3239 20.2823 19.2246 20.3962C19.1253 20.5101 19.0494 20.6425 19.0013 20.7858C18.9531 20.929 18.9337 21.0804 18.944 21.2312C18.9544 21.3819 18.9943 21.5292 19.0616 21.6645C19.1288 21.7999 19.2221 21.9206 19.336 22.0199C19.45 22.1192 19.5824 22.1951 19.7256 22.2432C19.8689 22.2914 20.0202 22.3108 20.171 22.3005C20.3218 22.2901 20.469 22.2502 20.6044 22.1829L22.9124 21.0351C23.1914 20.952 23.4285 20.7659 23.5755 20.5145C23.7225 20.2632 23.7685 19.9654 23.7041 19.6814C23.6398 19.3975 23.47 19.1486 23.229 18.9851C22.9881 18.8217 22.694 18.7559 22.4063 18.8011H22.3817ZM12.1499 15.3576H7.33641C7.18567 15.3633 7.03753 15.3986 6.90044 15.4615C6.76335 15.5245 6.64 15.6138 6.53742 15.7244C6.43485 15.835 6.35506 15.9647 6.30262 16.1061C6.25017 16.2475 6.2261 16.3979 6.23177 16.5487C6.23745 16.6994 6.27275 16.8475 6.33568 16.9846C6.3986 17.1217 6.48791 17.2451 6.59851 17.3476C6.70911 17.4502 6.83883 17.53 6.98026 17.5824C7.12169 17.6349 7.27207 17.659 7.4228 17.6533H12.0265C12.1772 17.6614 12.3281 17.6397 12.4704 17.5895C12.6128 17.5393 12.7439 17.4616 12.8562 17.3607C12.9685 17.2599 13.0599 17.1379 13.125 17.0017C13.1902 16.8656 13.2279 16.7179 13.236 16.5672C13.2441 16.4164 13.2225 16.2656 13.1723 16.1232C13.1221 15.9809 13.0443 15.8498 12.9435 15.7375C12.8426 15.6251 12.7206 15.5338 12.5845 15.4686C12.4483 15.4034 12.3006 15.3657 12.1499 15.3576ZM19.2467 13.099L20.0737 14.4566L19.4812 15.3576H17.6792L19.2467 13.099ZM7.4228 11.8648C7.11838 11.8648 6.82642 11.9857 6.61116 12.2009C6.3959 12.4162 6.27497 12.7082 6.27497 13.0126C6.27497 13.317 6.3959 13.609 6.61116 13.8242C6.82642 14.0395 7.11838 14.1604 7.4228 14.1604H9.71847C10.0229 14.1604 10.3149 14.0395 10.5301 13.8242C10.7454 13.609 10.8663 13.317 10.8663 13.0126C10.8663 12.7082 10.7454 12.4162 10.5301 12.2009C10.3149 11.9857 10.0229 11.8648 9.71847 11.8648H7.4228ZM24.702 11.6303L27.1705 15.3329H22.2336L24.702 11.6303ZM24.702 8.39657C24.5146 8.40508 24.3316 8.45619 24.167 8.54601C24.0023 8.63583 23.8603 8.76201 23.7517 8.91495L21.4807 12.3461L20.2464 10.396C20.1455 10.231 20.0041 10.0945 19.8356 9.99945C19.6672 9.90441 19.4772 9.85399 19.2837 9.85296C19.0947 9.84754 18.9073 9.88995 18.739 9.97625C18.5707 10.0626 18.427 10.19 18.321 10.3467C17.0868 12.1733 15.7662 14.0493 14.532 15.8637C14.4156 16.0362 14.3483 16.2372 14.3374 16.4451C14.3264 16.653 14.3722 16.8599 14.4698 17.0438C14.5675 17.2277 14.7133 17.3815 14.8916 17.4889C15.07 17.5962 15.2742 17.6531 15.4823 17.6533H29.3057C29.5575 17.6747 29.8093 17.6124 30.0221 17.4761C30.2349 17.3397 30.3968 17.137 30.4826 16.8993C30.5684 16.6616 30.5733 16.4022 30.4966 16.1614C30.42 15.9206 30.266 15.7118 30.0586 15.5674L25.6647 9.01369C25.5604 8.84607 25.4175 8.7059 25.2478 8.60497C25.0781 8.50403 24.8867 8.44526 24.6897 8.4336L24.702 8.39657ZM26.8989 3.80524C26.5945 3.81997 26.3084 3.95503 26.1036 4.18071C25.8987 4.40638 25.7919 4.70419 25.8066 5.00862C25.8214 5.31304 25.9564 5.59914 26.1821 5.80399C26.4078 6.00883 26.7056 6.11564 27.01 6.10091H29.3057C29.6101 6.10091 29.9021 5.97998 30.1173 5.76472C30.3326 5.54945 30.4535 5.2575 30.4535 4.95307C30.4535 4.64865 30.3326 4.35669 30.1173 4.14143C29.9021 3.92617 29.6101 3.80524 29.3057 3.80524H26.8989ZM22.2953 3.80524C21.9908 3.81997 21.7047 3.95503 21.4999 4.18071C21.295 4.40638 21.1882 4.70419 21.203 5.00862C21.2177 5.31304 21.3528 5.59914 21.5784 5.80399C21.8041 6.00883 22.1019 6.11564 22.4063 6.10091H23.5665C23.8709 6.10091 24.1629 5.97998 24.3782 5.76472C24.5934 5.54945 24.7144 5.2575 24.7144 4.95307C24.7144 4.64865 24.5934 4.35669 24.3782 4.14143C24.1629 3.92617 23.8709 3.80524 23.5665 3.80524H22.2953ZM17.6916 3.80524C17.3872 3.81997 17.1011 3.95503 16.8962 4.18071C16.6914 4.40638 16.5846 4.70419 16.5993 5.00862C16.614 5.31304 16.7491 5.59914 16.9748 5.80399C17.2004 6.00883 17.4982 6.11564 17.8027 6.10091H18.9505C19.2549 6.10091 19.5469 5.97998 19.7621 5.76472C19.9774 5.54945 20.0983 5.2575 20.0983 4.95307C20.0983 4.64865 19.9774 4.35669 19.7621 4.14143C19.5469 3.92617 19.2549 3.80524 18.9505 3.80524H17.6916ZM7.33641 3.84227C7.03198 3.857 6.74588 3.99206 6.54104 4.21773C6.33619 4.44341 6.22939 4.74122 6.24412 5.04564C6.25885 5.35007 6.3939 5.63617 6.61958 5.84101C6.84526 6.04586 7.14306 6.15266 7.44749 6.13793H8.57064C8.87506 6.13793 9.16702 6.017 9.38228 5.80174C9.59754 5.58648 9.71847 5.29453 9.71847 4.9901C9.71847 4.68568 9.59754 4.39372 9.38228 4.17846C9.16702 3.9632 8.87506 3.84227 8.57064 3.84227H7.33641ZM7.44749 2.68209H29.3057C29.6086 2.67881 29.9092 2.73586 30.1899 2.84991C30.4706 2.96397 30.7258 3.13274 30.9406 3.34641C31.1554 3.56007 31.3256 3.81435 31.4411 4.09443C31.5567 4.37451 31.6153 4.67478 31.6137 4.97776V30.3288C31.6153 30.6318 31.5567 30.9321 31.4411 31.2122C31.3256 31.4922 31.1554 31.7465 30.9406 31.9602C30.7258 32.1738 30.4706 32.3426 30.1899 32.4567C29.9092 32.5707 29.6086 32.6278 29.3057 32.6245H9.71847V29.613L14.1987 30.1807C14.5051 30.2189 14.816 30.1921 15.1113 30.1021C15.4066 30.012 15.6796 29.8607 15.9125 29.6581C16.1454 29.4555 16.333 29.2061 16.463 28.9261C16.593 28.6461 16.6626 28.3418 16.6672 28.0332V26.5397L17.4818 25.7252C17.5908 25.6193 17.6774 25.4927 17.7366 25.3528C17.7957 25.2128 17.8262 25.0625 17.8262 24.9106C17.8262 24.7586 17.7957 24.6083 17.7366 24.4684C17.6774 24.3284 17.5908 24.2018 17.4818 24.096L16.6672 23.2937V22.257C16.6646 21.9477 16.5963 21.6425 16.4669 21.3615C16.3375 21.0806 16.1499 20.8303 15.9166 20.6273C15.6832 20.4243 15.4094 20.2731 15.1133 20.1839C14.8171 20.0946 14.5054 20.0692 14.1987 20.1094L6.20092 21.1215H5.1148V4.97776C5.11314 4.67478 5.1718 4.37451 5.28736 4.09443C5.40291 3.81435 5.57305 3.56007 5.78787 3.34641C6.00268 3.13274 6.25787 2.96397 6.53856 2.84991C6.81926 2.73586 7.11984 2.67881 7.4228 2.68209H7.44749ZM7.4228 0.374084C6.20169 0.377323 5.03134 0.863001 4.16672 1.7253C3.30211 2.58761 2.8133 3.75666 2.80679 4.97776V21.1215C2.19779 21.1247 1.61446 21.3672 1.18267 21.7967C0.75088 22.2261 0.50525 22.8082 0.498779 23.4171V26.873C0.505202 27.4831 0.750429 28.0664 1.18188 28.4979C1.61333 28.9293 2.19666 29.1746 2.80679 29.181V31.4767C2.81328 32.3933 3.18116 33.2704 3.83051 33.9175C4.47987 34.5645 5.35828 34.9293 6.27497 34.9325H29.3057C30.5257 34.9292 31.6947 34.4432 32.5574 33.5805C33.42 32.7179 33.9061 31.5488 33.9094 30.3288V4.97776C33.9061 3.75779 33.42 2.58872 32.5574 1.72607C31.6947 0.863417 30.5257 0.377342 29.3057 0.374084H7.4228Z" fill="white"/>
</g>
<defs>
<clipPath id="clip0_494_320">
<rect width="33.4106" height="34.5584" fill="white" transform="translate(0.498779 0.374084)"/>
</clipPath>
</defs>
</svg>
