<svg width="145" height="68" viewBox="0 0 145 68" fill="none" xmlns="http://www.w3.org/2000/svg">
<path d="M0.0519489 33.9287C0.0519489 29.3078 -0.0091082 24.687 0.0778982 20.0676C0.122165 17.7572 1.2563 15.8639 3.23608 14.6594C6.59117 12.6175 10.0226 10.7 13.4265 8.73847C17.8181 6.20656 22.2172 3.68829 26.6072 1.15334C29.2586 -0.377342 31.9039 -0.386445 34.5553 1.13817C42.1371 5.49659 49.7219 9.84894 57.2976 14.2195C59.775 15.6485 61.1045 17.8133 61.1137 20.6653C61.1427 29.5536 61.1473 38.4419 61.1167 47.3301C61.106 50.1412 59.8376 52.3242 57.3739 53.7426C49.7525 58.1314 42.1188 62.5004 34.4897 66.8785C31.8856 68.3728 29.2861 68.3743 26.6835 66.8801C19.0774 62.514 11.4712 58.1511 3.86802 53.7805C1.23035 52.265 -0.0091082 49.9682 5.0376e-05 46.9585C0.0137882 42.6152 0.00310323 38.272 0.00310323 33.9287C0.0198939 33.9287 0.0351582 33.9287 0.0519489 33.9287ZM13.1151 44.1277C12.961 43.6513 12.7824 43.1795 12.6557 42.6956C12.4847 42.0418 11.9474 41.4016 12.1657 40.7523C12.3962 40.0651 12.2283 39.4962 12.1794 38.8424C12.0405 36.984 12.1275 35.1105 12.126 33.243C12.126 32.8895 12.2481 32.6817 12.6602 32.6847C14.7942 32.6999 16.9281 32.6954 19.0621 32.703C19.4483 32.7045 19.8146 32.8182 19.7948 33.2779C19.7749 33.7148 19.4376 33.824 19.0331 33.8195C18.0165 33.8104 17.0014 33.8149 15.9848 33.8286C15.7146 33.8316 15.3483 33.8256 15.2933 34.1456C15.2399 34.4566 15.6353 34.4779 15.8367 34.5719C17.8425 35.511 19.8574 36.4288 21.8738 37.3435C24.5313 38.5481 27.198 39.7313 29.8494 40.9525C30.3851 41.1998 30.8736 41.1938 31.3819 40.9617C34.1768 39.6858 36.9686 38.407 39.762 37.1281C41.9127 36.1436 44.0619 35.156 46.2127 34.1745C49.3785 32.7318 52.5443 31.2906 55.7132 29.854C56.1085 29.675 56.1451 29.455 55.8276 29.1865C55.6765 29.0591 55.4873 28.9695 55.3041 28.8876C53.6968 28.1625 52.0864 27.4404 50.476 26.7198C47.2781 25.2892 44.1001 23.8162 40.9129 22.3629C37.6799 20.8899 34.4638 19.3789 31.246 17.8725C30.7912 17.6601 30.4035 17.6692 29.9501 17.8816C27.2376 19.1468 24.5175 20.3983 21.7929 21.6378C17.6669 23.5158 13.5334 25.3787 9.40743 27.2553C8.01075 27.8894 6.62628 28.5478 5.23417 29.1926C5.0968 29.2563 4.91668 29.2912 4.91057 29.4671C4.90447 29.631 5.03726 29.7114 5.19143 29.7796C6.59727 30.4031 7.9619 31.1419 9.41201 31.6395C10.7598 32.1022 11.259 32.8456 11.0804 34.2443C10.8499 36.0525 11.3643 37.9124 10.7568 39.7101C10.7079 39.8573 10.7461 40.0985 10.8423 40.2168C11.2529 40.7174 11.059 41.1922 10.8804 41.7065C10.5965 42.5257 10.1676 43.313 10.0928 44.4311C11.1415 43.3768 12.0817 43.5436 13.1151 44.1277ZM47.6597 41.0648C47.6597 40.6112 47.6445 40.1561 47.6643 39.7025C47.6872 39.17 47.4628 39.0927 47.0202 39.2975C46.06 39.7404 45.0938 40.1713 44.1306 40.6082C39.7711 42.5894 35.4117 44.5691 31.0552 46.5564C30.7973 46.6748 30.5988 46.7703 30.2844 46.6232C27.7978 45.4627 25.2976 44.3279 22.7988 43.1902C19.9535 41.8961 17.1052 40.6112 14.2615 39.3142C13.7654 39.0881 13.5547 39.214 13.5563 39.7571C13.5608 40.5642 13.5502 41.3712 13.5334 42.1783C13.5227 42.6956 13.7471 42.9808 14.2401 43.2023C19.4544 45.5537 24.6595 47.9233 29.8539 50.3156C30.3928 50.5629 30.8431 50.5705 31.3621 50.3308C36.2375 48.0917 41.0976 45.8161 46.0097 43.6604C47.2674 43.1098 48.0673 42.5363 47.6597 41.0648ZM47.6582 36.3059C47.6582 35.8523 47.6429 35.3972 47.6628 34.9436C47.6811 34.487 47.5651 34.3686 47.1056 34.5795C44.4741 35.7856 41.8288 36.9613 39.1926 38.1612C36.5336 39.3718 33.8776 40.593 31.2262 41.8203C30.8278 42.0054 30.4508 42.0281 30.057 41.8491C26.7095 40.3184 23.362 38.7847 20.0146 37.254C18.16 36.406 16.3069 35.5534 14.4462 34.716C13.657 34.3611 13.5547 34.4384 13.5502 35.3289C13.5456 36.1102 13.5593 36.893 13.5502 37.6758C13.5456 38.0459 13.6707 38.275 14.0417 38.4206C14.7652 38.7073 15.4704 39.0411 16.1787 39.3657C20.4801 41.3379 24.7969 43.2751 29.0678 45.311C30.1669 45.8343 31.0461 45.8374 32.1512 45.3155C36.7503 43.1401 41.3739 41.0117 46.0387 38.9804C47.3468 38.41 48.0459 37.7562 47.6582 36.3059Z" fill="#003F7D"/>
<path d="M77.9015 34.3089C75.3261 34.3089 72.7492 34.3104 70.1738 34.3074C69.8492 34.3074 69.5217 34.3043 69.2001 34.2663C68.7103 34.21 68.2355 34.0594 68.0807 33.5253C67.9259 32.9912 68.0011 32.4693 68.4143 32.0463C68.5014 31.9565 68.5841 31.8515 68.6877 31.7876C70.2654 30.8275 70.581 29.3074 70.572 27.5986C70.5479 23.2681 70.5524 18.9377 70.5675 14.6072C70.5735 12.9714 70.1888 11.5609 68.7343 10.616C68.1303 10.225 67.8493 9.60566 68.0807 8.90572C68.3061 8.21948 68.9552 8.12818 69.5712 8.12666C74.7731 8.11449 79.975 8.10688 85.1754 8.11145C86.7095 8.11297 87.7839 8.74748 88.2482 10.3421C88.5802 11.4833 88.9469 12.6124 89.1227 13.7916C89.2158 14.42 89.1707 15.0241 88.4781 15.3254C87.8094 15.616 87.2955 15.3299 86.9034 14.8126C86.2483 13.9514 85.6653 13.0354 84.8719 12.2867C83.9223 11.3905 82.8224 10.8686 81.5092 10.8184C80.4589 10.7773 79.4086 10.759 78.3613 10.8549C77.0901 10.9705 76.6994 11.4194 76.6979 12.7021C76.6964 14.2222 76.6874 15.7408 76.7084 17.2609C76.7235 18.3336 77.0991 18.7475 78.1479 18.9498C78.7429 19.064 79.3424 19.0594 79.9405 19.0183C80.9066 18.9514 81.4521 18.3336 81.8112 17.4891C81.9765 17.1011 82.1042 16.6887 82.4317 16.3966C83.0613 15.8336 83.787 16.0542 84.1266 16.8394C84.2844 17.2046 84.346 17.5606 84.3475 17.9349C84.358 19.5813 84.358 21.2277 84.3505 22.8725C84.349 23.1495 84.331 23.4355 84.2573 23.7003C84.1146 24.207 83.8517 24.6208 83.2626 24.6711C82.7127 24.7182 82.3836 24.3941 82.1192 23.965C82.0801 23.9011 82.0636 23.825 82.029 23.7581C81.0208 21.7344 80.0216 21.2809 77.8023 21.8454C77.1427 22.0128 76.7355 22.451 76.728 23.1342C76.7009 25.4882 76.7039 27.8436 76.7175 30.199C76.722 30.9203 77.1983 31.3159 77.8369 31.4346C79.5994 31.7602 81.3814 31.6841 83.1349 31.4255C84.1206 31.2809 84.7712 30.479 85.2626 29.63C85.7419 28.8022 86.1671 27.941 86.6074 27.0889C86.7696 26.7724 86.9394 26.462 87.1949 26.214C87.5345 25.8838 87.8906 25.6845 88.4029 25.8777C88.9198 26.0725 89.1813 26.4133 89.1978 26.9474C89.2579 28.9057 89.1227 30.8473 88.5938 32.7386C88.2842 33.8433 87.581 34.2815 86.1521 34.2967C84.1522 34.3196 82.1507 34.3089 80.1493 34.3119C79.4026 34.3104 78.6513 34.3089 77.9015 34.3089Z" fill="#003F7D"/>
<path d="M106.635 10.8158C104.399 10.8416 102.301 10.6319 100.234 10.9359C98.4067 11.2064 97.1877 12.4451 96.1629 13.8647C95.8647 14.2766 95.6054 14.7174 95.2172 15.0609C94.7699 15.4576 94.2715 15.5549 93.714 15.3117C93.1984 15.0867 93.1192 14.6353 93.1441 14.1672C93.2404 12.395 93.801 10.7413 94.624 9.18341C95.0681 8.3429 95.9936 8.23802 96.843 8.16507C97.6909 8.09211 98.5465 8.11339 99.399 8.11339C103.922 8.10883 108.446 8.11035 112.969 8.11035C113.073 8.11035 113.176 8.11187 113.28 8.11339C114.869 8.13923 115.206 8.70007 114.398 10.0285C111.809 14.2857 109.207 18.5339 106.61 22.7866C104.955 25.4981 103.309 28.2157 101.635 30.9181C101.289 31.4759 101.362 31.6248 102.04 31.6066C103.823 31.561 105.607 31.5869 107.39 31.5473C109.595 31.4987 111.097 30.2782 112.311 28.62C112.64 28.1701 112.955 27.7126 113.362 27.325C113.778 26.9283 114.266 26.8432 114.791 27.0393C115.306 27.2323 115.432 27.6928 115.411 28.164C115.322 29.9849 114.698 31.6674 113.9 33.2846C113.629 33.8333 113.019 34.0263 112.423 34.1646C111.965 34.2695 111.505 34.2999 111.039 34.2999C105.612 34.2999 100.183 34.3044 94.756 34.2953C94.1535 34.2938 93.4298 34.4549 93.0742 33.8044C92.7341 33.1812 93.1922 32.6493 93.509 32.1355C97.7266 25.2975 101.947 18.4624 106.165 11.6244C106.294 11.4146 106.415 11.1958 106.635 10.8158Z" fill="#003F7D"/>
<path d="M133.631 19.3538C133.97 18.7685 134.244 18.2957 134.518 17.8229C135.479 16.1628 136.452 14.5073 137.398 12.838C137.961 11.8438 138.214 10.9985 137.178 10.0606C136.391 9.34756 136.793 8.30923 137.872 8.22106C139.803 8.06295 141.746 8.08272 143.68 8.2241C144.167 8.25906 144.611 8.4795 144.714 9.05871C144.814 9.61512 144.532 9.9815 144.105 10.2597C143.768 10.4786 143.417 10.6778 143.061 10.8678C142.105 11.3786 141.343 12.0977 140.773 13.019C138.87 16.0868 136.973 19.1577 135.072 22.2271C134.923 22.4658 134.807 22.7044 134.811 23.0009C134.834 24.8966 134.818 26.7954 134.872 28.6897C134.908 29.9074 135.37 30.9487 136.414 31.6693C136.597 31.7955 136.768 31.9612 136.9 32.1421C137.225 32.5906 137.399 33.0862 137.16 33.632C136.936 34.1443 136.47 34.2766 135.975 34.2872C134.867 34.3115 133.76 34.313 132.652 34.3115C130.889 34.31 129.126 34.31 127.364 34.2811C126.821 34.272 126.285 34.1261 126.103 33.5149C125.925 32.9129 126.002 32.3048 126.563 31.9567C128.357 30.8454 128.659 29.1108 128.623 27.2135C128.617 26.9353 128.588 26.6525 128.628 26.3789C129.003 23.7975 128.163 21.654 126.578 19.6183C125.018 17.6116 123.705 15.4088 122.3 13.282C121.537 12.1266 120.635 11.1293 119.411 10.4513C119.195 10.3312 118.984 10.17 118.827 9.9815C118.261 9.30347 118.544 8.43237 119.388 8.2089C119.534 8.17089 119.686 8.14505 119.836 8.14505C122.807 8.14353 125.779 8.14048 128.75 8.15569C129.245 8.15873 129.704 8.31379 129.91 8.83828C130.123 9.38405 129.9 9.81428 129.527 10.205C128.791 10.9773 128.653 11.3619 129.165 12.2087C130.591 14.5772 132.09 16.9032 133.631 19.3538Z" fill="#003F7D"/>
<path d="M84.5835 49.6362C84.5835 49.9718 84.5925 50.3074 84.5819 50.6415C84.5608 51.3054 84.6606 51.9103 85.341 52.2804C85.4967 52.3654 85.6374 52.4878 85.5648 52.6851C85.4967 52.8709 85.2926 52.9213 85.1323 52.9242C84.3536 52.94 83.5749 52.9371 82.7962 52.917C82.6359 52.9127 82.4303 52.8695 82.3653 52.6779C82.2987 52.4806 82.4439 52.3567 82.5875 52.2631C83.2528 51.8325 83.3647 51.1888 83.3632 50.4946C83.3602 47.7885 83.3557 45.0809 83.3632 42.3748C83.3647 41.6965 83.215 41.093 82.6284 40.648C82.4892 40.5429 82.3335 40.4161 82.3819 40.2347C82.4393 40.023 82.6737 39.9466 82.8597 39.9423C83.6384 39.9265 84.4186 39.9092 85.1943 39.9639C85.7024 39.9999 85.8082 40.3312 85.3969 40.6149C84.6908 41.1017 84.5729 41.7685 84.5774 42.5131C84.585 43.5428 84.5759 44.5725 84.5804 45.6023C84.5819 45.814 84.5381 46.079 84.7573 46.1942C85.0159 46.331 85.152 46.0689 85.3092 45.9292C86.9392 44.4775 88.5602 43.0171 90.1977 41.5741C90.5924 41.2255 90.7708 40.9418 90.2643 40.5371C89.9256 40.2664 90.048 39.9826 90.4654 39.9596C91.2426 39.9178 92.0228 39.938 92.8015 39.9538C92.995 39.9582 93.2339 40.0287 93.2566 40.2563C93.2793 40.4709 93.0812 40.6134 92.8968 40.6739C91.5616 41.1146 90.7149 42.1602 89.6851 42.9811C89.3132 43.2778 89.2708 43.6047 89.4583 44.0022C90.5591 46.3324 91.6675 48.6583 92.7501 50.9972C92.9935 51.5214 93.3095 51.9463 93.8539 52.2055C94.061 52.3035 94.2727 52.4288 94.179 52.6966C94.1109 52.8925 93.9159 53.0106 93.7148 53.0135C93.0162 53.0236 92.3101 53.0524 91.6191 52.9789C91.173 52.9314 90.9296 52.6289 91.3076 52.2185C91.607 51.8944 91.5707 51.5733 91.4119 51.2204C90.4744 49.1365 89.5218 47.0583 88.6131 44.9628C88.3606 44.3795 88.1383 44.3205 87.6696 44.7641C86.8334 45.5562 85.97 46.3209 85.1021 47.0799C84.7256 47.4083 84.5215 47.7683 84.5668 48.2724C84.6061 48.7246 84.5759 49.1826 84.5759 49.6377C84.5804 49.6362 84.5819 49.6362 84.5835 49.6362Z" fill="#003F7D"/>
<path d="M73.0604 53.008C72.1182 53.1206 71.0126 52.6983 69.8729 52.9561C69.4277 53.0569 69.2367 52.6583 69.1655 52.2983C68.9696 51.3057 68.6928 50.3249 68.6458 49.31C68.6361 49.1144 68.5455 48.8937 68.8207 48.8063C69.125 48.7085 69.3549 48.8655 69.4973 49.0892C69.7531 49.4907 69.9733 49.91 70.2145 50.3204C71.3363 52.2346 73.7597 52.6628 75.6521 51.8538C77.5073 51.0627 77.6838 48.8181 76.0148 47.7573C74.9026 47.0506 73.6092 46.6773 72.4096 46.132C71.2797 45.6194 70.0558 45.1972 69.4099 44.1156C68.2557 42.1778 69.4811 39.8976 71.877 39.4635C72.8613 39.2843 73.8536 39.2502 74.8508 39.385C75.385 39.4576 75.9192 39.4828 76.4535 39.348C76.8873 39.2384 77.1997 39.3835 77.3131 39.7969C77.5365 40.6058 77.7599 41.4148 77.9574 42.2281C78.0124 42.4533 78.1111 42.7585 77.7841 42.88C77.4604 43.0015 77.1997 42.8178 77.0476 42.5659C76.6299 41.8711 76.0714 41.3036 75.4077 40.7895C74.3036 39.9362 72.1652 39.8576 71.0466 40.6903C69.8664 41.5674 70.0105 43.2015 71.3638 44.0223C72.4679 44.692 73.7257 45.0875 74.9042 45.6239C75.6457 45.9617 76.3887 46.2817 77.0832 46.7202C79.3868 48.1766 78.9853 51.1753 76.4907 52.3679C75.3348 52.922 74.812 53.0243 73.0604 53.008Z" fill="#003F7D"/>
<path d="M134.992 53.002C134.065 53.1148 133.143 52.6918 132.197 52.9783C131.889 53.0718 131.649 52.812 131.587 52.4944C131.389 51.4808 131.211 50.4641 131.042 49.4445C131.004 49.2145 130.94 48.9058 131.242 48.8108C131.543 48.7158 131.732 48.9488 131.847 49.1996C132.2 49.9803 132.565 50.7402 133.181 51.3487C134.465 52.6147 136.839 52.5865 137.889 51.2656C138.89 50.0055 138.719 48.511 137.369 47.6769C136.282 47.0046 135.101 46.4985 133.969 45.9063C132.951 45.3735 131.977 44.7902 131.533 43.5821C130.95 41.9985 131.711 40.3259 133.265 39.6862C134.236 39.2855 135.233 39.281 136.237 39.3345C136.798 39.3642 137.351 39.4977 137.915 39.33C138.294 39.2172 138.506 39.4695 138.592 39.8035C138.807 40.6346 138.996 41.4731 139.184 42.3102C139.232 42.5254 139.268 42.7836 139.013 42.8831C138.74 42.9899 138.551 42.7822 138.436 42.5684C138.123 41.9807 137.72 41.4731 137.256 41.016C136.125 39.9014 134.055 39.707 133.03 40.8157C132.33 41.5726 132.292 42.9395 133.037 43.6593C134.049 44.6373 135.373 44.998 136.56 45.6288C137.188 45.9627 137.823 46.2699 138.4 46.7107C140.232 48.1132 140.188 50.7847 138.28 52.1249C137.287 52.8239 136.19 53.1208 134.992 53.002Z" fill="#003F7D"/>
<path d="M119.451 46.7714C119.451 45.1579 119.451 43.5444 119.451 41.9323C119.451 41.4191 119.265 40.9987 118.858 40.6725C118.717 40.5595 118.517 40.4246 118.594 40.2028C118.663 39.9999 118.872 39.939 119.069 39.9375C119.836 39.9317 120.606 39.9114 121.372 39.9477C121.825 39.9694 121.851 40.2942 121.55 40.5174C120.836 41.0451 120.748 41.7671 120.749 42.5644C120.759 45.4362 120.768 48.308 120.739 51.1799C120.732 51.9236 121.043 52.2164 121.74 52.2889C122.629 52.3802 123.516 52.3599 124.4 52.3179C125.296 52.2758 125.905 51.8206 126.26 50.9639C126.4 50.6261 126.522 49.9984 126.988 50.1361C127.451 50.2738 127.206 50.8436 127.161 51.2277C126.948 53.0137 126.925 53.0224 125.117 53.0195C123.245 53.0152 121.371 53.0253 119.498 53.0253C119.283 53.0253 119.058 53.0413 118.854 52.9876C118.497 52.8934 118.406 52.6339 118.738 52.4397C119.416 52.0424 119.461 51.4307 119.454 50.7537C119.438 49.4272 119.449 48.0993 119.449 46.7714C119.449 46.7714 119.449 46.7714 119.451 46.7714Z" fill="#003F7D"/>
<path d="M105.89 46.5501C105.89 45.0786 105.89 43.6072 105.89 42.1358C105.89 41.5356 105.796 40.9775 105.109 40.6455C104.898 40.544 104.803 40.3686 104.886 40.1526C104.965 39.9496 105.171 39.9395 105.364 39.938C106.249 39.9322 107.136 39.9148 108.021 39.9395C108.508 39.9525 108.63 40.3077 108.3 40.5135C107.142 41.2355 107.29 42.3083 107.324 43.281C107.415 45.8861 107.335 48.4898 107.384 51.0934C107.402 52.0894 107.658 52.3344 108.799 52.3474C109.658 52.3576 110.518 52.3692 111.373 52.33C112.506 52.2778 113.403 51.8922 113.772 50.8658C113.829 50.7064 113.91 50.5484 114.015 50.4106C114.131 50.2555 114.244 50.054 114.521 50.1033C114.82 50.1569 114.792 50.3845 114.785 50.5686C114.767 51.0746 114.777 51.5878 114.679 52.0836C114.572 52.6258 114.203 53.0099 113.502 53.0128C110.817 53.023 108.132 53.0288 105.447 53.0273C105.207 53.0273 104.905 53.0273 104.821 52.7751C104.752 52.5634 104.953 52.4301 105.153 52.3257C105.745 52.0169 105.901 51.537 105.896 50.9673C105.883 49.4959 105.891 48.0244 105.891 46.553C105.893 46.5501 105.891 46.5501 105.89 46.5501Z" fill="#003F7D"/>
<path d="M99.0421 46.5431C99.0421 45.1205 99.0352 43.6979 99.0455 42.2753C99.0507 41.6227 98.9389 41.0267 98.2545 40.6076C98.1014 40.5134 97.926 40.3872 98.0017 40.1871C98.0877 39.9609 98.3181 39.9275 98.5554 39.9275C99.4135 39.9261 100.27 39.9261 101.128 39.9304C101.365 39.9319 101.601 39.9826 101.675 40.203C101.74 40.3988 101.551 40.5192 101.396 40.6149C100.638 41.0818 100.5 41.7692 100.497 42.4783C100.485 45.0103 100.488 47.5409 100.507 50.0728C100.514 50.9357 100.49 51.8029 101.47 52.4192C101.91 52.6962 101.582 52.9746 101.192 52.9935C100.282 53.0355 99.3619 53.0457 98.4557 52.9833C97.9398 52.9471 97.7231 52.6657 98.2442 52.325C98.8976 51.8986 99.0661 51.3287 99.0541 50.666C99.0317 49.2912 99.0472 47.9179 99.0472 46.5431C99.0455 46.5431 99.0438 46.5431 99.0421 46.5431Z" fill="#003F7D"/>
<path d="M90.9443 60.7994C91.1605 60.0271 91.814 59.3494 91.1788 58.4592C91.109 58.3603 91.1156 58.1372 91.242 58.1203C91.5679 58.0762 91.8971 58.0719 92.2247 58.093C92.3893 58.1035 92.4326 58.274 92.3977 58.476C92.2463 59.322 92.6437 59.9934 92.8466 60.9467C93.0911 59.9892 93.3771 59.2968 93.3787 58.436C93.3804 57.5858 93.9308 58.3392 94.2018 58.0888C93.693 59.2989 93.4552 60.5721 93.1226 61.8012C93.0329 62.1316 92.8998 62.3631 92.6122 62.3841C92.2547 62.4094 92.2596 62.0095 92.1765 61.7402C92.0185 61.2309 91.8872 60.7068 91.7026 60.0355C91.4947 60.7826 91.3251 61.3677 91.1705 61.9632C91.099 62.2368 90.9576 62.3484 90.7448 62.3715C90.4954 62.401 90.4089 62.1842 90.3357 61.9506C89.9716 60.7889 89.797 59.5346 89.2549 58.4592C89.1934 58.335 89.1834 58.1372 89.3114 58.1182C89.6374 58.0719 89.9683 58.0656 90.2958 58.0867C90.4638 58.0972 90.4854 58.2782 90.4555 58.476C90.3224 59.3452 90.7697 60.0165 90.9443 60.7994Z" fill="#003F7D"/>
<path d="M81.101 59.98C80.8885 60.574 80.6901 61.1785 80.4602 61.7599C80.2839 62.2064 80.0777 62.2148 79.9171 61.7304C79.7266 61.1596 79.5471 60.5824 79.2984 60.02C79.1567 60.7678 79.1111 61.5071 79.3582 62.2907C78.9064 62.3181 78.4703 62.7225 78.6671 61.5408C78.8261 60.5866 79.0512 59.4829 78.6419 58.474C78.5585 58.2675 78.6262 58.1011 78.7663 58.0864C79.0874 58.0548 79.4731 57.8399 79.6747 58.3855C79.9171 59.0427 80.1249 59.7251 80.3642 60.4518C80.7342 59.9189 80.8507 59.2596 81.0758 58.6846C81.197 58.3729 81.282 58.0021 81.6174 58.0548C81.907 58.1011 82.3636 57.7241 82.1133 58.7688C81.8929 59.6893 81.8535 60.8457 82.2613 61.8167C82.4171 62.1875 82.3699 62.337 82.0755 62.3518C81.789 62.3644 81.4615 62.4465 81.2254 62.2949C80.8255 62.04 81.3167 61.7451 81.2915 61.4292C81.2537 60.9574 81.282 60.4771 81.282 59.999C81.2222 59.9926 81.1608 59.9863 81.101 59.98Z" fill="#003F7D"/>
<path d="M120.625 59.7905C121.002 59.3219 121.523 59.1643 121.624 58.3847C121.709 57.7379 122.465 58.1401 122.939 58.1608C122.947 58.2956 122.974 58.4055 122.949 58.4179C121.999 58.93 121.964 59.6018 122.514 60.4768C122.848 61.0096 123.014 61.6503 123.523 62.094C123.047 62.4527 122.631 62.2993 122.242 62.3262C121.936 62.347 121.687 62.264 121.822 61.8535C121.93 61.528 121.831 61.2273 121.654 60.9744C121.464 60.6986 121.523 60.0538 121.062 60.1969C120.554 60.3565 120.367 60.8769 120.509 61.4762C120.572 61.7395 121.089 62.0069 120.687 62.2392C120.294 62.4672 119.767 62.3864 119.305 62.2786C119.084 62.2267 119.157 62.0401 119.218 61.866C119.595 60.7691 119.609 59.6619 119.216 58.5713C119.062 58.1401 119.287 58.0841 119.591 58.0883C119.958 58.0924 120.404 57.9991 120.671 58.1774C121.103 58.4635 120.493 58.7186 120.489 59.0316C120.493 59.2639 120.444 59.494 120.625 59.7905Z" fill="#003F7D"/>
<path d="M98.0505 58.0646C98.4695 58.0249 98.8198 58.0646 99.1423 58.3114C99.634 58.6836 99.8745 59.6391 99.556 60.3082C99.2903 60.8665 99.367 61.2052 99.6022 61.6339C99.6921 61.799 99.9089 61.9475 99.7727 62.2109C99.6141 62.5162 99.3617 62.326 99.1515 62.3343C99.0167 62.3406 98.8224 62.3991 98.8171 62.0186C98.8145 61.8158 98.8409 61.6025 98.8079 61.4143C98.7457 61.0526 98.5554 60.9146 98.3466 61.0338C98.0981 61.1759 98.2223 61.4666 98.295 61.7133C98.3505 61.8994 98.5673 62.1691 98.3228 62.2674C98.0386 62.3824 97.7055 62.3929 97.4227 62.2758C97.1927 62.1796 97.42 61.9099 97.457 61.707C97.6064 60.8602 97.6527 59.913 97.4914 59.1477C97.2323 57.9225 97.5918 57.9622 98.0505 58.0646ZM98.1708 59.5095C98.3413 59.775 97.9448 60.5194 98.521 60.5131C98.8356 60.5089 99.0035 60.2267 98.9982 59.7311C98.9929 59.1247 98.8528 58.5832 98.4285 58.5686C98.0267 58.5539 98.2739 59.1436 98.1708 59.5095Z" fill="#003F7D"/>
<path d="M112.917 62.267C113.224 60.9664 113.274 59.7564 112.991 58.5589C112.896 58.1612 112.948 58.0328 113.177 58.037C113.612 58.0433 114.051 57.9465 114.48 58.1401C115.253 58.4895 115.528 59.4996 115.056 60.5308C114.782 61.1306 115.14 61.3032 115.228 61.6546C115.279 61.8545 115.526 62.0187 115.351 62.2397C115.16 62.4796 114.889 62.3449 114.653 62.3323C114.528 62.3259 114.371 62.286 114.427 61.9766C114.48 61.6883 114.466 61.4463 114.347 61.1958C114.231 60.9496 114.082 60.9643 113.937 61.017C113.805 61.0675 113.783 61.299 113.834 61.4421C114.335 62.8521 113.567 62.2333 113.269 62.3365C113.172 62.3722 113.06 62.2986 112.917 62.267ZM113.798 59.4302C113.933 59.7648 113.574 60.4908 114.136 60.4971C114.463 60.4993 114.605 60.1688 114.599 59.6785C114.592 59.1019 114.455 58.5863 114.062 58.5505C113.65 58.5105 113.896 59.1124 113.798 59.4302Z" fill="#003F7D"/>
<path d="M96.5509 59.3853C96.5794 59.6919 96.6344 60.0007 96.6249 60.3073C96.6173 60.5472 96.5471 60.8581 96.2415 60.5535C96.0061 60.3178 95.7175 60.1259 95.5694 60.5076C95.4309 60.8602 95.3492 61.3963 95.6397 61.68C95.877 61.9137 96.2984 61.8719 96.6003 61.6133C96.8186 61.4255 96.8337 61.0375 97.1394 60.9228C97.5039 61.9575 97.3444 62.285 96.4389 62.3017C95.7782 62.3142 94.9866 62.5312 94.4893 62.212C93.9843 61.8886 94.7095 61.0959 94.5595 60.4471C94.4095 59.7983 94.7057 59.0765 94.2785 58.4424C94.0602 58.1169 94.3545 58.0335 94.5823 58.0293C95.2752 58.0189 95.97 58.0084 96.6629 58.0356C97.1546 58.0543 97.2913 58.4862 97.2856 58.9138C97.278 59.5 96.9894 59.1224 96.7958 59.0348C96.4294 58.5154 96.0023 58.2275 95.5429 58.8575C95.4289 59.0119 95.4631 59.4771 95.5941 59.6356C95.9871 60.105 96.1883 59.3102 96.5509 59.3853Z" fill="#003F7D"/>
<path d="M78.0739 60.7257C77.6837 60.6653 77.4994 59.9989 77.249 60.4508C77.0601 60.7923 77.0201 61.4754 77.2782 61.6899C77.8512 62.1668 78.1523 61.4004 78.4872 60.8819C78.733 62.1064 78.6362 62.3042 77.8112 62.3105C77.3028 62.3147 76.6883 62.5271 76.3119 62.2168C75.8772 61.8607 76.5639 61.1755 76.4133 60.5258C76.2659 59.8927 76.5347 59.1576 76.1921 58.5266C75.9771 58.1309 76.229 58.0476 76.4425 58.0414C76.9771 58.0247 77.5148 57.9935 78.0463 58.0539C78.5886 58.1143 78.65 58.6161 78.5502 59.2305C78.2214 59.2013 78.1661 58.7348 77.9096 58.6432C77.6868 58.5641 77.4395 58.437 77.2598 58.6807C77.0846 58.9181 77.1169 59.2971 77.2091 59.5616C77.3658 60.0072 77.5808 59.5574 77.7498 59.5699C78.395 59.622 77.9434 60.253 78.0739 60.7257Z" fill="#003F7D"/>
<path d="M105.431 60.3676C105.425 59.045 106.129 58.0373 107.07 58.0186C107.922 58.0019 108.532 58.8342 108.55 60.038C108.571 61.3606 107.873 62.3641 106.92 62.3849C106.082 62.4058 105.436 61.5296 105.431 60.3676ZM107.802 60.5992C107.785 59.4351 107.338 58.5255 106.835 58.5797C106.257 58.6423 106.203 59.2515 106.198 59.8586C106.19 60.9163 106.643 61.8154 107.166 61.7716C107.753 61.7215 107.776 61.0998 107.802 60.5992Z" fill="#003F7D"/>
<path d="M83.8944 58.0299C83.967 58.0382 84.3131 58.0529 84.6489 58.1157C85.5319 58.2811 86.104 58.7795 86.0916 59.7344C86.077 60.7333 85.3537 60.9741 84.5453 61.0579C84.0354 61.1103 83.4488 61.0809 84.0126 61.8557C84.1266 62.0128 84.1722 62.2075 83.9462 62.2683C83.4778 62.3939 82.9492 62.4609 82.5326 62.2452C82.0538 61.9981 82.659 61.7636 82.6756 61.4914C82.7337 60.6223 82.9679 59.6611 82.6176 58.9136C82.1139 57.8372 82.7316 58.0361 83.314 58.0278C83.4156 58.0278 83.5192 58.0299 83.8944 58.0299ZM83.7535 59.5564C83.9276 59.902 83.4425 60.5658 84.2488 60.5595C84.7795 60.5553 85.0531 60.2328 85.0365 59.6905C85.0158 59.0685 84.7443 58.5241 84.1038 58.5597C83.4736 58.5932 83.9379 59.234 83.7535 59.5564Z" fill="#003F7D"/>
<path d="M89.2108 60.0365C89.2231 61.3679 88.658 62.3832 87.907 62.3853C87.2282 62.3853 86.723 61.5261 86.7157 60.3589C86.7071 59.0587 87.2844 58.033 88.0318 58.0185C88.7216 58.006 89.1998 58.8236 89.2108 60.0365ZM88.6213 60.5316C88.6078 59.4311 88.2446 58.5136 87.8409 58.5739C87.386 58.6426 87.3272 59.2334 87.3248 59.8492C87.3224 60.904 87.6856 61.809 88.1002 61.7612C88.5687 61.7071 88.5919 61.085 88.6213 60.5316Z" fill="#003F7D"/>
<path d="M131.05 60.7855C131.475 61.2501 131.63 61.7501 132.041 61.8543C132.26 61.9105 132.496 61.9397 132.618 61.6584C132.753 61.3418 132.558 61.1397 132.373 60.9876C132.125 60.7834 131.861 60.6105 131.604 60.4188C131.23 60.1397 130.96 59.7647 131.051 59.1626C131.145 58.5459 131.497 58.2334 131.945 58.1064C132.848 57.8501 133.328 58.1584 133.314 58.9626C133.312 59.0918 133.306 59.2751 133.242 59.3397C133.108 59.4772 133.004 59.3314 132.92 59.1897C132.887 59.1355 132.848 59.0855 132.813 59.0355C132.607 58.7543 132.389 58.4772 132.054 58.6168C131.974 58.6501 131.88 58.8084 131.872 58.9189C131.831 59.4022 132.153 59.5355 132.397 59.7272C132.928 60.1438 133.745 60.3772 133.437 61.4834C133.163 62.4667 132.448 62.3876 131.733 62.3813C130.738 62.3688 131.063 61.6188 131.05 60.7855Z" fill="#003F7D"/>
<path d="M116.661 60.7671C117.177 61.1305 117.307 61.7895 117.8 61.8121C117.993 61.8203 118.192 61.8347 118.283 61.5801C118.377 61.3173 118.258 61.1141 118.089 60.9786C117.795 60.7445 117.482 60.5495 117.197 60.299C116.487 59.677 116.561 58.7038 117.336 58.2255C117.8 57.9401 118.312 57.9771 118.736 58.17C119.081 58.3261 118.966 58.9173 118.946 59.3588C118.51 59.367 118.462 58.8044 118.165 58.6546C117.951 58.5457 117.744 58.4493 117.588 58.7223C117.433 58.9974 117.539 59.2561 117.733 59.4183C118.022 59.6605 118.327 59.8699 118.627 60.0917C118.975 60.3483 119.221 60.683 119.141 61.2434C119.065 61.7649 118.786 62.038 118.417 62.2391C117.938 62.4999 117.438 62.3541 117.001 62.2433C116.506 62.116 116.762 61.4179 116.661 60.7671Z" fill="#003F7D"/>
<path d="M111.534 59.7824C111.507 59.4042 111.505 59.0199 111.442 58.648C111.405 58.4349 111.129 58.2031 111.489 58.0777C111.691 58.0067 111.959 57.99 112.145 58.0798C112.477 58.2407 112.151 58.4621 112.134 58.6647C112.074 59.352 112.086 60.0477 112.028 60.737C111.934 61.8651 111.413 62.3853 110.427 62.3853C109.507 62.3853 109 61.8735 108.837 60.8143C108.713 60.0101 108.918 59.2037 108.584 58.3702C108.392 57.8939 109.069 58.0777 109.357 58.0506C109.852 58.0067 110.379 57.9127 109.89 58.8277C109.593 59.3813 109.771 60.125 109.821 60.7767C109.859 61.2885 110.082 61.7523 110.634 61.7544C111.225 61.7544 111.457 61.3053 111.493 60.7224C111.512 60.4111 111.497 60.0978 111.497 59.7844C111.507 59.7824 111.52 59.7824 111.534 59.7824Z" fill="#003F7D"/>
<path d="M102.312 58.2906C103.333 57.3651 103.311 59.0376 103.712 59.7538C103.91 59.5363 104.065 59.171 104.057 58.8816C104.032 57.833 104.4 58.1203 104.807 58.1983C104.587 58.6928 104.398 59.0992 104.22 59.524C103.917 60.2443 103.701 60.9912 104.01 61.8716C104.119 62.1835 104.016 62.2697 103.841 62.3292C103.293 62.516 103.113 62.2451 103.233 61.3791C103.324 60.7183 103.155 60.193 102.925 59.6902C102.718 59.2387 102.522 58.7749 102.312 58.2906Z" fill="#003F7D"/>
<path d="M128.641 60.3725C128.641 59.791 128.692 59.3346 128.633 59.0311C128.425 57.9826 128.645 57.9974 128.938 58.0272C129.177 58.0505 129.231 58.1312 129.116 58.8082C128.974 59.6466 129.078 60.6103 129.067 61.5166C129.065 61.7203 129.12 61.8243 129.194 61.8498C129.322 61.8965 129.43 61.8307 129.507 61.5229C129.554 61.334 129.562 61.0093 129.685 61.0369C129.78 61.0581 129.762 61.2895 129.757 61.4487C129.747 61.7883 129.771 62.2828 129.61 62.3274C129.279 62.4144 128.943 62.3804 128.609 62.3698C128.541 62.3677 128.477 62.1937 128.538 62.0047C128.718 61.4444 128.619 60.7864 128.641 60.3725Z" fill="#003F7D"/>
<path d="M127.187 60.8489C127.355 62.1904 127.289 62.3599 126.666 62.379C126.259 62.3917 125.85 62.3811 125.395 62.3811C125.656 61.0248 125.749 59.7532 125.444 58.4858C125.38 58.2167 125.43 58.0598 125.582 58.0556C125.846 58.045 126.16 57.939 126.362 58.1404C126.624 58.401 126.231 58.6723 126.238 59.0135C126.254 59.8231 126.199 60.6391 126.244 61.4423C126.282 62.1417 126.603 61.8852 126.795 61.7008C126.939 61.561 127.02 61.2261 127.187 60.8489Z" fill="#003F7D"/>
<path d="M123.523 62.3807C123.715 61.0051 123.739 59.7912 123.578 58.5962C123.522 58.1782 123.563 58.132 123.682 58.0732C124.028 57.9031 124.071 58.1005 124.051 59.0582C124.032 60.0054 123.95 61.003 124.121 61.9187C124.187 62.2736 124.118 62.3639 124.022 62.3765C123.867 62.3933 123.712 62.3807 123.523 62.3807Z" fill="#003F7D"/>
</svg>
