<svg width="139" height="55" viewBox="0 0 139 55" fill="none" xmlns="http://www.w3.org/2000/svg">
<g clip-path="url(#clip0_967_813)">
<path d="M17.4951 51.2724C14.8568 51.2724 12.4496 50.8475 10.2855 49.9855C8.1214 49.1234 6.28558 47.885 4.77801 46.2459C3.27045 44.6069 2.09114 42.6278 1.25225 40.3088C0.413365 37.9899 0 35.3309 0 32.3563V5.28125H0.316103C4.8388 5.28125 8.49829 8.93578 8.49829 13.4523V32.8662C8.49829 34.3718 8.69282 35.7559 9.06971 37.0186C9.4466 38.2691 10.018 39.3618 10.7718 40.2846C11.5256 41.2073 12.4739 41.9236 13.6046 42.4579C14.7352 42.9799 16.0361 43.247 17.5072 43.247C19.0148 43.247 20.34 42.9799 21.4707 42.4579C22.6013 41.9358 23.5496 41.2073 24.3034 40.2846C25.0572 39.3618 25.6286 38.2691 26.0055 37.0186C26.3824 35.768 26.5769 34.3839 26.5769 32.8662V5.28125H26.893C31.4157 5.28125 35.0752 8.93578 35.0752 13.4523V32.3563C35.0752 35.1609 34.6619 37.7228 33.8473 40.0539C33.0327 42.3729 31.8534 44.364 30.3215 46.0274C28.7896 47.6786 26.9417 48.9656 24.7897 49.8883C22.6013 50.8111 20.1698 51.2724 17.4951 51.2724Z" fill="#F66B07"/>
<path d="M43.0991 17.0225H51.5974V50.2653C46.9045 50.2653 43.0991 46.4651 43.0991 41.7785V17.0225Z" fill="#F66B07"/>
<path d="M43.0991 5.39062H43.4152C47.9379 5.39062 51.5974 9.04515 51.5974 13.5617H43.0991V5.39062Z" fill="#F66B07"/>
<path d="M112.703 0C112.861 0 113.007 0 113.165 0C113.42 0.109272 113.675 0.230684 113.943 0.327815C121.845 3.04746 129.76 5.75497 137.663 8.46247C138.088 8.60817 138.501 8.87528 138.988 8.81457C138.988 9.17881 138.988 9.53091 138.988 9.89514C138.818 10.0166 138.842 10.2108 138.818 10.3929C138.356 14.1203 137.894 17.8477 137.444 21.5751C136.629 28.3135 135.802 35.0519 135.024 41.7903C134.939 42.543 134.623 42.8951 134.003 43.2351C127.365 46.8896 120.751 50.5563 114.125 54.2472C113.773 54.4415 113.262 54.4901 113.14 55.0121C113.043 55.0121 112.934 55.0121 112.836 55.0121C112.739 54.4779 112.228 54.4415 111.876 54.2472C105.201 50.5684 98.5267 46.8896 91.852 43.2351C91.4387 43.0044 91.2198 42.7373 91.159 42.2395C90.5755 37.2616 89.9554 32.2958 89.3475 27.3179C88.6545 21.5508 87.998 15.7837 87.2564 10.0287C87.1591 9.2638 87.3537 9.00883 88.0345 8.77815C95.2076 6.2649 102.356 3.7638 109.481 1.22627C110.563 0.84989 111.706 0.607064 112.703 0ZM90.1378 11.4371C90.3566 13.319 90.5633 15.213 90.7822 17.1071C91.694 24.926 92.6058 32.745 93.4933 40.5762C93.5541 41.074 93.7243 41.3532 94.1499 41.5839C100.217 44.9227 106.271 48.2859 112.326 51.6611C112.751 51.904 113.092 51.9283 113.529 51.6854C119.718 48.2495 125.918 44.8256 132.106 41.4018C132.447 41.2196 132.641 41.0011 132.678 40.5883C132.775 39.5077 132.957 38.4514 133.091 37.3709C134.173 28.7991 135.243 20.2152 136.337 11.6435C136.41 11.0728 136.24 10.8422 135.705 10.66C128.35 8.15894 120.994 5.6457 113.651 3.10817C113.152 2.93819 112.715 2.93819 112.228 3.12031C108.423 4.49227 104.618 5.8521 100.812 7.19978C97.4446 8.40177 94.0769 9.60375 90.697 10.8057C90.3931 10.9029 90.0041 10.9272 90.1378 11.4371Z" fill="#B3B2B2"/>
<path d="M90.1379 11.4367C90.0042 10.9268 90.3932 10.8903 90.7093 10.7811C94.077 9.57907 97.4447 8.37709 100.825 7.1751C104.63 5.81528 108.435 4.46759 112.241 3.09563C112.727 2.92565 113.165 2.91351 113.663 3.08349C121.007 5.60887 128.362 8.13426 135.717 10.6354C136.252 10.8175 136.423 11.036 136.35 11.6188C135.255 20.1905 134.186 28.7744 133.104 37.3462C132.97 38.4146 132.787 39.483 132.69 40.5636C132.654 40.9886 132.459 41.195 132.119 41.3771C125.918 44.8009 119.73 48.2248 113.542 51.6607C113.104 51.9036 112.764 51.8793 112.338 51.6365C106.283 48.2612 100.229 44.9102 94.1621 41.5592C93.7245 41.3164 93.5542 41.0493 93.5056 40.5515C92.6181 32.7325 91.7063 24.9135 90.7944 17.0824C90.5634 15.2126 90.3567 13.3186 90.1379 11.4367ZM113.031 4.91682C113.019 4.89254 112.995 4.86826 112.982 4.86826C112.97 4.85612 112.922 4.86826 112.922 4.8804C112.8 5.09894 112.666 5.32963 112.569 5.56031C107.791 16.1596 103.025 26.7711 98.2593 37.3705C97.8459 38.281 97.4569 39.1916 97.0678 40.0537C98.8672 40.0537 100.618 40.0415 102.369 40.0658C102.843 40.078 103.037 39.8837 103.195 39.4709C104.046 37.2733 104.958 35.0879 105.797 32.8903C106.028 32.2833 106.308 32.0283 107.013 32.0404C108.946 32.089 110.879 32.0526 112.8 32.0404C113.043 32.174 113.311 32.1011 113.554 32.1133C115.621 32.1254 117.675 32.1376 119.742 32.1133C120.301 32.1011 120.557 32.2954 120.763 32.8053C121.712 35.0758 122.721 37.3219 123.657 39.5923C123.851 40.0537 124.095 40.1994 124.557 40.1872C125.943 40.1751 127.341 40.2115 128.727 40.2358C129.651 40.2479 129.651 40.2601 129.262 39.4223C124.873 30.0371 120.484 20.6519 116.07 11.291C115.074 9.15413 114.162 6.98084 113.031 4.91682Z" fill="#BD1625"/>
<path d="M113.031 4.91699C114.162 6.98101 115.073 9.1543 116.082 11.2912C120.496 20.6642 124.873 30.0494 129.274 39.4225C129.663 40.2481 129.663 40.2481 128.739 40.236C127.353 40.2117 125.955 40.1874 124.569 40.1874C124.094 40.1874 123.851 40.0539 123.669 39.5925C122.721 37.3221 121.712 35.0759 120.775 32.8055C120.569 32.3077 120.313 32.1135 119.754 32.1135C117.687 32.1499 115.633 32.1256 113.566 32.1135C113.31 32.1135 113.055 32.1863 112.812 32.0406C113.055 31.7856 112.994 31.47 112.994 31.1664C113.007 29.8916 113.031 28.6046 113.043 27.3298C114.769 27.1355 116.508 27.3541 118.283 27.2084C118.222 27.0505 118.198 26.9534 118.161 26.8684C116.544 23.4689 114.927 20.0815 113.298 16.694C113.213 16.5119 113.128 16.3177 112.934 16.2205C113.104 14.8364 112.982 13.4523 113.007 12.0682C113.007 9.68852 113.019 7.29668 113.031 4.91699Z" fill="#B3B2B2"/>
<path d="M113.019 27.3424C113.007 28.6172 112.994 29.9042 112.97 31.179C112.97 31.4826 113.031 31.7982 112.788 32.0532C110.855 32.0532 108.922 32.1018 107.001 32.0532C106.308 32.0289 106.028 32.2839 105.785 32.9031C104.946 35.1128 104.034 37.2861 103.183 39.4837C103.025 39.8965 102.831 40.0786 102.356 40.0786C100.606 40.0543 98.855 40.0664 97.0557 40.0664C97.4447 39.1923 97.8338 38.2817 98.2471 37.3832C103.013 26.7839 107.791 16.1724 112.557 5.57306C112.666 5.34237 112.788 5.12383 112.909 4.89315C112.922 4.88101 112.958 4.86886 112.97 4.88101C112.994 4.89315 113.007 4.91743 113.019 4.92957C113.007 7.30926 113.007 9.70109 112.97 12.0808C112.958 13.4649 113.08 14.849 112.897 16.2331C112.861 16.3302 112.824 16.4274 112.788 16.5245C111.353 19.9241 109.931 23.3358 108.472 26.7353C108.229 27.306 108.399 27.3667 108.909 27.3545C110.283 27.306 111.645 27.3302 113.019 27.3424Z" fill="#FEFEFE"/>
<path d="M113.019 27.3425C111.657 27.3304 110.295 27.3183 108.934 27.3304C108.423 27.3425 108.241 27.2818 108.496 26.7112C109.955 23.3116 111.377 19.9121 112.812 16.5004C112.848 16.4032 112.885 16.3061 112.921 16.209C113.116 16.3061 113.201 16.5004 113.286 16.6825C114.903 20.0699 116.532 23.4695 118.149 26.8569C118.186 26.9419 118.222 27.039 118.271 27.1968C116.484 27.3668 114.745 27.1483 113.019 27.3425Z" fill="#BD1625"/>
</g>
<defs>
<clipPath id="clip0_967_813">
<rect width="139" height="55" fill="white"/>
</clipPath>
</defs>
</svg>
