<svg width="167" height="77" viewBox="0 0 167 77" fill="none" xmlns="http://www.w3.org/2000/svg">
<path d="M83.6416 26.5766C84.4507 26.0376 84.9709 25.2291 85.6067 24.5361C89.8836 19.8196 94.1604 15.084 98.3988 10.329C98.7263 9.96328 99.0731 9.88628 99.5355 9.94403C102.811 10.2905 106.066 10.6563 109.342 10.9451C110.112 11.0221 110.285 11.2723 110.228 12.0039C109.939 15.2187 109.669 18.4336 109.419 21.6485C109.38 22.0335 109.284 22.3415 109.014 22.6495C104.988 27.0964 100.98 31.5433 96.9732 36.0095C96.1448 36.9335 95.3356 37.8576 94.5072 38.7816C91.6174 41.9772 88.7084 45.1536 85.8186 48.3684C85.0672 49.1962 84.2003 49.9277 83.6416 50.9095C82.3701 51.9683 81.3876 53.2966 80.2894 54.5094C76.5134 58.6676 72.776 62.8642 69.0192 67.0416C68.9614 67.0994 68.8844 67.1186 68.7303 67.1956C68.5954 66.6566 68.711 66.1561 68.7303 65.6556C68.8651 62.768 69 59.8996 69.1734 57.012C69.2119 56.3382 68.9614 56.2035 68.3449 56.165C64.8965 55.934 61.448 55.6645 57.9802 55.4142C57.9031 54.9714 58.2692 54.7789 58.4811 54.5479C62.9507 49.5812 67.4395 44.6145 71.9283 39.6479C72.198 39.3591 72.5255 39.0896 72.6411 38.6853C72.7952 38.5698 72.9879 38.4928 73.1227 38.3388C75.4731 35.7592 77.8235 33.1796 80.1353 30.5615C81.3298 29.2717 82.6591 28.0589 83.6416 26.5766ZM81.6958 42.4392C82.5049 42.4392 83.3141 41.7462 83.4682 40.9377C83.5067 40.7067 83.5838 40.4371 83.2948 40.3601C82.9673 40.2831 82.9673 40.5719 82.9095 40.7837C82.7747 41.3612 82.4279 41.7654 81.8114 41.8232C81.6187 41.8425 81.3876 41.8424 81.2527 41.6692C81.0986 41.4382 81.349 41.3227 81.4646 41.1687C81.7921 40.7837 82.1196 40.3794 82.4857 39.9944C82.8324 39.6286 82.7169 39.4169 82.3316 39.1859C81.6765 38.7816 81.0022 38.7623 80.405 39.2244C79.8078 39.7056 79.6151 40.3409 79.8849 41.0724C80.1546 41.9002 80.8867 42.4392 81.6958 42.4392ZM88.1304 35.5475C88.6506 35.4897 89.0359 35.1432 89.3056 34.6234C89.4019 34.4309 89.4597 34.0844 89.6138 34.0459C90.5386 33.7186 89.9413 33.4106 89.6331 33.1219C89.3827 32.8716 89.0937 32.6791 88.8432 32.4481C87.7258 31.4856 86.6277 31.7358 86.069 33.1219C85.992 33.2951 85.8186 33.5069 86.0883 33.6417C86.3387 33.7764 86.4543 33.6031 86.5507 33.4106C86.7818 33.0064 87.013 32.5829 87.5139 32.4866C87.7258 32.4481 87.9378 32.4674 88.0533 32.6599C88.1689 32.8716 87.957 32.9486 87.8414 33.0641C87.4754 33.3721 87.1864 33.7187 87.0516 34.1807C86.8204 34.8159 87.3405 35.5282 88.1304 35.5475ZM87.2057 36.5485C87.1864 36.356 87.2827 36.1057 86.9745 36.0865C86.6855 36.0672 86.7048 36.3175 86.6662 36.51C86.5314 37.1068 86.1846 37.4725 85.5489 37.5303C85.3562 37.5495 85.1058 37.5495 84.9902 37.3763C84.836 37.1453 85.1058 37.0298 85.2213 36.8758C85.5681 36.4523 85.9149 36.0287 86.3002 35.6437C86.5699 35.355 86.4929 35.1625 86.2039 34.9507C85.5296 34.4887 84.7012 34.5079 84.1232 34.9892C83.5453 35.4705 83.3911 36.3175 83.7379 37.0298C84.1425 37.8383 85.0094 38.3003 85.7993 38.1078C86.5314 37.9346 87.1864 37.2223 87.2057 36.5485ZM90.789 27.8857C90.712 28.8482 91.5404 29.7915 92.5422 29.9263C93.3513 30.0225 94.2953 29.3295 94.4494 28.5017C94.488 28.2707 94.6421 27.9242 94.276 27.8472C93.9485 27.7702 94.0063 28.1167 93.9485 28.3285C93.7944 28.8675 93.5054 29.2717 92.9082 29.3295C92.677 29.3487 92.4073 29.368 92.2917 29.1177C92.1761 28.8867 92.4073 28.752 92.5229 28.6172C92.8697 28.1937 93.2357 27.7894 93.6018 27.3852C93.8137 27.1734 93.7944 26.9809 93.544 26.8077C93.0238 26.4611 92.4651 26.2301 91.8486 26.5189C91.2321 26.7691 90.8853 27.2312 90.789 27.8857ZM88.4194 30.446C88.4194 31.2353 89.0359 31.6781 89.7102 31.3893C90.0184 31.2546 90.3074 31.0428 90.6156 30.908C90.8661 30.7925 91.1551 30.7348 91.3092 31.0043C91.4633 31.2546 91.367 31.5241 91.1358 31.6973C90.9046 31.8706 90.6734 32.0246 90.423 32.1593C90.2303 32.2748 90.0569 32.3904 90.1918 32.6214C90.3074 32.8139 90.4808 32.7369 90.6542 32.6791C91.1358 32.4674 91.5596 32.1593 91.8101 31.6781C92.022 31.2738 92.0605 30.8503 91.7138 30.4845C91.367 30.1188 90.9624 30.1188 90.5386 30.3113C90.2303 30.4653 89.9413 30.6385 89.6331 30.7925C89.4404 30.8888 89.2478 30.908 89.0937 30.7155C88.9395 30.523 89.0166 30.3305 89.1322 30.1573C89.3056 29.8878 89.5946 29.7338 89.8643 29.5798C89.9991 29.5027 90.0569 29.368 89.9991 29.214C89.9413 29.0215 89.7872 29.0215 89.6524 29.0792C88.9973 29.368 88.5157 29.7915 88.4194 30.446ZM78.3051 42.189C78.0161 41.958 77.8813 42.112 77.7657 42.2852C77.6693 42.4392 77.7271 42.5547 77.8427 42.6702C78.5556 43.2863 79.2684 43.9215 79.9812 44.5183C80.1546 44.6723 80.3858 44.6146 80.5014 44.422C80.6169 44.2488 80.4628 44.114 80.328 43.9985C80.039 43.7483 79.7693 43.498 79.4996 43.2477C79.0757 42.8242 78.8831 42.343 79.1142 41.7654C79.2298 41.4767 79.3454 41.1302 78.9794 41.0532C78.517 40.9377 78.5941 41.4189 78.517 41.6884C78.4592 41.8617 78.6904 42.2082 78.3051 42.189ZM84.8746 39.5131C84.8553 39.4554 84.836 39.3784 84.7975 39.3399C83.6801 38.3388 82.5627 37.3378 81.4453 36.356C81.272 36.202 81.1178 36.356 81.0022 36.4908C80.8867 36.6255 80.9059 36.741 81.0408 36.8565C82.1196 37.7998 83.1985 38.7623 84.2966 39.7056C84.5856 39.9366 84.7782 39.8019 84.8746 39.5131Z" fill="#01ABD8"/>
<path d="M142.709 22.7842C144.038 22.7842 145.348 22.7265 146.658 22.8035C149.105 22.919 151.552 23.073 153.999 23.2462C154.692 23.2847 154.615 22.842 154.654 22.4185C154.866 19.4538 155.058 16.4892 155.27 13.5246C155.289 13.2936 155.328 13.0819 155.386 12.7354C156.407 13.6594 157.197 14.6604 157.967 15.6807C162.013 21.1864 164.691 27.2889 165.712 34.0459C167.215 43.883 165.5 52.9886 159.335 61.0161C157.62 63.2492 155.694 65.2513 153.478 67.0031C153.112 67.2919 152.766 67.3881 152.303 67.3304C148.913 67.0031 145.522 66.6951 142.131 66.4256C141.592 66.3871 141.457 66.2331 141.495 65.7133C141.823 62.3637 142.131 58.9948 142.459 55.6452C142.497 55.2987 142.497 54.9329 142.882 54.6634C145.772 52.6036 147.487 49.6967 148.527 46.3856C150.146 41.2649 150.203 36.125 148.277 31.0428C147.159 28.1359 145.522 25.5371 143.287 23.3425C143.056 23.1692 142.882 22.9767 142.709 22.7842C142.709 22.7457 142.69 22.7842 142.709 22.7842ZM159.316 30.523C159.316 29.1947 158.256 28.0974 156.927 28.0782C155.521 28.0589 154.384 29.137 154.403 30.4653C154.422 31.7936 155.501 32.9101 156.792 32.9293C158.16 32.9486 159.316 31.8513 159.316 30.523ZM156.06 34.8929C155.983 35.2587 155.887 35.5282 155.867 35.7977C155.829 36.5292 156.137 37.0875 156.811 37.3955C157.62 37.7613 158.353 37.5688 158.969 37.0105C159.489 36.5485 159.643 35.9325 159.393 35.2779C159.239 34.8737 158.68 34.5657 159.104 34.0074C159.2 33.8919 158.988 33.7186 158.776 33.7571C157.466 33.9881 156.156 34.2191 154.866 34.4502C154.711 34.4694 154.596 34.5657 154.615 34.7389C154.634 34.9314 154.75 35.0662 154.943 35.0469C155.27 35.0084 155.598 34.9507 156.06 34.8929ZM156.85 39.8981C156.85 39.8596 156.869 39.6863 156.946 39.5323C157.062 39.2628 157.235 38.9741 157.563 39.0126C157.948 39.0511 157.794 39.4168 157.813 39.6478C157.852 40.1099 157.871 40.5719 157.871 41.0146C157.871 41.5344 158.141 41.6692 158.584 41.5344C159.335 41.3227 159.855 40.8606 159.913 40.0329C159.971 39.1858 159.489 38.5698 158.642 38.3195C157.794 38.0693 156.85 38.4158 156.465 39.1088C156.098 39.7634 156.195 40.7451 156.676 41.2072C156.773 41.3034 156.888 41.4189 157.042 41.3419C157.235 41.2264 157.216 41.0531 157.12 40.8991C156.965 40.6489 156.811 40.3794 156.85 39.8981ZM156.869 52.5073C156.85 51.5833 155.829 50.6785 154.885 50.717C153.941 50.7555 153.112 51.6795 153.151 52.6228C153.17 52.8538 153.151 53.1426 153.459 53.1618C153.825 53.2004 153.748 52.8923 153.729 52.6806C153.729 52.0838 153.941 51.6218 154.538 51.41C154.731 51.3523 154.943 51.2753 155.116 51.4293C155.309 51.6218 155.135 51.795 155.039 51.9683C154.788 52.4303 154.557 52.8731 154.288 53.3159C154.037 53.7201 154.172 53.9319 154.577 54.0859C155.732 54.5094 156.908 53.7009 156.869 52.5073ZM157.698 47.9257C158.661 47.9449 159.142 47.3866 159.239 46.2316C159.258 45.9236 159.335 45.5001 158.93 45.4808C158.487 45.4616 158.738 45.9236 158.68 46.1546C158.661 46.2316 158.68 46.3278 158.661 46.4048C158.545 46.8669 158.353 47.4251 157.794 47.2519C157.331 47.1171 157.852 46.6744 157.832 46.3663C157.832 46.3471 157.852 46.3086 157.852 46.2893C158.006 45.7311 157.986 45.1921 157.505 44.7878C157.158 44.5183 156.754 44.4413 156.368 44.653C155.81 44.961 155.636 45.5193 155.655 46.1161C155.655 46.3086 155.79 46.5974 155.713 46.6936C155 47.4251 155.694 47.4444 156.156 47.5599C156.676 47.7139 157.235 47.8294 157.698 47.9257ZM155.598 48.5224C154.943 48.5224 154.692 48.9074 154.596 49.485C154.577 49.6582 154.615 49.8315 154.808 49.9277C155.058 50.024 155.097 49.8315 155.135 49.6582C155.289 49.0807 155.675 49.1577 156.079 49.2925C156.368 49.408 156.676 49.5427 156.965 49.6197C157.409 49.7352 157.601 49.9662 157.389 50.4282C157.293 50.6208 157.235 50.8325 157.524 50.9288C157.775 51.0058 157.89 50.8325 157.948 50.6015C158.064 50.0817 158.353 50.0432 158.776 50.2742C159.008 50.409 159.162 50.2935 159.258 50.0625C159.354 49.8315 159.219 49.7352 159.027 49.6775C158.719 49.5812 158.449 49.4657 158.449 49.0614C158.449 48.9074 158.198 48.8112 158.121 48.9074C157.678 49.408 157.274 48.9459 156.869 48.8497C156.407 48.8112 156.041 48.5417 155.598 48.5224ZM157.023 42.3429C156.908 42.3429 156.792 42.3237 156.676 42.3237C156.484 42.3237 156.253 42.2852 156.214 42.574C156.176 42.9012 156.407 42.9397 156.657 42.9782C156.908 42.9975 157.177 42.9975 157.428 43.036C158.141 43.113 158.738 43.3632 158.873 44.1525C158.93 44.4605 159.046 44.6723 159.354 44.576C159.836 44.4413 159.528 44.114 159.451 43.883C159.374 43.5942 158.892 43.344 159.566 43.0937C159.836 42.9782 159.605 42.5932 159.239 42.574C158.507 42.4777 157.775 42.4007 157.023 42.3429Z" fill="#01ABD8"/>
<path d="M11.6855 64.4805C14.402 64.4227 17.0606 64.7885 19.7384 64.904C20.3742 64.9233 21.0099 65.0003 21.6457 65.0195C22.8594 65.0773 22.8787 65.0773 22.975 63.826C23.2447 60.7074 23.4952 57.5695 23.7456 54.4316C24.1695 54.4509 24.3428 54.7589 24.574 54.9322C28.7739 58.378 33.4746 60.6881 38.9459 61.2271C44.5714 61.7854 49.7923 60.5149 54.6664 57.7235C55.1095 57.4732 55.5334 57.3385 56.0535 57.377C59.4827 57.6658 62.912 57.9353 66.3412 58.1855C66.8228 58.224 66.9769 58.378 66.9384 58.8593C66.765 62.0934 66.5916 65.3083 66.4568 68.5424C66.4375 69.0814 66.0907 69.2932 65.7632 69.5434C61.679 72.6813 57.0938 74.7989 52.1041 75.8577C37.9249 78.88 25.1327 75.9347 13.8818 66.6751C13.4772 66.3478 13.0919 65.9821 12.7259 65.6163C12.3791 65.289 12.0709 64.904 11.6855 64.4805ZM40.6413 70.5445C40.7183 70.5252 40.911 70.5445 41.0651 70.4675C41.3156 70.3712 41.7587 70.2942 41.6623 69.967C41.5468 69.5242 41.2 69.8707 40.9688 69.9477C40.4294 70.121 39.9477 70.0247 39.5624 69.5819C39.4276 69.4279 39.312 69.2354 39.4083 69.0237C39.5046 68.8504 39.7166 68.9082 39.8707 68.9082C40.4101 68.9467 40.9495 69.0044 41.5082 69.0622C41.855 69.1007 42.0477 69.0429 42.0669 68.6387C42.1054 67.7531 41.4119 66.9446 40.5064 66.9061C39.4854 66.8676 38.6955 67.6761 38.6955 68.7734C38.6955 69.7937 39.5239 70.5637 40.6413 70.5445ZM44.032 70.6985C44.6677 70.6792 45.2457 70.5445 45.3805 69.8322C45.5154 69.1392 45.0338 68.8697 44.4751 68.6772C44.3402 68.6387 44.2054 68.6002 44.0705 68.5424C43.7815 68.4461 43.377 68.3691 43.4926 67.9456C43.6081 67.5029 44.0127 67.5991 44.3595 67.6376C44.6292 67.6569 45.053 68.0419 45.1494 67.5799C45.2264 67.1371 44.6677 67.2141 44.3788 67.1371C44.1476 67.0793 43.8586 67.0986 43.6081 67.1756C43.2036 67.2911 42.8953 67.5606 42.8375 68.0034C42.7797 68.4847 43.0494 68.7542 43.454 68.9274C43.6467 69.0044 43.8393 69.0622 44.0127 69.1392C44.3595 69.2547 44.8604 69.3317 44.7255 69.8129C44.5907 70.3135 44.109 70.1787 43.7045 70.121C43.4155 70.0825 42.9917 69.5819 42.8375 70.0632C42.7027 70.5445 43.3384 70.4675 43.6274 70.6215C43.7623 70.6985 43.9164 70.6792 44.032 70.6985ZM36.4222 68.9467C36.4029 69.8129 36.8653 70.2557 37.5396 70.1787C37.713 70.1595 37.9056 70.1402 37.9056 69.9092C37.9056 69.7167 37.7515 69.6974 37.5974 69.6782C37.0579 69.6012 36.9809 69.2354 37.0579 68.7927C37.1157 68.3884 37.1928 68.0034 37.2699 67.5991C37.3084 67.3874 37.3662 67.2334 37.6359 67.2141C37.9056 67.1949 38.2909 67.4451 38.3872 67.0601C38.5028 66.5981 37.9827 66.8098 37.79 66.6558C37.7515 66.6173 37.6937 66.5981 37.6359 66.5788C37.3277 66.3093 37.9249 65.6548 37.2699 65.597C36.7112 65.5393 37.1928 66.4633 36.557 66.4826C36.3066 66.5018 36.2295 66.7713 36.4415 66.9253C36.769 67.1371 36.6919 67.3874 36.6341 67.6761C36.557 68.1189 36.48 68.6002 36.4222 68.9467ZM47.4805 70.4675C47.7309 70.4097 48.1162 70.4675 48.1355 70.0825C48.1548 69.6974 47.808 69.89 47.6153 69.8707C47.2493 69.8515 47.1144 69.6204 47.0759 69.3124C47.0374 68.9082 47.0181 68.5039 46.9603 68.1189C46.9025 67.6761 46.9603 67.3874 47.4997 67.4066C47.6924 67.4259 47.9428 67.4066 47.9236 67.1178C47.885 66.8291 47.6346 66.8868 47.4419 66.9253C46.941 67.0216 46.7484 66.8098 46.7869 66.3286C46.8062 66.1553 46.7677 65.9628 46.5172 65.9628C46.2668 65.9628 46.1704 66.1168 46.1704 66.3478C46.1704 66.5788 46.3631 66.8483 46.0163 67.0216C45.6888 67.1949 45.7081 67.4259 46.0548 67.5606C46.3631 67.6761 46.3053 67.9071 46.3246 68.1189C46.3823 68.6002 46.4209 69.0814 46.4787 69.5627C46.575 70.1402 46.864 70.4675 47.4805 70.4675Z" fill="#042D41"/>
<path d="M13.998 10.5586C13.8246 13.581 13.6705 16.5456 13.5163 19.5102C13.4393 21.0887 13.4585 21.0887 15.0576 21.185C18.3134 21.3967 21.5692 21.6278 24.9599 21.8395C24.4783 22.34 24.0737 22.7443 23.7077 23.1678C16.6758 30.8103 15.7126 40.1662 19.5464 48.598C19.9702 49.522 20.4518 50.4268 21.1069 51.1776C21.6078 51.7551 21.7041 52.3519 21.6463 53.0642C21.3766 56.048 21.1647 59.0512 20.9527 62.035C20.9142 62.5548 20.7601 62.7088 20.2207 62.6703C16.7914 62.3815 13.3622 62.1313 9.933 61.9003C9.4321 61.8618 9.08532 61.6885 8.75781 61.3227C5.61757 57.9539 3.55619 53.9497 2.381 49.522C-0.123485 40.1277 0.204025 30.8873 4.48092 22.0128C6.56157 17.7199 9.4321 14.043 13.1696 11.0399C13.343 10.8859 13.5356 10.7511 13.7283 10.6163C13.7668 10.5971 13.8439 10.5971 13.998 10.5586ZM9.14312 46.0762C8.62296 46.2109 8.17986 46.3072 7.73675 46.4227C7.50557 46.4804 7.38998 46.6152 7.46704 46.8654C7.5441 47.0965 7.71749 47.0387 7.89088 47.0002C9.23945 46.6922 10.588 46.4034 11.9173 46.0954C12.1485 46.0377 12.3797 45.8452 12.1678 45.7104C11.6091 45.3639 11.9173 44.9404 11.9366 44.5361C11.9751 43.9008 11.6861 43.4388 11.1274 43.1308C10.3568 42.7073 9.25871 42.8998 8.70002 43.5736C8.12206 44.2666 8.23765 45.0366 9.14312 46.0762ZM9.16239 31.2916C9.12386 31.3686 9.08532 31.4456 9.04679 31.5226C8.37251 32.3504 8.27618 33.1012 8.81561 33.775C9.31651 34.4102 10.3183 34.6605 11.0889 34.3332C11.9173 33.9867 12.1678 33.3514 11.9366 32.2734C11.8981 32.1001 11.821 32.0231 12.0714 31.9076C12.6109 31.6189 12.3412 31.4071 11.9173 31.2916C10.6651 30.9644 9.41283 30.6563 8.14132 30.3291C7.92941 30.2713 7.73675 30.2136 7.64043 30.4831C7.56337 30.7333 7.73675 30.8296 7.94867 30.9066C8.33398 31.0414 8.79635 31.0029 9.16239 31.2916ZM8.989 42.149C9.4899 42.0913 9.99079 42.072 10.4532 41.9565C11.2238 41.8025 11.4357 41.225 11.3779 40.532C11.3394 40.0699 10.7614 39.7234 11.1852 39.1459C11.3201 38.9726 10.9733 38.8764 10.7614 38.8956C9.89447 38.9534 9.04679 38.9919 8.17986 39.0497C7.92941 39.0689 7.67896 39.1074 7.71749 39.4154C7.75602 39.7427 8.02573 39.6657 8.25692 39.6657C8.77708 39.6272 9.29724 39.5694 9.79814 39.5887C10.3376 39.6079 10.7421 39.8967 10.7614 40.4935C10.7807 41.071 10.4339 41.379 9.85594 41.4367C9.56696 41.456 9.27798 41.4175 8.989 41.4945C8.60369 41.5715 7.91014 41.302 7.91014 41.841C7.96794 42.457 8.64222 41.9565 8.989 42.149ZM10.8963 36.2005C11.0696 36.2005 11.3972 36.3353 11.4357 35.931C11.4742 35.5268 11.1082 35.6038 10.877 35.5845C9.64402 35.4113 8.43031 35.2573 7.19733 35.1033C6.96614 35.084 6.69643 34.9878 6.63863 35.315C6.58084 35.7193 6.90835 35.6808 7.1588 35.7C8.37251 35.8733 9.60549 36.0273 10.8963 36.2005ZM8.83488 37.1823V37.1631C8.70002 37.1631 8.5459 37.1631 8.41104 37.1631C8.19912 37.1631 7.89088 37.0668 7.85235 37.3941C7.79455 37.7791 8.12206 37.7599 8.37251 37.7791C9.18165 37.8369 9.99079 37.8754 10.7999 37.9139C11.0504 37.9331 11.2816 37.9331 11.2816 37.5866C11.2623 37.2978 11.0311 37.3171 10.8385 37.2978C10.1642 37.2593 9.4899 37.2208 8.83488 37.1823Z" fill="#042D41"/>
<path d="M140.147 56.7992C139.993 58.6858 139.839 60.4376 139.684 62.1701C139.53 63.922 139.396 65.6738 139.203 67.4256C139.126 68.0994 139.396 68.2341 140.012 68.2919C143.403 68.5421 146.774 68.8502 150.377 69.1582C148.662 70.4672 146.967 71.4297 145.214 72.2768C137.392 76.0884 129.089 77.436 120.477 76.7429C113.272 76.1654 106.856 73.4126 101.096 69.1197C99.3237 67.8106 97.7054 66.3476 96.1642 64.7882C95.7981 64.4225 95.644 64.0375 95.6825 63.4984C95.9715 60.3413 96.2219 57.1842 96.4531 54.0078C96.4917 53.5266 96.6265 53.3533 97.1274 53.4111C100.769 53.7383 104.429 54.0656 108.089 54.3544C108.513 54.3929 108.821 54.5661 109.149 54.8549C116.316 61.3424 127.933 63.6717 137.758 58.2045C138.49 57.7617 139.241 57.319 140.147 56.7992ZM111.653 65.3273C111.653 64.4417 111.133 63.9797 110.305 63.9412C110.035 63.922 109.65 64.153 109.554 63.7487C109.303 62.6707 108.032 63.1904 107.55 62.4397C107.454 62.2857 107.203 62.5359 107.107 62.7092C106.702 63.4792 106.317 64.2492 105.912 65C105.778 65.231 105.758 65.4428 106.028 65.5775C106.356 65.7315 106.413 65.4428 106.529 65.2503C106.799 64.769 107.03 64.2685 107.299 63.8065C107.588 63.3444 108.032 63.2289 108.494 63.4792C108.956 63.7295 108.976 64.153 108.764 64.5957C108.552 65 108.321 65.4043 108.147 65.8278C108.032 66.078 107.685 66.4053 108.128 66.6363C108.552 66.8481 108.571 66.3668 108.687 66.1743C108.937 65.7508 109.13 65.2888 109.38 64.8845C109.669 64.4417 110.093 64.2877 110.575 64.5765C111.037 64.846 111.056 65.2503 110.825 65.693C110.575 66.2128 110.305 66.7133 110.035 67.2331C109.958 67.4063 109.9 67.5604 110.112 67.6759C110.286 67.7721 110.459 67.7721 110.555 67.5989C110.941 66.8096 111.519 66.0973 111.653 65.3273ZM126.68 70.91C127.701 70.91 128.549 70.1207 128.568 69.1582C128.588 68.1186 127.74 67.2523 126.719 67.2716C125.679 67.2716 124.85 68.0994 124.85 69.1389C124.869 70.1399 125.64 70.8907 126.68 70.91ZM113.888 68.9849C114.89 69.0042 115.718 68.2149 115.757 67.2138C115.796 66.2128 114.948 65.3465 113.907 65.3465C112.906 65.3465 112.077 66.1358 112.039 67.1176C112 68.1186 112.848 68.9657 113.888 68.9849ZM119.726 67.9261C119.726 67.4256 119.552 67.0791 119.225 66.8096C118.589 66.2898 117.741 66.8481 117.067 66.4053C116.932 66.3283 116.836 66.6171 116.797 66.7711C116.624 67.6181 116.451 68.4651 116.277 69.3122C116.239 69.5239 116.162 69.7357 116.451 69.7934C116.701 69.8512 116.817 69.6972 116.874 69.4662C116.99 68.9271 117.106 68.3881 117.24 67.8684C117.375 67.3293 117.741 67.0021 118.319 67.1176C118.916 67.2331 119.09 67.6759 118.994 68.2149C118.897 68.7539 118.782 69.2929 118.666 69.8319C118.628 70.0437 118.628 70.2362 118.897 70.3132C119.167 70.371 119.263 70.2169 119.302 69.9859C119.456 69.2737 119.591 68.5806 119.726 67.9261ZM122.461 69.5817C122.442 70.6597 122.981 71.1217 123.791 70.8907C123.945 70.8522 124.08 70.7945 124.06 70.6212C124.06 70.5442 124.003 70.4287 123.945 70.4095C122.596 70.294 123.213 69.3314 123.174 68.6576C123.155 68.1379 123.309 67.8299 123.906 67.9261C124.08 67.9646 124.253 67.8876 124.253 67.6566C124.253 67.4256 124.08 67.3486 123.906 67.3678C123.367 67.4063 123.193 67.1561 123.251 66.6363C123.29 66.3861 123.02 66.1743 122.904 66.3091C122.596 66.7133 122.095 67.5218 122.172 67.5989C122.962 68.2726 122.326 69.0234 122.461 69.5817ZM129.57 67.1368C129.223 67.1368 129.166 67.3293 129.185 67.5411C129.3 68.4844 129.416 69.4084 129.532 70.3517C129.551 70.5635 129.686 70.6597 129.878 70.6405C130.09 70.6405 130.187 70.5057 130.167 70.3132C130.148 70.1207 130.148 69.9089 130.11 69.7164C129.936 68.8116 129.898 67.9839 130.977 67.5796C131.227 67.4833 131.227 67.2716 131.15 67.0791C131.054 66.8673 130.88 66.9251 130.707 66.9636C130.322 67.0791 130.013 67.9069 129.57 67.1368ZM120.516 69.9282C120.516 70.2555 120.4 70.5827 120.804 70.602C121.151 70.6212 121.113 70.3325 121.151 70.1207C121.267 69.2929 121.363 68.4651 121.46 67.6374C121.479 67.4256 121.517 67.2138 121.248 67.1561C120.939 67.0791 120.862 67.2716 120.824 67.5411C120.727 68.3496 120.612 69.1774 120.516 69.9282Z" fill="#01ABD8"/>
<path d="M70.6761 12.5613C67.4781 12.3303 64.2801 12.0993 61.082 11.8683C59.8683 11.7721 59.8876 11.7721 59.772 12.9464C59.483 16.296 59.194 19.6456 58.8858 23.1492C57.4409 21.7439 55.996 20.5889 54.397 19.6071C50.0237 16.9313 45.323 15.449 40.1599 15.834C35.9216 16.142 31.9914 17.5858 28.2732 19.5879C27.7916 19.8381 27.3485 19.9536 26.7898 19.9151C23.4184 19.6649 20.047 19.4338 16.6755 19.2606C16.059 19.2221 15.8279 19.0873 15.8664 18.4136C16.0783 15.3334 16.271 12.2533 16.4251 9.17322C16.4444 8.6342 16.7911 8.42244 17.1379 8.19144C21.6652 5.03432 26.6742 2.91674 32.03 1.6847C39.7361 -0.0863696 47.4229 -0.221125 54.9942 2.45472C60.793 4.51455 65.8983 7.69092 70.3294 11.9646C70.4642 12.0993 70.6954 12.1378 70.8688 12.2341C70.8303 12.3496 70.7532 12.4458 70.6761 12.5613ZM42.1057 6.74763C41.9516 6.67063 41.836 6.59363 41.7204 6.53587C41.0269 6.15086 40.3718 6.28561 39.8324 6.82463C39.2737 7.3444 39.1774 8.36469 39.5627 9.07697C39.948 9.76999 40.526 10.0395 41.2966 9.94325C41.7204 9.8855 42.0864 9.23097 42.6259 9.82775C42.7607 9.98175 42.9341 9.59674 42.9149 9.36573C42.8763 8.03743 42.8378 6.72838 42.7993 5.40008C42.7993 5.18832 42.78 4.97657 42.5103 4.95732C42.1635 4.95732 42.202 5.22683 42.1828 5.45784C42.1442 5.8621 42.2791 6.28562 42.1057 6.74763ZM46.4404 8.69196C46.9991 8.86521 47.134 8.57645 47.0376 7.99893C46.9028 7.1904 46.4789 6.67063 45.6698 6.55513C44.8606 6.43962 44.2827 6.80539 43.9359 7.53691C43.5699 8.28769 43.724 9.17322 44.2827 9.69299C44.8221 10.2128 45.7854 10.3283 46.3826 9.98175C46.5367 9.8855 46.7101 9.8085 46.6331 9.59674C46.556 9.36573 46.3633 9.44273 46.2092 9.50048C45.5927 9.73149 45.0148 9.75074 44.5909 9.15397C44.4753 8.99997 44.3598 8.78821 44.4561 8.5957C44.5524 8.4417 44.7643 8.49945 44.9377 8.5187C45.4001 8.57645 45.901 8.6342 46.4404 8.69196ZM36.8078 6.74763C35.8252 6.72838 34.9583 7.53691 34.9198 8.49945C34.8812 9.46198 35.7096 10.3475 36.6922 10.386C37.694 10.4245 38.6187 9.55824 38.638 8.57645C38.638 7.59466 37.8096 6.74763 36.8078 6.74763ZM31.3749 9.42348C31.3942 10.1935 31.8181 10.8288 32.5116 11.0983C33.2822 11.4063 33.9372 11.1753 34.4959 10.6363C34.6308 10.5015 34.9198 10.3283 34.6886 10.0588C34.4381 9.78924 34.3033 10.078 34.1299 10.232C33.4363 10.8095 32.7043 10.7903 32.2612 10.155C31.9336 9.69299 31.8758 9.17322 32.1648 8.69196C32.4731 8.19144 32.9547 8.03743 33.5134 8.21069C33.7446 8.28769 33.995 8.36469 34.0528 8.01818C34.1106 7.74867 33.8409 7.72942 33.6483 7.65242C32.5309 7.28665 31.3557 8.19143 31.3749 9.42348Z" fill="#042D41"/>
<path d="M100.923 8.28735C102.772 6.95905 104.603 6.01577 106.452 5.16873C113.696 1.83836 121.325 0.317551 129.301 0.587061C136.371 0.81807 143.037 2.47363 148.99 6.49703C150.454 7.47882 151.802 8.61461 153.035 9.86591C153.479 10.3087 153.671 10.7514 153.613 11.3867C153.363 14.5438 153.132 17.701 152.92 20.8773C152.881 21.4163 152.669 21.5511 152.149 21.5126C148.547 21.2816 144.944 21.0698 141.341 20.8581C141.033 20.8388 140.802 20.7618 140.552 20.5501C137.084 17.5084 132.922 16.1801 128.434 15.8721C124.138 15.5641 119.899 16.0069 115.873 17.7202C114.331 18.3747 112.887 19.2025 111.422 20.4538C111.519 19.0678 111.596 17.855 111.673 16.6422C111.827 14.4861 111.962 12.33 112.155 10.1739C112.193 9.61565 112.058 9.44239 111.48 9.38464C108.128 9.07663 104.776 8.73012 101.404 8.3836C101.347 8.36435 101.231 8.3451 100.923 8.28735ZM122.924 6.68954C122.885 6.70879 122.847 6.72804 122.827 6.72804C122.693 6.68954 122.558 6.67029 122.423 6.63179C121.614 6.42003 120.882 6.70879 120.516 7.38257C120.13 8.09484 120.304 9.23063 120.901 9.76965C121.498 10.3087 122.269 10.3857 122.943 9.84666C123.232 9.61565 123.328 9.5964 123.598 9.84666C123.81 10.0199 124.118 9.90441 124.06 9.50015C123.868 8.11409 123.656 6.70879 123.444 5.32274C123.425 5.13023 123.328 4.99548 123.116 5.01473C122.847 5.03398 122.789 5.22648 122.827 5.43824C122.866 5.86176 123.02 6.26602 122.924 6.68954ZM129.378 9.51939C129.609 9.46164 129.686 9.61565 129.782 9.69265C130.418 10.1932 131.092 10.1739 131.709 9.75041C132.402 9.24989 132.595 8.47986 132.402 7.67133C132.229 6.92055 131.709 6.51628 130.957 6.38153C130.418 6.28528 129.879 7.0168 129.358 6.32378C129.301 6.24677 129.089 6.40078 129.069 6.55478C128.915 7.86383 128.78 9.19213 128.646 10.5012C128.626 10.6937 128.684 10.8477 128.915 10.8862C129.185 10.9247 129.262 10.7514 129.281 10.5204C129.301 10.1739 129.339 9.84666 129.378 9.51939ZM126.507 9.84666C126.835 9.80816 127.201 9.7504 127.509 9.51939C127.663 9.40389 127.894 9.28839 127.759 9.03813C127.605 8.74937 127.413 8.96112 127.259 9.03813C126.758 9.30764 126.276 9.36539 125.794 8.99963C125.602 8.86487 125.428 8.65311 125.505 8.4221C125.563 8.21035 125.852 8.2296 126.045 8.2296C126.507 8.21035 126.97 8.17184 127.432 8.1911C127.991 8.21035 128.164 8.03709 128.01 7.47882C127.779 6.59329 126.989 6.01576 126.16 6.15052C125.293 6.30452 124.658 7.17081 124.715 8.13334C124.773 9.09588 125.525 9.82741 126.507 9.84666ZM136.698 11.3097C137.7 11.2905 138.49 10.4819 138.49 9.48089C138.49 8.47986 137.604 7.65208 136.564 7.67133C135.562 7.69058 134.791 8.49911 134.772 9.51939C134.772 10.5204 135.62 11.329 136.698 11.3097ZM139.954 11.9065C140.012 10.9054 140.051 10.0969 140.089 9.30764C140.108 9.05738 140.012 8.82637 139.742 8.78787C139.376 8.74937 139.473 9.07663 139.453 9.26914C139.415 10.1354 139.415 11.0017 139.376 11.8487C139.338 12.715 139.145 12.8305 138.317 12.5033C138.143 12.4263 137.989 12.3493 137.874 12.5418C137.758 12.715 137.854 12.869 137.989 12.9845C138.586 13.485 139.145 13.3888 139.704 12.9075C140.552 12.1567 141.38 11.406 142.208 10.6552C142.343 10.5204 142.806 10.4434 142.459 10.0969C142.208 9.84666 141.996 10.0199 141.804 10.2124C141.245 10.7514 140.667 11.252 139.954 11.9065ZM133 10.0777C133 10.1162 132.961 10.3664 133.289 10.4242C133.558 10.4627 133.616 10.2702 133.674 10.0584C133.963 8.74937 134.252 7.44032 134.541 6.11202C134.579 5.90026 134.56 5.70775 134.31 5.63075C134.059 5.55375 133.944 5.70775 133.905 5.93876C133.597 7.24781 133.327 8.55686 133 10.0777Z" fill="#01ABD8"/>
<path d="M83.6418 26.5757C82.6593 28.0773 81.33 29.2901 80.1548 30.6184C77.8429 33.2365 75.4926 35.7968 73.1422 38.3956C73.0073 38.5304 72.8147 38.6267 72.6606 38.7422C69.0387 34.6995 65.3976 30.6761 61.7564 26.6527C61.4289 26.3062 61.3133 25.9597 61.3518 25.4977C61.6023 21.994 61.8527 18.4712 62.0839 14.9675C62.1225 14.4093 62.2958 14.236 62.8738 14.2937C66.2452 14.6018 69.5974 14.8905 72.9688 15.16C73.4697 15.1985 73.7394 15.4873 74.0284 15.8146C77.2264 19.3759 80.4438 22.9758 83.6418 26.5757ZM65.9177 21.4358C66.014 21.4935 66.0911 21.5513 66.1874 21.6283C66.4186 22.7833 66.9002 23.2838 67.825 23.2646C68.6727 23.2646 69.5203 22.5523 69.6745 21.7245C69.8478 20.839 69.424 20.223 68.3644 19.8187C68.2103 19.761 68.114 19.8187 68.1525 19.5299C68.2296 18.9524 67.902 18.9717 67.5553 19.2797C66.6498 20.1267 65.7829 20.993 64.8774 21.8593C64.7425 21.994 64.6462 22.148 64.8003 22.302C64.9737 22.4753 65.1856 22.4561 65.3205 22.2635C65.5324 22.0133 65.7058 21.7245 65.9177 21.4358ZM71.023 24.6121C70.5029 24.5736 70.1561 24.8431 69.9827 25.2667C69.7708 25.7864 70.0212 26.2099 70.3873 26.5757C70.657 26.8645 71.1001 26.8645 71.3505 27.1147C71.8322 27.596 71.7936 27.6345 72.2753 27.1725C72.5065 26.9607 72.7376 26.7297 72.9688 26.518C74.0284 25.5362 73.7972 24.2656 72.4679 23.7266C72.3138 23.6688 72.1404 23.5533 72.0056 23.7458C71.89 23.9384 72.0248 24.0539 72.1789 24.1694C72.5257 24.3811 72.8532 24.6121 73.0073 25.0164C73.1037 25.2667 73.1037 25.5747 72.8725 25.7287C72.5642 25.9597 72.5065 25.5747 72.3716 25.4399C71.9478 25.0742 71.6202 24.6121 71.023 24.6121ZM76.4558 28.3468C76.4558 27.6152 76.0898 27.2495 75.5504 27.0185C75.377 26.9415 75.1073 27.0762 75.1073 26.6527C75.1073 26.0944 74.7798 26.1329 74.433 26.4795C73.8358 27.057 73.2385 27.6345 72.6413 28.2313C72.4872 28.3853 72.2367 28.5393 72.4872 28.7895C72.7762 29.0783 72.9303 28.8088 73.1037 28.6355C73.489 28.2505 73.8743 27.8463 74.2981 27.519C74.722 27.1917 75.1843 27.2687 75.5504 27.6537C75.8779 28.0195 75.8779 28.443 75.5118 28.8088C75.1265 29.1938 74.7412 29.5788 74.3559 29.9638C74.2018 30.1178 73.9321 30.2526 74.1825 30.5221C74.4137 30.7724 74.5678 30.5991 74.7605 30.4258C75.1843 30.0023 75.6467 29.5981 76.0705 29.1553C76.321 28.9243 76.4751 28.6163 76.4558 28.3468ZM72.2945 21.532C72.1597 21.2625 71.9863 21.1663 71.7166 21.4358C70.7533 22.379 69.79 23.3223 68.8268 24.2656C68.6534 24.4389 68.5185 24.6506 68.7497 24.8624C68.9809 25.0549 69.0965 24.8046 69.2314 24.6891C70.1368 23.8229 71.0616 22.9566 71.967 22.071C72.1019 21.8978 72.2945 21.7823 72.2945 21.532Z" fill="#042D41"/>
<path d="M83.6611 50.9277C84.2198 49.946 85.0868 49.2144 85.8381 48.3866C88.7086 45.1718 91.6177 41.9954 94.5268 38.7998C98.3798 43.0927 102.214 47.3856 106.221 51.871C104.853 51.7748 103.659 51.6978 102.483 51.6015C100.094 51.409 97.7055 51.2358 95.3166 51.024C94.835 50.9855 94.6809 51.0817 94.6231 51.5823C94.3148 54.7586 93.9488 57.9542 93.602 61.1306C93.5828 61.3231 93.6598 61.5349 93.3901 61.7851C90.1535 58.1468 86.8977 54.5276 83.6611 50.9277Z" fill="#042D41"/>
<path d="M114.967 43.7088C111.75 43.7088 109.342 41.3795 109.342 38.2801C109.323 35.123 111.789 32.7744 115.083 32.7744C118.32 32.7744 120.728 35.123 120.708 38.2801C120.67 41.3988 118.223 43.7088 114.967 43.7088ZM117.799 38.2224C117.78 36.5476 116.605 35.3348 115.006 35.3348C113.426 35.3348 112.212 36.6053 112.232 38.2416C112.251 39.8972 113.465 41.1292 115.064 41.1292C116.643 41.1292 117.799 39.8972 117.799 38.2224Z" fill="#042D41"/>
<path d="M28.428 38.1459C28.428 36.6251 28.428 35.0851 28.428 33.5643C28.428 33.2947 28.3509 32.929 28.794 32.9482C30.5472 33.0252 32.3196 32.7365 34.0535 33.1022C37.1359 33.7375 38.5615 35.7011 38.3496 38.8775C38.1762 41.38 36.0378 43.3821 33.2828 43.5169C31.8379 43.5939 30.393 43.5169 28.9674 43.5554C28.4665 43.5746 28.4087 43.3051 28.428 42.9201C28.428 41.3223 28.428 39.7437 28.428 38.1459ZM31.2215 38.2422C31.2215 38.762 31.2215 39.2817 31.2215 39.8015C31.2215 41.1105 31.2215 41.1105 32.5508 41.0335C34.3424 40.9373 35.4213 40.0325 35.4983 38.5117C35.6139 36.2209 33.9186 35.1813 31.5297 35.5086C31.1829 35.5471 31.2407 35.7973 31.2215 36.0091C31.2215 36.7599 31.2215 37.5107 31.2215 38.2422Z" fill="#01ABD8"/>
<path d="M124.927 36.3743C126.796 34.9882 128.607 35.0267 129.898 36.355C131.323 37.8374 131.458 40.7057 130.167 42.3613C128.934 43.9398 127.239 44.1131 124.946 42.7848C124.946 43.6896 124.927 44.5366 124.946 45.3836C124.966 45.8264 124.812 45.9612 124.368 45.9804C122.211 46.0574 122.211 46.0767 122.211 43.9398C122.211 41.3217 122.23 38.6844 122.191 36.0663C122.191 35.4888 122.365 35.2963 122.924 35.354C123.27 35.3925 123.617 35.3925 123.964 35.354C124.619 35.2963 125.12 35.3925 124.927 36.3743ZM128.318 39.4737C128.318 38.4149 127.566 37.6063 126.584 37.6063C125.621 37.6063 124.869 38.4534 124.889 39.5122C124.908 40.571 125.678 41.3795 126.642 41.3795C127.605 41.3795 128.318 40.5517 128.318 39.4737Z" fill="#042D41"/>
<path d="M45.0723 40.2629C44.3595 40.2629 43.6274 40.2629 42.9146 40.2629C42.7412 40.2629 42.5486 40.2244 42.433 40.3784C42.2981 40.6095 42.51 40.7442 42.6064 40.8982C43.1458 41.6875 44.2825 41.803 45.342 41.2255C45.5732 41.11 45.7466 40.7057 46.0741 40.9367C46.5172 41.264 46.9411 41.6105 47.3071 42.0148C47.4805 42.188 47.2108 42.3613 47.0759 42.496C45.7466 43.9013 42.9339 44.1323 41.3156 42.958C39.601 41.7067 39.0423 39.2427 40.0826 37.3946C41.1229 35.5273 43.454 34.738 45.4962 35.5658C46.9411 36.1625 48.0777 38.2801 47.8465 39.8587C47.7887 40.2244 47.6154 40.2629 47.3264 40.2437C46.575 40.2629 45.8237 40.2629 45.0723 40.2629ZM43.743 38.8191C44.032 38.8191 44.321 38.7999 44.61 38.8191C45.2457 38.8576 45.2072 38.5881 44.9567 38.1454C44.5136 37.3368 43.3962 37.1251 42.7605 37.7603C42.5293 37.9914 42.2403 38.3186 42.3559 38.6459C42.4715 38.9346 42.8568 38.7614 43.1265 38.7999C43.3385 38.8384 43.5504 38.8191 43.743 38.8191Z" fill="#01ABD8"/>
<path d="M135.889 43.7082C134.483 43.6889 133.442 43.4002 132.46 42.8612C132.036 42.6301 131.805 42.3991 132.229 41.9564C132.267 41.9179 132.306 41.8601 132.325 41.8024C132.672 40.9553 133.134 40.7051 133.982 41.2826C134.521 41.6484 135.234 41.7446 135.908 41.6869C136.159 41.6676 136.467 41.6291 136.467 41.2633C136.467 40.9746 136.236 40.8783 136.024 40.8013C135.388 40.5896 134.753 40.4356 134.136 40.2045C132.749 39.704 132.19 38.8762 132.325 37.6249C132.441 36.4699 133.308 35.5844 134.618 35.3726C135.908 35.1608 137.141 35.3534 138.317 35.9309C138.702 36.1234 138.895 36.3159 138.586 36.7009C138.567 36.7202 138.567 36.7587 138.548 36.7779C137.97 37.9137 137.97 37.9137 136.795 37.5094C136.332 37.3554 135.851 37.2207 135.35 37.2592C135.099 37.2784 134.887 37.3747 134.849 37.6442C134.83 37.8945 135.022 38.01 135.196 38.087C135.851 38.318 136.506 38.5105 137.161 38.7607C138.817 39.396 139.434 40.6281 138.798 42.0911C138.182 43.4772 136.93 43.6889 135.889 43.7082Z" fill="#042D41"/>
<path d="M52.7794 39.9551C53.2225 38.6268 53.6849 37.2985 54.0895 35.951C54.2436 35.489 54.4748 35.3157 54.9564 35.3542C55.4766 35.3927 55.9967 35.3735 56.5169 35.3542C56.9985 35.335 57.2105 35.3735 56.9793 35.951C56.016 38.3188 55.072 40.7059 54.1473 43.093C53.9739 43.5358 53.762 43.632 53.3189 43.6513C51.4309 43.6898 51.4309 43.6898 50.7181 41.9187C49.9475 39.9936 49.1768 38.0686 48.4062 36.1435C48.1943 35.6237 48.1558 35.335 48.9071 35.335C51.0841 35.3542 51.0841 35.3157 51.7391 37.3563C52.0281 38.2226 52.2978 39.0889 52.5675 39.9551C52.6639 39.9744 52.7216 39.9744 52.7794 39.9551Z" fill="#01ABD8"/>
<path d="M81.6964 42.4385C80.8872 42.4385 80.1551 41.8995 79.8854 41.091C79.635 40.3595 79.8083 39.7049 80.4056 39.2429C81.0221 38.7617 81.6771 38.8002 82.3321 39.2044C82.6982 39.4354 82.833 39.6472 82.4862 40.013C82.1202 40.3787 81.7927 40.783 81.4652 41.1872C81.3496 41.322 81.0991 41.4568 81.2533 41.6878C81.3688 41.8803 81.6 41.861 81.8119 41.8418C82.4477 41.784 82.7752 41.3798 82.9101 40.8022C82.9679 40.5712 82.9679 40.2825 83.2954 40.3787C83.6036 40.4557 83.5073 40.7445 83.4688 40.9562C83.3147 41.7455 82.5055 42.4193 81.6964 42.4385ZM81.9853 39.8012C81.8119 39.5124 81.523 39.4932 81.234 39.5124C80.6753 39.5509 80.2322 40.1092 80.3478 40.6482C80.4056 40.8792 80.5019 41.3028 80.7716 41.1487C81.2725 40.8407 81.6193 40.321 81.9853 39.8012Z" fill="#042D41"/>
<path d="M88.1307 35.5461C87.3408 35.5268 86.8207 34.8338 87.0326 34.16C87.1674 33.698 87.4564 33.3515 87.8225 33.0435C87.9381 32.9472 88.15 32.851 88.0344 32.6392C87.9188 32.4467 87.7069 32.4082 87.495 32.466C86.9941 32.5815 86.7629 32.9857 86.5317 33.39C86.4161 33.5825 86.3005 33.7558 86.0693 33.621C85.7996 33.4862 85.973 33.2745 86.0501 33.1012C86.6088 31.7152 87.7069 31.4649 88.8243 32.4275C89.094 32.6585 89.3637 32.851 89.6141 33.1012C89.9224 33.39 90.5389 33.7173 89.5949 34.0253C89.4407 34.083 89.4022 34.4103 89.2866 34.6028C89.0362 35.1226 88.6509 35.4883 88.1307 35.5461ZM89.094 33.8328C89.094 33.544 88.9784 33.1205 88.5931 33.159C88.0344 33.1975 87.7261 33.6787 87.572 34.1985C87.4757 34.545 87.6491 34.853 88.0344 34.8915C88.6894 34.93 88.9206 34.468 89.094 33.8328Z" fill="#042D41"/>
<path d="M87.2058 36.548C87.1866 37.2218 86.5315 37.9341 85.7995 38.1073C85.0096 38.2999 84.1426 37.8378 83.7381 37.0293C83.3913 36.317 83.5454 35.47 84.1234 34.9887C84.7206 34.4882 85.5297 34.4882 86.204 34.9502C86.493 35.1427 86.5893 35.3353 86.3004 35.6433C85.9343 36.0475 85.5683 36.4518 85.2215 36.8753C85.1059 37.0101 84.8362 37.1256 84.9903 37.3758C85.1059 37.5491 85.3371 37.5491 85.549 37.5298C86.1848 37.4721 86.5315 37.1063 86.6664 36.5095C86.7049 36.317 86.6857 36.0668 86.9746 36.086C87.2829 36.1053 87.1866 36.3555 87.2058 36.548ZM85.6646 35.4508C85.6261 35.4123 85.549 35.316 85.4527 35.2775C85.0289 35.1235 84.6628 35.1812 84.3546 35.5278C84.0271 35.8935 84.0078 36.2978 84.2582 36.7213C84.316 36.8368 84.3931 36.8946 84.528 36.8753C84.6821 36.8561 85.6839 35.6625 85.6646 35.4508Z" fill="#042D41"/>
<path d="M90.7901 27.8853C90.8865 27.2307 91.2332 26.7687 91.8305 26.4992C92.4662 26.2297 93.0056 26.4415 93.5258 26.788C93.7763 26.9612 93.7763 27.1345 93.5836 27.3655C93.2176 27.7698 92.8515 28.174 92.5047 28.5975C92.3892 28.7515 92.158 28.8863 92.2736 29.0981C92.3892 29.3483 92.6589 29.3291 92.8901 29.3098C93.4873 29.2521 93.7763 28.8478 93.9304 28.3088C93.9882 28.097 93.9304 27.7505 94.2579 27.8275C94.6239 27.9045 94.4698 28.251 94.4313 28.482C94.2772 29.3098 93.3332 30.0221 92.524 29.9066C91.5415 29.7911 90.7131 28.8478 90.7901 27.8853ZM92.2928 26.942C91.7341 27.0575 91.3488 27.3462 91.3681 27.9815C91.3681 28.2703 91.4066 28.559 91.7341 28.6745C91.8497 28.713 92.9864 27.404 92.9478 27.2885C92.8515 26.9805 92.5625 26.9805 92.2928 26.942Z" fill="#042D41"/>
<path d="M88.4199 30.4456C88.5162 29.7911 88.9786 29.3676 89.6336 29.0981C89.7685 29.0403 89.9226 29.0403 89.9804 29.2328C90.0382 29.3869 89.9804 29.5216 89.8456 29.5986C89.5566 29.7526 89.2869 29.8874 89.1135 30.1761C88.9979 30.3494 88.9208 30.5419 89.0749 30.7344C89.2291 30.9269 89.4217 30.9077 89.6144 30.8114C89.9226 30.6574 90.2116 30.4649 90.5199 30.3301C90.9437 30.1376 91.3483 30.1376 91.695 30.5034C92.0418 30.8692 92.0033 31.2927 91.7914 31.6969C91.5409 32.1782 91.1171 32.467 90.6354 32.698C90.4813 32.775 90.2887 32.852 90.1731 32.6402C90.0382 32.4092 90.2116 32.2937 90.4043 32.1782C90.6547 32.0435 90.9052 31.8895 91.1171 31.7162C91.329 31.5429 91.4446 31.2734 91.2905 31.0232C91.1171 30.7537 90.8281 30.8114 90.5969 30.9269C90.2887 31.0809 89.9997 31.2734 89.6914 31.4082C89.0557 31.6777 88.4199 31.2349 88.4199 30.4456Z" fill="#042D41"/>
<path d="M78.3061 42.1885C78.6914 42.2078 78.4795 41.8613 78.5373 41.688C78.6336 41.4185 78.5373 40.9372 78.9996 41.0527C79.3657 41.1297 79.2501 41.4763 79.1345 41.765C78.9033 42.3425 79.096 42.8431 79.5198 43.2473C79.7895 43.5168 80.0592 43.7478 80.3482 43.9981C80.4831 44.1136 80.6372 44.2484 80.5216 44.4216C80.406 44.5949 80.1748 44.6719 80.0014 44.5179C79.2886 43.9018 78.5758 43.2858 77.863 42.6698C77.7474 42.5735 77.6896 42.4388 77.7859 42.2848C77.8823 42.1115 78.0171 41.9768 78.3061 42.1885Z" fill="#042D41"/>
<path d="M84.8747 39.5129C84.7591 39.8017 84.5665 39.9557 84.2968 39.7054C83.2179 38.7621 82.1391 37.8188 81.0409 36.8563C80.9254 36.7408 80.8868 36.6253 81.0024 36.4905C81.118 36.375 81.2529 36.2018 81.4455 36.3558C82.5629 37.3376 83.6803 38.3386 84.7977 39.3396C84.8555 39.3781 84.8555 39.4359 84.8747 39.5129Z" fill="#042D41"/>
<path d="M159.316 30.5222C159.316 31.8505 158.16 32.9478 156.792 32.9286C155.502 32.9093 154.423 31.7928 154.404 30.4645C154.384 29.1362 155.521 28.0582 156.927 28.0774C158.257 28.0967 159.316 29.1939 159.316 30.5222ZM156.889 28.7512C155.868 28.7704 155.039 29.5597 155.039 30.5222C155.039 31.4655 155.848 32.2741 156.812 32.2548C157.871 32.2356 158.719 31.4078 158.7 30.4067C158.661 29.4057 157.929 28.7319 156.889 28.7512Z" fill="#042D41"/>
<path d="M156.061 34.8922C155.618 34.95 155.271 35.0077 154.924 35.0462C154.732 35.0655 154.597 34.9307 154.597 34.7382C154.597 34.565 154.693 34.4687 154.847 34.4495C156.157 34.2185 157.467 33.9875 158.758 33.7564C158.97 33.7179 159.182 33.8912 159.086 34.0067C158.642 34.5842 159.22 34.873 159.374 35.2773C159.625 35.9318 159.471 36.5478 158.951 37.0098C158.334 37.5681 157.602 37.7799 156.793 37.3948C156.119 37.0868 155.791 36.5286 155.849 35.797C155.887 35.5083 155.984 35.2388 156.061 34.8922ZM157.718 34.565C157.005 34.5457 156.408 35.104 156.388 35.7778C156.369 36.3938 156.87 36.8943 157.544 36.9328C158.238 36.9713 158.912 36.413 158.931 35.797C158.951 35.1618 158.353 34.565 157.718 34.565Z" fill="#042D41"/>
<path d="M156.85 39.8973C156.812 40.3786 156.966 40.6481 157.139 40.9176C157.235 41.0716 157.255 41.2449 157.062 41.3604C156.908 41.4566 156.792 41.3219 156.696 41.2256C156.214 40.7636 156.118 39.7818 156.484 39.1273C156.869 38.4343 157.813 38.0878 158.661 38.338C159.509 38.5883 159.99 39.2043 159.933 40.0513C159.875 40.8791 159.355 41.3411 158.603 41.5529C158.16 41.6876 157.89 41.5529 157.89 41.0331C157.89 40.5711 157.871 40.1091 157.833 39.6663C157.813 39.4353 157.948 39.0695 157.582 39.031C157.255 38.9925 157.101 39.3006 156.966 39.5508C156.889 39.7048 156.869 39.8781 156.85 39.8973ZM158.237 39.9936C158.526 40.2438 158.006 40.8406 158.603 40.8599C159.123 40.8791 159.374 40.4363 159.355 39.9166C159.335 39.4353 159.123 38.9925 158.642 39.031C157.987 39.0503 158.488 39.6663 158.237 39.9936Z" fill="#042D41"/>
<path d="M156.87 52.5068C156.908 53.7003 155.733 54.5088 154.596 54.0853C154.173 53.9313 154.057 53.7196 154.307 53.3153C154.577 52.8725 154.808 52.4105 155.059 51.9677C155.155 51.7945 155.309 51.602 155.136 51.4287C154.982 51.2747 154.751 51.3517 154.558 51.4095C153.961 51.6212 153.73 52.0832 153.749 52.68C153.749 52.911 153.826 53.1998 153.479 53.1613C153.171 53.142 153.19 52.8533 153.171 52.6223C153.113 51.6597 153.941 50.7549 154.905 50.7164C155.829 50.6587 156.85 51.5827 156.87 52.5068ZM155.348 53.5848C155.964 53.5463 156.292 53.1613 156.311 52.5838C156.33 52.2758 156.118 51.7752 155.868 51.8522C155.232 52.0447 155.155 52.757 154.905 53.2768C154.751 53.6041 155.155 53.5271 155.348 53.5848Z" fill="#042D41"/>
<path d="M157.698 47.9246C157.235 47.8284 156.676 47.7129 156.118 47.5589C155.655 47.4434 154.981 47.4241 155.675 46.6926C155.771 46.5963 155.617 46.3076 155.617 46.1151C155.617 45.5183 155.79 44.96 156.33 44.652C156.715 44.4402 157.12 44.5172 157.466 44.7867C157.967 45.191 157.967 45.73 157.813 46.2883C157.813 46.3076 157.794 46.3461 157.794 46.3653C157.813 46.6733 157.293 47.0968 157.755 47.2509C158.314 47.4241 158.487 46.8658 158.622 46.4038C158.642 46.3268 158.622 46.2306 158.642 46.1536C158.719 45.9225 158.449 45.4605 158.892 45.4798C159.297 45.499 159.22 45.9418 159.2 46.2306C159.142 47.3856 158.661 47.9439 157.698 47.9246ZM157.428 46.0573C157.409 45.5953 157.312 45.2295 156.811 45.2295C156.253 45.2295 156.099 45.6723 156.099 46.1151C156.099 46.5963 156.291 47.1161 156.831 47.0969C157.428 47.0583 157.254 46.4038 157.428 46.0573Z" fill="#042D41"/>
<path d="M155.598 48.5215C156.041 48.5215 156.426 48.8102 156.83 48.9065C157.235 49.0028 157.62 49.4455 158.083 48.9643C158.179 48.868 158.41 48.9643 158.41 49.1183C158.41 49.5418 158.68 49.638 158.988 49.7343C159.162 49.792 159.296 49.8883 159.219 50.1193C159.123 50.3503 158.969 50.4466 158.738 50.3311C158.314 50.0808 158.044 50.1386 157.909 50.6583C157.852 50.8701 157.755 51.0626 157.485 50.9856C157.197 50.9086 157.274 50.6776 157.351 50.4851C157.563 50.0231 157.389 49.792 156.927 49.6765C156.619 49.5995 156.33 49.4648 156.041 49.3493C155.617 49.1953 155.231 49.1375 155.097 49.715C155.058 49.8883 155 50.0808 154.769 49.9846C154.576 49.9076 154.538 49.7343 154.557 49.5418C154.673 48.9258 154.942 48.5215 155.598 48.5215Z" fill="#042D41"/>
<path d="M157.024 42.342C157.775 42.419 158.507 42.4767 159.258 42.5537C159.624 42.5922 159.875 42.9772 159.586 43.0735C158.912 43.343 159.374 43.574 159.47 43.8628C159.547 44.0938 159.836 44.421 159.374 44.5558C159.066 44.652 158.95 44.4403 158.892 44.1323C158.757 43.343 158.16 43.0927 157.447 43.0157C157.197 42.9772 156.927 42.9772 156.677 42.958C156.426 42.9387 156.195 42.881 156.234 42.5537C156.272 42.265 156.484 42.3035 156.696 42.3035C156.792 42.3227 156.908 42.3227 157.024 42.342Z" fill="#042D41"/>
<path d="M40.6424 70.5448C39.5058 70.5641 38.6774 69.794 38.6966 68.793C38.7159 67.6957 39.5058 66.8679 40.5076 66.9257C41.413 66.9642 42.1066 67.7727 42.068 68.6583C42.0488 69.0625 41.8561 69.1395 41.5093 69.0818C40.9699 69.024 40.4305 68.9663 39.8718 68.9278C39.6984 68.9085 39.4865 68.87 39.4094 69.0433C39.2938 69.2358 39.4287 69.4283 39.5636 69.6015C39.9489 70.0443 40.4112 70.1406 40.9699 69.9673C41.2204 69.8903 41.5479 69.5438 41.6635 69.9866C41.7598 70.2946 41.3167 70.3716 41.0662 70.4871C40.9121 70.5448 40.7387 70.5448 40.6424 70.5448ZM40.8736 68.6005C41.5093 68.6583 41.5286 68.3695 41.3552 68.023C41.1433 67.5995 40.7773 67.3877 40.2956 67.4455C39.8525 67.5032 39.4865 67.8305 39.4672 68.2155C39.4672 68.6583 39.9489 68.408 40.2186 68.485C40.469 68.562 40.7195 68.5813 40.8736 68.6005Z" fill="#01ABD8"/>
<path d="M44.0329 70.6986C43.9173 70.6794 43.7632 70.6986 43.6476 70.6409C43.3393 70.4869 42.7036 70.5446 42.8577 70.0826C43.0118 69.6013 43.4357 70.1018 43.7246 70.1404C44.1292 70.1981 44.6108 70.3136 44.7457 69.8323C44.8806 69.3318 44.3797 69.2741 44.0329 69.1586C43.8402 69.1008 43.6476 69.0431 43.4742 68.9468C43.0696 68.7736 42.7999 68.4848 42.8577 68.0228C42.9155 67.5608 43.2045 67.2913 43.6283 67.195C43.8788 67.1372 44.1485 67.0987 44.3989 67.1565C44.6879 67.2335 45.2659 67.1565 45.1695 67.5993C45.0925 68.0613 44.6494 67.6763 44.3797 67.657C44.0329 67.6185 43.6283 67.5223 43.5127 67.965C43.3971 68.3885 43.8017 68.4655 44.0907 68.5618C44.2255 68.6003 44.3604 68.6388 44.4952 68.6966C45.0539 68.8891 45.5356 69.1778 45.4007 69.8516C45.2466 70.5446 44.6879 70.6601 44.0329 70.6986Z" fill="#01ABD8"/>
<path d="M36.4233 68.9464C36.4811 68.5999 36.5582 68.1187 36.6545 67.6374C36.7123 67.3486 36.7894 67.0984 36.4619 66.8866C36.2499 66.7326 36.327 66.4631 36.5774 66.4438C37.1939 66.4053 36.7316 65.5006 37.2903 65.5583C37.9453 65.6161 37.3481 66.2706 37.6563 66.5401C37.6948 66.5786 37.7526 66.5979 37.8104 66.6171C38.0031 66.7711 38.5232 66.5786 38.4077 67.0214C38.3113 67.4064 37.9068 67.1561 37.6563 67.1754C37.3866 67.1946 37.3288 67.3486 37.2903 67.5604C37.2325 67.9647 37.1554 68.3497 37.0783 68.7539C37.0013 69.1967 37.0591 69.5625 37.6178 69.6395C37.7526 69.6587 37.926 69.678 37.926 69.8705C37.926 70.1015 37.7334 70.1207 37.56 70.14C36.8472 70.2362 36.4041 69.8127 36.4233 68.9464Z" fill="#01ABD8"/>
<path d="M47.4812 70.4669C46.8647 70.4669 46.5564 70.1203 46.4794 69.5813C46.4216 69.1001 46.3831 68.6188 46.3253 68.1375C46.306 67.9258 46.3638 67.6755 46.0555 67.5793C45.7088 67.4637 45.6702 67.2327 46.017 67.0402C46.3638 66.8477 46.1711 66.5975 46.1711 66.3665C46.1711 66.1355 46.2675 65.9814 46.5179 65.9814C46.7491 65.9814 46.7876 66.174 46.7876 66.3472C46.7684 66.8285 46.9417 67.0402 47.4426 66.944C47.616 66.9055 47.8858 66.8477 47.9243 67.1365C47.9628 67.4252 47.7124 67.4445 47.5004 67.4252C46.961 67.406 46.884 67.6948 46.961 68.1375C47.0188 68.5418 47.0381 68.946 47.0766 69.3311C47.1151 69.6391 47.25 69.8701 47.616 69.8893C47.8087 69.9086 48.1555 69.6968 48.1362 70.1011C48.1169 70.4669 47.7316 70.4091 47.4812 70.4669Z" fill="#01ABD8"/>
<path d="M9.14322 46.0768C8.21848 45.0372 8.10289 44.2672 8.70011 43.5742C9.25881 42.9004 10.3762 42.7079 11.1275 43.1314C11.6862 43.4394 11.9559 43.9207 11.9367 44.5367C11.9174 44.9602 11.6092 45.3645 12.1679 45.711C12.3798 45.8458 12.1486 46.0383 11.9174 46.096C10.5688 46.3848 9.22028 46.6928 7.89097 47.0008C7.71758 47.0393 7.5442 47.0971 7.46713 46.866C7.39007 46.6158 7.50567 46.481 7.73685 46.4233C8.17995 46.3078 8.64232 46.2115 9.14322 46.0768ZM11.4551 44.6137C11.4358 43.9592 10.8964 43.4972 10.1643 43.5164C9.43219 43.5549 8.85424 44.1132 8.89277 44.7677C8.91203 45.3452 9.50926 45.8843 10.1065 45.8843C10.8386 45.8843 11.4743 45.2875 11.4551 44.6137Z" fill="#01ABD8"/>
<path d="M9.1624 31.292C8.79636 31.0033 8.334 31.0225 7.92943 30.8878C7.71751 30.8108 7.54412 30.7145 7.62118 30.4642C7.69824 30.1947 7.91016 30.2525 8.12208 30.3102C9.37432 30.6375 10.6266 30.9455 11.8981 31.2728C12.3219 31.3883 12.5916 31.6 12.0522 31.8888C11.8017 32.0236 11.8981 32.1006 11.9173 32.2546C12.1485 33.3519 11.8981 33.9679 11.0697 34.3144C10.2991 34.6417 9.29726 34.3914 8.79636 33.7561C8.2762 33.0823 8.35326 32.3316 9.02755 31.5038C9.08534 31.4653 9.12387 31.369 9.1624 31.292ZM10.2991 33.8524C11.0119 33.8716 11.5706 33.3711 11.5706 32.7358C11.5706 32.1006 10.9733 31.5423 10.2605 31.523C9.54771 31.5038 9.02755 31.9658 8.98902 32.6396C8.98902 33.3134 9.54771 33.8331 10.2991 33.8524Z" fill="#01ABD8"/>
<path d="M8.98888 42.1493C8.66137 41.9568 7.96781 42.4573 7.94855 41.8413C7.94855 41.3023 8.6421 41.5911 9.02741 41.4948C9.29712 41.4371 9.60537 41.4756 9.89434 41.4371C10.4723 41.3986 10.8191 41.0905 10.7998 40.4938C10.7805 39.897 10.376 39.6083 9.83655 39.589C9.31639 39.5698 8.79622 39.6275 8.29533 39.666C8.06414 39.6853 7.79443 39.743 7.7559 39.4158C7.71737 39.1077 7.96781 39.05 8.21826 39.05C9.0852 39.0115 9.93288 38.9537 10.7998 38.896C11.0117 38.8767 11.3392 38.973 11.2236 39.1462C10.7998 39.7238 11.3778 40.0703 11.4163 40.5323C11.4741 41.2446 11.2429 41.8028 10.4916 41.9568C9.99067 42.0531 9.48977 42.0723 8.98888 42.1493Z" fill="#01ABD8"/>
<path d="M10.8959 36.2013C9.60514 36.0281 8.37216 35.8741 7.13918 35.72C6.88873 35.6815 6.56122 35.72 6.61902 35.335C6.67681 35.0078 6.94653 35.0848 7.17771 35.1233C8.41069 35.2773 9.6244 35.4313 10.8574 35.6045C11.0886 35.643 11.4546 35.566 11.4161 35.9511C11.3968 36.3361 11.0693 36.2013 10.8959 36.2013Z" fill="#01ABD8"/>
<path d="M8.83468 37.1832C9.4897 37.2217 10.164 37.2602 10.819 37.2987C11.0117 37.3179 11.2428 37.2987 11.2621 37.5874C11.2814 37.9339 11.0309 37.9339 10.7805 37.9147C9.97133 37.8762 9.16219 37.8377 8.35305 37.7799C8.1026 37.7607 7.77509 37.7799 7.83288 37.3949C7.87141 37.0677 8.17966 37.1832 8.39158 37.1639C8.52643 37.1639 8.68056 37.1639 8.81541 37.1639C8.83468 37.1639 8.83468 37.1832 8.83468 37.1832Z" fill="#01ABD8"/>
<path d="M111.654 65.3277C111.519 66.0977 110.96 66.81 110.575 67.5993C110.479 67.7918 110.286 67.7918 110.132 67.6763C109.939 67.5607 109.978 67.4067 110.055 67.2335C110.324 66.7137 110.575 66.2132 110.845 65.6934C111.076 65.2507 111.037 64.8464 110.594 64.5769C110.112 64.2881 109.689 64.4421 109.4 64.8849C109.13 65.2892 108.957 65.7512 108.706 66.1747C108.571 66.3865 108.571 66.8485 108.147 66.6367C107.704 66.4057 108.051 66.0977 108.167 65.8282C108.359 65.4047 108.571 65.0004 108.783 64.5961C109.014 64.1534 108.976 63.7299 108.513 63.4796C108.051 63.2293 107.589 63.3448 107.319 63.8069C107.03 64.2689 106.799 64.7694 106.548 65.2507C106.452 65.4432 106.375 65.7319 106.048 65.5779C105.778 65.4432 105.816 65.2314 105.932 65.0004C106.336 64.2304 106.741 63.4796 107.126 62.7096C107.223 62.5171 107.454 62.2668 107.569 62.4401C108.051 63.1908 109.323 62.6711 109.573 63.7491C109.669 64.1534 110.055 63.9416 110.324 63.9416C111.134 63.9801 111.654 64.4614 111.654 65.3277Z" fill="#042D41"/>
<path d="M126.681 70.9099C125.64 70.9099 124.851 70.1398 124.851 69.1388C124.851 68.0993 125.679 67.2715 126.719 67.2715C127.74 67.2715 128.588 68.1378 128.569 69.1581C128.55 70.1206 127.702 70.9099 126.681 70.9099ZM126.796 67.8298C126.141 67.772 125.583 68.2725 125.506 68.9655C125.429 69.6586 125.929 70.2938 126.604 70.3708C127.259 70.4478 127.856 69.8896 127.895 69.1581C127.952 68.542 127.394 67.8683 126.796 67.8298Z" fill="#042D41"/>
<path d="M113.889 68.985C112.848 68.9658 112.001 68.1188 112.039 67.1177C112.078 66.136 112.906 65.3467 113.908 65.3467C114.948 65.3467 115.796 66.213 115.758 67.214C115.719 68.215 114.891 68.985 113.889 68.985ZM113.889 68.446C114.544 68.446 115.122 67.8493 115.122 67.137C115.122 66.4632 114.582 65.9049 113.927 65.8857C113.272 65.8664 112.694 66.5017 112.694 67.1947C112.694 67.8685 113.234 68.4268 113.889 68.446Z" fill="#042D41"/>
<path d="M119.726 67.9265C119.591 68.5618 119.437 69.2741 119.302 69.9671C119.263 70.1981 119.167 70.3521 118.897 70.2944C118.628 70.2366 118.628 70.0441 118.666 69.8131C118.782 69.2741 118.897 68.7351 118.994 68.196C119.09 67.6378 118.917 67.195 118.319 67.0987C117.741 67.0025 117.375 67.3105 117.241 67.8495C117.106 68.3693 116.99 68.9083 116.874 69.4473C116.817 69.6784 116.701 69.8131 116.451 69.7746C116.162 69.7169 116.239 69.5051 116.277 69.2933C116.451 68.4463 116.624 67.5992 116.797 66.7522C116.836 66.5982 116.932 66.2902 117.067 66.3864C117.741 66.8292 118.589 66.2709 119.225 66.7907C119.552 67.0987 119.726 67.426 119.726 67.9265Z" fill="#042D41"/>
<path d="M122.462 69.5823C122.327 69.024 122.963 68.2733 122.211 67.6187C122.134 67.5417 122.616 66.7332 122.943 66.3289C123.059 66.1749 123.329 66.4059 123.29 66.6562C123.213 67.176 123.406 67.407 123.945 67.3877C124.119 67.3685 124.292 67.4647 124.292 67.6765C124.292 67.9075 124.138 67.9845 123.945 67.946C123.348 67.8305 123.175 68.1578 123.213 68.6775C123.232 69.3513 122.635 70.3138 123.984 70.4293C124.022 70.4293 124.099 70.5641 124.099 70.6411C124.099 70.8144 123.964 70.8721 123.83 70.9106C122.982 71.1224 122.443 70.6411 122.462 69.5823Z" fill="#042D41"/>
<path d="M129.571 67.137C130.014 67.9263 130.323 67.0985 130.708 66.983C130.881 66.9252 131.055 66.8867 131.151 67.0985C131.228 67.291 131.228 67.5027 130.978 67.599C129.918 68.0033 129.937 68.831 130.111 69.7358C130.149 69.9283 130.149 70.1401 130.168 70.3326C130.188 70.5443 130.072 70.6599 129.879 70.6599C129.687 70.6599 129.552 70.5636 129.533 70.3711C129.417 69.4278 129.301 68.5038 129.186 67.5605C129.167 67.3102 129.224 67.137 129.571 67.137Z" fill="#042D41"/>
<path d="M120.516 69.9286C120.612 69.1778 120.728 68.35 120.844 67.5222C120.882 67.2527 120.959 67.0602 121.267 67.1372C121.537 67.195 121.499 67.426 121.479 67.6185C121.364 68.4463 121.267 69.2741 121.171 70.1018C121.152 70.3328 121.171 70.6024 120.824 70.5831C120.401 70.5639 120.497 70.2558 120.516 69.9286Z" fill="#042D41"/>
<path d="M42.1055 6.74706C42.2789 6.28505 42.1441 5.84228 42.1826 5.43802C42.2019 5.20701 42.1633 4.9375 42.5101 4.9375C42.7991 4.9375 42.7991 5.16851 42.7991 5.38026C42.8376 6.70856 42.8761 8.01761 42.9147 9.3459C42.9147 9.57691 42.7606 9.96193 42.6257 9.80792C42.067 9.21115 41.7202 9.86567 41.2964 9.92343C40.5258 10.0197 39.9478 9.75017 39.5625 9.05714C39.1772 8.34487 39.2735 7.34383 39.8322 6.80482C40.3909 6.28505 41.0267 6.15029 41.7202 6.51606C41.8551 6.59306 41.9707 6.67006 42.1055 6.74706ZM39.9863 8.11386C39.9863 8.92239 40.4294 9.42291 41.1423 9.40366C41.7588 9.38441 42.2789 8.80689 42.2789 8.13311C42.2789 7.45934 41.7588 6.86257 41.1423 6.84332C40.4487 6.80481 39.9863 7.32458 39.9863 8.11386Z" fill="#01ABD8"/>
<path d="M46.4413 8.692C45.9019 8.63425 45.401 8.5765 44.9194 8.51875C44.746 8.49949 44.5341 8.44174 44.4377 8.59575C44.3222 8.78826 44.4377 9.00001 44.5726 9.15402C45.0157 9.75079 45.5937 9.73154 46.1909 9.50053C46.3643 9.44278 46.5377 9.36578 46.6147 9.59679C46.6918 9.80854 46.5184 9.88555 46.3643 9.9818C45.7863 10.3476 44.8231 10.2128 44.2644 9.69304C43.7057 9.17327 43.5708 8.28774 43.9176 7.53696C44.2644 6.80543 44.8423 6.43967 45.6515 6.55517C46.4606 6.67068 46.8844 7.19045 47.0193 7.99898C47.1349 8.5765 47.0193 8.86526 46.4413 8.692ZM45.6322 8.22998C45.8441 7.97973 46.3643 8.538 46.4221 7.94122C46.4606 7.42146 46.056 7.0942 45.5551 7.05569C45.0542 7.01719 44.5341 7.26745 44.5533 7.76797C44.5919 8.36474 45.2469 8.03748 45.6322 8.22998Z" fill="#01ABD8"/>
<path d="M36.808 6.74742C37.8098 6.76667 38.6382 7.59445 38.6189 8.57624C38.5997 9.57727 37.6749 10.4436 36.6731 10.3858C35.6906 10.3473 34.8815 9.46177 34.9007 8.49923C34.9585 7.51745 35.8062 6.72816 36.808 6.74742ZM35.5365 8.49923C35.5172 9.15376 36.1144 9.82754 36.7502 9.84679C37.386 9.86604 37.9639 9.30776 38.0024 8.65324C38.0217 7.97946 37.4823 7.32494 36.8465 7.26718C36.1144 7.24793 35.5557 7.78696 35.5365 8.49923Z" fill="#01ABD8"/>
<path d="M31.3752 9.42296C31.356 8.19091 32.5312 7.26688 33.6485 7.65189C33.8412 7.70965 34.0916 7.7289 34.0531 8.01766C33.9953 8.34492 33.7449 8.26792 33.5137 8.21016C32.955 8.03691 32.4541 8.19091 32.1651 8.69143C31.8761 9.1727 31.9339 9.69247 32.2614 10.1545C32.7045 10.7898 33.4366 10.809 34.1302 10.2315C34.3036 10.0967 34.4384 9.80797 34.6889 10.0582C34.9393 10.3085 34.6503 10.4817 34.4962 10.6358C33.9375 11.1748 33.2825 11.4058 32.5119 11.0978C31.8183 10.8283 31.3752 10.193 31.3752 9.42296Z" fill="#01ABD8"/>
<path d="M122.924 6.68934C123.02 6.26582 122.885 5.84231 122.828 5.43804C122.789 5.20703 122.847 5.03378 123.117 5.01452C123.328 4.99527 123.425 5.13003 123.444 5.32254C123.656 6.70859 123.849 8.11389 124.061 9.49995C124.118 9.88496 123.81 10.0197 123.598 9.84646C123.309 9.5962 123.213 9.6347 122.943 9.84646C122.269 10.3855 121.498 10.3277 120.901 9.76946C120.304 9.23044 120.13 8.09464 120.516 7.38237C120.882 6.70859 121.614 6.41983 122.423 6.63159C122.558 6.67009 122.693 6.70859 122.828 6.72784C122.847 6.72784 122.866 6.70859 122.924 6.68934ZM120.92 8.32565C120.94 9.09568 121.46 9.6347 122.134 9.61545C122.789 9.5962 123.29 9.01868 123.251 8.3449C123.213 7.65188 122.635 7.0936 121.98 7.11285C121.344 7.1321 120.92 7.63262 120.92 8.32565Z" fill="#042D41"/>
<path d="M129.379 9.51928C129.34 9.82729 129.321 10.1738 129.282 10.5011C129.263 10.7321 129.167 10.9053 128.916 10.8668C128.704 10.8476 128.627 10.6743 128.646 10.4818C128.781 9.17276 128.916 7.84446 129.07 6.53541C129.09 6.36216 129.301 6.2274 129.359 6.30441C129.879 6.99743 130.438 6.26591 130.958 6.36216C131.71 6.49691 132.23 6.92043 132.403 7.65196C132.596 8.47974 132.403 9.23052 131.71 9.73104C131.093 10.1546 130.419 10.1738 129.783 9.67328C129.687 9.61553 129.61 9.46153 129.379 9.51928ZM130.65 9.44228C131.324 9.46153 131.787 8.96101 131.806 8.21023C131.825 7.45945 131.382 6.93968 130.708 6.93968C130.072 6.93968 129.552 7.4787 129.533 8.17173C129.494 8.90325 129.976 9.44228 130.65 9.44228Z" fill="#042D41"/>
<path d="M126.507 9.84647C125.524 9.82722 124.773 9.09569 124.715 8.13316C124.638 7.17062 125.274 6.30434 126.16 6.15034C126.989 6.01558 127.779 6.5931 128.01 7.47864C128.164 8.03691 127.99 8.21016 127.432 8.19091C126.969 8.17166 126.507 8.21016 126.045 8.22941C125.852 8.24866 125.582 8.21016 125.505 8.42192C125.428 8.65293 125.621 8.86469 125.794 8.99944C126.276 9.3652 126.757 9.2882 127.258 9.03794C127.412 8.96094 127.624 8.74918 127.759 9.03794C127.875 9.26895 127.663 9.40371 127.509 9.51921C127.201 9.75022 126.835 9.82722 126.507 9.84647ZM126.353 7.82515C126.68 7.65189 127.297 8.07541 127.335 7.49789C127.374 7.03587 126.892 6.68936 126.391 6.67011C125.833 6.65086 125.37 6.99737 125.428 7.53639C125.467 8.09466 126.045 7.65189 126.353 7.82515Z" fill="#042D41"/>
<path d="M136.698 11.3096C135.619 11.3288 134.753 10.5203 134.772 9.51929C134.791 8.499 135.581 7.69048 136.563 7.67123C137.604 7.65198 138.49 8.47975 138.49 9.48079C138.509 10.5011 137.7 11.3096 136.698 11.3096ZM137.835 9.50004C137.854 8.80702 137.353 8.268 136.679 8.24875C136.024 8.2295 135.446 8.80701 135.427 9.51929C135.408 10.1738 135.928 10.7513 136.583 10.7898C137.218 10.8091 137.816 10.1931 137.835 9.50004Z" fill="#042D41"/>
<path d="M139.954 11.9071C140.667 11.2718 141.226 10.752 141.784 10.213C141.996 10.0205 142.208 9.84723 142.439 10.0975C142.786 10.444 142.324 10.521 142.189 10.6558C141.361 11.4258 140.532 12.1766 139.685 12.9081C139.145 13.3894 138.567 13.4856 137.97 12.9851C137.835 12.8696 137.739 12.7156 137.854 12.5423C137.97 12.3498 138.124 12.4268 138.297 12.5038C139.126 12.8311 139.318 12.7156 139.357 11.8493C139.396 10.983 139.396 10.1167 139.434 9.26971C139.434 9.05795 139.338 8.74994 139.723 8.78844C139.993 8.8077 140.089 9.0387 140.07 9.30821C140.051 10.0975 140.012 10.906 139.954 11.9071Z" fill="#042D41"/>
<path d="M133 10.0783C133.327 8.57671 133.597 7.24842 133.886 5.93937C133.944 5.70836 134.04 5.55436 134.29 5.63136C134.541 5.70836 134.56 5.90087 134.522 6.11263C134.233 7.42167 133.944 8.73072 133.655 10.059C133.616 10.2708 133.558 10.4633 133.269 10.4248C132.961 10.3478 133 10.1168 133 10.0783Z" fill="#042D41"/>
<path d="M65.918 21.436C65.7254 21.7247 65.5327 22.0135 65.3208 22.283C65.1667 22.4755 64.9548 22.4948 64.8007 22.3215C64.6465 22.1675 64.7429 22.0135 64.8777 21.8787C65.7639 21.0125 66.6501 20.1462 67.5556 19.2991C67.9023 18.9719 68.2299 18.9526 68.1528 19.5494C68.1143 19.8382 68.2106 19.7804 68.3647 19.8382C69.4243 20.2232 69.8481 20.8584 69.6747 21.744C69.5206 22.5718 68.6537 23.2648 67.8253 23.284C66.9006 23.284 66.4189 22.8028 66.1877 21.6477C66.0914 21.5707 65.9951 21.513 65.918 21.436ZM66.6116 21.4745C66.5538 22.0712 67.0739 22.668 67.6904 22.7065C68.3262 22.745 69.039 22.1097 69.0968 21.436C69.1546 20.8007 68.6922 20.2809 68.0179 20.2424C67.3244 20.2039 66.6886 20.7429 66.6116 21.4745Z" fill="#01ABD8"/>
<path d="M71.023 24.612C71.6202 24.612 71.9477 25.0741 72.333 25.4591C72.4679 25.5938 72.5257 25.9596 72.8339 25.7478C73.0651 25.5746 73.0651 25.2858 72.9688 25.0356C72.8339 24.6313 72.4872 24.4003 72.1404 24.1885C71.9863 24.0923 71.8514 23.9575 71.967 23.765C72.0826 23.5725 72.256 23.6687 72.4294 23.7457C73.7587 24.2848 73.9899 25.5553 72.9303 26.5371C72.6991 26.7489 72.4679 26.9799 72.2367 27.1916C71.7358 27.6729 71.7936 27.6344 71.312 27.1339C71.0615 26.8836 70.6184 26.8836 70.3487 26.5949C70.0019 26.2099 69.7322 25.8056 69.9441 25.2858C70.156 24.843 70.4836 24.5735 71.023 24.612ZM72.3138 26.2099C72.0441 25.7478 71.7936 25.2473 71.1771 25.1511C70.8111 25.0933 70.5606 25.2666 70.5221 25.6516C70.4643 26.1328 71.0037 26.7104 71.5624 26.7104C71.8899 26.7104 72.1596 26.5949 72.3138 26.2099Z" fill="#01ABD8"/>
<path d="M76.4558 28.3471C76.4751 28.6166 76.321 28.9246 76.0705 29.1749C75.6467 29.5984 75.2036 30.0026 74.7605 30.4454C74.5871 30.6187 74.4137 30.7919 74.1825 30.5417C73.9321 30.2722 74.2018 30.1374 74.3559 29.9834C74.7412 29.5984 75.1265 29.2134 75.5118 28.8283C75.8779 28.4626 75.8779 28.0391 75.5504 27.6733C75.2036 27.2883 74.722 27.2113 74.2981 27.5385C73.8743 27.8658 73.489 28.2701 73.1037 28.6551C72.911 28.8283 72.7569 29.0979 72.4872 28.8091C72.2367 28.5588 72.4872 28.4048 72.6413 28.2508C73.2385 27.6733 73.8358 27.0958 74.433 26.499C74.7798 26.1717 75.088 26.1332 75.1073 26.6723C75.1073 27.0765 75.3962 26.961 75.5504 27.038C76.1091 27.2498 76.4558 27.6155 76.4558 28.3471Z" fill="#01ABD8"/>
<path d="M72.2951 21.532C72.2951 21.8015 72.1217 21.917 71.9676 22.0325C71.0621 22.8988 70.1567 23.7843 69.232 24.6506C69.0971 24.7854 68.9815 25.0356 68.7503 24.8239C68.5191 24.6121 68.6347 24.4196 68.8274 24.2271C69.7906 23.2838 70.7539 22.3405 71.7172 21.3972C71.9869 21.1662 72.1603 21.2432 72.2951 21.532Z" fill="#01ABD8"/>
<path d="M81.9851 39.8012C81.6191 40.321 81.2916 40.8407 80.7714 41.1295C80.5017 41.2835 80.4054 40.86 80.3476 40.629C80.232 40.0899 80.6751 39.5317 81.2338 39.4932C81.5227 39.4932 81.7925 39.5124 81.9851 39.8012Z" fill="#01ABD8"/>
<path d="M89.094 33.8336C88.9206 34.4689 88.7087 34.9309 88.0344 34.8732C87.6491 34.8347 87.4757 34.5459 87.572 34.1802C87.7069 33.6604 88.0344 33.1791 88.5931 33.1406C88.9784 33.1406 89.094 33.5449 89.094 33.8336Z" fill="#01ABD8"/>
<path d="M85.6654 35.4502C85.6846 35.6812 84.7021 36.8555 84.5287 36.8747C84.3938 36.894 84.3168 36.817 84.259 36.7207C84.0278 36.2972 84.0471 35.8929 84.3553 35.5272C84.6636 35.1807 85.0296 35.1229 85.4534 35.2769C85.5498 35.3154 85.6268 35.4117 85.6654 35.4502Z" fill="#01ABD8"/>
<path d="M92.2916 26.9414C92.5613 26.9799 92.831 26.9799 92.9466 27.2879C92.9852 27.4227 91.8485 28.7317 91.7329 28.674C91.4054 28.5585 91.3861 28.2697 91.3669 27.9809C91.3476 27.3457 91.7522 27.0762 92.2916 26.9414Z" fill="#01ABD8"/>
<path d="M156.888 28.7514C157.929 28.7321 158.661 29.4059 158.68 30.4262C158.699 31.408 157.852 32.255 156.792 32.2743C155.848 32.2935 155.02 31.485 155.02 30.5417C155.039 29.5599 155.867 28.7706 156.888 28.7514Z" fill="#01ABD8"/>
<path d="M157.718 34.565C158.353 34.5842 158.951 35.1617 158.931 35.7777C158.912 36.3938 158.238 36.952 157.544 36.9135C156.87 36.875 156.369 36.3938 156.388 35.7585C156.407 35.0847 157.005 34.5457 157.718 34.565Z" fill="#01ABD8"/>
<path d="M158.237 39.9934C158.488 39.6662 157.987 39.0501 158.642 39.0309C159.123 39.0116 159.355 39.4544 159.355 39.9164C159.374 40.4362 159.104 40.8982 158.603 40.8597C158.006 40.8405 158.526 40.2437 158.237 39.9934Z" fill="#01ABD8"/>
<path d="M155.347 53.5843C155.155 53.5265 154.75 53.6228 154.904 53.2763C155.155 52.7565 155.232 52.0442 155.868 51.8517C156.137 51.7747 156.33 52.2752 156.311 52.5832C156.291 53.1608 155.983 53.5458 155.347 53.5843Z" fill="#01ABD8"/>
<path d="M157.428 46.0573C157.255 46.4038 157.428 47.0583 156.831 47.0968C156.291 47.1353 156.099 46.5963 156.099 46.115C156.099 45.6723 156.272 45.2295 156.811 45.2295C157.293 45.2295 157.389 45.5953 157.428 46.0573Z" fill="#01ABD8"/>
<path d="M40.8727 68.6007C40.7379 68.5814 40.4682 68.5622 40.2177 68.5044C39.948 68.4274 39.4471 68.6777 39.4664 68.2349C39.4664 67.8499 39.8517 67.5226 40.2948 67.4649C40.7764 67.3879 41.1424 67.6189 41.3544 68.0424C41.5085 68.3697 41.4892 68.6584 40.8727 68.6007Z" fill="#042D41"/>
<path d="M11.4553 44.6142C11.4746 45.2879 10.8388 45.9039 10.1068 45.8847C9.50954 45.8847 8.91231 45.3457 8.89305 44.7682C8.87378 44.1137 9.45174 43.5554 10.1646 43.5169C10.8966 43.4784 11.4553 43.9404 11.4553 44.6142Z" fill="#042D41"/>
<path d="M10.2991 33.8524C9.54772 33.8331 8.98903 33.2941 9.0083 32.6396C9.02756 31.9658 9.54772 31.5038 10.2798 31.523C10.9926 31.5423 11.5898 32.1006 11.5898 32.7358C11.5706 33.3711 10.9926 33.8716 10.2991 33.8524Z" fill="#042D41"/>
<path d="M126.796 67.8297C127.393 67.8682 127.952 68.542 127.913 69.158C127.875 69.8895 127.278 70.4285 126.623 70.3708C125.948 70.2938 125.447 69.6585 125.524 68.9655C125.601 68.2725 126.16 67.772 126.796 67.8297Z" fill="#01ABD8"/>
<path d="M113.889 68.4465C113.234 68.4465 112.714 67.869 112.694 67.1952C112.694 66.5022 113.292 65.8669 113.927 65.8862C114.563 65.9054 115.122 66.4637 115.122 67.1375C115.102 67.8497 114.544 68.4465 113.889 68.4465Z" fill="#01ABD8"/>
<path d="M39.9863 8.11435C39.9863 7.32507 40.4487 6.8053 41.1615 6.8438C41.778 6.86305 42.2982 7.47907 42.2982 8.13359C42.2982 8.80737 41.778 9.38489 41.1615 9.40414C40.4294 9.42339 39.9863 8.92287 39.9863 8.11435Z" fill="#042D41"/>
<path d="M45.6321 8.22992C45.2275 8.03741 44.5918 8.36468 44.5533 7.7679C44.534 7.26738 45.0542 7.01712 45.5551 7.05562C46.056 7.09412 46.4605 7.40213 46.422 7.94116C46.3642 8.53793 45.844 7.96041 45.6321 8.22992Z" fill="#042D41"/>
<path d="M35.5369 8.49926C35.5561 7.76773 36.1341 7.22871 36.8276 7.28647C37.4634 7.32497 38.0221 7.97949 37.9836 8.67252C37.9643 9.32705 37.3671 9.88532 36.7313 9.86607C36.1148 9.82757 35.4983 9.15379 35.5369 8.49926Z" fill="#042D41"/>
<path d="M120.921 8.32656C120.901 7.63353 121.344 7.13302 121.98 7.11376C122.635 7.09451 123.232 7.65278 123.252 8.34581C123.29 9.01958 122.77 9.57785 122.134 9.61635C121.46 9.6356 120.94 9.07733 120.921 8.32656Z" fill="#01ABD8"/>
<path d="M130.649 9.4433C129.975 9.42405 129.493 8.90428 129.512 8.192C129.532 7.47973 130.052 6.95996 130.687 6.95996C131.362 6.95996 131.805 7.47973 131.786 8.2305C131.786 8.98128 131.323 9.46255 130.649 9.4433Z" fill="#01ABD8"/>
<path d="M126.354 7.82569C126.045 7.65244 125.487 8.0952 125.429 7.53693C125.39 7.01716 125.853 6.6514 126.392 6.67065C126.893 6.6899 127.375 7.01716 127.336 7.49843C127.278 8.07595 126.681 7.65244 126.354 7.82569Z" fill="#01ABD8"/>
<path d="M137.835 9.4998C137.816 10.2121 137.218 10.8088 136.583 10.7896C135.928 10.7511 135.388 10.1736 135.427 9.51905C135.465 8.80678 136.043 8.22926 136.679 8.24851C137.373 8.26777 137.854 8.80678 137.835 9.4998Z" fill="#01ABD8"/>
<path d="M66.6114 21.4751C66.6692 20.7629 67.3242 20.2046 68.0178 20.2431C68.692 20.2816 69.1544 20.8014 69.0966 21.4366C69.0388 22.1104 68.326 22.7457 67.6902 22.7072C67.093 22.6687 66.5729 22.0719 66.6114 21.4751Z" fill="#042D41"/>
<path d="M72.3144 26.2103C72.1795 26.5953 71.8905 26.73 71.563 26.7108C71.0236 26.7108 70.4649 26.1333 70.5227 25.652C70.5805 25.267 70.8117 25.0937 71.1777 25.1515C71.7942 25.2477 72.0446 25.7483 72.3144 26.2103Z" fill="#042D41"/>
</svg>
