<svg width="64" height="70" viewBox="0 0 64 70" fill="none" xmlns="http://www.w3.org/2000/svg">
<path d="M57.6405 33.5037C58.2958 33.5037 58.8887 33.4959 59.4738 33.5037C61.8064 33.5504 63.2963 35.1999 63.2963 37.7285C63.2963 46.7229 63.2963 55.7094 63.2963 64.7037C63.2963 67.4036 61.8141 69.0142 59.3177 69.0142C41.734 69.0142 24.1502 69.0142 6.56642 69.0142C4.92818 69.0142 3.28995 69.0142 1.65171 69.0142C0.676569 69.0142 0.341125 68.664 0.341125 67.6292C0.341125 45.7503 0.341125 23.8714 0.341125 1.99246C0.341125 0.996545 0.684379 0.630859 1.61272 0.630859C15.6314 0.630859 29.65 0.630859 43.6687 0.630859C44.6672 0.630859 44.9792 0.980985 44.9792 2.07804C44.9792 11.2669 44.9792 20.4635 44.9792 29.6523C44.9792 29.9169 44.9792 30.1814 44.9792 30.4693C46.4146 30.8505 47.0075 31.8854 46.9373 33.4492C48.599 33.4492 50.2294 33.4492 51.8443 33.4492C51.8599 33.4103 51.8754 33.3948 51.8832 33.3714C52.2031 30.7805 53.9194 29.6912 56.2129 30.656C57.3519 31.1384 57.7029 32.1499 57.6405 33.5037ZM2.35383 2.80163C2.35383 24.1826 2.35383 45.5091 2.35383 66.8278C10.1472 66.8278 17.9015 66.8278 25.609 66.8278C25.531 66.1976 25.3906 65.6141 25.3906 65.0227C25.375 55.8339 25.375 46.6451 25.3828 37.4484C25.3828 35.4411 26.5842 33.9239 28.4096 33.6049C29.0649 33.4881 29.7436 33.4959 30.4535 33.4492C30.4613 33.2859 30.4691 33.138 30.4769 32.9902C30.5315 31.473 31.3741 30.5549 32.7627 30.5082C33.1528 30.4926 33.5428 30.4926 33.9329 30.5082C35.2981 30.5549 36.125 31.4419 36.2186 32.9279C36.2264 33.0991 36.242 33.2703 36.2576 33.457C37.9193 33.457 39.5419 33.457 41.2035 33.457C41.1255 31.9476 41.6794 30.9283 42.9822 30.5082C42.9822 21.2493 42.9822 12.0449 42.9822 2.80163C29.4238 2.80163 15.9122 2.80163 2.35383 2.80163ZM27.3487 43.4006C27.3487 43.6729 27.3487 43.9063 27.3487 44.1475C27.3487 51.0022 27.3487 57.8491 27.3487 64.7037C27.3487 66.182 27.965 66.8667 29.3302 66.8667C39.3469 66.8667 49.3635 66.8667 59.3802 66.8667C60.7064 66.8667 61.3305 66.1743 61.3305 64.7426C61.3305 57.8646 61.3305 50.9944 61.3305 44.1164C61.3305 43.883 61.3305 43.6418 61.3305 43.4006C49.972 43.4006 38.6915 43.4006 27.3487 43.4006ZM57.7653 35.6667C57.6327 36.5381 57.6171 37.4018 57.3596 38.1643C57.071 39.0201 56.3377 39.4325 55.4952 39.4558C54.6058 39.4792 53.6853 39.6348 52.8662 39.0435C51.7194 38.2187 51.9534 36.8805 51.891 35.69C50.1826 35.69 48.5756 35.69 47.0544 35.69C46.9139 36.5692 46.8905 37.4407 46.6175 38.2032C46.3054 39.0824 45.5409 39.4636 44.675 39.4714C43.7856 39.4792 42.8729 39.6348 42.0694 38.989C41.0163 38.1409 41.2191 36.8727 41.1567 35.69C39.495 35.69 37.888 35.69 36.2029 35.69C36.281 37.534 36.1562 39.2769 33.9796 39.4636C33.1137 39.5336 32.2166 39.6348 31.4208 39.0435C30.2819 38.2032 30.5081 36.8805 30.4379 35.6667C29.8918 35.6667 29.4238 35.6356 28.9558 35.6745C28.1522 35.7445 27.4423 36.258 27.411 36.9505C27.3408 38.3588 27.3877 39.7748 27.3877 41.1909C38.715 41.1909 49.9954 41.1909 61.3227 41.1909C61.3227 39.9771 61.3227 38.8023 61.3227 37.6274C61.3227 36.507 60.7922 35.799 59.7781 35.69C59.0994 35.6045 58.3972 35.6667 57.7653 35.6667ZM34.237 35.0053C34.237 34.6474 34.2449 34.2973 34.237 33.9394C34.2136 32.4922 34.4711 32.6556 32.9655 32.6323C32.5598 32.6245 32.435 32.7957 32.4428 33.2236C32.4662 34.1573 32.4429 35.0909 32.4507 36.0168C32.4663 37.4484 32.201 37.3084 33.7222 37.3317C34.1357 37.3395 34.2605 37.145 34.2527 36.7326C34.2293 36.1569 34.237 35.5811 34.237 35.0053ZM44.9559 35.0287C44.9559 34.6708 44.9637 34.3207 44.9559 33.9628C44.9325 32.5 45.2133 32.6634 43.6998 32.6323C43.2552 32.6245 43.1382 32.8346 43.1538 33.2703C43.1772 34.1806 43.1538 35.0909 43.1616 36.0013C43.1772 37.4718 42.9041 37.324 44.4799 37.3317C44.8622 37.3317 44.9714 37.1372 44.9636 36.756C44.948 36.1802 44.9559 35.6045 44.9559 35.0287ZM53.8882 34.9509C53.8882 35.3244 53.8882 35.7056 53.8882 36.0791C53.9038 37.4874 53.7244 37.2928 55.0896 37.3317C55.5576 37.3473 55.6903 37.145 55.6747 36.6626C55.6435 35.7523 55.6825 34.842 55.6669 33.9316C55.6435 32.4922 55.9633 32.6478 54.4031 32.6245C53.9896 32.6167 53.8648 32.7957 53.8804 33.2158C53.9038 33.7994 53.8882 34.3751 53.8882 34.9509Z" fill="white"/>
<path d="M15.3898 14.8926C16.8174 13.4921 18.2528 12.076 19.6882 10.6522C20.4762 9.87415 21.0144 9.78078 21.4746 10.3565C21.9193 10.909 21.8335 11.5547 21.0144 12.2005C19.9924 12.9941 19.6258 13.9589 19.735 15.305C19.8442 16.6744 19.7662 18.0593 19.7584 19.4442C19.7584 20.4012 19.4073 20.7903 18.5336 20.7903C14.8826 20.798 11.2396 20.798 7.58861 20.7903C6.71488 20.7903 6.36382 20.4012 6.36382 19.4442C6.35602 15.7951 6.35602 12.1461 6.36382 8.49699C6.36382 7.57888 6.72264 7.17429 7.54957 7.17429C11.2395 7.16651 14.9295 7.16651 18.6195 7.17429C19.3294 7.17429 19.774 7.62557 19.7584 8.27135C19.7428 8.8938 19.3138 9.2906 18.6273 9.30616C18.4869 9.31394 18.3386 9.30616 18.1982 9.30616C15.1635 9.30616 12.1288 9.30616 9.10199 9.30616C8.87576 9.30616 8.65739 9.30616 8.38435 9.30616C8.38435 12.4184 8.38435 15.4995 8.38435 18.6117C11.497 18.6117 14.6018 18.6117 17.7535 18.6117C17.7535 17.6002 17.7535 16.5965 17.7535 15.4528C17.1918 16.0052 16.6848 16.5032 16.1777 17.0011C15.499 17.6625 15.0699 17.6547 14.4303 16.97C13.7984 16.3009 13.182 15.624 12.558 14.9393C12.0041 14.3324 11.9417 13.7177 12.3629 13.2431C12.8154 12.7452 13.3614 12.8152 13.9621 13.4532C14.3834 13.9045 14.8046 14.3635 15.2337 14.8148C15.2649 14.8537 15.304 14.8537 15.3898 14.8926Z" fill="white"/>
<path d="M8.36066 30.1502C8.36066 33.3013 8.36066 36.3435 8.36066 39.4401C11.4889 39.4401 14.5938 39.4401 17.7454 39.4401C17.7454 38.4598 17.7454 37.4483 17.7454 36.2968C17.2306 36.8025 16.7625 37.2616 16.2866 37.7284C15.4675 38.5376 15.1008 38.5298 14.3129 37.6817C13.7044 37.0204 13.0881 36.3668 12.4874 35.6977C11.9881 35.1375 11.957 34.4995 12.3861 34.056C12.8151 33.6125 13.3455 33.6514 13.8526 34.1805C14.3363 34.694 14.7966 35.2231 15.3115 35.7911C16.1618 34.9508 16.9809 34.1571 17.7922 33.3557C18.5021 32.6555 19.212 31.9397 19.9297 31.2472C20.4836 30.7104 21.0375 30.6948 21.451 31.1772C21.8566 31.6596 21.7941 32.2665 21.2637 32.8189C21.2481 32.8344 21.2325 32.85 21.2169 32.8656C19.8907 33.7137 19.5786 34.9974 19.7269 36.5925C19.8439 37.8296 19.7581 39.0822 19.7503 40.3271C19.7425 41.2375 19.3914 41.6343 18.5567 41.6343C14.8902 41.642 11.2236 41.642 7.54931 41.6343C6.71459 41.6343 6.35577 41.2374 6.35577 40.3193C6.34796 36.6469 6.34796 32.9745 6.35577 29.3021C6.35577 28.4307 6.72245 28.0261 7.51036 28.0183C11.2003 28.0105 14.8902 28.0105 18.5723 28.0183C19.29 28.0183 19.7347 28.4462 19.7425 29.0842C19.7425 29.73 19.2978 30.1502 18.5801 30.1502C15.4051 30.1579 12.23 30.1502 9.05497 30.1502C8.85214 30.1502 8.6259 30.1502 8.36066 30.1502Z" fill="white"/>
<path d="M8.36079 50.9869C8.36079 54.138 8.36079 57.188 8.36079 60.2768C11.489 60.2768 14.5939 60.2768 17.7456 60.2768C17.7456 59.2887 17.7456 58.2772 17.7456 57.1335C17.2307 57.6392 16.7548 58.0983 16.2868 58.5651C15.4677 59.3743 15.1088 59.3665 14.3131 58.5107C13.689 57.8337 13.0571 57.1646 12.4486 56.4799C11.9805 55.9586 11.9727 55.3206 12.3939 54.8849C12.8074 54.457 13.3457 54.4725 13.8138 54.9705C14.3131 55.4918 14.7811 56.052 15.3038 56.6355C16.3258 55.6318 17.2931 54.6826 18.2604 53.7334C18.8377 53.1654 19.4072 52.5897 19.9923 52.0295C20.5072 51.5393 21.0688 51.5393 21.4667 52.0139C21.8645 52.4807 21.8022 53.0876 21.3185 53.6089C21.2873 53.64 21.2639 53.6789 21.2249 53.6945C19.9221 54.527 19.5944 55.7797 19.7426 57.3513C19.8597 58.604 19.7739 59.8878 19.7661 61.156C19.7583 62.0664 19.4072 62.4554 18.5647 62.4554C14.8981 62.4632 11.2316 62.4632 7.56505 62.4554C6.73813 62.4554 6.37926 62.0508 6.37926 61.1405C6.37146 57.4914 6.37146 53.8423 6.37926 50.1932C6.37926 49.2362 6.73037 48.8472 7.6041 48.8472C11.255 48.8394 14.8981 48.8472 18.549 48.8472C19.3213 48.8472 19.7739 49.2518 19.7739 49.9209C19.7739 50.5823 19.3213 50.9869 18.549 50.9869C15.3974 50.9869 12.2379 50.9869 9.08624 50.9869C8.8444 50.9869 8.62602 50.9869 8.36079 50.9869Z" fill="white"/>
<path d="M32.7083 9.32178C30.68 9.32178 28.6517 9.32178 26.6234 9.32178C25.8277 9.32178 25.3986 8.95609 25.383 8.28697C25.3674 7.58672 25.812 7.18991 26.6311 7.18213C30.7033 7.18213 34.7834 7.18213 38.8556 7.18213C39.6435 7.18213 40.0881 7.56337 40.1037 8.22472C40.1193 8.92497 39.6747 9.32178 38.8556 9.32178C36.8039 9.32178 34.76 9.32178 32.7083 9.32178Z" fill="white"/>
<path d="M32.8016 12.9163C34.8455 12.9163 36.8972 12.9085 38.9411 12.9163C39.6276 12.9163 40.0254 13.2509 40.0879 13.85C40.1659 14.5424 39.7291 15.0482 39.0036 15.0482C37.2873 15.0637 35.5632 15.056 33.8469 15.056C31.413 15.056 28.9712 15.056 26.5373 15.056C25.8508 15.056 25.4529 14.7214 25.3905 14.1223C25.3125 13.4065 25.7572 12.9241 26.5295 12.9163C28.628 12.9085 30.7187 12.9163 32.8016 12.9163Z" fill="white"/>
<path d="M50.2371 50.4421C50.2371 49.5551 50.2215 48.6603 50.2449 47.7733C50.2605 47.0498 50.596 46.6452 51.2669 46.6374C52.9051 46.614 54.5432 46.614 56.1815 46.6374C56.8758 46.6452 57.2347 47.0575 57.2425 47.82C57.2581 49.5551 57.2581 51.2902 57.2425 53.0252C57.2347 53.8266 56.8758 54.2234 56.1347 54.2312C54.5355 54.2546 52.9363 54.2546 51.337 54.2312C50.5569 54.2234 50.237 53.8344 50.2292 52.9785C50.2292 52.1382 50.2371 51.2902 50.2371 50.4421ZM52.2342 48.8004C52.2342 49.913 52.2342 50.9712 52.2342 52.0993C53.1625 52.0993 54.0518 52.1149 54.9411 52.0838C55.0581 52.0838 55.2532 51.8659 55.261 51.7414C55.2844 50.7766 55.2766 49.8041 55.2766 48.7926C54.2391 48.8004 53.2717 48.8004 52.2342 48.8004Z" fill="white"/>
<path d="M31.4366 50.4263C31.4366 49.586 31.4288 48.7379 31.4366 47.8976C31.4444 47.0418 31.7721 46.6449 32.5366 46.6372C34.128 46.6216 35.7273 46.6216 37.3187 46.6372C38.0832 46.6449 38.4342 47.0495 38.442 47.8821C38.4498 49.5938 38.4498 51.3055 38.442 53.0094C38.4342 53.8108 38.091 54.2232 37.3655 54.231C35.7506 54.2543 34.1358 54.2543 32.521 54.231C31.7877 54.2232 31.4444 53.8186 31.4366 53.0172C31.4288 52.1614 31.4366 51.2899 31.4366 50.4263ZM33.4649 48.7924C33.4649 49.9128 33.4649 50.9865 33.4649 52.0524C34.4868 52.0524 35.4621 52.0524 36.4606 52.0524C36.4606 50.9476 36.4606 49.8894 36.4606 48.7924C35.4543 48.7924 34.479 48.7924 33.4649 48.7924Z" fill="white"/>
<path d="M40.7512 50.4263C40.7512 49.5548 40.7356 48.6912 40.759 47.8198C40.7746 47.0184 41.1178 46.6371 41.8667 46.6293C43.4659 46.6138 45.0652 46.6138 46.6645 46.6293C47.3978 46.6371 47.7566 47.0262 47.7644 47.8353C47.7801 49.5704 47.7801 51.3055 47.7644 53.0405C47.7566 53.8419 47.3978 54.2232 46.6488 54.231C45.0496 54.2465 43.4503 54.2543 41.8511 54.231C41.1022 54.2232 40.7746 53.8419 40.759 53.025C40.7356 52.1613 40.7512 51.2977 40.7512 50.4263ZM45.7907 52.068C45.7907 51.0331 45.8063 50.0839 45.7751 49.1347C45.7751 49.0024 45.5801 48.7768 45.4708 48.7768C44.5737 48.7457 43.6766 48.7612 42.7717 48.7612C42.7717 49.9127 42.7717 50.9865 42.7717 52.0757C43.7858 52.068 44.7376 52.068 45.7907 52.068Z" fill="white"/>
<path d="M53.7713 63.591C52.9755 63.591 52.1721 63.6066 51.3763 63.591C50.5884 63.5755 50.2451 63.2098 50.2451 62.3695C50.2373 60.6578 50.2373 58.9383 50.2451 57.2265C50.2529 56.3785 50.5884 55.9972 51.3685 55.9894C52.9444 55.9661 54.528 55.9661 56.1038 55.9894C56.9073 55.9972 57.2506 56.4018 57.2584 57.2888C57.2662 58.9616 57.2662 60.6266 57.2584 62.2995C57.2506 63.2176 56.9074 63.5833 56.057 63.5988C55.2847 63.5988 54.528 63.591 53.7713 63.591ZM52.2423 58.1602C52.2423 59.2884 52.2423 60.3388 52.2423 61.4203C53.2642 61.4203 54.2549 61.4203 55.2457 61.4203C55.2457 60.3154 55.2457 59.2573 55.2457 58.1602C54.2315 58.1602 53.2642 58.1602 52.2423 58.1602Z" fill="white"/>
<path d="M31.4366 59.7552C31.4366 58.9149 31.4288 58.0668 31.4366 57.2265C31.4444 56.4096 31.7643 55.9972 32.4976 55.9894C34.1358 55.9661 35.7663 55.9661 37.4045 55.9894C38.0988 56.005 38.442 56.4251 38.442 57.1876C38.4576 58.9227 38.4576 60.65 38.442 62.3851C38.4342 63.1787 38.0754 63.5755 37.3421 63.5833C35.7507 63.5988 34.1515 63.5988 32.56 63.5833C31.7799 63.5755 31.4444 63.1942 31.4366 62.3539C31.4288 61.4903 31.4366 60.6266 31.4366 59.7552ZM33.4416 58.1524C33.4416 59.2728 33.4416 60.3388 33.4416 61.4125C34.4635 61.4125 35.4543 61.4125 36.4528 61.4125C36.4528 60.2999 36.4528 59.2417 36.4528 58.1524C35.4387 58.1524 34.4635 58.1524 33.4416 58.1524Z" fill="white"/>
<path d="M44.2226 63.5911C43.4425 63.5911 42.6623 63.6067 41.89 63.5911C41.1021 63.5756 40.7589 63.2177 40.7511 62.3696C40.7355 60.6579 40.7355 58.9462 40.7511 57.2267C40.7589 56.3786 41.0943 55.9973 41.8744 55.9818C43.4503 55.9584 45.0261 55.9662 46.6098 55.9818C47.3899 55.9896 47.7487 56.3786 47.7565 57.2111C47.7722 58.9228 47.7722 60.6345 47.7565 62.354C47.7487 63.2021 47.3976 63.5756 46.6175 63.5911C45.8218 63.6067 45.0261 63.5911 44.2226 63.5911ZM45.7516 61.4359C45.7516 60.3078 45.7516 59.2496 45.7516 58.1525C44.7374 58.1525 43.7623 58.1525 42.7716 58.1525C42.7716 59.2652 42.7716 60.3311 42.7716 61.4359C43.7779 61.4359 44.7374 61.4359 45.7516 61.4359Z" fill="white"/>
</svg>
